%
M48
M72
T01C0.02362
T02C0.03150
T03C0.04000
T04C0.04100
T05C0.04600
T06C0.11024
%
T01
X83663Y91150
X66163Y37400
X143663Y143650
X158663Y143650
X113663Y151150
T02
X133840Y12076
X133840Y22076
X133840Y32076
X133840Y42076
X133840Y52076
X133840Y62076
X133840Y72076
X133840Y82076
X133840Y92076
X133840Y102076
X133840Y112076
X133840Y122076
X133840Y132076
X133840Y142076
X133840Y152076
X105277Y124576
X97403Y124576
X73840Y122076
X73840Y132076
X73840Y142076
X73840Y152076
X73840Y112076
X73840Y102076
X73840Y92076
X73840Y82076
X73840Y72076
X73840Y62076
X73840Y52076
X73840Y42076
X73840Y32076
X73840Y22076
X73840Y12076
X97029Y61013
X104903Y61013
T03
X179146Y29492
X179146Y39492
X169136Y39610
X168840Y49576
X158840Y49576
X159008Y39704
X159008Y29704
X169136Y29610
X178840Y49576
X178840Y59576
X168840Y59576
X158840Y59576
X158840Y69576
X158840Y79576
X158840Y89576
X158840Y99576
X158840Y109576
X158840Y119576
X168840Y119576
X168840Y109576
X168840Y99576
X168840Y89576
X168840Y79576
X168840Y69576
X178840Y69576
X178840Y79576
X178840Y89576
X178840Y99576
X178840Y109576
X178840Y119576
X137777Y189576
X127777Y189576
X101340Y189576
X91340Y189576
X81340Y189576
X81340Y179576
X91340Y179576
X101340Y179576
X48840Y172076
X38840Y172076
X28840Y172076
X18840Y172076
X18653Y143513
X28653Y143513
X38653Y143513
X48653Y143513
X48840Y117076
X38840Y117076
X28840Y117076
X18840Y117076
X18840Y87076
X28840Y87076
X38840Y87076
X48840Y87076
X48840Y58513
X38840Y58513
X28840Y58513
X18840Y58513
X18840Y32076
X28840Y32076
X38840Y32076
X48840Y32076
T04
X118840Y132076
X118840Y167076
T05
X168466Y148296
X168466Y167981
T06
X188821Y11643
X11655Y11643
X11655Y188808
X188821Y188808
M30
