G75*
%MOIN*%
%OFA0B0*%
%FSLAX25Y25*%
%IPPOS*%
%LPD*%
%AMOC8*
5,1,8,0,0,1.08239X$1,22.5*
%
%ADD10C,0.00000*%
%ADD11C,0.01100*%
%ADD12C,0.01000*%
%ADD13C,0.00600*%
%ADD14C,0.03200*%
D10*
X0112531Y0165186D02*
X0112533Y0165334D01*
X0112539Y0165482D01*
X0112549Y0165630D01*
X0112563Y0165777D01*
X0112581Y0165924D01*
X0112602Y0166070D01*
X0112628Y0166216D01*
X0112658Y0166361D01*
X0112691Y0166505D01*
X0112729Y0166648D01*
X0112770Y0166790D01*
X0112815Y0166931D01*
X0112863Y0167071D01*
X0112916Y0167210D01*
X0112972Y0167347D01*
X0113032Y0167482D01*
X0113095Y0167616D01*
X0113162Y0167748D01*
X0113233Y0167878D01*
X0113307Y0168006D01*
X0113384Y0168132D01*
X0113465Y0168256D01*
X0113549Y0168378D01*
X0113636Y0168497D01*
X0113727Y0168614D01*
X0113821Y0168729D01*
X0113917Y0168841D01*
X0114017Y0168951D01*
X0114119Y0169057D01*
X0114225Y0169161D01*
X0114333Y0169262D01*
X0114444Y0169360D01*
X0114557Y0169456D01*
X0114673Y0169548D01*
X0114791Y0169637D01*
X0114912Y0169722D01*
X0115035Y0169805D01*
X0115160Y0169884D01*
X0115287Y0169960D01*
X0115416Y0170032D01*
X0115547Y0170101D01*
X0115680Y0170166D01*
X0115815Y0170227D01*
X0115951Y0170285D01*
X0116088Y0170340D01*
X0116227Y0170390D01*
X0116368Y0170437D01*
X0116509Y0170480D01*
X0116652Y0170520D01*
X0116796Y0170555D01*
X0116940Y0170587D01*
X0117086Y0170614D01*
X0117232Y0170638D01*
X0117379Y0170658D01*
X0117526Y0170674D01*
X0117673Y0170686D01*
X0117821Y0170694D01*
X0117969Y0170698D01*
X0118117Y0170698D01*
X0118265Y0170694D01*
X0118413Y0170686D01*
X0118560Y0170674D01*
X0118707Y0170658D01*
X0118854Y0170638D01*
X0119000Y0170614D01*
X0119146Y0170587D01*
X0119290Y0170555D01*
X0119434Y0170520D01*
X0119577Y0170480D01*
X0119718Y0170437D01*
X0119859Y0170390D01*
X0119998Y0170340D01*
X0120135Y0170285D01*
X0120271Y0170227D01*
X0120406Y0170166D01*
X0120539Y0170101D01*
X0120670Y0170032D01*
X0120799Y0169960D01*
X0120926Y0169884D01*
X0121051Y0169805D01*
X0121174Y0169722D01*
X0121295Y0169637D01*
X0121413Y0169548D01*
X0121529Y0169456D01*
X0121642Y0169360D01*
X0121753Y0169262D01*
X0121861Y0169161D01*
X0121967Y0169057D01*
X0122069Y0168951D01*
X0122169Y0168841D01*
X0122265Y0168729D01*
X0122359Y0168614D01*
X0122450Y0168497D01*
X0122537Y0168378D01*
X0122621Y0168256D01*
X0122702Y0168132D01*
X0122779Y0168006D01*
X0122853Y0167878D01*
X0122924Y0167748D01*
X0122991Y0167616D01*
X0123054Y0167482D01*
X0123114Y0167347D01*
X0123170Y0167210D01*
X0123223Y0167071D01*
X0123271Y0166931D01*
X0123316Y0166790D01*
X0123357Y0166648D01*
X0123395Y0166505D01*
X0123428Y0166361D01*
X0123458Y0166216D01*
X0123484Y0166070D01*
X0123505Y0165924D01*
X0123523Y0165777D01*
X0123537Y0165630D01*
X0123547Y0165482D01*
X0123553Y0165334D01*
X0123555Y0165186D01*
X0123553Y0165038D01*
X0123547Y0164890D01*
X0123537Y0164742D01*
X0123523Y0164595D01*
X0123505Y0164448D01*
X0123484Y0164302D01*
X0123458Y0164156D01*
X0123428Y0164011D01*
X0123395Y0163867D01*
X0123357Y0163724D01*
X0123316Y0163582D01*
X0123271Y0163441D01*
X0123223Y0163301D01*
X0123170Y0163162D01*
X0123114Y0163025D01*
X0123054Y0162890D01*
X0122991Y0162756D01*
X0122924Y0162624D01*
X0122853Y0162494D01*
X0122779Y0162366D01*
X0122702Y0162240D01*
X0122621Y0162116D01*
X0122537Y0161994D01*
X0122450Y0161875D01*
X0122359Y0161758D01*
X0122265Y0161643D01*
X0122169Y0161531D01*
X0122069Y0161421D01*
X0121967Y0161315D01*
X0121861Y0161211D01*
X0121753Y0161110D01*
X0121642Y0161012D01*
X0121529Y0160916D01*
X0121413Y0160824D01*
X0121295Y0160735D01*
X0121174Y0160650D01*
X0121051Y0160567D01*
X0120926Y0160488D01*
X0120799Y0160412D01*
X0120670Y0160340D01*
X0120539Y0160271D01*
X0120406Y0160206D01*
X0120271Y0160145D01*
X0120135Y0160087D01*
X0119998Y0160032D01*
X0119859Y0159982D01*
X0119718Y0159935D01*
X0119577Y0159892D01*
X0119434Y0159852D01*
X0119290Y0159817D01*
X0119146Y0159785D01*
X0119000Y0159758D01*
X0118854Y0159734D01*
X0118707Y0159714D01*
X0118560Y0159698D01*
X0118413Y0159686D01*
X0118265Y0159678D01*
X0118117Y0159674D01*
X0117969Y0159674D01*
X0117821Y0159678D01*
X0117673Y0159686D01*
X0117526Y0159698D01*
X0117379Y0159714D01*
X0117232Y0159734D01*
X0117086Y0159758D01*
X0116940Y0159785D01*
X0116796Y0159817D01*
X0116652Y0159852D01*
X0116509Y0159892D01*
X0116368Y0159935D01*
X0116227Y0159982D01*
X0116088Y0160032D01*
X0115951Y0160087D01*
X0115815Y0160145D01*
X0115680Y0160206D01*
X0115547Y0160271D01*
X0115416Y0160340D01*
X0115287Y0160412D01*
X0115160Y0160488D01*
X0115035Y0160567D01*
X0114912Y0160650D01*
X0114791Y0160735D01*
X0114673Y0160824D01*
X0114557Y0160916D01*
X0114444Y0161012D01*
X0114333Y0161110D01*
X0114225Y0161211D01*
X0114119Y0161315D01*
X0114017Y0161421D01*
X0113917Y0161531D01*
X0113821Y0161643D01*
X0113727Y0161758D01*
X0113636Y0161875D01*
X0113549Y0161994D01*
X0113465Y0162116D01*
X0113384Y0162240D01*
X0113307Y0162366D01*
X0113233Y0162494D01*
X0113162Y0162624D01*
X0113095Y0162756D01*
X0113032Y0162890D01*
X0112972Y0163025D01*
X0112916Y0163162D01*
X0112863Y0163301D01*
X0112815Y0163441D01*
X0112770Y0163582D01*
X0112729Y0163724D01*
X0112691Y0163867D01*
X0112658Y0164011D01*
X0112628Y0164156D01*
X0112602Y0164302D01*
X0112581Y0164448D01*
X0112563Y0164595D01*
X0112549Y0164742D01*
X0112539Y0164890D01*
X0112533Y0165038D01*
X0112531Y0165186D01*
X0112531Y0342351D02*
X0112533Y0342499D01*
X0112539Y0342647D01*
X0112549Y0342795D01*
X0112563Y0342942D01*
X0112581Y0343089D01*
X0112602Y0343235D01*
X0112628Y0343381D01*
X0112658Y0343526D01*
X0112691Y0343670D01*
X0112729Y0343813D01*
X0112770Y0343955D01*
X0112815Y0344096D01*
X0112863Y0344236D01*
X0112916Y0344375D01*
X0112972Y0344512D01*
X0113032Y0344647D01*
X0113095Y0344781D01*
X0113162Y0344913D01*
X0113233Y0345043D01*
X0113307Y0345171D01*
X0113384Y0345297D01*
X0113465Y0345421D01*
X0113549Y0345543D01*
X0113636Y0345662D01*
X0113727Y0345779D01*
X0113821Y0345894D01*
X0113917Y0346006D01*
X0114017Y0346116D01*
X0114119Y0346222D01*
X0114225Y0346326D01*
X0114333Y0346427D01*
X0114444Y0346525D01*
X0114557Y0346621D01*
X0114673Y0346713D01*
X0114791Y0346802D01*
X0114912Y0346887D01*
X0115035Y0346970D01*
X0115160Y0347049D01*
X0115287Y0347125D01*
X0115416Y0347197D01*
X0115547Y0347266D01*
X0115680Y0347331D01*
X0115815Y0347392D01*
X0115951Y0347450D01*
X0116088Y0347505D01*
X0116227Y0347555D01*
X0116368Y0347602D01*
X0116509Y0347645D01*
X0116652Y0347685D01*
X0116796Y0347720D01*
X0116940Y0347752D01*
X0117086Y0347779D01*
X0117232Y0347803D01*
X0117379Y0347823D01*
X0117526Y0347839D01*
X0117673Y0347851D01*
X0117821Y0347859D01*
X0117969Y0347863D01*
X0118117Y0347863D01*
X0118265Y0347859D01*
X0118413Y0347851D01*
X0118560Y0347839D01*
X0118707Y0347823D01*
X0118854Y0347803D01*
X0119000Y0347779D01*
X0119146Y0347752D01*
X0119290Y0347720D01*
X0119434Y0347685D01*
X0119577Y0347645D01*
X0119718Y0347602D01*
X0119859Y0347555D01*
X0119998Y0347505D01*
X0120135Y0347450D01*
X0120271Y0347392D01*
X0120406Y0347331D01*
X0120539Y0347266D01*
X0120670Y0347197D01*
X0120799Y0347125D01*
X0120926Y0347049D01*
X0121051Y0346970D01*
X0121174Y0346887D01*
X0121295Y0346802D01*
X0121413Y0346713D01*
X0121529Y0346621D01*
X0121642Y0346525D01*
X0121753Y0346427D01*
X0121861Y0346326D01*
X0121967Y0346222D01*
X0122069Y0346116D01*
X0122169Y0346006D01*
X0122265Y0345894D01*
X0122359Y0345779D01*
X0122450Y0345662D01*
X0122537Y0345543D01*
X0122621Y0345421D01*
X0122702Y0345297D01*
X0122779Y0345171D01*
X0122853Y0345043D01*
X0122924Y0344913D01*
X0122991Y0344781D01*
X0123054Y0344647D01*
X0123114Y0344512D01*
X0123170Y0344375D01*
X0123223Y0344236D01*
X0123271Y0344096D01*
X0123316Y0343955D01*
X0123357Y0343813D01*
X0123395Y0343670D01*
X0123428Y0343526D01*
X0123458Y0343381D01*
X0123484Y0343235D01*
X0123505Y0343089D01*
X0123523Y0342942D01*
X0123537Y0342795D01*
X0123547Y0342647D01*
X0123553Y0342499D01*
X0123555Y0342351D01*
X0123553Y0342203D01*
X0123547Y0342055D01*
X0123537Y0341907D01*
X0123523Y0341760D01*
X0123505Y0341613D01*
X0123484Y0341467D01*
X0123458Y0341321D01*
X0123428Y0341176D01*
X0123395Y0341032D01*
X0123357Y0340889D01*
X0123316Y0340747D01*
X0123271Y0340606D01*
X0123223Y0340466D01*
X0123170Y0340327D01*
X0123114Y0340190D01*
X0123054Y0340055D01*
X0122991Y0339921D01*
X0122924Y0339789D01*
X0122853Y0339659D01*
X0122779Y0339531D01*
X0122702Y0339405D01*
X0122621Y0339281D01*
X0122537Y0339159D01*
X0122450Y0339040D01*
X0122359Y0338923D01*
X0122265Y0338808D01*
X0122169Y0338696D01*
X0122069Y0338586D01*
X0121967Y0338480D01*
X0121861Y0338376D01*
X0121753Y0338275D01*
X0121642Y0338177D01*
X0121529Y0338081D01*
X0121413Y0337989D01*
X0121295Y0337900D01*
X0121174Y0337815D01*
X0121051Y0337732D01*
X0120926Y0337653D01*
X0120799Y0337577D01*
X0120670Y0337505D01*
X0120539Y0337436D01*
X0120406Y0337371D01*
X0120271Y0337310D01*
X0120135Y0337252D01*
X0119998Y0337197D01*
X0119859Y0337147D01*
X0119718Y0337100D01*
X0119577Y0337057D01*
X0119434Y0337017D01*
X0119290Y0336982D01*
X0119146Y0336950D01*
X0119000Y0336923D01*
X0118854Y0336899D01*
X0118707Y0336879D01*
X0118560Y0336863D01*
X0118413Y0336851D01*
X0118265Y0336843D01*
X0118117Y0336839D01*
X0117969Y0336839D01*
X0117821Y0336843D01*
X0117673Y0336851D01*
X0117526Y0336863D01*
X0117379Y0336879D01*
X0117232Y0336899D01*
X0117086Y0336923D01*
X0116940Y0336950D01*
X0116796Y0336982D01*
X0116652Y0337017D01*
X0116509Y0337057D01*
X0116368Y0337100D01*
X0116227Y0337147D01*
X0116088Y0337197D01*
X0115951Y0337252D01*
X0115815Y0337310D01*
X0115680Y0337371D01*
X0115547Y0337436D01*
X0115416Y0337505D01*
X0115287Y0337577D01*
X0115160Y0337653D01*
X0115035Y0337732D01*
X0114912Y0337815D01*
X0114791Y0337900D01*
X0114673Y0337989D01*
X0114557Y0338081D01*
X0114444Y0338177D01*
X0114333Y0338275D01*
X0114225Y0338376D01*
X0114119Y0338480D01*
X0114017Y0338586D01*
X0113917Y0338696D01*
X0113821Y0338808D01*
X0113727Y0338923D01*
X0113636Y0339040D01*
X0113549Y0339159D01*
X0113465Y0339281D01*
X0113384Y0339405D01*
X0113307Y0339531D01*
X0113233Y0339659D01*
X0113162Y0339789D01*
X0113095Y0339921D01*
X0113032Y0340055D01*
X0112972Y0340190D01*
X0112916Y0340327D01*
X0112863Y0340466D01*
X0112815Y0340606D01*
X0112770Y0340747D01*
X0112729Y0340889D01*
X0112691Y0341032D01*
X0112658Y0341176D01*
X0112628Y0341321D01*
X0112602Y0341467D01*
X0112581Y0341613D01*
X0112563Y0341760D01*
X0112549Y0341907D01*
X0112539Y0342055D01*
X0112533Y0342203D01*
X0112531Y0342351D01*
X0112531Y0362036D02*
X0112533Y0362184D01*
X0112539Y0362332D01*
X0112549Y0362480D01*
X0112563Y0362627D01*
X0112581Y0362774D01*
X0112602Y0362920D01*
X0112628Y0363066D01*
X0112658Y0363211D01*
X0112691Y0363355D01*
X0112729Y0363498D01*
X0112770Y0363640D01*
X0112815Y0363781D01*
X0112863Y0363921D01*
X0112916Y0364060D01*
X0112972Y0364197D01*
X0113032Y0364332D01*
X0113095Y0364466D01*
X0113162Y0364598D01*
X0113233Y0364728D01*
X0113307Y0364856D01*
X0113384Y0364982D01*
X0113465Y0365106D01*
X0113549Y0365228D01*
X0113636Y0365347D01*
X0113727Y0365464D01*
X0113821Y0365579D01*
X0113917Y0365691D01*
X0114017Y0365801D01*
X0114119Y0365907D01*
X0114225Y0366011D01*
X0114333Y0366112D01*
X0114444Y0366210D01*
X0114557Y0366306D01*
X0114673Y0366398D01*
X0114791Y0366487D01*
X0114912Y0366572D01*
X0115035Y0366655D01*
X0115160Y0366734D01*
X0115287Y0366810D01*
X0115416Y0366882D01*
X0115547Y0366951D01*
X0115680Y0367016D01*
X0115815Y0367077D01*
X0115951Y0367135D01*
X0116088Y0367190D01*
X0116227Y0367240D01*
X0116368Y0367287D01*
X0116509Y0367330D01*
X0116652Y0367370D01*
X0116796Y0367405D01*
X0116940Y0367437D01*
X0117086Y0367464D01*
X0117232Y0367488D01*
X0117379Y0367508D01*
X0117526Y0367524D01*
X0117673Y0367536D01*
X0117821Y0367544D01*
X0117969Y0367548D01*
X0118117Y0367548D01*
X0118265Y0367544D01*
X0118413Y0367536D01*
X0118560Y0367524D01*
X0118707Y0367508D01*
X0118854Y0367488D01*
X0119000Y0367464D01*
X0119146Y0367437D01*
X0119290Y0367405D01*
X0119434Y0367370D01*
X0119577Y0367330D01*
X0119718Y0367287D01*
X0119859Y0367240D01*
X0119998Y0367190D01*
X0120135Y0367135D01*
X0120271Y0367077D01*
X0120406Y0367016D01*
X0120539Y0366951D01*
X0120670Y0366882D01*
X0120799Y0366810D01*
X0120926Y0366734D01*
X0121051Y0366655D01*
X0121174Y0366572D01*
X0121295Y0366487D01*
X0121413Y0366398D01*
X0121529Y0366306D01*
X0121642Y0366210D01*
X0121753Y0366112D01*
X0121861Y0366011D01*
X0121967Y0365907D01*
X0122069Y0365801D01*
X0122169Y0365691D01*
X0122265Y0365579D01*
X0122359Y0365464D01*
X0122450Y0365347D01*
X0122537Y0365228D01*
X0122621Y0365106D01*
X0122702Y0364982D01*
X0122779Y0364856D01*
X0122853Y0364728D01*
X0122924Y0364598D01*
X0122991Y0364466D01*
X0123054Y0364332D01*
X0123114Y0364197D01*
X0123170Y0364060D01*
X0123223Y0363921D01*
X0123271Y0363781D01*
X0123316Y0363640D01*
X0123357Y0363498D01*
X0123395Y0363355D01*
X0123428Y0363211D01*
X0123458Y0363066D01*
X0123484Y0362920D01*
X0123505Y0362774D01*
X0123523Y0362627D01*
X0123537Y0362480D01*
X0123547Y0362332D01*
X0123553Y0362184D01*
X0123555Y0362036D01*
X0123553Y0361888D01*
X0123547Y0361740D01*
X0123537Y0361592D01*
X0123523Y0361445D01*
X0123505Y0361298D01*
X0123484Y0361152D01*
X0123458Y0361006D01*
X0123428Y0360861D01*
X0123395Y0360717D01*
X0123357Y0360574D01*
X0123316Y0360432D01*
X0123271Y0360291D01*
X0123223Y0360151D01*
X0123170Y0360012D01*
X0123114Y0359875D01*
X0123054Y0359740D01*
X0122991Y0359606D01*
X0122924Y0359474D01*
X0122853Y0359344D01*
X0122779Y0359216D01*
X0122702Y0359090D01*
X0122621Y0358966D01*
X0122537Y0358844D01*
X0122450Y0358725D01*
X0122359Y0358608D01*
X0122265Y0358493D01*
X0122169Y0358381D01*
X0122069Y0358271D01*
X0121967Y0358165D01*
X0121861Y0358061D01*
X0121753Y0357960D01*
X0121642Y0357862D01*
X0121529Y0357766D01*
X0121413Y0357674D01*
X0121295Y0357585D01*
X0121174Y0357500D01*
X0121051Y0357417D01*
X0120926Y0357338D01*
X0120799Y0357262D01*
X0120670Y0357190D01*
X0120539Y0357121D01*
X0120406Y0357056D01*
X0120271Y0356995D01*
X0120135Y0356937D01*
X0119998Y0356882D01*
X0119859Y0356832D01*
X0119718Y0356785D01*
X0119577Y0356742D01*
X0119434Y0356702D01*
X0119290Y0356667D01*
X0119146Y0356635D01*
X0119000Y0356608D01*
X0118854Y0356584D01*
X0118707Y0356564D01*
X0118560Y0356548D01*
X0118413Y0356536D01*
X0118265Y0356528D01*
X0118117Y0356524D01*
X0117969Y0356524D01*
X0117821Y0356528D01*
X0117673Y0356536D01*
X0117526Y0356548D01*
X0117379Y0356564D01*
X0117232Y0356584D01*
X0117086Y0356608D01*
X0116940Y0356635D01*
X0116796Y0356667D01*
X0116652Y0356702D01*
X0116509Y0356742D01*
X0116368Y0356785D01*
X0116227Y0356832D01*
X0116088Y0356882D01*
X0115951Y0356937D01*
X0115815Y0356995D01*
X0115680Y0357056D01*
X0115547Y0357121D01*
X0115416Y0357190D01*
X0115287Y0357262D01*
X0115160Y0357338D01*
X0115035Y0357417D01*
X0114912Y0357500D01*
X0114791Y0357585D01*
X0114673Y0357674D01*
X0114557Y0357766D01*
X0114444Y0357862D01*
X0114333Y0357960D01*
X0114225Y0358061D01*
X0114119Y0358165D01*
X0114017Y0358271D01*
X0113917Y0358381D01*
X0113821Y0358493D01*
X0113727Y0358608D01*
X0113636Y0358725D01*
X0113549Y0358844D01*
X0113465Y0358966D01*
X0113384Y0359090D01*
X0113307Y0359216D01*
X0113233Y0359344D01*
X0113162Y0359474D01*
X0113095Y0359606D01*
X0113032Y0359740D01*
X0112972Y0359875D01*
X0112916Y0360012D01*
X0112863Y0360151D01*
X0112815Y0360291D01*
X0112770Y0360432D01*
X0112729Y0360574D01*
X0112691Y0360717D01*
X0112658Y0360861D01*
X0112628Y0361006D01*
X0112602Y0361152D01*
X0112581Y0361298D01*
X0112563Y0361445D01*
X0112549Y0361592D01*
X0112539Y0361740D01*
X0112533Y0361888D01*
X0112531Y0362036D01*
X0112531Y0539202D02*
X0112533Y0539350D01*
X0112539Y0539498D01*
X0112549Y0539646D01*
X0112563Y0539793D01*
X0112581Y0539940D01*
X0112602Y0540086D01*
X0112628Y0540232D01*
X0112658Y0540377D01*
X0112691Y0540521D01*
X0112729Y0540664D01*
X0112770Y0540806D01*
X0112815Y0540947D01*
X0112863Y0541087D01*
X0112916Y0541226D01*
X0112972Y0541363D01*
X0113032Y0541498D01*
X0113095Y0541632D01*
X0113162Y0541764D01*
X0113233Y0541894D01*
X0113307Y0542022D01*
X0113384Y0542148D01*
X0113465Y0542272D01*
X0113549Y0542394D01*
X0113636Y0542513D01*
X0113727Y0542630D01*
X0113821Y0542745D01*
X0113917Y0542857D01*
X0114017Y0542967D01*
X0114119Y0543073D01*
X0114225Y0543177D01*
X0114333Y0543278D01*
X0114444Y0543376D01*
X0114557Y0543472D01*
X0114673Y0543564D01*
X0114791Y0543653D01*
X0114912Y0543738D01*
X0115035Y0543821D01*
X0115160Y0543900D01*
X0115287Y0543976D01*
X0115416Y0544048D01*
X0115547Y0544117D01*
X0115680Y0544182D01*
X0115815Y0544243D01*
X0115951Y0544301D01*
X0116088Y0544356D01*
X0116227Y0544406D01*
X0116368Y0544453D01*
X0116509Y0544496D01*
X0116652Y0544536D01*
X0116796Y0544571D01*
X0116940Y0544603D01*
X0117086Y0544630D01*
X0117232Y0544654D01*
X0117379Y0544674D01*
X0117526Y0544690D01*
X0117673Y0544702D01*
X0117821Y0544710D01*
X0117969Y0544714D01*
X0118117Y0544714D01*
X0118265Y0544710D01*
X0118413Y0544702D01*
X0118560Y0544690D01*
X0118707Y0544674D01*
X0118854Y0544654D01*
X0119000Y0544630D01*
X0119146Y0544603D01*
X0119290Y0544571D01*
X0119434Y0544536D01*
X0119577Y0544496D01*
X0119718Y0544453D01*
X0119859Y0544406D01*
X0119998Y0544356D01*
X0120135Y0544301D01*
X0120271Y0544243D01*
X0120406Y0544182D01*
X0120539Y0544117D01*
X0120670Y0544048D01*
X0120799Y0543976D01*
X0120926Y0543900D01*
X0121051Y0543821D01*
X0121174Y0543738D01*
X0121295Y0543653D01*
X0121413Y0543564D01*
X0121529Y0543472D01*
X0121642Y0543376D01*
X0121753Y0543278D01*
X0121861Y0543177D01*
X0121967Y0543073D01*
X0122069Y0542967D01*
X0122169Y0542857D01*
X0122265Y0542745D01*
X0122359Y0542630D01*
X0122450Y0542513D01*
X0122537Y0542394D01*
X0122621Y0542272D01*
X0122702Y0542148D01*
X0122779Y0542022D01*
X0122853Y0541894D01*
X0122924Y0541764D01*
X0122991Y0541632D01*
X0123054Y0541498D01*
X0123114Y0541363D01*
X0123170Y0541226D01*
X0123223Y0541087D01*
X0123271Y0540947D01*
X0123316Y0540806D01*
X0123357Y0540664D01*
X0123395Y0540521D01*
X0123428Y0540377D01*
X0123458Y0540232D01*
X0123484Y0540086D01*
X0123505Y0539940D01*
X0123523Y0539793D01*
X0123537Y0539646D01*
X0123547Y0539498D01*
X0123553Y0539350D01*
X0123555Y0539202D01*
X0123553Y0539054D01*
X0123547Y0538906D01*
X0123537Y0538758D01*
X0123523Y0538611D01*
X0123505Y0538464D01*
X0123484Y0538318D01*
X0123458Y0538172D01*
X0123428Y0538027D01*
X0123395Y0537883D01*
X0123357Y0537740D01*
X0123316Y0537598D01*
X0123271Y0537457D01*
X0123223Y0537317D01*
X0123170Y0537178D01*
X0123114Y0537041D01*
X0123054Y0536906D01*
X0122991Y0536772D01*
X0122924Y0536640D01*
X0122853Y0536510D01*
X0122779Y0536382D01*
X0122702Y0536256D01*
X0122621Y0536132D01*
X0122537Y0536010D01*
X0122450Y0535891D01*
X0122359Y0535774D01*
X0122265Y0535659D01*
X0122169Y0535547D01*
X0122069Y0535437D01*
X0121967Y0535331D01*
X0121861Y0535227D01*
X0121753Y0535126D01*
X0121642Y0535028D01*
X0121529Y0534932D01*
X0121413Y0534840D01*
X0121295Y0534751D01*
X0121174Y0534666D01*
X0121051Y0534583D01*
X0120926Y0534504D01*
X0120799Y0534428D01*
X0120670Y0534356D01*
X0120539Y0534287D01*
X0120406Y0534222D01*
X0120271Y0534161D01*
X0120135Y0534103D01*
X0119998Y0534048D01*
X0119859Y0533998D01*
X0119718Y0533951D01*
X0119577Y0533908D01*
X0119434Y0533868D01*
X0119290Y0533833D01*
X0119146Y0533801D01*
X0119000Y0533774D01*
X0118854Y0533750D01*
X0118707Y0533730D01*
X0118560Y0533714D01*
X0118413Y0533702D01*
X0118265Y0533694D01*
X0118117Y0533690D01*
X0117969Y0533690D01*
X0117821Y0533694D01*
X0117673Y0533702D01*
X0117526Y0533714D01*
X0117379Y0533730D01*
X0117232Y0533750D01*
X0117086Y0533774D01*
X0116940Y0533801D01*
X0116796Y0533833D01*
X0116652Y0533868D01*
X0116509Y0533908D01*
X0116368Y0533951D01*
X0116227Y0533998D01*
X0116088Y0534048D01*
X0115951Y0534103D01*
X0115815Y0534161D01*
X0115680Y0534222D01*
X0115547Y0534287D01*
X0115416Y0534356D01*
X0115287Y0534428D01*
X0115160Y0534504D01*
X0115035Y0534583D01*
X0114912Y0534666D01*
X0114791Y0534751D01*
X0114673Y0534840D01*
X0114557Y0534932D01*
X0114444Y0535028D01*
X0114333Y0535126D01*
X0114225Y0535227D01*
X0114119Y0535331D01*
X0114017Y0535437D01*
X0113917Y0535547D01*
X0113821Y0535659D01*
X0113727Y0535774D01*
X0113636Y0535891D01*
X0113549Y0536010D01*
X0113465Y0536132D01*
X0113384Y0536256D01*
X0113307Y0536382D01*
X0113233Y0536510D01*
X0113162Y0536640D01*
X0113095Y0536772D01*
X0113032Y0536906D01*
X0112972Y0537041D01*
X0112916Y0537178D01*
X0112863Y0537317D01*
X0112815Y0537457D01*
X0112770Y0537598D01*
X0112729Y0537740D01*
X0112691Y0537883D01*
X0112658Y0538027D01*
X0112628Y0538172D01*
X0112602Y0538318D01*
X0112581Y0538464D01*
X0112563Y0538611D01*
X0112549Y0538758D01*
X0112539Y0538906D01*
X0112533Y0539054D01*
X0112531Y0539202D01*
X0289696Y0539202D02*
X0289698Y0539350D01*
X0289704Y0539498D01*
X0289714Y0539646D01*
X0289728Y0539793D01*
X0289746Y0539940D01*
X0289767Y0540086D01*
X0289793Y0540232D01*
X0289823Y0540377D01*
X0289856Y0540521D01*
X0289894Y0540664D01*
X0289935Y0540806D01*
X0289980Y0540947D01*
X0290028Y0541087D01*
X0290081Y0541226D01*
X0290137Y0541363D01*
X0290197Y0541498D01*
X0290260Y0541632D01*
X0290327Y0541764D01*
X0290398Y0541894D01*
X0290472Y0542022D01*
X0290549Y0542148D01*
X0290630Y0542272D01*
X0290714Y0542394D01*
X0290801Y0542513D01*
X0290892Y0542630D01*
X0290986Y0542745D01*
X0291082Y0542857D01*
X0291182Y0542967D01*
X0291284Y0543073D01*
X0291390Y0543177D01*
X0291498Y0543278D01*
X0291609Y0543376D01*
X0291722Y0543472D01*
X0291838Y0543564D01*
X0291956Y0543653D01*
X0292077Y0543738D01*
X0292200Y0543821D01*
X0292325Y0543900D01*
X0292452Y0543976D01*
X0292581Y0544048D01*
X0292712Y0544117D01*
X0292845Y0544182D01*
X0292980Y0544243D01*
X0293116Y0544301D01*
X0293253Y0544356D01*
X0293392Y0544406D01*
X0293533Y0544453D01*
X0293674Y0544496D01*
X0293817Y0544536D01*
X0293961Y0544571D01*
X0294105Y0544603D01*
X0294251Y0544630D01*
X0294397Y0544654D01*
X0294544Y0544674D01*
X0294691Y0544690D01*
X0294838Y0544702D01*
X0294986Y0544710D01*
X0295134Y0544714D01*
X0295282Y0544714D01*
X0295430Y0544710D01*
X0295578Y0544702D01*
X0295725Y0544690D01*
X0295872Y0544674D01*
X0296019Y0544654D01*
X0296165Y0544630D01*
X0296311Y0544603D01*
X0296455Y0544571D01*
X0296599Y0544536D01*
X0296742Y0544496D01*
X0296883Y0544453D01*
X0297024Y0544406D01*
X0297163Y0544356D01*
X0297300Y0544301D01*
X0297436Y0544243D01*
X0297571Y0544182D01*
X0297704Y0544117D01*
X0297835Y0544048D01*
X0297964Y0543976D01*
X0298091Y0543900D01*
X0298216Y0543821D01*
X0298339Y0543738D01*
X0298460Y0543653D01*
X0298578Y0543564D01*
X0298694Y0543472D01*
X0298807Y0543376D01*
X0298918Y0543278D01*
X0299026Y0543177D01*
X0299132Y0543073D01*
X0299234Y0542967D01*
X0299334Y0542857D01*
X0299430Y0542745D01*
X0299524Y0542630D01*
X0299615Y0542513D01*
X0299702Y0542394D01*
X0299786Y0542272D01*
X0299867Y0542148D01*
X0299944Y0542022D01*
X0300018Y0541894D01*
X0300089Y0541764D01*
X0300156Y0541632D01*
X0300219Y0541498D01*
X0300279Y0541363D01*
X0300335Y0541226D01*
X0300388Y0541087D01*
X0300436Y0540947D01*
X0300481Y0540806D01*
X0300522Y0540664D01*
X0300560Y0540521D01*
X0300593Y0540377D01*
X0300623Y0540232D01*
X0300649Y0540086D01*
X0300670Y0539940D01*
X0300688Y0539793D01*
X0300702Y0539646D01*
X0300712Y0539498D01*
X0300718Y0539350D01*
X0300720Y0539202D01*
X0300718Y0539054D01*
X0300712Y0538906D01*
X0300702Y0538758D01*
X0300688Y0538611D01*
X0300670Y0538464D01*
X0300649Y0538318D01*
X0300623Y0538172D01*
X0300593Y0538027D01*
X0300560Y0537883D01*
X0300522Y0537740D01*
X0300481Y0537598D01*
X0300436Y0537457D01*
X0300388Y0537317D01*
X0300335Y0537178D01*
X0300279Y0537041D01*
X0300219Y0536906D01*
X0300156Y0536772D01*
X0300089Y0536640D01*
X0300018Y0536510D01*
X0299944Y0536382D01*
X0299867Y0536256D01*
X0299786Y0536132D01*
X0299702Y0536010D01*
X0299615Y0535891D01*
X0299524Y0535774D01*
X0299430Y0535659D01*
X0299334Y0535547D01*
X0299234Y0535437D01*
X0299132Y0535331D01*
X0299026Y0535227D01*
X0298918Y0535126D01*
X0298807Y0535028D01*
X0298694Y0534932D01*
X0298578Y0534840D01*
X0298460Y0534751D01*
X0298339Y0534666D01*
X0298216Y0534583D01*
X0298091Y0534504D01*
X0297964Y0534428D01*
X0297835Y0534356D01*
X0297704Y0534287D01*
X0297571Y0534222D01*
X0297436Y0534161D01*
X0297300Y0534103D01*
X0297163Y0534048D01*
X0297024Y0533998D01*
X0296883Y0533951D01*
X0296742Y0533908D01*
X0296599Y0533868D01*
X0296455Y0533833D01*
X0296311Y0533801D01*
X0296165Y0533774D01*
X0296019Y0533750D01*
X0295872Y0533730D01*
X0295725Y0533714D01*
X0295578Y0533702D01*
X0295430Y0533694D01*
X0295282Y0533690D01*
X0295134Y0533690D01*
X0294986Y0533694D01*
X0294838Y0533702D01*
X0294691Y0533714D01*
X0294544Y0533730D01*
X0294397Y0533750D01*
X0294251Y0533774D01*
X0294105Y0533801D01*
X0293961Y0533833D01*
X0293817Y0533868D01*
X0293674Y0533908D01*
X0293533Y0533951D01*
X0293392Y0533998D01*
X0293253Y0534048D01*
X0293116Y0534103D01*
X0292980Y0534161D01*
X0292845Y0534222D01*
X0292712Y0534287D01*
X0292581Y0534356D01*
X0292452Y0534428D01*
X0292325Y0534504D01*
X0292200Y0534583D01*
X0292077Y0534666D01*
X0291956Y0534751D01*
X0291838Y0534840D01*
X0291722Y0534932D01*
X0291609Y0535028D01*
X0291498Y0535126D01*
X0291390Y0535227D01*
X0291284Y0535331D01*
X0291182Y0535437D01*
X0291082Y0535547D01*
X0290986Y0535659D01*
X0290892Y0535774D01*
X0290801Y0535891D01*
X0290714Y0536010D01*
X0290630Y0536132D01*
X0290549Y0536256D01*
X0290472Y0536382D01*
X0290398Y0536510D01*
X0290327Y0536640D01*
X0290260Y0536772D01*
X0290197Y0536906D01*
X0290137Y0537041D01*
X0290081Y0537178D01*
X0290028Y0537317D01*
X0289980Y0537457D01*
X0289935Y0537598D01*
X0289894Y0537740D01*
X0289856Y0537883D01*
X0289823Y0538027D01*
X0289793Y0538172D01*
X0289767Y0538318D01*
X0289746Y0538464D01*
X0289728Y0538611D01*
X0289714Y0538758D01*
X0289704Y0538906D01*
X0289698Y0539054D01*
X0289696Y0539202D01*
X0309381Y0539202D02*
X0309383Y0539350D01*
X0309389Y0539498D01*
X0309399Y0539646D01*
X0309413Y0539793D01*
X0309431Y0539940D01*
X0309452Y0540086D01*
X0309478Y0540232D01*
X0309508Y0540377D01*
X0309541Y0540521D01*
X0309579Y0540664D01*
X0309620Y0540806D01*
X0309665Y0540947D01*
X0309713Y0541087D01*
X0309766Y0541226D01*
X0309822Y0541363D01*
X0309882Y0541498D01*
X0309945Y0541632D01*
X0310012Y0541764D01*
X0310083Y0541894D01*
X0310157Y0542022D01*
X0310234Y0542148D01*
X0310315Y0542272D01*
X0310399Y0542394D01*
X0310486Y0542513D01*
X0310577Y0542630D01*
X0310671Y0542745D01*
X0310767Y0542857D01*
X0310867Y0542967D01*
X0310969Y0543073D01*
X0311075Y0543177D01*
X0311183Y0543278D01*
X0311294Y0543376D01*
X0311407Y0543472D01*
X0311523Y0543564D01*
X0311641Y0543653D01*
X0311762Y0543738D01*
X0311885Y0543821D01*
X0312010Y0543900D01*
X0312137Y0543976D01*
X0312266Y0544048D01*
X0312397Y0544117D01*
X0312530Y0544182D01*
X0312665Y0544243D01*
X0312801Y0544301D01*
X0312938Y0544356D01*
X0313077Y0544406D01*
X0313218Y0544453D01*
X0313359Y0544496D01*
X0313502Y0544536D01*
X0313646Y0544571D01*
X0313790Y0544603D01*
X0313936Y0544630D01*
X0314082Y0544654D01*
X0314229Y0544674D01*
X0314376Y0544690D01*
X0314523Y0544702D01*
X0314671Y0544710D01*
X0314819Y0544714D01*
X0314967Y0544714D01*
X0315115Y0544710D01*
X0315263Y0544702D01*
X0315410Y0544690D01*
X0315557Y0544674D01*
X0315704Y0544654D01*
X0315850Y0544630D01*
X0315996Y0544603D01*
X0316140Y0544571D01*
X0316284Y0544536D01*
X0316427Y0544496D01*
X0316568Y0544453D01*
X0316709Y0544406D01*
X0316848Y0544356D01*
X0316985Y0544301D01*
X0317121Y0544243D01*
X0317256Y0544182D01*
X0317389Y0544117D01*
X0317520Y0544048D01*
X0317649Y0543976D01*
X0317776Y0543900D01*
X0317901Y0543821D01*
X0318024Y0543738D01*
X0318145Y0543653D01*
X0318263Y0543564D01*
X0318379Y0543472D01*
X0318492Y0543376D01*
X0318603Y0543278D01*
X0318711Y0543177D01*
X0318817Y0543073D01*
X0318919Y0542967D01*
X0319019Y0542857D01*
X0319115Y0542745D01*
X0319209Y0542630D01*
X0319300Y0542513D01*
X0319387Y0542394D01*
X0319471Y0542272D01*
X0319552Y0542148D01*
X0319629Y0542022D01*
X0319703Y0541894D01*
X0319774Y0541764D01*
X0319841Y0541632D01*
X0319904Y0541498D01*
X0319964Y0541363D01*
X0320020Y0541226D01*
X0320073Y0541087D01*
X0320121Y0540947D01*
X0320166Y0540806D01*
X0320207Y0540664D01*
X0320245Y0540521D01*
X0320278Y0540377D01*
X0320308Y0540232D01*
X0320334Y0540086D01*
X0320355Y0539940D01*
X0320373Y0539793D01*
X0320387Y0539646D01*
X0320397Y0539498D01*
X0320403Y0539350D01*
X0320405Y0539202D01*
X0320403Y0539054D01*
X0320397Y0538906D01*
X0320387Y0538758D01*
X0320373Y0538611D01*
X0320355Y0538464D01*
X0320334Y0538318D01*
X0320308Y0538172D01*
X0320278Y0538027D01*
X0320245Y0537883D01*
X0320207Y0537740D01*
X0320166Y0537598D01*
X0320121Y0537457D01*
X0320073Y0537317D01*
X0320020Y0537178D01*
X0319964Y0537041D01*
X0319904Y0536906D01*
X0319841Y0536772D01*
X0319774Y0536640D01*
X0319703Y0536510D01*
X0319629Y0536382D01*
X0319552Y0536256D01*
X0319471Y0536132D01*
X0319387Y0536010D01*
X0319300Y0535891D01*
X0319209Y0535774D01*
X0319115Y0535659D01*
X0319019Y0535547D01*
X0318919Y0535437D01*
X0318817Y0535331D01*
X0318711Y0535227D01*
X0318603Y0535126D01*
X0318492Y0535028D01*
X0318379Y0534932D01*
X0318263Y0534840D01*
X0318145Y0534751D01*
X0318024Y0534666D01*
X0317901Y0534583D01*
X0317776Y0534504D01*
X0317649Y0534428D01*
X0317520Y0534356D01*
X0317389Y0534287D01*
X0317256Y0534222D01*
X0317121Y0534161D01*
X0316985Y0534103D01*
X0316848Y0534048D01*
X0316709Y0533998D01*
X0316568Y0533951D01*
X0316427Y0533908D01*
X0316284Y0533868D01*
X0316140Y0533833D01*
X0315996Y0533801D01*
X0315850Y0533774D01*
X0315704Y0533750D01*
X0315557Y0533730D01*
X0315410Y0533714D01*
X0315263Y0533702D01*
X0315115Y0533694D01*
X0314967Y0533690D01*
X0314819Y0533690D01*
X0314671Y0533694D01*
X0314523Y0533702D01*
X0314376Y0533714D01*
X0314229Y0533730D01*
X0314082Y0533750D01*
X0313936Y0533774D01*
X0313790Y0533801D01*
X0313646Y0533833D01*
X0313502Y0533868D01*
X0313359Y0533908D01*
X0313218Y0533951D01*
X0313077Y0533998D01*
X0312938Y0534048D01*
X0312801Y0534103D01*
X0312665Y0534161D01*
X0312530Y0534222D01*
X0312397Y0534287D01*
X0312266Y0534356D01*
X0312137Y0534428D01*
X0312010Y0534504D01*
X0311885Y0534583D01*
X0311762Y0534666D01*
X0311641Y0534751D01*
X0311523Y0534840D01*
X0311407Y0534932D01*
X0311294Y0535028D01*
X0311183Y0535126D01*
X0311075Y0535227D01*
X0310969Y0535331D01*
X0310867Y0535437D01*
X0310767Y0535547D01*
X0310671Y0535659D01*
X0310577Y0535774D01*
X0310486Y0535891D01*
X0310399Y0536010D01*
X0310315Y0536132D01*
X0310234Y0536256D01*
X0310157Y0536382D01*
X0310083Y0536510D01*
X0310012Y0536640D01*
X0309945Y0536772D01*
X0309882Y0536906D01*
X0309822Y0537041D01*
X0309766Y0537178D01*
X0309713Y0537317D01*
X0309665Y0537457D01*
X0309620Y0537598D01*
X0309579Y0537740D01*
X0309541Y0537883D01*
X0309508Y0538027D01*
X0309478Y0538172D01*
X0309452Y0538318D01*
X0309431Y0538464D01*
X0309413Y0538611D01*
X0309399Y0538758D01*
X0309389Y0538906D01*
X0309383Y0539054D01*
X0309381Y0539202D01*
X0309381Y0362036D02*
X0309383Y0362184D01*
X0309389Y0362332D01*
X0309399Y0362480D01*
X0309413Y0362627D01*
X0309431Y0362774D01*
X0309452Y0362920D01*
X0309478Y0363066D01*
X0309508Y0363211D01*
X0309541Y0363355D01*
X0309579Y0363498D01*
X0309620Y0363640D01*
X0309665Y0363781D01*
X0309713Y0363921D01*
X0309766Y0364060D01*
X0309822Y0364197D01*
X0309882Y0364332D01*
X0309945Y0364466D01*
X0310012Y0364598D01*
X0310083Y0364728D01*
X0310157Y0364856D01*
X0310234Y0364982D01*
X0310315Y0365106D01*
X0310399Y0365228D01*
X0310486Y0365347D01*
X0310577Y0365464D01*
X0310671Y0365579D01*
X0310767Y0365691D01*
X0310867Y0365801D01*
X0310969Y0365907D01*
X0311075Y0366011D01*
X0311183Y0366112D01*
X0311294Y0366210D01*
X0311407Y0366306D01*
X0311523Y0366398D01*
X0311641Y0366487D01*
X0311762Y0366572D01*
X0311885Y0366655D01*
X0312010Y0366734D01*
X0312137Y0366810D01*
X0312266Y0366882D01*
X0312397Y0366951D01*
X0312530Y0367016D01*
X0312665Y0367077D01*
X0312801Y0367135D01*
X0312938Y0367190D01*
X0313077Y0367240D01*
X0313218Y0367287D01*
X0313359Y0367330D01*
X0313502Y0367370D01*
X0313646Y0367405D01*
X0313790Y0367437D01*
X0313936Y0367464D01*
X0314082Y0367488D01*
X0314229Y0367508D01*
X0314376Y0367524D01*
X0314523Y0367536D01*
X0314671Y0367544D01*
X0314819Y0367548D01*
X0314967Y0367548D01*
X0315115Y0367544D01*
X0315263Y0367536D01*
X0315410Y0367524D01*
X0315557Y0367508D01*
X0315704Y0367488D01*
X0315850Y0367464D01*
X0315996Y0367437D01*
X0316140Y0367405D01*
X0316284Y0367370D01*
X0316427Y0367330D01*
X0316568Y0367287D01*
X0316709Y0367240D01*
X0316848Y0367190D01*
X0316985Y0367135D01*
X0317121Y0367077D01*
X0317256Y0367016D01*
X0317389Y0366951D01*
X0317520Y0366882D01*
X0317649Y0366810D01*
X0317776Y0366734D01*
X0317901Y0366655D01*
X0318024Y0366572D01*
X0318145Y0366487D01*
X0318263Y0366398D01*
X0318379Y0366306D01*
X0318492Y0366210D01*
X0318603Y0366112D01*
X0318711Y0366011D01*
X0318817Y0365907D01*
X0318919Y0365801D01*
X0319019Y0365691D01*
X0319115Y0365579D01*
X0319209Y0365464D01*
X0319300Y0365347D01*
X0319387Y0365228D01*
X0319471Y0365106D01*
X0319552Y0364982D01*
X0319629Y0364856D01*
X0319703Y0364728D01*
X0319774Y0364598D01*
X0319841Y0364466D01*
X0319904Y0364332D01*
X0319964Y0364197D01*
X0320020Y0364060D01*
X0320073Y0363921D01*
X0320121Y0363781D01*
X0320166Y0363640D01*
X0320207Y0363498D01*
X0320245Y0363355D01*
X0320278Y0363211D01*
X0320308Y0363066D01*
X0320334Y0362920D01*
X0320355Y0362774D01*
X0320373Y0362627D01*
X0320387Y0362480D01*
X0320397Y0362332D01*
X0320403Y0362184D01*
X0320405Y0362036D01*
X0320403Y0361888D01*
X0320397Y0361740D01*
X0320387Y0361592D01*
X0320373Y0361445D01*
X0320355Y0361298D01*
X0320334Y0361152D01*
X0320308Y0361006D01*
X0320278Y0360861D01*
X0320245Y0360717D01*
X0320207Y0360574D01*
X0320166Y0360432D01*
X0320121Y0360291D01*
X0320073Y0360151D01*
X0320020Y0360012D01*
X0319964Y0359875D01*
X0319904Y0359740D01*
X0319841Y0359606D01*
X0319774Y0359474D01*
X0319703Y0359344D01*
X0319629Y0359216D01*
X0319552Y0359090D01*
X0319471Y0358966D01*
X0319387Y0358844D01*
X0319300Y0358725D01*
X0319209Y0358608D01*
X0319115Y0358493D01*
X0319019Y0358381D01*
X0318919Y0358271D01*
X0318817Y0358165D01*
X0318711Y0358061D01*
X0318603Y0357960D01*
X0318492Y0357862D01*
X0318379Y0357766D01*
X0318263Y0357674D01*
X0318145Y0357585D01*
X0318024Y0357500D01*
X0317901Y0357417D01*
X0317776Y0357338D01*
X0317649Y0357262D01*
X0317520Y0357190D01*
X0317389Y0357121D01*
X0317256Y0357056D01*
X0317121Y0356995D01*
X0316985Y0356937D01*
X0316848Y0356882D01*
X0316709Y0356832D01*
X0316568Y0356785D01*
X0316427Y0356742D01*
X0316284Y0356702D01*
X0316140Y0356667D01*
X0315996Y0356635D01*
X0315850Y0356608D01*
X0315704Y0356584D01*
X0315557Y0356564D01*
X0315410Y0356548D01*
X0315263Y0356536D01*
X0315115Y0356528D01*
X0314967Y0356524D01*
X0314819Y0356524D01*
X0314671Y0356528D01*
X0314523Y0356536D01*
X0314376Y0356548D01*
X0314229Y0356564D01*
X0314082Y0356584D01*
X0313936Y0356608D01*
X0313790Y0356635D01*
X0313646Y0356667D01*
X0313502Y0356702D01*
X0313359Y0356742D01*
X0313218Y0356785D01*
X0313077Y0356832D01*
X0312938Y0356882D01*
X0312801Y0356937D01*
X0312665Y0356995D01*
X0312530Y0357056D01*
X0312397Y0357121D01*
X0312266Y0357190D01*
X0312137Y0357262D01*
X0312010Y0357338D01*
X0311885Y0357417D01*
X0311762Y0357500D01*
X0311641Y0357585D01*
X0311523Y0357674D01*
X0311407Y0357766D01*
X0311294Y0357862D01*
X0311183Y0357960D01*
X0311075Y0358061D01*
X0310969Y0358165D01*
X0310867Y0358271D01*
X0310767Y0358381D01*
X0310671Y0358493D01*
X0310577Y0358608D01*
X0310486Y0358725D01*
X0310399Y0358844D01*
X0310315Y0358966D01*
X0310234Y0359090D01*
X0310157Y0359216D01*
X0310083Y0359344D01*
X0310012Y0359474D01*
X0309945Y0359606D01*
X0309882Y0359740D01*
X0309822Y0359875D01*
X0309766Y0360012D01*
X0309713Y0360151D01*
X0309665Y0360291D01*
X0309620Y0360432D01*
X0309579Y0360574D01*
X0309541Y0360717D01*
X0309508Y0360861D01*
X0309478Y0361006D01*
X0309452Y0361152D01*
X0309431Y0361298D01*
X0309413Y0361445D01*
X0309399Y0361592D01*
X0309389Y0361740D01*
X0309383Y0361888D01*
X0309381Y0362036D01*
X0289696Y0362036D02*
X0289698Y0362184D01*
X0289704Y0362332D01*
X0289714Y0362480D01*
X0289728Y0362627D01*
X0289746Y0362774D01*
X0289767Y0362920D01*
X0289793Y0363066D01*
X0289823Y0363211D01*
X0289856Y0363355D01*
X0289894Y0363498D01*
X0289935Y0363640D01*
X0289980Y0363781D01*
X0290028Y0363921D01*
X0290081Y0364060D01*
X0290137Y0364197D01*
X0290197Y0364332D01*
X0290260Y0364466D01*
X0290327Y0364598D01*
X0290398Y0364728D01*
X0290472Y0364856D01*
X0290549Y0364982D01*
X0290630Y0365106D01*
X0290714Y0365228D01*
X0290801Y0365347D01*
X0290892Y0365464D01*
X0290986Y0365579D01*
X0291082Y0365691D01*
X0291182Y0365801D01*
X0291284Y0365907D01*
X0291390Y0366011D01*
X0291498Y0366112D01*
X0291609Y0366210D01*
X0291722Y0366306D01*
X0291838Y0366398D01*
X0291956Y0366487D01*
X0292077Y0366572D01*
X0292200Y0366655D01*
X0292325Y0366734D01*
X0292452Y0366810D01*
X0292581Y0366882D01*
X0292712Y0366951D01*
X0292845Y0367016D01*
X0292980Y0367077D01*
X0293116Y0367135D01*
X0293253Y0367190D01*
X0293392Y0367240D01*
X0293533Y0367287D01*
X0293674Y0367330D01*
X0293817Y0367370D01*
X0293961Y0367405D01*
X0294105Y0367437D01*
X0294251Y0367464D01*
X0294397Y0367488D01*
X0294544Y0367508D01*
X0294691Y0367524D01*
X0294838Y0367536D01*
X0294986Y0367544D01*
X0295134Y0367548D01*
X0295282Y0367548D01*
X0295430Y0367544D01*
X0295578Y0367536D01*
X0295725Y0367524D01*
X0295872Y0367508D01*
X0296019Y0367488D01*
X0296165Y0367464D01*
X0296311Y0367437D01*
X0296455Y0367405D01*
X0296599Y0367370D01*
X0296742Y0367330D01*
X0296883Y0367287D01*
X0297024Y0367240D01*
X0297163Y0367190D01*
X0297300Y0367135D01*
X0297436Y0367077D01*
X0297571Y0367016D01*
X0297704Y0366951D01*
X0297835Y0366882D01*
X0297964Y0366810D01*
X0298091Y0366734D01*
X0298216Y0366655D01*
X0298339Y0366572D01*
X0298460Y0366487D01*
X0298578Y0366398D01*
X0298694Y0366306D01*
X0298807Y0366210D01*
X0298918Y0366112D01*
X0299026Y0366011D01*
X0299132Y0365907D01*
X0299234Y0365801D01*
X0299334Y0365691D01*
X0299430Y0365579D01*
X0299524Y0365464D01*
X0299615Y0365347D01*
X0299702Y0365228D01*
X0299786Y0365106D01*
X0299867Y0364982D01*
X0299944Y0364856D01*
X0300018Y0364728D01*
X0300089Y0364598D01*
X0300156Y0364466D01*
X0300219Y0364332D01*
X0300279Y0364197D01*
X0300335Y0364060D01*
X0300388Y0363921D01*
X0300436Y0363781D01*
X0300481Y0363640D01*
X0300522Y0363498D01*
X0300560Y0363355D01*
X0300593Y0363211D01*
X0300623Y0363066D01*
X0300649Y0362920D01*
X0300670Y0362774D01*
X0300688Y0362627D01*
X0300702Y0362480D01*
X0300712Y0362332D01*
X0300718Y0362184D01*
X0300720Y0362036D01*
X0300718Y0361888D01*
X0300712Y0361740D01*
X0300702Y0361592D01*
X0300688Y0361445D01*
X0300670Y0361298D01*
X0300649Y0361152D01*
X0300623Y0361006D01*
X0300593Y0360861D01*
X0300560Y0360717D01*
X0300522Y0360574D01*
X0300481Y0360432D01*
X0300436Y0360291D01*
X0300388Y0360151D01*
X0300335Y0360012D01*
X0300279Y0359875D01*
X0300219Y0359740D01*
X0300156Y0359606D01*
X0300089Y0359474D01*
X0300018Y0359344D01*
X0299944Y0359216D01*
X0299867Y0359090D01*
X0299786Y0358966D01*
X0299702Y0358844D01*
X0299615Y0358725D01*
X0299524Y0358608D01*
X0299430Y0358493D01*
X0299334Y0358381D01*
X0299234Y0358271D01*
X0299132Y0358165D01*
X0299026Y0358061D01*
X0298918Y0357960D01*
X0298807Y0357862D01*
X0298694Y0357766D01*
X0298578Y0357674D01*
X0298460Y0357585D01*
X0298339Y0357500D01*
X0298216Y0357417D01*
X0298091Y0357338D01*
X0297964Y0357262D01*
X0297835Y0357190D01*
X0297704Y0357121D01*
X0297571Y0357056D01*
X0297436Y0356995D01*
X0297300Y0356937D01*
X0297163Y0356882D01*
X0297024Y0356832D01*
X0296883Y0356785D01*
X0296742Y0356742D01*
X0296599Y0356702D01*
X0296455Y0356667D01*
X0296311Y0356635D01*
X0296165Y0356608D01*
X0296019Y0356584D01*
X0295872Y0356564D01*
X0295725Y0356548D01*
X0295578Y0356536D01*
X0295430Y0356528D01*
X0295282Y0356524D01*
X0295134Y0356524D01*
X0294986Y0356528D01*
X0294838Y0356536D01*
X0294691Y0356548D01*
X0294544Y0356564D01*
X0294397Y0356584D01*
X0294251Y0356608D01*
X0294105Y0356635D01*
X0293961Y0356667D01*
X0293817Y0356702D01*
X0293674Y0356742D01*
X0293533Y0356785D01*
X0293392Y0356832D01*
X0293253Y0356882D01*
X0293116Y0356937D01*
X0292980Y0356995D01*
X0292845Y0357056D01*
X0292712Y0357121D01*
X0292581Y0357190D01*
X0292452Y0357262D01*
X0292325Y0357338D01*
X0292200Y0357417D01*
X0292077Y0357500D01*
X0291956Y0357585D01*
X0291838Y0357674D01*
X0291722Y0357766D01*
X0291609Y0357862D01*
X0291498Y0357960D01*
X0291390Y0358061D01*
X0291284Y0358165D01*
X0291182Y0358271D01*
X0291082Y0358381D01*
X0290986Y0358493D01*
X0290892Y0358608D01*
X0290801Y0358725D01*
X0290714Y0358844D01*
X0290630Y0358966D01*
X0290549Y0359090D01*
X0290472Y0359216D01*
X0290398Y0359344D01*
X0290327Y0359474D01*
X0290260Y0359606D01*
X0290197Y0359740D01*
X0290137Y0359875D01*
X0290081Y0360012D01*
X0290028Y0360151D01*
X0289980Y0360291D01*
X0289935Y0360432D01*
X0289894Y0360574D01*
X0289856Y0360717D01*
X0289823Y0360861D01*
X0289793Y0361006D01*
X0289767Y0361152D01*
X0289746Y0361298D01*
X0289728Y0361445D01*
X0289714Y0361592D01*
X0289704Y0361740D01*
X0289698Y0361888D01*
X0289696Y0362036D01*
X0289696Y0342351D02*
X0289698Y0342499D01*
X0289704Y0342647D01*
X0289714Y0342795D01*
X0289728Y0342942D01*
X0289746Y0343089D01*
X0289767Y0343235D01*
X0289793Y0343381D01*
X0289823Y0343526D01*
X0289856Y0343670D01*
X0289894Y0343813D01*
X0289935Y0343955D01*
X0289980Y0344096D01*
X0290028Y0344236D01*
X0290081Y0344375D01*
X0290137Y0344512D01*
X0290197Y0344647D01*
X0290260Y0344781D01*
X0290327Y0344913D01*
X0290398Y0345043D01*
X0290472Y0345171D01*
X0290549Y0345297D01*
X0290630Y0345421D01*
X0290714Y0345543D01*
X0290801Y0345662D01*
X0290892Y0345779D01*
X0290986Y0345894D01*
X0291082Y0346006D01*
X0291182Y0346116D01*
X0291284Y0346222D01*
X0291390Y0346326D01*
X0291498Y0346427D01*
X0291609Y0346525D01*
X0291722Y0346621D01*
X0291838Y0346713D01*
X0291956Y0346802D01*
X0292077Y0346887D01*
X0292200Y0346970D01*
X0292325Y0347049D01*
X0292452Y0347125D01*
X0292581Y0347197D01*
X0292712Y0347266D01*
X0292845Y0347331D01*
X0292980Y0347392D01*
X0293116Y0347450D01*
X0293253Y0347505D01*
X0293392Y0347555D01*
X0293533Y0347602D01*
X0293674Y0347645D01*
X0293817Y0347685D01*
X0293961Y0347720D01*
X0294105Y0347752D01*
X0294251Y0347779D01*
X0294397Y0347803D01*
X0294544Y0347823D01*
X0294691Y0347839D01*
X0294838Y0347851D01*
X0294986Y0347859D01*
X0295134Y0347863D01*
X0295282Y0347863D01*
X0295430Y0347859D01*
X0295578Y0347851D01*
X0295725Y0347839D01*
X0295872Y0347823D01*
X0296019Y0347803D01*
X0296165Y0347779D01*
X0296311Y0347752D01*
X0296455Y0347720D01*
X0296599Y0347685D01*
X0296742Y0347645D01*
X0296883Y0347602D01*
X0297024Y0347555D01*
X0297163Y0347505D01*
X0297300Y0347450D01*
X0297436Y0347392D01*
X0297571Y0347331D01*
X0297704Y0347266D01*
X0297835Y0347197D01*
X0297964Y0347125D01*
X0298091Y0347049D01*
X0298216Y0346970D01*
X0298339Y0346887D01*
X0298460Y0346802D01*
X0298578Y0346713D01*
X0298694Y0346621D01*
X0298807Y0346525D01*
X0298918Y0346427D01*
X0299026Y0346326D01*
X0299132Y0346222D01*
X0299234Y0346116D01*
X0299334Y0346006D01*
X0299430Y0345894D01*
X0299524Y0345779D01*
X0299615Y0345662D01*
X0299702Y0345543D01*
X0299786Y0345421D01*
X0299867Y0345297D01*
X0299944Y0345171D01*
X0300018Y0345043D01*
X0300089Y0344913D01*
X0300156Y0344781D01*
X0300219Y0344647D01*
X0300279Y0344512D01*
X0300335Y0344375D01*
X0300388Y0344236D01*
X0300436Y0344096D01*
X0300481Y0343955D01*
X0300522Y0343813D01*
X0300560Y0343670D01*
X0300593Y0343526D01*
X0300623Y0343381D01*
X0300649Y0343235D01*
X0300670Y0343089D01*
X0300688Y0342942D01*
X0300702Y0342795D01*
X0300712Y0342647D01*
X0300718Y0342499D01*
X0300720Y0342351D01*
X0300718Y0342203D01*
X0300712Y0342055D01*
X0300702Y0341907D01*
X0300688Y0341760D01*
X0300670Y0341613D01*
X0300649Y0341467D01*
X0300623Y0341321D01*
X0300593Y0341176D01*
X0300560Y0341032D01*
X0300522Y0340889D01*
X0300481Y0340747D01*
X0300436Y0340606D01*
X0300388Y0340466D01*
X0300335Y0340327D01*
X0300279Y0340190D01*
X0300219Y0340055D01*
X0300156Y0339921D01*
X0300089Y0339789D01*
X0300018Y0339659D01*
X0299944Y0339531D01*
X0299867Y0339405D01*
X0299786Y0339281D01*
X0299702Y0339159D01*
X0299615Y0339040D01*
X0299524Y0338923D01*
X0299430Y0338808D01*
X0299334Y0338696D01*
X0299234Y0338586D01*
X0299132Y0338480D01*
X0299026Y0338376D01*
X0298918Y0338275D01*
X0298807Y0338177D01*
X0298694Y0338081D01*
X0298578Y0337989D01*
X0298460Y0337900D01*
X0298339Y0337815D01*
X0298216Y0337732D01*
X0298091Y0337653D01*
X0297964Y0337577D01*
X0297835Y0337505D01*
X0297704Y0337436D01*
X0297571Y0337371D01*
X0297436Y0337310D01*
X0297300Y0337252D01*
X0297163Y0337197D01*
X0297024Y0337147D01*
X0296883Y0337100D01*
X0296742Y0337057D01*
X0296599Y0337017D01*
X0296455Y0336982D01*
X0296311Y0336950D01*
X0296165Y0336923D01*
X0296019Y0336899D01*
X0295872Y0336879D01*
X0295725Y0336863D01*
X0295578Y0336851D01*
X0295430Y0336843D01*
X0295282Y0336839D01*
X0295134Y0336839D01*
X0294986Y0336843D01*
X0294838Y0336851D01*
X0294691Y0336863D01*
X0294544Y0336879D01*
X0294397Y0336899D01*
X0294251Y0336923D01*
X0294105Y0336950D01*
X0293961Y0336982D01*
X0293817Y0337017D01*
X0293674Y0337057D01*
X0293533Y0337100D01*
X0293392Y0337147D01*
X0293253Y0337197D01*
X0293116Y0337252D01*
X0292980Y0337310D01*
X0292845Y0337371D01*
X0292712Y0337436D01*
X0292581Y0337505D01*
X0292452Y0337577D01*
X0292325Y0337653D01*
X0292200Y0337732D01*
X0292077Y0337815D01*
X0291956Y0337900D01*
X0291838Y0337989D01*
X0291722Y0338081D01*
X0291609Y0338177D01*
X0291498Y0338275D01*
X0291390Y0338376D01*
X0291284Y0338480D01*
X0291182Y0338586D01*
X0291082Y0338696D01*
X0290986Y0338808D01*
X0290892Y0338923D01*
X0290801Y0339040D01*
X0290714Y0339159D01*
X0290630Y0339281D01*
X0290549Y0339405D01*
X0290472Y0339531D01*
X0290398Y0339659D01*
X0290327Y0339789D01*
X0290260Y0339921D01*
X0290197Y0340055D01*
X0290137Y0340190D01*
X0290081Y0340327D01*
X0290028Y0340466D01*
X0289980Y0340606D01*
X0289935Y0340747D01*
X0289894Y0340889D01*
X0289856Y0341032D01*
X0289823Y0341176D01*
X0289793Y0341321D01*
X0289767Y0341467D01*
X0289746Y0341613D01*
X0289728Y0341760D01*
X0289714Y0341907D01*
X0289704Y0342055D01*
X0289698Y0342203D01*
X0289696Y0342351D01*
X0309381Y0342351D02*
X0309383Y0342499D01*
X0309389Y0342647D01*
X0309399Y0342795D01*
X0309413Y0342942D01*
X0309431Y0343089D01*
X0309452Y0343235D01*
X0309478Y0343381D01*
X0309508Y0343526D01*
X0309541Y0343670D01*
X0309579Y0343813D01*
X0309620Y0343955D01*
X0309665Y0344096D01*
X0309713Y0344236D01*
X0309766Y0344375D01*
X0309822Y0344512D01*
X0309882Y0344647D01*
X0309945Y0344781D01*
X0310012Y0344913D01*
X0310083Y0345043D01*
X0310157Y0345171D01*
X0310234Y0345297D01*
X0310315Y0345421D01*
X0310399Y0345543D01*
X0310486Y0345662D01*
X0310577Y0345779D01*
X0310671Y0345894D01*
X0310767Y0346006D01*
X0310867Y0346116D01*
X0310969Y0346222D01*
X0311075Y0346326D01*
X0311183Y0346427D01*
X0311294Y0346525D01*
X0311407Y0346621D01*
X0311523Y0346713D01*
X0311641Y0346802D01*
X0311762Y0346887D01*
X0311885Y0346970D01*
X0312010Y0347049D01*
X0312137Y0347125D01*
X0312266Y0347197D01*
X0312397Y0347266D01*
X0312530Y0347331D01*
X0312665Y0347392D01*
X0312801Y0347450D01*
X0312938Y0347505D01*
X0313077Y0347555D01*
X0313218Y0347602D01*
X0313359Y0347645D01*
X0313502Y0347685D01*
X0313646Y0347720D01*
X0313790Y0347752D01*
X0313936Y0347779D01*
X0314082Y0347803D01*
X0314229Y0347823D01*
X0314376Y0347839D01*
X0314523Y0347851D01*
X0314671Y0347859D01*
X0314819Y0347863D01*
X0314967Y0347863D01*
X0315115Y0347859D01*
X0315263Y0347851D01*
X0315410Y0347839D01*
X0315557Y0347823D01*
X0315704Y0347803D01*
X0315850Y0347779D01*
X0315996Y0347752D01*
X0316140Y0347720D01*
X0316284Y0347685D01*
X0316427Y0347645D01*
X0316568Y0347602D01*
X0316709Y0347555D01*
X0316848Y0347505D01*
X0316985Y0347450D01*
X0317121Y0347392D01*
X0317256Y0347331D01*
X0317389Y0347266D01*
X0317520Y0347197D01*
X0317649Y0347125D01*
X0317776Y0347049D01*
X0317901Y0346970D01*
X0318024Y0346887D01*
X0318145Y0346802D01*
X0318263Y0346713D01*
X0318379Y0346621D01*
X0318492Y0346525D01*
X0318603Y0346427D01*
X0318711Y0346326D01*
X0318817Y0346222D01*
X0318919Y0346116D01*
X0319019Y0346006D01*
X0319115Y0345894D01*
X0319209Y0345779D01*
X0319300Y0345662D01*
X0319387Y0345543D01*
X0319471Y0345421D01*
X0319552Y0345297D01*
X0319629Y0345171D01*
X0319703Y0345043D01*
X0319774Y0344913D01*
X0319841Y0344781D01*
X0319904Y0344647D01*
X0319964Y0344512D01*
X0320020Y0344375D01*
X0320073Y0344236D01*
X0320121Y0344096D01*
X0320166Y0343955D01*
X0320207Y0343813D01*
X0320245Y0343670D01*
X0320278Y0343526D01*
X0320308Y0343381D01*
X0320334Y0343235D01*
X0320355Y0343089D01*
X0320373Y0342942D01*
X0320387Y0342795D01*
X0320397Y0342647D01*
X0320403Y0342499D01*
X0320405Y0342351D01*
X0320403Y0342203D01*
X0320397Y0342055D01*
X0320387Y0341907D01*
X0320373Y0341760D01*
X0320355Y0341613D01*
X0320334Y0341467D01*
X0320308Y0341321D01*
X0320278Y0341176D01*
X0320245Y0341032D01*
X0320207Y0340889D01*
X0320166Y0340747D01*
X0320121Y0340606D01*
X0320073Y0340466D01*
X0320020Y0340327D01*
X0319964Y0340190D01*
X0319904Y0340055D01*
X0319841Y0339921D01*
X0319774Y0339789D01*
X0319703Y0339659D01*
X0319629Y0339531D01*
X0319552Y0339405D01*
X0319471Y0339281D01*
X0319387Y0339159D01*
X0319300Y0339040D01*
X0319209Y0338923D01*
X0319115Y0338808D01*
X0319019Y0338696D01*
X0318919Y0338586D01*
X0318817Y0338480D01*
X0318711Y0338376D01*
X0318603Y0338275D01*
X0318492Y0338177D01*
X0318379Y0338081D01*
X0318263Y0337989D01*
X0318145Y0337900D01*
X0318024Y0337815D01*
X0317901Y0337732D01*
X0317776Y0337653D01*
X0317649Y0337577D01*
X0317520Y0337505D01*
X0317389Y0337436D01*
X0317256Y0337371D01*
X0317121Y0337310D01*
X0316985Y0337252D01*
X0316848Y0337197D01*
X0316709Y0337147D01*
X0316568Y0337100D01*
X0316427Y0337057D01*
X0316284Y0337017D01*
X0316140Y0336982D01*
X0315996Y0336950D01*
X0315850Y0336923D01*
X0315704Y0336899D01*
X0315557Y0336879D01*
X0315410Y0336863D01*
X0315263Y0336851D01*
X0315115Y0336843D01*
X0314967Y0336839D01*
X0314819Y0336839D01*
X0314671Y0336843D01*
X0314523Y0336851D01*
X0314376Y0336863D01*
X0314229Y0336879D01*
X0314082Y0336899D01*
X0313936Y0336923D01*
X0313790Y0336950D01*
X0313646Y0336982D01*
X0313502Y0337017D01*
X0313359Y0337057D01*
X0313218Y0337100D01*
X0313077Y0337147D01*
X0312938Y0337197D01*
X0312801Y0337252D01*
X0312665Y0337310D01*
X0312530Y0337371D01*
X0312397Y0337436D01*
X0312266Y0337505D01*
X0312137Y0337577D01*
X0312010Y0337653D01*
X0311885Y0337732D01*
X0311762Y0337815D01*
X0311641Y0337900D01*
X0311523Y0337989D01*
X0311407Y0338081D01*
X0311294Y0338177D01*
X0311183Y0338275D01*
X0311075Y0338376D01*
X0310969Y0338480D01*
X0310867Y0338586D01*
X0310767Y0338696D01*
X0310671Y0338808D01*
X0310577Y0338923D01*
X0310486Y0339040D01*
X0310399Y0339159D01*
X0310315Y0339281D01*
X0310234Y0339405D01*
X0310157Y0339531D01*
X0310083Y0339659D01*
X0310012Y0339789D01*
X0309945Y0339921D01*
X0309882Y0340055D01*
X0309822Y0340190D01*
X0309766Y0340327D01*
X0309713Y0340466D01*
X0309665Y0340606D01*
X0309620Y0340747D01*
X0309579Y0340889D01*
X0309541Y0341032D01*
X0309508Y0341176D01*
X0309478Y0341321D01*
X0309452Y0341467D01*
X0309431Y0341613D01*
X0309413Y0341760D01*
X0309399Y0341907D01*
X0309389Y0342055D01*
X0309383Y0342203D01*
X0309381Y0342351D01*
X0309381Y0165186D02*
X0309383Y0165334D01*
X0309389Y0165482D01*
X0309399Y0165630D01*
X0309413Y0165777D01*
X0309431Y0165924D01*
X0309452Y0166070D01*
X0309478Y0166216D01*
X0309508Y0166361D01*
X0309541Y0166505D01*
X0309579Y0166648D01*
X0309620Y0166790D01*
X0309665Y0166931D01*
X0309713Y0167071D01*
X0309766Y0167210D01*
X0309822Y0167347D01*
X0309882Y0167482D01*
X0309945Y0167616D01*
X0310012Y0167748D01*
X0310083Y0167878D01*
X0310157Y0168006D01*
X0310234Y0168132D01*
X0310315Y0168256D01*
X0310399Y0168378D01*
X0310486Y0168497D01*
X0310577Y0168614D01*
X0310671Y0168729D01*
X0310767Y0168841D01*
X0310867Y0168951D01*
X0310969Y0169057D01*
X0311075Y0169161D01*
X0311183Y0169262D01*
X0311294Y0169360D01*
X0311407Y0169456D01*
X0311523Y0169548D01*
X0311641Y0169637D01*
X0311762Y0169722D01*
X0311885Y0169805D01*
X0312010Y0169884D01*
X0312137Y0169960D01*
X0312266Y0170032D01*
X0312397Y0170101D01*
X0312530Y0170166D01*
X0312665Y0170227D01*
X0312801Y0170285D01*
X0312938Y0170340D01*
X0313077Y0170390D01*
X0313218Y0170437D01*
X0313359Y0170480D01*
X0313502Y0170520D01*
X0313646Y0170555D01*
X0313790Y0170587D01*
X0313936Y0170614D01*
X0314082Y0170638D01*
X0314229Y0170658D01*
X0314376Y0170674D01*
X0314523Y0170686D01*
X0314671Y0170694D01*
X0314819Y0170698D01*
X0314967Y0170698D01*
X0315115Y0170694D01*
X0315263Y0170686D01*
X0315410Y0170674D01*
X0315557Y0170658D01*
X0315704Y0170638D01*
X0315850Y0170614D01*
X0315996Y0170587D01*
X0316140Y0170555D01*
X0316284Y0170520D01*
X0316427Y0170480D01*
X0316568Y0170437D01*
X0316709Y0170390D01*
X0316848Y0170340D01*
X0316985Y0170285D01*
X0317121Y0170227D01*
X0317256Y0170166D01*
X0317389Y0170101D01*
X0317520Y0170032D01*
X0317649Y0169960D01*
X0317776Y0169884D01*
X0317901Y0169805D01*
X0318024Y0169722D01*
X0318145Y0169637D01*
X0318263Y0169548D01*
X0318379Y0169456D01*
X0318492Y0169360D01*
X0318603Y0169262D01*
X0318711Y0169161D01*
X0318817Y0169057D01*
X0318919Y0168951D01*
X0319019Y0168841D01*
X0319115Y0168729D01*
X0319209Y0168614D01*
X0319300Y0168497D01*
X0319387Y0168378D01*
X0319471Y0168256D01*
X0319552Y0168132D01*
X0319629Y0168006D01*
X0319703Y0167878D01*
X0319774Y0167748D01*
X0319841Y0167616D01*
X0319904Y0167482D01*
X0319964Y0167347D01*
X0320020Y0167210D01*
X0320073Y0167071D01*
X0320121Y0166931D01*
X0320166Y0166790D01*
X0320207Y0166648D01*
X0320245Y0166505D01*
X0320278Y0166361D01*
X0320308Y0166216D01*
X0320334Y0166070D01*
X0320355Y0165924D01*
X0320373Y0165777D01*
X0320387Y0165630D01*
X0320397Y0165482D01*
X0320403Y0165334D01*
X0320405Y0165186D01*
X0320403Y0165038D01*
X0320397Y0164890D01*
X0320387Y0164742D01*
X0320373Y0164595D01*
X0320355Y0164448D01*
X0320334Y0164302D01*
X0320308Y0164156D01*
X0320278Y0164011D01*
X0320245Y0163867D01*
X0320207Y0163724D01*
X0320166Y0163582D01*
X0320121Y0163441D01*
X0320073Y0163301D01*
X0320020Y0163162D01*
X0319964Y0163025D01*
X0319904Y0162890D01*
X0319841Y0162756D01*
X0319774Y0162624D01*
X0319703Y0162494D01*
X0319629Y0162366D01*
X0319552Y0162240D01*
X0319471Y0162116D01*
X0319387Y0161994D01*
X0319300Y0161875D01*
X0319209Y0161758D01*
X0319115Y0161643D01*
X0319019Y0161531D01*
X0318919Y0161421D01*
X0318817Y0161315D01*
X0318711Y0161211D01*
X0318603Y0161110D01*
X0318492Y0161012D01*
X0318379Y0160916D01*
X0318263Y0160824D01*
X0318145Y0160735D01*
X0318024Y0160650D01*
X0317901Y0160567D01*
X0317776Y0160488D01*
X0317649Y0160412D01*
X0317520Y0160340D01*
X0317389Y0160271D01*
X0317256Y0160206D01*
X0317121Y0160145D01*
X0316985Y0160087D01*
X0316848Y0160032D01*
X0316709Y0159982D01*
X0316568Y0159935D01*
X0316427Y0159892D01*
X0316284Y0159852D01*
X0316140Y0159817D01*
X0315996Y0159785D01*
X0315850Y0159758D01*
X0315704Y0159734D01*
X0315557Y0159714D01*
X0315410Y0159698D01*
X0315263Y0159686D01*
X0315115Y0159678D01*
X0314967Y0159674D01*
X0314819Y0159674D01*
X0314671Y0159678D01*
X0314523Y0159686D01*
X0314376Y0159698D01*
X0314229Y0159714D01*
X0314082Y0159734D01*
X0313936Y0159758D01*
X0313790Y0159785D01*
X0313646Y0159817D01*
X0313502Y0159852D01*
X0313359Y0159892D01*
X0313218Y0159935D01*
X0313077Y0159982D01*
X0312938Y0160032D01*
X0312801Y0160087D01*
X0312665Y0160145D01*
X0312530Y0160206D01*
X0312397Y0160271D01*
X0312266Y0160340D01*
X0312137Y0160412D01*
X0312010Y0160488D01*
X0311885Y0160567D01*
X0311762Y0160650D01*
X0311641Y0160735D01*
X0311523Y0160824D01*
X0311407Y0160916D01*
X0311294Y0161012D01*
X0311183Y0161110D01*
X0311075Y0161211D01*
X0310969Y0161315D01*
X0310867Y0161421D01*
X0310767Y0161531D01*
X0310671Y0161643D01*
X0310577Y0161758D01*
X0310486Y0161875D01*
X0310399Y0161994D01*
X0310315Y0162116D01*
X0310234Y0162240D01*
X0310157Y0162366D01*
X0310083Y0162494D01*
X0310012Y0162624D01*
X0309945Y0162756D01*
X0309882Y0162890D01*
X0309822Y0163025D01*
X0309766Y0163162D01*
X0309713Y0163301D01*
X0309665Y0163441D01*
X0309620Y0163582D01*
X0309579Y0163724D01*
X0309541Y0163867D01*
X0309508Y0164011D01*
X0309478Y0164156D01*
X0309452Y0164302D01*
X0309431Y0164448D01*
X0309413Y0164595D01*
X0309399Y0164742D01*
X0309389Y0164890D01*
X0309383Y0165038D01*
X0309381Y0165186D01*
X0289696Y0165186D02*
X0289698Y0165334D01*
X0289704Y0165482D01*
X0289714Y0165630D01*
X0289728Y0165777D01*
X0289746Y0165924D01*
X0289767Y0166070D01*
X0289793Y0166216D01*
X0289823Y0166361D01*
X0289856Y0166505D01*
X0289894Y0166648D01*
X0289935Y0166790D01*
X0289980Y0166931D01*
X0290028Y0167071D01*
X0290081Y0167210D01*
X0290137Y0167347D01*
X0290197Y0167482D01*
X0290260Y0167616D01*
X0290327Y0167748D01*
X0290398Y0167878D01*
X0290472Y0168006D01*
X0290549Y0168132D01*
X0290630Y0168256D01*
X0290714Y0168378D01*
X0290801Y0168497D01*
X0290892Y0168614D01*
X0290986Y0168729D01*
X0291082Y0168841D01*
X0291182Y0168951D01*
X0291284Y0169057D01*
X0291390Y0169161D01*
X0291498Y0169262D01*
X0291609Y0169360D01*
X0291722Y0169456D01*
X0291838Y0169548D01*
X0291956Y0169637D01*
X0292077Y0169722D01*
X0292200Y0169805D01*
X0292325Y0169884D01*
X0292452Y0169960D01*
X0292581Y0170032D01*
X0292712Y0170101D01*
X0292845Y0170166D01*
X0292980Y0170227D01*
X0293116Y0170285D01*
X0293253Y0170340D01*
X0293392Y0170390D01*
X0293533Y0170437D01*
X0293674Y0170480D01*
X0293817Y0170520D01*
X0293961Y0170555D01*
X0294105Y0170587D01*
X0294251Y0170614D01*
X0294397Y0170638D01*
X0294544Y0170658D01*
X0294691Y0170674D01*
X0294838Y0170686D01*
X0294986Y0170694D01*
X0295134Y0170698D01*
X0295282Y0170698D01*
X0295430Y0170694D01*
X0295578Y0170686D01*
X0295725Y0170674D01*
X0295872Y0170658D01*
X0296019Y0170638D01*
X0296165Y0170614D01*
X0296311Y0170587D01*
X0296455Y0170555D01*
X0296599Y0170520D01*
X0296742Y0170480D01*
X0296883Y0170437D01*
X0297024Y0170390D01*
X0297163Y0170340D01*
X0297300Y0170285D01*
X0297436Y0170227D01*
X0297571Y0170166D01*
X0297704Y0170101D01*
X0297835Y0170032D01*
X0297964Y0169960D01*
X0298091Y0169884D01*
X0298216Y0169805D01*
X0298339Y0169722D01*
X0298460Y0169637D01*
X0298578Y0169548D01*
X0298694Y0169456D01*
X0298807Y0169360D01*
X0298918Y0169262D01*
X0299026Y0169161D01*
X0299132Y0169057D01*
X0299234Y0168951D01*
X0299334Y0168841D01*
X0299430Y0168729D01*
X0299524Y0168614D01*
X0299615Y0168497D01*
X0299702Y0168378D01*
X0299786Y0168256D01*
X0299867Y0168132D01*
X0299944Y0168006D01*
X0300018Y0167878D01*
X0300089Y0167748D01*
X0300156Y0167616D01*
X0300219Y0167482D01*
X0300279Y0167347D01*
X0300335Y0167210D01*
X0300388Y0167071D01*
X0300436Y0166931D01*
X0300481Y0166790D01*
X0300522Y0166648D01*
X0300560Y0166505D01*
X0300593Y0166361D01*
X0300623Y0166216D01*
X0300649Y0166070D01*
X0300670Y0165924D01*
X0300688Y0165777D01*
X0300702Y0165630D01*
X0300712Y0165482D01*
X0300718Y0165334D01*
X0300720Y0165186D01*
X0300718Y0165038D01*
X0300712Y0164890D01*
X0300702Y0164742D01*
X0300688Y0164595D01*
X0300670Y0164448D01*
X0300649Y0164302D01*
X0300623Y0164156D01*
X0300593Y0164011D01*
X0300560Y0163867D01*
X0300522Y0163724D01*
X0300481Y0163582D01*
X0300436Y0163441D01*
X0300388Y0163301D01*
X0300335Y0163162D01*
X0300279Y0163025D01*
X0300219Y0162890D01*
X0300156Y0162756D01*
X0300089Y0162624D01*
X0300018Y0162494D01*
X0299944Y0162366D01*
X0299867Y0162240D01*
X0299786Y0162116D01*
X0299702Y0161994D01*
X0299615Y0161875D01*
X0299524Y0161758D01*
X0299430Y0161643D01*
X0299334Y0161531D01*
X0299234Y0161421D01*
X0299132Y0161315D01*
X0299026Y0161211D01*
X0298918Y0161110D01*
X0298807Y0161012D01*
X0298694Y0160916D01*
X0298578Y0160824D01*
X0298460Y0160735D01*
X0298339Y0160650D01*
X0298216Y0160567D01*
X0298091Y0160488D01*
X0297964Y0160412D01*
X0297835Y0160340D01*
X0297704Y0160271D01*
X0297571Y0160206D01*
X0297436Y0160145D01*
X0297300Y0160087D01*
X0297163Y0160032D01*
X0297024Y0159982D01*
X0296883Y0159935D01*
X0296742Y0159892D01*
X0296599Y0159852D01*
X0296455Y0159817D01*
X0296311Y0159785D01*
X0296165Y0159758D01*
X0296019Y0159734D01*
X0295872Y0159714D01*
X0295725Y0159698D01*
X0295578Y0159686D01*
X0295430Y0159678D01*
X0295282Y0159674D01*
X0295134Y0159674D01*
X0294986Y0159678D01*
X0294838Y0159686D01*
X0294691Y0159698D01*
X0294544Y0159714D01*
X0294397Y0159734D01*
X0294251Y0159758D01*
X0294105Y0159785D01*
X0293961Y0159817D01*
X0293817Y0159852D01*
X0293674Y0159892D01*
X0293533Y0159935D01*
X0293392Y0159982D01*
X0293253Y0160032D01*
X0293116Y0160087D01*
X0292980Y0160145D01*
X0292845Y0160206D01*
X0292712Y0160271D01*
X0292581Y0160340D01*
X0292452Y0160412D01*
X0292325Y0160488D01*
X0292200Y0160567D01*
X0292077Y0160650D01*
X0291956Y0160735D01*
X0291838Y0160824D01*
X0291722Y0160916D01*
X0291609Y0161012D01*
X0291498Y0161110D01*
X0291390Y0161211D01*
X0291284Y0161315D01*
X0291182Y0161421D01*
X0291082Y0161531D01*
X0290986Y0161643D01*
X0290892Y0161758D01*
X0290801Y0161875D01*
X0290714Y0161994D01*
X0290630Y0162116D01*
X0290549Y0162240D01*
X0290472Y0162366D01*
X0290398Y0162494D01*
X0290327Y0162624D01*
X0290260Y0162756D01*
X0290197Y0162890D01*
X0290137Y0163025D01*
X0290081Y0163162D01*
X0290028Y0163301D01*
X0289980Y0163441D01*
X0289935Y0163582D01*
X0289894Y0163724D01*
X0289856Y0163867D01*
X0289823Y0164011D01*
X0289793Y0164156D01*
X0289767Y0164302D01*
X0289746Y0164448D01*
X0289728Y0164595D01*
X0289714Y0164742D01*
X0289704Y0164890D01*
X0289698Y0165038D01*
X0289696Y0165186D01*
X0486546Y0165186D02*
X0486548Y0165334D01*
X0486554Y0165482D01*
X0486564Y0165630D01*
X0486578Y0165777D01*
X0486596Y0165924D01*
X0486617Y0166070D01*
X0486643Y0166216D01*
X0486673Y0166361D01*
X0486706Y0166505D01*
X0486744Y0166648D01*
X0486785Y0166790D01*
X0486830Y0166931D01*
X0486878Y0167071D01*
X0486931Y0167210D01*
X0486987Y0167347D01*
X0487047Y0167482D01*
X0487110Y0167616D01*
X0487177Y0167748D01*
X0487248Y0167878D01*
X0487322Y0168006D01*
X0487399Y0168132D01*
X0487480Y0168256D01*
X0487564Y0168378D01*
X0487651Y0168497D01*
X0487742Y0168614D01*
X0487836Y0168729D01*
X0487932Y0168841D01*
X0488032Y0168951D01*
X0488134Y0169057D01*
X0488240Y0169161D01*
X0488348Y0169262D01*
X0488459Y0169360D01*
X0488572Y0169456D01*
X0488688Y0169548D01*
X0488806Y0169637D01*
X0488927Y0169722D01*
X0489050Y0169805D01*
X0489175Y0169884D01*
X0489302Y0169960D01*
X0489431Y0170032D01*
X0489562Y0170101D01*
X0489695Y0170166D01*
X0489830Y0170227D01*
X0489966Y0170285D01*
X0490103Y0170340D01*
X0490242Y0170390D01*
X0490383Y0170437D01*
X0490524Y0170480D01*
X0490667Y0170520D01*
X0490811Y0170555D01*
X0490955Y0170587D01*
X0491101Y0170614D01*
X0491247Y0170638D01*
X0491394Y0170658D01*
X0491541Y0170674D01*
X0491688Y0170686D01*
X0491836Y0170694D01*
X0491984Y0170698D01*
X0492132Y0170698D01*
X0492280Y0170694D01*
X0492428Y0170686D01*
X0492575Y0170674D01*
X0492722Y0170658D01*
X0492869Y0170638D01*
X0493015Y0170614D01*
X0493161Y0170587D01*
X0493305Y0170555D01*
X0493449Y0170520D01*
X0493592Y0170480D01*
X0493733Y0170437D01*
X0493874Y0170390D01*
X0494013Y0170340D01*
X0494150Y0170285D01*
X0494286Y0170227D01*
X0494421Y0170166D01*
X0494554Y0170101D01*
X0494685Y0170032D01*
X0494814Y0169960D01*
X0494941Y0169884D01*
X0495066Y0169805D01*
X0495189Y0169722D01*
X0495310Y0169637D01*
X0495428Y0169548D01*
X0495544Y0169456D01*
X0495657Y0169360D01*
X0495768Y0169262D01*
X0495876Y0169161D01*
X0495982Y0169057D01*
X0496084Y0168951D01*
X0496184Y0168841D01*
X0496280Y0168729D01*
X0496374Y0168614D01*
X0496465Y0168497D01*
X0496552Y0168378D01*
X0496636Y0168256D01*
X0496717Y0168132D01*
X0496794Y0168006D01*
X0496868Y0167878D01*
X0496939Y0167748D01*
X0497006Y0167616D01*
X0497069Y0167482D01*
X0497129Y0167347D01*
X0497185Y0167210D01*
X0497238Y0167071D01*
X0497286Y0166931D01*
X0497331Y0166790D01*
X0497372Y0166648D01*
X0497410Y0166505D01*
X0497443Y0166361D01*
X0497473Y0166216D01*
X0497499Y0166070D01*
X0497520Y0165924D01*
X0497538Y0165777D01*
X0497552Y0165630D01*
X0497562Y0165482D01*
X0497568Y0165334D01*
X0497570Y0165186D01*
X0497568Y0165038D01*
X0497562Y0164890D01*
X0497552Y0164742D01*
X0497538Y0164595D01*
X0497520Y0164448D01*
X0497499Y0164302D01*
X0497473Y0164156D01*
X0497443Y0164011D01*
X0497410Y0163867D01*
X0497372Y0163724D01*
X0497331Y0163582D01*
X0497286Y0163441D01*
X0497238Y0163301D01*
X0497185Y0163162D01*
X0497129Y0163025D01*
X0497069Y0162890D01*
X0497006Y0162756D01*
X0496939Y0162624D01*
X0496868Y0162494D01*
X0496794Y0162366D01*
X0496717Y0162240D01*
X0496636Y0162116D01*
X0496552Y0161994D01*
X0496465Y0161875D01*
X0496374Y0161758D01*
X0496280Y0161643D01*
X0496184Y0161531D01*
X0496084Y0161421D01*
X0495982Y0161315D01*
X0495876Y0161211D01*
X0495768Y0161110D01*
X0495657Y0161012D01*
X0495544Y0160916D01*
X0495428Y0160824D01*
X0495310Y0160735D01*
X0495189Y0160650D01*
X0495066Y0160567D01*
X0494941Y0160488D01*
X0494814Y0160412D01*
X0494685Y0160340D01*
X0494554Y0160271D01*
X0494421Y0160206D01*
X0494286Y0160145D01*
X0494150Y0160087D01*
X0494013Y0160032D01*
X0493874Y0159982D01*
X0493733Y0159935D01*
X0493592Y0159892D01*
X0493449Y0159852D01*
X0493305Y0159817D01*
X0493161Y0159785D01*
X0493015Y0159758D01*
X0492869Y0159734D01*
X0492722Y0159714D01*
X0492575Y0159698D01*
X0492428Y0159686D01*
X0492280Y0159678D01*
X0492132Y0159674D01*
X0491984Y0159674D01*
X0491836Y0159678D01*
X0491688Y0159686D01*
X0491541Y0159698D01*
X0491394Y0159714D01*
X0491247Y0159734D01*
X0491101Y0159758D01*
X0490955Y0159785D01*
X0490811Y0159817D01*
X0490667Y0159852D01*
X0490524Y0159892D01*
X0490383Y0159935D01*
X0490242Y0159982D01*
X0490103Y0160032D01*
X0489966Y0160087D01*
X0489830Y0160145D01*
X0489695Y0160206D01*
X0489562Y0160271D01*
X0489431Y0160340D01*
X0489302Y0160412D01*
X0489175Y0160488D01*
X0489050Y0160567D01*
X0488927Y0160650D01*
X0488806Y0160735D01*
X0488688Y0160824D01*
X0488572Y0160916D01*
X0488459Y0161012D01*
X0488348Y0161110D01*
X0488240Y0161211D01*
X0488134Y0161315D01*
X0488032Y0161421D01*
X0487932Y0161531D01*
X0487836Y0161643D01*
X0487742Y0161758D01*
X0487651Y0161875D01*
X0487564Y0161994D01*
X0487480Y0162116D01*
X0487399Y0162240D01*
X0487322Y0162366D01*
X0487248Y0162494D01*
X0487177Y0162624D01*
X0487110Y0162756D01*
X0487047Y0162890D01*
X0486987Y0163025D01*
X0486931Y0163162D01*
X0486878Y0163301D01*
X0486830Y0163441D01*
X0486785Y0163582D01*
X0486744Y0163724D01*
X0486706Y0163867D01*
X0486673Y0164011D01*
X0486643Y0164156D01*
X0486617Y0164302D01*
X0486596Y0164448D01*
X0486578Y0164595D01*
X0486564Y0164742D01*
X0486554Y0164890D01*
X0486548Y0165038D01*
X0486546Y0165186D01*
X0486546Y0342351D02*
X0486548Y0342499D01*
X0486554Y0342647D01*
X0486564Y0342795D01*
X0486578Y0342942D01*
X0486596Y0343089D01*
X0486617Y0343235D01*
X0486643Y0343381D01*
X0486673Y0343526D01*
X0486706Y0343670D01*
X0486744Y0343813D01*
X0486785Y0343955D01*
X0486830Y0344096D01*
X0486878Y0344236D01*
X0486931Y0344375D01*
X0486987Y0344512D01*
X0487047Y0344647D01*
X0487110Y0344781D01*
X0487177Y0344913D01*
X0487248Y0345043D01*
X0487322Y0345171D01*
X0487399Y0345297D01*
X0487480Y0345421D01*
X0487564Y0345543D01*
X0487651Y0345662D01*
X0487742Y0345779D01*
X0487836Y0345894D01*
X0487932Y0346006D01*
X0488032Y0346116D01*
X0488134Y0346222D01*
X0488240Y0346326D01*
X0488348Y0346427D01*
X0488459Y0346525D01*
X0488572Y0346621D01*
X0488688Y0346713D01*
X0488806Y0346802D01*
X0488927Y0346887D01*
X0489050Y0346970D01*
X0489175Y0347049D01*
X0489302Y0347125D01*
X0489431Y0347197D01*
X0489562Y0347266D01*
X0489695Y0347331D01*
X0489830Y0347392D01*
X0489966Y0347450D01*
X0490103Y0347505D01*
X0490242Y0347555D01*
X0490383Y0347602D01*
X0490524Y0347645D01*
X0490667Y0347685D01*
X0490811Y0347720D01*
X0490955Y0347752D01*
X0491101Y0347779D01*
X0491247Y0347803D01*
X0491394Y0347823D01*
X0491541Y0347839D01*
X0491688Y0347851D01*
X0491836Y0347859D01*
X0491984Y0347863D01*
X0492132Y0347863D01*
X0492280Y0347859D01*
X0492428Y0347851D01*
X0492575Y0347839D01*
X0492722Y0347823D01*
X0492869Y0347803D01*
X0493015Y0347779D01*
X0493161Y0347752D01*
X0493305Y0347720D01*
X0493449Y0347685D01*
X0493592Y0347645D01*
X0493733Y0347602D01*
X0493874Y0347555D01*
X0494013Y0347505D01*
X0494150Y0347450D01*
X0494286Y0347392D01*
X0494421Y0347331D01*
X0494554Y0347266D01*
X0494685Y0347197D01*
X0494814Y0347125D01*
X0494941Y0347049D01*
X0495066Y0346970D01*
X0495189Y0346887D01*
X0495310Y0346802D01*
X0495428Y0346713D01*
X0495544Y0346621D01*
X0495657Y0346525D01*
X0495768Y0346427D01*
X0495876Y0346326D01*
X0495982Y0346222D01*
X0496084Y0346116D01*
X0496184Y0346006D01*
X0496280Y0345894D01*
X0496374Y0345779D01*
X0496465Y0345662D01*
X0496552Y0345543D01*
X0496636Y0345421D01*
X0496717Y0345297D01*
X0496794Y0345171D01*
X0496868Y0345043D01*
X0496939Y0344913D01*
X0497006Y0344781D01*
X0497069Y0344647D01*
X0497129Y0344512D01*
X0497185Y0344375D01*
X0497238Y0344236D01*
X0497286Y0344096D01*
X0497331Y0343955D01*
X0497372Y0343813D01*
X0497410Y0343670D01*
X0497443Y0343526D01*
X0497473Y0343381D01*
X0497499Y0343235D01*
X0497520Y0343089D01*
X0497538Y0342942D01*
X0497552Y0342795D01*
X0497562Y0342647D01*
X0497568Y0342499D01*
X0497570Y0342351D01*
X0497568Y0342203D01*
X0497562Y0342055D01*
X0497552Y0341907D01*
X0497538Y0341760D01*
X0497520Y0341613D01*
X0497499Y0341467D01*
X0497473Y0341321D01*
X0497443Y0341176D01*
X0497410Y0341032D01*
X0497372Y0340889D01*
X0497331Y0340747D01*
X0497286Y0340606D01*
X0497238Y0340466D01*
X0497185Y0340327D01*
X0497129Y0340190D01*
X0497069Y0340055D01*
X0497006Y0339921D01*
X0496939Y0339789D01*
X0496868Y0339659D01*
X0496794Y0339531D01*
X0496717Y0339405D01*
X0496636Y0339281D01*
X0496552Y0339159D01*
X0496465Y0339040D01*
X0496374Y0338923D01*
X0496280Y0338808D01*
X0496184Y0338696D01*
X0496084Y0338586D01*
X0495982Y0338480D01*
X0495876Y0338376D01*
X0495768Y0338275D01*
X0495657Y0338177D01*
X0495544Y0338081D01*
X0495428Y0337989D01*
X0495310Y0337900D01*
X0495189Y0337815D01*
X0495066Y0337732D01*
X0494941Y0337653D01*
X0494814Y0337577D01*
X0494685Y0337505D01*
X0494554Y0337436D01*
X0494421Y0337371D01*
X0494286Y0337310D01*
X0494150Y0337252D01*
X0494013Y0337197D01*
X0493874Y0337147D01*
X0493733Y0337100D01*
X0493592Y0337057D01*
X0493449Y0337017D01*
X0493305Y0336982D01*
X0493161Y0336950D01*
X0493015Y0336923D01*
X0492869Y0336899D01*
X0492722Y0336879D01*
X0492575Y0336863D01*
X0492428Y0336851D01*
X0492280Y0336843D01*
X0492132Y0336839D01*
X0491984Y0336839D01*
X0491836Y0336843D01*
X0491688Y0336851D01*
X0491541Y0336863D01*
X0491394Y0336879D01*
X0491247Y0336899D01*
X0491101Y0336923D01*
X0490955Y0336950D01*
X0490811Y0336982D01*
X0490667Y0337017D01*
X0490524Y0337057D01*
X0490383Y0337100D01*
X0490242Y0337147D01*
X0490103Y0337197D01*
X0489966Y0337252D01*
X0489830Y0337310D01*
X0489695Y0337371D01*
X0489562Y0337436D01*
X0489431Y0337505D01*
X0489302Y0337577D01*
X0489175Y0337653D01*
X0489050Y0337732D01*
X0488927Y0337815D01*
X0488806Y0337900D01*
X0488688Y0337989D01*
X0488572Y0338081D01*
X0488459Y0338177D01*
X0488348Y0338275D01*
X0488240Y0338376D01*
X0488134Y0338480D01*
X0488032Y0338586D01*
X0487932Y0338696D01*
X0487836Y0338808D01*
X0487742Y0338923D01*
X0487651Y0339040D01*
X0487564Y0339159D01*
X0487480Y0339281D01*
X0487399Y0339405D01*
X0487322Y0339531D01*
X0487248Y0339659D01*
X0487177Y0339789D01*
X0487110Y0339921D01*
X0487047Y0340055D01*
X0486987Y0340190D01*
X0486931Y0340327D01*
X0486878Y0340466D01*
X0486830Y0340606D01*
X0486785Y0340747D01*
X0486744Y0340889D01*
X0486706Y0341032D01*
X0486673Y0341176D01*
X0486643Y0341321D01*
X0486617Y0341467D01*
X0486596Y0341613D01*
X0486578Y0341760D01*
X0486564Y0341907D01*
X0486554Y0342055D01*
X0486548Y0342203D01*
X0486546Y0342351D01*
X0486546Y0362036D02*
X0486548Y0362184D01*
X0486554Y0362332D01*
X0486564Y0362480D01*
X0486578Y0362627D01*
X0486596Y0362774D01*
X0486617Y0362920D01*
X0486643Y0363066D01*
X0486673Y0363211D01*
X0486706Y0363355D01*
X0486744Y0363498D01*
X0486785Y0363640D01*
X0486830Y0363781D01*
X0486878Y0363921D01*
X0486931Y0364060D01*
X0486987Y0364197D01*
X0487047Y0364332D01*
X0487110Y0364466D01*
X0487177Y0364598D01*
X0487248Y0364728D01*
X0487322Y0364856D01*
X0487399Y0364982D01*
X0487480Y0365106D01*
X0487564Y0365228D01*
X0487651Y0365347D01*
X0487742Y0365464D01*
X0487836Y0365579D01*
X0487932Y0365691D01*
X0488032Y0365801D01*
X0488134Y0365907D01*
X0488240Y0366011D01*
X0488348Y0366112D01*
X0488459Y0366210D01*
X0488572Y0366306D01*
X0488688Y0366398D01*
X0488806Y0366487D01*
X0488927Y0366572D01*
X0489050Y0366655D01*
X0489175Y0366734D01*
X0489302Y0366810D01*
X0489431Y0366882D01*
X0489562Y0366951D01*
X0489695Y0367016D01*
X0489830Y0367077D01*
X0489966Y0367135D01*
X0490103Y0367190D01*
X0490242Y0367240D01*
X0490383Y0367287D01*
X0490524Y0367330D01*
X0490667Y0367370D01*
X0490811Y0367405D01*
X0490955Y0367437D01*
X0491101Y0367464D01*
X0491247Y0367488D01*
X0491394Y0367508D01*
X0491541Y0367524D01*
X0491688Y0367536D01*
X0491836Y0367544D01*
X0491984Y0367548D01*
X0492132Y0367548D01*
X0492280Y0367544D01*
X0492428Y0367536D01*
X0492575Y0367524D01*
X0492722Y0367508D01*
X0492869Y0367488D01*
X0493015Y0367464D01*
X0493161Y0367437D01*
X0493305Y0367405D01*
X0493449Y0367370D01*
X0493592Y0367330D01*
X0493733Y0367287D01*
X0493874Y0367240D01*
X0494013Y0367190D01*
X0494150Y0367135D01*
X0494286Y0367077D01*
X0494421Y0367016D01*
X0494554Y0366951D01*
X0494685Y0366882D01*
X0494814Y0366810D01*
X0494941Y0366734D01*
X0495066Y0366655D01*
X0495189Y0366572D01*
X0495310Y0366487D01*
X0495428Y0366398D01*
X0495544Y0366306D01*
X0495657Y0366210D01*
X0495768Y0366112D01*
X0495876Y0366011D01*
X0495982Y0365907D01*
X0496084Y0365801D01*
X0496184Y0365691D01*
X0496280Y0365579D01*
X0496374Y0365464D01*
X0496465Y0365347D01*
X0496552Y0365228D01*
X0496636Y0365106D01*
X0496717Y0364982D01*
X0496794Y0364856D01*
X0496868Y0364728D01*
X0496939Y0364598D01*
X0497006Y0364466D01*
X0497069Y0364332D01*
X0497129Y0364197D01*
X0497185Y0364060D01*
X0497238Y0363921D01*
X0497286Y0363781D01*
X0497331Y0363640D01*
X0497372Y0363498D01*
X0497410Y0363355D01*
X0497443Y0363211D01*
X0497473Y0363066D01*
X0497499Y0362920D01*
X0497520Y0362774D01*
X0497538Y0362627D01*
X0497552Y0362480D01*
X0497562Y0362332D01*
X0497568Y0362184D01*
X0497570Y0362036D01*
X0497568Y0361888D01*
X0497562Y0361740D01*
X0497552Y0361592D01*
X0497538Y0361445D01*
X0497520Y0361298D01*
X0497499Y0361152D01*
X0497473Y0361006D01*
X0497443Y0360861D01*
X0497410Y0360717D01*
X0497372Y0360574D01*
X0497331Y0360432D01*
X0497286Y0360291D01*
X0497238Y0360151D01*
X0497185Y0360012D01*
X0497129Y0359875D01*
X0497069Y0359740D01*
X0497006Y0359606D01*
X0496939Y0359474D01*
X0496868Y0359344D01*
X0496794Y0359216D01*
X0496717Y0359090D01*
X0496636Y0358966D01*
X0496552Y0358844D01*
X0496465Y0358725D01*
X0496374Y0358608D01*
X0496280Y0358493D01*
X0496184Y0358381D01*
X0496084Y0358271D01*
X0495982Y0358165D01*
X0495876Y0358061D01*
X0495768Y0357960D01*
X0495657Y0357862D01*
X0495544Y0357766D01*
X0495428Y0357674D01*
X0495310Y0357585D01*
X0495189Y0357500D01*
X0495066Y0357417D01*
X0494941Y0357338D01*
X0494814Y0357262D01*
X0494685Y0357190D01*
X0494554Y0357121D01*
X0494421Y0357056D01*
X0494286Y0356995D01*
X0494150Y0356937D01*
X0494013Y0356882D01*
X0493874Y0356832D01*
X0493733Y0356785D01*
X0493592Y0356742D01*
X0493449Y0356702D01*
X0493305Y0356667D01*
X0493161Y0356635D01*
X0493015Y0356608D01*
X0492869Y0356584D01*
X0492722Y0356564D01*
X0492575Y0356548D01*
X0492428Y0356536D01*
X0492280Y0356528D01*
X0492132Y0356524D01*
X0491984Y0356524D01*
X0491836Y0356528D01*
X0491688Y0356536D01*
X0491541Y0356548D01*
X0491394Y0356564D01*
X0491247Y0356584D01*
X0491101Y0356608D01*
X0490955Y0356635D01*
X0490811Y0356667D01*
X0490667Y0356702D01*
X0490524Y0356742D01*
X0490383Y0356785D01*
X0490242Y0356832D01*
X0490103Y0356882D01*
X0489966Y0356937D01*
X0489830Y0356995D01*
X0489695Y0357056D01*
X0489562Y0357121D01*
X0489431Y0357190D01*
X0489302Y0357262D01*
X0489175Y0357338D01*
X0489050Y0357417D01*
X0488927Y0357500D01*
X0488806Y0357585D01*
X0488688Y0357674D01*
X0488572Y0357766D01*
X0488459Y0357862D01*
X0488348Y0357960D01*
X0488240Y0358061D01*
X0488134Y0358165D01*
X0488032Y0358271D01*
X0487932Y0358381D01*
X0487836Y0358493D01*
X0487742Y0358608D01*
X0487651Y0358725D01*
X0487564Y0358844D01*
X0487480Y0358966D01*
X0487399Y0359090D01*
X0487322Y0359216D01*
X0487248Y0359344D01*
X0487177Y0359474D01*
X0487110Y0359606D01*
X0487047Y0359740D01*
X0486987Y0359875D01*
X0486931Y0360012D01*
X0486878Y0360151D01*
X0486830Y0360291D01*
X0486785Y0360432D01*
X0486744Y0360574D01*
X0486706Y0360717D01*
X0486673Y0360861D01*
X0486643Y0361006D01*
X0486617Y0361152D01*
X0486596Y0361298D01*
X0486578Y0361445D01*
X0486564Y0361592D01*
X0486554Y0361740D01*
X0486548Y0361888D01*
X0486546Y0362036D01*
X0486546Y0539202D02*
X0486548Y0539350D01*
X0486554Y0539498D01*
X0486564Y0539646D01*
X0486578Y0539793D01*
X0486596Y0539940D01*
X0486617Y0540086D01*
X0486643Y0540232D01*
X0486673Y0540377D01*
X0486706Y0540521D01*
X0486744Y0540664D01*
X0486785Y0540806D01*
X0486830Y0540947D01*
X0486878Y0541087D01*
X0486931Y0541226D01*
X0486987Y0541363D01*
X0487047Y0541498D01*
X0487110Y0541632D01*
X0487177Y0541764D01*
X0487248Y0541894D01*
X0487322Y0542022D01*
X0487399Y0542148D01*
X0487480Y0542272D01*
X0487564Y0542394D01*
X0487651Y0542513D01*
X0487742Y0542630D01*
X0487836Y0542745D01*
X0487932Y0542857D01*
X0488032Y0542967D01*
X0488134Y0543073D01*
X0488240Y0543177D01*
X0488348Y0543278D01*
X0488459Y0543376D01*
X0488572Y0543472D01*
X0488688Y0543564D01*
X0488806Y0543653D01*
X0488927Y0543738D01*
X0489050Y0543821D01*
X0489175Y0543900D01*
X0489302Y0543976D01*
X0489431Y0544048D01*
X0489562Y0544117D01*
X0489695Y0544182D01*
X0489830Y0544243D01*
X0489966Y0544301D01*
X0490103Y0544356D01*
X0490242Y0544406D01*
X0490383Y0544453D01*
X0490524Y0544496D01*
X0490667Y0544536D01*
X0490811Y0544571D01*
X0490955Y0544603D01*
X0491101Y0544630D01*
X0491247Y0544654D01*
X0491394Y0544674D01*
X0491541Y0544690D01*
X0491688Y0544702D01*
X0491836Y0544710D01*
X0491984Y0544714D01*
X0492132Y0544714D01*
X0492280Y0544710D01*
X0492428Y0544702D01*
X0492575Y0544690D01*
X0492722Y0544674D01*
X0492869Y0544654D01*
X0493015Y0544630D01*
X0493161Y0544603D01*
X0493305Y0544571D01*
X0493449Y0544536D01*
X0493592Y0544496D01*
X0493733Y0544453D01*
X0493874Y0544406D01*
X0494013Y0544356D01*
X0494150Y0544301D01*
X0494286Y0544243D01*
X0494421Y0544182D01*
X0494554Y0544117D01*
X0494685Y0544048D01*
X0494814Y0543976D01*
X0494941Y0543900D01*
X0495066Y0543821D01*
X0495189Y0543738D01*
X0495310Y0543653D01*
X0495428Y0543564D01*
X0495544Y0543472D01*
X0495657Y0543376D01*
X0495768Y0543278D01*
X0495876Y0543177D01*
X0495982Y0543073D01*
X0496084Y0542967D01*
X0496184Y0542857D01*
X0496280Y0542745D01*
X0496374Y0542630D01*
X0496465Y0542513D01*
X0496552Y0542394D01*
X0496636Y0542272D01*
X0496717Y0542148D01*
X0496794Y0542022D01*
X0496868Y0541894D01*
X0496939Y0541764D01*
X0497006Y0541632D01*
X0497069Y0541498D01*
X0497129Y0541363D01*
X0497185Y0541226D01*
X0497238Y0541087D01*
X0497286Y0540947D01*
X0497331Y0540806D01*
X0497372Y0540664D01*
X0497410Y0540521D01*
X0497443Y0540377D01*
X0497473Y0540232D01*
X0497499Y0540086D01*
X0497520Y0539940D01*
X0497538Y0539793D01*
X0497552Y0539646D01*
X0497562Y0539498D01*
X0497568Y0539350D01*
X0497570Y0539202D01*
X0497568Y0539054D01*
X0497562Y0538906D01*
X0497552Y0538758D01*
X0497538Y0538611D01*
X0497520Y0538464D01*
X0497499Y0538318D01*
X0497473Y0538172D01*
X0497443Y0538027D01*
X0497410Y0537883D01*
X0497372Y0537740D01*
X0497331Y0537598D01*
X0497286Y0537457D01*
X0497238Y0537317D01*
X0497185Y0537178D01*
X0497129Y0537041D01*
X0497069Y0536906D01*
X0497006Y0536772D01*
X0496939Y0536640D01*
X0496868Y0536510D01*
X0496794Y0536382D01*
X0496717Y0536256D01*
X0496636Y0536132D01*
X0496552Y0536010D01*
X0496465Y0535891D01*
X0496374Y0535774D01*
X0496280Y0535659D01*
X0496184Y0535547D01*
X0496084Y0535437D01*
X0495982Y0535331D01*
X0495876Y0535227D01*
X0495768Y0535126D01*
X0495657Y0535028D01*
X0495544Y0534932D01*
X0495428Y0534840D01*
X0495310Y0534751D01*
X0495189Y0534666D01*
X0495066Y0534583D01*
X0494941Y0534504D01*
X0494814Y0534428D01*
X0494685Y0534356D01*
X0494554Y0534287D01*
X0494421Y0534222D01*
X0494286Y0534161D01*
X0494150Y0534103D01*
X0494013Y0534048D01*
X0493874Y0533998D01*
X0493733Y0533951D01*
X0493592Y0533908D01*
X0493449Y0533868D01*
X0493305Y0533833D01*
X0493161Y0533801D01*
X0493015Y0533774D01*
X0492869Y0533750D01*
X0492722Y0533730D01*
X0492575Y0533714D01*
X0492428Y0533702D01*
X0492280Y0533694D01*
X0492132Y0533690D01*
X0491984Y0533690D01*
X0491836Y0533694D01*
X0491688Y0533702D01*
X0491541Y0533714D01*
X0491394Y0533730D01*
X0491247Y0533750D01*
X0491101Y0533774D01*
X0490955Y0533801D01*
X0490811Y0533833D01*
X0490667Y0533868D01*
X0490524Y0533908D01*
X0490383Y0533951D01*
X0490242Y0533998D01*
X0490103Y0534048D01*
X0489966Y0534103D01*
X0489830Y0534161D01*
X0489695Y0534222D01*
X0489562Y0534287D01*
X0489431Y0534356D01*
X0489302Y0534428D01*
X0489175Y0534504D01*
X0489050Y0534583D01*
X0488927Y0534666D01*
X0488806Y0534751D01*
X0488688Y0534840D01*
X0488572Y0534932D01*
X0488459Y0535028D01*
X0488348Y0535126D01*
X0488240Y0535227D01*
X0488134Y0535331D01*
X0488032Y0535437D01*
X0487932Y0535547D01*
X0487836Y0535659D01*
X0487742Y0535774D01*
X0487651Y0535891D01*
X0487564Y0536010D01*
X0487480Y0536132D01*
X0487399Y0536256D01*
X0487322Y0536382D01*
X0487248Y0536510D01*
X0487177Y0536640D01*
X0487110Y0536772D01*
X0487047Y0536906D01*
X0486987Y0537041D01*
X0486931Y0537178D01*
X0486878Y0537317D01*
X0486830Y0537457D01*
X0486785Y0537598D01*
X0486744Y0537740D01*
X0486706Y0537883D01*
X0486673Y0538027D01*
X0486643Y0538172D01*
X0486617Y0538318D01*
X0486596Y0538464D01*
X0486578Y0538611D01*
X0486564Y0538758D01*
X0486554Y0538906D01*
X0486548Y0539054D01*
X0486546Y0539202D01*
D11*
X0443058Y0512235D02*
X0441974Y0513319D01*
X0439805Y0513319D01*
X0438721Y0512235D01*
X0438721Y0511151D01*
X0443058Y0511151D01*
X0443058Y0510067D02*
X0443058Y0512235D01*
X0443058Y0510067D02*
X0441974Y0508982D01*
X0439805Y0508982D01*
X0436060Y0506814D02*
X0434976Y0506814D01*
X0433891Y0507898D01*
X0433891Y0513319D01*
X0433891Y0515488D02*
X0433891Y0516572D01*
X0430310Y0513319D02*
X0428142Y0513319D01*
X0427058Y0512235D01*
X0427058Y0508982D01*
X0430310Y0508982D01*
X0431395Y0510067D01*
X0430310Y0511151D01*
X0427058Y0511151D01*
X0424397Y0510067D02*
X0423312Y0511151D01*
X0420060Y0511151D01*
X0420060Y0512235D02*
X0420060Y0508982D01*
X0423312Y0508982D01*
X0424397Y0510067D01*
X0423312Y0513319D02*
X0421144Y0513319D01*
X0420060Y0512235D01*
X0417399Y0512235D02*
X0416314Y0513319D01*
X0413062Y0513319D01*
X0413062Y0515488D02*
X0413062Y0508982D01*
X0416314Y0508982D01*
X0417399Y0510067D01*
X0417399Y0512235D01*
X0410401Y0513319D02*
X0408232Y0513319D01*
X0409316Y0514404D02*
X0409316Y0510067D01*
X0408232Y0508982D01*
X0405735Y0510067D02*
X0404651Y0508982D01*
X0402483Y0508982D01*
X0401398Y0511151D02*
X0405735Y0511151D01*
X0405735Y0512235D02*
X0404651Y0513319D01*
X0402483Y0513319D01*
X0401398Y0512235D01*
X0401398Y0511151D01*
X0398737Y0512235D02*
X0398737Y0510067D01*
X0397653Y0508982D01*
X0394400Y0508982D01*
X0391739Y0508982D02*
X0391739Y0515488D01*
X0390655Y0513319D02*
X0388487Y0513319D01*
X0387402Y0512235D01*
X0387402Y0508982D01*
X0384741Y0508982D02*
X0383657Y0508982D01*
X0383657Y0510067D01*
X0384741Y0510067D01*
X0384741Y0508982D01*
X0381242Y0510067D02*
X0380158Y0508982D01*
X0376905Y0508982D01*
X0374244Y0510067D02*
X0373160Y0508982D01*
X0370992Y0508982D01*
X0369907Y0510067D01*
X0369907Y0512235D01*
X0370992Y0513319D01*
X0373160Y0513319D01*
X0374244Y0512235D01*
X0374244Y0510067D01*
X0376905Y0513319D02*
X0380158Y0513319D01*
X0381242Y0512235D01*
X0381242Y0510067D01*
X0390655Y0513319D02*
X0391739Y0512235D01*
X0394400Y0513319D02*
X0397653Y0513319D01*
X0398737Y0512235D01*
X0405735Y0512235D02*
X0405735Y0510067D01*
X0367247Y0508982D02*
X0367247Y0513319D01*
X0366162Y0513319D01*
X0365078Y0512235D01*
X0363994Y0513319D01*
X0362909Y0512235D01*
X0362909Y0508982D01*
X0365078Y0508982D02*
X0365078Y0512235D01*
X0246207Y0512235D02*
X0245123Y0513319D01*
X0242955Y0513319D01*
X0241870Y0512235D01*
X0241870Y0511151D01*
X0246207Y0511151D01*
X0246207Y0510067D02*
X0246207Y0512235D01*
X0246207Y0510067D02*
X0245123Y0508982D01*
X0242955Y0508982D01*
X0239209Y0506814D02*
X0238125Y0506814D01*
X0237041Y0507898D01*
X0237041Y0513319D01*
X0237041Y0515488D02*
X0237041Y0516572D01*
X0233460Y0513319D02*
X0231291Y0513319D01*
X0230207Y0512235D01*
X0230207Y0508982D01*
X0233460Y0508982D01*
X0234544Y0510067D01*
X0233460Y0511151D01*
X0230207Y0511151D01*
X0227546Y0510067D02*
X0226462Y0508982D01*
X0223209Y0508982D01*
X0223209Y0512235D01*
X0224293Y0513319D01*
X0226462Y0513319D01*
X0226462Y0511151D02*
X0223209Y0511151D01*
X0220548Y0512235D02*
X0219464Y0513319D01*
X0216211Y0513319D01*
X0216211Y0515488D02*
X0216211Y0508982D01*
X0219464Y0508982D01*
X0220548Y0510067D01*
X0220548Y0512235D01*
X0226462Y0511151D02*
X0227546Y0510067D01*
X0213550Y0513319D02*
X0211382Y0513319D01*
X0212466Y0514404D02*
X0212466Y0510067D01*
X0211382Y0508982D01*
X0208885Y0510067D02*
X0208885Y0512235D01*
X0207801Y0513319D01*
X0205632Y0513319D01*
X0204548Y0512235D01*
X0204548Y0511151D01*
X0208885Y0511151D01*
X0208885Y0510067D02*
X0207801Y0508982D01*
X0205632Y0508982D01*
X0201887Y0510067D02*
X0200803Y0508982D01*
X0197550Y0508982D01*
X0194889Y0508982D02*
X0194889Y0515488D01*
X0193805Y0513319D02*
X0191636Y0513319D01*
X0190552Y0512235D01*
X0190552Y0508982D01*
X0187891Y0508982D02*
X0187891Y0510067D01*
X0186807Y0510067D01*
X0186807Y0508982D01*
X0187891Y0508982D01*
X0184392Y0510067D02*
X0183308Y0508982D01*
X0180055Y0508982D01*
X0177394Y0510067D02*
X0176310Y0508982D01*
X0174141Y0508982D01*
X0173057Y0510067D01*
X0173057Y0512235D01*
X0174141Y0513319D01*
X0176310Y0513319D01*
X0177394Y0512235D01*
X0177394Y0510067D01*
X0180055Y0513319D02*
X0183308Y0513319D01*
X0184392Y0512235D01*
X0184392Y0510067D01*
X0193805Y0513319D02*
X0194889Y0512235D01*
X0197550Y0513319D02*
X0200803Y0513319D01*
X0201887Y0512235D01*
X0201887Y0510067D01*
X0170396Y0508982D02*
X0170396Y0513319D01*
X0169312Y0513319D01*
X0168228Y0512235D01*
X0167143Y0513319D01*
X0166059Y0512235D01*
X0166059Y0508982D01*
X0168228Y0508982D02*
X0168228Y0512235D01*
X0194889Y0318637D02*
X0194889Y0312132D01*
X0197550Y0312132D02*
X0200803Y0312132D01*
X0201887Y0313216D01*
X0201887Y0315385D01*
X0200803Y0316469D01*
X0197550Y0316469D01*
X0194889Y0315385D02*
X0193805Y0316469D01*
X0191636Y0316469D01*
X0190552Y0315385D01*
X0190552Y0312132D01*
X0187891Y0312132D02*
X0186807Y0312132D01*
X0186807Y0313216D01*
X0187891Y0313216D01*
X0187891Y0312132D01*
X0184392Y0313216D02*
X0183308Y0312132D01*
X0180055Y0312132D01*
X0177394Y0313216D02*
X0176310Y0312132D01*
X0174141Y0312132D01*
X0173057Y0313216D01*
X0173057Y0315385D01*
X0174141Y0316469D01*
X0176310Y0316469D01*
X0177394Y0315385D01*
X0177394Y0313216D01*
X0180055Y0316469D02*
X0183308Y0316469D01*
X0184392Y0315385D01*
X0184392Y0313216D01*
X0170396Y0312132D02*
X0170396Y0316469D01*
X0169312Y0316469D01*
X0168228Y0315385D01*
X0167143Y0316469D01*
X0166059Y0315385D01*
X0166059Y0312132D01*
X0168228Y0312132D02*
X0168228Y0315385D01*
X0204548Y0315385D02*
X0204548Y0314300D01*
X0208885Y0314300D01*
X0208885Y0313216D02*
X0208885Y0315385D01*
X0207801Y0316469D01*
X0205632Y0316469D01*
X0204548Y0315385D01*
X0205632Y0312132D02*
X0207801Y0312132D01*
X0208885Y0313216D01*
X0211382Y0312132D02*
X0212466Y0313216D01*
X0212466Y0317553D01*
X0213550Y0316469D02*
X0211382Y0316469D01*
X0216211Y0316469D02*
X0219464Y0316469D01*
X0220548Y0315385D01*
X0220548Y0313216D01*
X0219464Y0312132D01*
X0216211Y0312132D01*
X0216211Y0318637D01*
X0223209Y0315385D02*
X0223209Y0312132D01*
X0226462Y0312132D01*
X0227546Y0313216D01*
X0226462Y0314300D01*
X0223209Y0314300D01*
X0223209Y0315385D02*
X0224293Y0316469D01*
X0226462Y0316469D01*
X0230207Y0315385D02*
X0230207Y0312132D01*
X0233460Y0312132D01*
X0234544Y0313216D01*
X0233460Y0314300D01*
X0230207Y0314300D01*
X0230207Y0315385D02*
X0231291Y0316469D01*
X0233460Y0316469D01*
X0237041Y0316469D02*
X0237041Y0311048D01*
X0238125Y0309963D01*
X0239209Y0309963D01*
X0242955Y0312132D02*
X0245123Y0312132D01*
X0246207Y0313216D01*
X0246207Y0315385D01*
X0245123Y0316469D01*
X0242955Y0316469D01*
X0241870Y0315385D01*
X0241870Y0314300D01*
X0246207Y0314300D01*
X0237041Y0318637D02*
X0237041Y0319722D01*
X0362909Y0315385D02*
X0362909Y0312132D01*
X0365078Y0312132D02*
X0365078Y0315385D01*
X0363994Y0316469D01*
X0362909Y0315385D01*
X0365078Y0315385D02*
X0366162Y0316469D01*
X0367247Y0316469D01*
X0367247Y0312132D01*
X0369907Y0313216D02*
X0369907Y0315385D01*
X0370992Y0316469D01*
X0373160Y0316469D01*
X0374244Y0315385D01*
X0374244Y0313216D01*
X0373160Y0312132D01*
X0370992Y0312132D01*
X0369907Y0313216D01*
X0376905Y0312132D02*
X0380158Y0312132D01*
X0381242Y0313216D01*
X0381242Y0315385D01*
X0380158Y0316469D01*
X0376905Y0316469D01*
X0383657Y0313216D02*
X0383657Y0312132D01*
X0384741Y0312132D01*
X0384741Y0313216D01*
X0383657Y0313216D01*
X0387402Y0312132D02*
X0387402Y0315385D01*
X0388487Y0316469D01*
X0390655Y0316469D01*
X0391739Y0315385D01*
X0394400Y0316469D02*
X0397653Y0316469D01*
X0398737Y0315385D01*
X0398737Y0313216D01*
X0397653Y0312132D01*
X0394400Y0312132D01*
X0391739Y0312132D02*
X0391739Y0318637D01*
X0401398Y0315385D02*
X0401398Y0314300D01*
X0405735Y0314300D01*
X0405735Y0313216D02*
X0405735Y0315385D01*
X0404651Y0316469D01*
X0402483Y0316469D01*
X0401398Y0315385D01*
X0402483Y0312132D02*
X0404651Y0312132D01*
X0405735Y0313216D01*
X0408232Y0312132D02*
X0409316Y0313216D01*
X0409316Y0317553D01*
X0410401Y0316469D02*
X0408232Y0316469D01*
X0413062Y0316469D02*
X0416314Y0316469D01*
X0417399Y0315385D01*
X0417399Y0313216D01*
X0416314Y0312132D01*
X0413062Y0312132D01*
X0413062Y0318637D01*
X0420060Y0315385D02*
X0420060Y0312132D01*
X0423312Y0312132D01*
X0424397Y0313216D01*
X0423312Y0314300D01*
X0420060Y0314300D01*
X0420060Y0315385D02*
X0421144Y0316469D01*
X0423312Y0316469D01*
X0427058Y0315385D02*
X0427058Y0312132D01*
X0430310Y0312132D01*
X0431395Y0313216D01*
X0430310Y0314300D01*
X0427058Y0314300D01*
X0427058Y0315385D02*
X0428142Y0316469D01*
X0430310Y0316469D01*
X0433891Y0316469D02*
X0433891Y0311048D01*
X0434976Y0309963D01*
X0436060Y0309963D01*
X0439805Y0312132D02*
X0441974Y0312132D01*
X0443058Y0313216D01*
X0443058Y0315385D01*
X0441974Y0316469D01*
X0439805Y0316469D01*
X0438721Y0315385D01*
X0438721Y0314300D01*
X0443058Y0314300D01*
X0433891Y0318637D02*
X0433891Y0319722D01*
D12*
X0492058Y0352194D02*
X0492296Y0352191D01*
X0492534Y0352183D01*
X0492771Y0352168D01*
X0493008Y0352148D01*
X0493244Y0352122D01*
X0493480Y0352091D01*
X0493715Y0352054D01*
X0493949Y0352011D01*
X0494182Y0351962D01*
X0494414Y0351908D01*
X0494644Y0351848D01*
X0494873Y0351783D01*
X0495100Y0351712D01*
X0495325Y0351636D01*
X0495548Y0351554D01*
X0495770Y0351467D01*
X0495989Y0351375D01*
X0496206Y0351277D01*
X0496420Y0351175D01*
X0496632Y0351067D01*
X0496842Y0350953D01*
X0497048Y0350835D01*
X0497252Y0350712D01*
X0497452Y0350584D01*
X0497649Y0350452D01*
X0497844Y0350314D01*
X0498034Y0350172D01*
X0498222Y0350025D01*
X0498405Y0349874D01*
X0498585Y0349719D01*
X0498761Y0349559D01*
X0498933Y0349395D01*
X0499102Y0349226D01*
X0499266Y0349054D01*
X0499426Y0348878D01*
X0499581Y0348698D01*
X0499732Y0348515D01*
X0499879Y0348327D01*
X0500021Y0348137D01*
X0500159Y0347942D01*
X0500291Y0347745D01*
X0500419Y0347545D01*
X0500542Y0347341D01*
X0500660Y0347135D01*
X0500774Y0346925D01*
X0500882Y0346713D01*
X0500984Y0346499D01*
X0501082Y0346282D01*
X0501174Y0346063D01*
X0501261Y0345841D01*
X0501343Y0345618D01*
X0501419Y0345393D01*
X0501490Y0345166D01*
X0501555Y0344937D01*
X0501615Y0344707D01*
X0501669Y0344475D01*
X0501718Y0344242D01*
X0501761Y0344008D01*
X0501798Y0343773D01*
X0501829Y0343537D01*
X0501855Y0343301D01*
X0501875Y0343064D01*
X0501890Y0342827D01*
X0501898Y0342589D01*
X0501901Y0342351D01*
X0501901Y0165186D01*
X0501898Y0164948D01*
X0501890Y0164710D01*
X0501875Y0164473D01*
X0501855Y0164236D01*
X0501829Y0164000D01*
X0501798Y0163764D01*
X0501761Y0163529D01*
X0501718Y0163295D01*
X0501669Y0163062D01*
X0501615Y0162830D01*
X0501555Y0162600D01*
X0501490Y0162371D01*
X0501419Y0162144D01*
X0501343Y0161919D01*
X0501261Y0161696D01*
X0501174Y0161474D01*
X0501082Y0161255D01*
X0500984Y0161038D01*
X0500882Y0160824D01*
X0500774Y0160612D01*
X0500660Y0160402D01*
X0500542Y0160196D01*
X0500419Y0159992D01*
X0500291Y0159792D01*
X0500159Y0159595D01*
X0500021Y0159400D01*
X0499879Y0159210D01*
X0499732Y0159022D01*
X0499581Y0158839D01*
X0499426Y0158659D01*
X0499266Y0158483D01*
X0499102Y0158311D01*
X0498933Y0158142D01*
X0498761Y0157978D01*
X0498585Y0157818D01*
X0498405Y0157663D01*
X0498222Y0157512D01*
X0498034Y0157365D01*
X0497844Y0157223D01*
X0497649Y0157085D01*
X0497452Y0156953D01*
X0497252Y0156825D01*
X0497048Y0156702D01*
X0496842Y0156584D01*
X0496632Y0156470D01*
X0496420Y0156362D01*
X0496206Y0156260D01*
X0495989Y0156162D01*
X0495770Y0156070D01*
X0495548Y0155983D01*
X0495325Y0155901D01*
X0495100Y0155825D01*
X0494873Y0155754D01*
X0494644Y0155689D01*
X0494414Y0155629D01*
X0494182Y0155575D01*
X0493949Y0155526D01*
X0493715Y0155483D01*
X0493480Y0155446D01*
X0493244Y0155415D01*
X0493008Y0155389D01*
X0492771Y0155369D01*
X0492534Y0155354D01*
X0492296Y0155346D01*
X0492058Y0155343D01*
X0313909Y0155343D01*
X0313909Y0155344D02*
X0313683Y0155359D01*
X0313458Y0155379D01*
X0313233Y0155404D01*
X0313009Y0155435D01*
X0312785Y0155471D01*
X0312563Y0155513D01*
X0312342Y0155560D01*
X0312122Y0155613D01*
X0311903Y0155670D01*
X0311686Y0155733D01*
X0311470Y0155802D01*
X0311256Y0155875D01*
X0311044Y0155954D01*
X0310833Y0156037D01*
X0310625Y0156126D01*
X0310419Y0156220D01*
X0310216Y0156318D01*
X0310015Y0156422D01*
X0309816Y0156530D01*
X0309620Y0156644D01*
X0309427Y0156762D01*
X0309237Y0156884D01*
X0309050Y0157011D01*
X0308865Y0157143D01*
X0308685Y0157279D01*
X0308507Y0157419D01*
X0308333Y0157563D01*
X0308162Y0157712D01*
X0307996Y0157865D01*
X0307832Y0158022D01*
X0307673Y0158182D01*
X0307518Y0158347D01*
X0307366Y0158515D01*
X0307219Y0158687D01*
X0307076Y0158862D01*
X0306937Y0159041D01*
X0306803Y0159223D01*
X0306673Y0159408D01*
X0306547Y0159596D01*
X0306427Y0159788D01*
X0306310Y0159982D01*
X0306199Y0160179D01*
X0306092Y0160378D01*
X0305990Y0160580D01*
X0305893Y0160785D01*
X0305801Y0160991D01*
X0305714Y0161200D01*
X0305632Y0161411D01*
X0305556Y0161624D01*
X0305484Y0161839D01*
X0305418Y0162055D01*
X0305356Y0162273D01*
X0305301Y0162492D01*
X0305250Y0162712D01*
X0305205Y0162934D01*
X0305165Y0163157D01*
X0305131Y0163381D01*
X0305102Y0163605D01*
X0305078Y0163830D01*
X0305060Y0164055D01*
X0305047Y0164281D01*
X0305040Y0164508D01*
X0305038Y0164734D01*
X0305042Y0164960D01*
X0305051Y0165186D01*
X0305048Y0164948D01*
X0305040Y0164710D01*
X0305025Y0164473D01*
X0305005Y0164236D01*
X0304979Y0164000D01*
X0304948Y0163764D01*
X0304911Y0163529D01*
X0304868Y0163295D01*
X0304819Y0163062D01*
X0304765Y0162830D01*
X0304705Y0162600D01*
X0304640Y0162371D01*
X0304569Y0162144D01*
X0304493Y0161919D01*
X0304411Y0161696D01*
X0304324Y0161474D01*
X0304232Y0161255D01*
X0304134Y0161038D01*
X0304032Y0160824D01*
X0303924Y0160612D01*
X0303810Y0160402D01*
X0303692Y0160196D01*
X0303569Y0159992D01*
X0303441Y0159792D01*
X0303309Y0159595D01*
X0303171Y0159400D01*
X0303029Y0159210D01*
X0302882Y0159022D01*
X0302731Y0158839D01*
X0302576Y0158659D01*
X0302416Y0158483D01*
X0302252Y0158311D01*
X0302083Y0158142D01*
X0301911Y0157978D01*
X0301735Y0157818D01*
X0301555Y0157663D01*
X0301372Y0157512D01*
X0301184Y0157365D01*
X0300994Y0157223D01*
X0300799Y0157085D01*
X0300602Y0156953D01*
X0300402Y0156825D01*
X0300198Y0156702D01*
X0299992Y0156584D01*
X0299782Y0156470D01*
X0299570Y0156362D01*
X0299356Y0156260D01*
X0299139Y0156162D01*
X0298920Y0156070D01*
X0298698Y0155983D01*
X0298475Y0155901D01*
X0298250Y0155825D01*
X0298023Y0155754D01*
X0297794Y0155689D01*
X0297564Y0155629D01*
X0297332Y0155575D01*
X0297099Y0155526D01*
X0296865Y0155483D01*
X0296630Y0155446D01*
X0296394Y0155415D01*
X0296158Y0155389D01*
X0295921Y0155369D01*
X0295684Y0155354D01*
X0295446Y0155346D01*
X0295208Y0155343D01*
X0117058Y0155343D01*
X0117058Y0155344D02*
X0116832Y0155359D01*
X0116607Y0155379D01*
X0116382Y0155404D01*
X0116158Y0155435D01*
X0115934Y0155471D01*
X0115712Y0155513D01*
X0115491Y0155560D01*
X0115271Y0155613D01*
X0115052Y0155670D01*
X0114835Y0155733D01*
X0114619Y0155802D01*
X0114405Y0155875D01*
X0114193Y0155954D01*
X0113982Y0156037D01*
X0113774Y0156126D01*
X0113568Y0156220D01*
X0113365Y0156318D01*
X0113164Y0156422D01*
X0112965Y0156530D01*
X0112769Y0156644D01*
X0112576Y0156762D01*
X0112386Y0156884D01*
X0112199Y0157011D01*
X0112014Y0157143D01*
X0111834Y0157279D01*
X0111656Y0157419D01*
X0111482Y0157563D01*
X0111311Y0157712D01*
X0111145Y0157865D01*
X0110981Y0158022D01*
X0110822Y0158182D01*
X0110667Y0158347D01*
X0110515Y0158515D01*
X0110368Y0158687D01*
X0110225Y0158862D01*
X0110086Y0159041D01*
X0109952Y0159223D01*
X0109822Y0159408D01*
X0109696Y0159596D01*
X0109576Y0159788D01*
X0109459Y0159982D01*
X0109348Y0160179D01*
X0109241Y0160378D01*
X0109139Y0160580D01*
X0109042Y0160785D01*
X0108950Y0160991D01*
X0108863Y0161200D01*
X0108781Y0161411D01*
X0108705Y0161624D01*
X0108633Y0161839D01*
X0108567Y0162055D01*
X0108505Y0162273D01*
X0108450Y0162492D01*
X0108399Y0162712D01*
X0108354Y0162934D01*
X0108314Y0163157D01*
X0108280Y0163381D01*
X0108251Y0163605D01*
X0108227Y0163830D01*
X0108209Y0164055D01*
X0108196Y0164281D01*
X0108189Y0164508D01*
X0108187Y0164734D01*
X0108191Y0164960D01*
X0108200Y0165186D01*
X0108200Y0342351D01*
X0108203Y0342589D01*
X0108211Y0342827D01*
X0108226Y0343064D01*
X0108246Y0343301D01*
X0108272Y0343537D01*
X0108303Y0343773D01*
X0108340Y0344008D01*
X0108383Y0344242D01*
X0108432Y0344475D01*
X0108486Y0344707D01*
X0108546Y0344937D01*
X0108611Y0345166D01*
X0108682Y0345393D01*
X0108758Y0345618D01*
X0108840Y0345841D01*
X0108927Y0346063D01*
X0109019Y0346282D01*
X0109117Y0346499D01*
X0109219Y0346713D01*
X0109327Y0346925D01*
X0109441Y0347135D01*
X0109559Y0347341D01*
X0109682Y0347545D01*
X0109810Y0347745D01*
X0109942Y0347942D01*
X0110080Y0348137D01*
X0110222Y0348327D01*
X0110369Y0348515D01*
X0110520Y0348698D01*
X0110675Y0348878D01*
X0110835Y0349054D01*
X0110999Y0349226D01*
X0111168Y0349395D01*
X0111340Y0349559D01*
X0111516Y0349719D01*
X0111696Y0349874D01*
X0111879Y0350025D01*
X0112067Y0350172D01*
X0112257Y0350314D01*
X0112452Y0350452D01*
X0112649Y0350584D01*
X0112849Y0350712D01*
X0113053Y0350835D01*
X0113259Y0350953D01*
X0113469Y0351067D01*
X0113681Y0351175D01*
X0113895Y0351277D01*
X0114112Y0351375D01*
X0114331Y0351467D01*
X0114553Y0351554D01*
X0114776Y0351636D01*
X0115001Y0351712D01*
X0115228Y0351783D01*
X0115457Y0351848D01*
X0115687Y0351908D01*
X0115919Y0351962D01*
X0116152Y0352011D01*
X0116386Y0352054D01*
X0116621Y0352091D01*
X0116857Y0352122D01*
X0117093Y0352148D01*
X0117330Y0352168D01*
X0117567Y0352183D01*
X0117805Y0352191D01*
X0118043Y0352194D01*
X0117058Y0352194D01*
X0116832Y0352209D01*
X0116607Y0352229D01*
X0116382Y0352254D01*
X0116158Y0352285D01*
X0115934Y0352321D01*
X0115712Y0352363D01*
X0115491Y0352410D01*
X0115271Y0352463D01*
X0115052Y0352520D01*
X0114835Y0352583D01*
X0114619Y0352652D01*
X0114405Y0352725D01*
X0114193Y0352804D01*
X0113982Y0352887D01*
X0113774Y0352976D01*
X0113568Y0353070D01*
X0113365Y0353168D01*
X0113164Y0353272D01*
X0112965Y0353380D01*
X0112769Y0353494D01*
X0112576Y0353612D01*
X0112386Y0353734D01*
X0112199Y0353861D01*
X0112014Y0353993D01*
X0111834Y0354129D01*
X0111656Y0354269D01*
X0111482Y0354413D01*
X0111311Y0354562D01*
X0111145Y0354715D01*
X0110981Y0354872D01*
X0110822Y0355032D01*
X0110667Y0355197D01*
X0110515Y0355365D01*
X0110368Y0355537D01*
X0110225Y0355712D01*
X0110086Y0355891D01*
X0109952Y0356073D01*
X0109822Y0356258D01*
X0109696Y0356446D01*
X0109576Y0356638D01*
X0109459Y0356832D01*
X0109348Y0357029D01*
X0109241Y0357228D01*
X0109139Y0357430D01*
X0109042Y0357635D01*
X0108950Y0357841D01*
X0108863Y0358050D01*
X0108781Y0358261D01*
X0108705Y0358474D01*
X0108633Y0358689D01*
X0108567Y0358905D01*
X0108505Y0359123D01*
X0108450Y0359342D01*
X0108399Y0359562D01*
X0108354Y0359784D01*
X0108314Y0360007D01*
X0108280Y0360231D01*
X0108251Y0360455D01*
X0108227Y0360680D01*
X0108209Y0360905D01*
X0108196Y0361131D01*
X0108189Y0361358D01*
X0108187Y0361584D01*
X0108191Y0361810D01*
X0108200Y0362036D01*
X0108200Y0539202D01*
X0108203Y0539440D01*
X0108211Y0539678D01*
X0108226Y0539915D01*
X0108246Y0540152D01*
X0108272Y0540388D01*
X0108303Y0540624D01*
X0108340Y0540859D01*
X0108383Y0541093D01*
X0108432Y0541326D01*
X0108486Y0541558D01*
X0108546Y0541788D01*
X0108611Y0542017D01*
X0108682Y0542244D01*
X0108758Y0542469D01*
X0108840Y0542692D01*
X0108927Y0542914D01*
X0109019Y0543133D01*
X0109117Y0543350D01*
X0109219Y0543564D01*
X0109327Y0543776D01*
X0109441Y0543986D01*
X0109559Y0544192D01*
X0109682Y0544396D01*
X0109810Y0544596D01*
X0109942Y0544793D01*
X0110080Y0544988D01*
X0110222Y0545178D01*
X0110369Y0545366D01*
X0110520Y0545549D01*
X0110675Y0545729D01*
X0110835Y0545905D01*
X0110999Y0546077D01*
X0111168Y0546246D01*
X0111340Y0546410D01*
X0111516Y0546570D01*
X0111696Y0546725D01*
X0111879Y0546876D01*
X0112067Y0547023D01*
X0112257Y0547165D01*
X0112452Y0547303D01*
X0112649Y0547435D01*
X0112849Y0547563D01*
X0113053Y0547686D01*
X0113259Y0547804D01*
X0113469Y0547918D01*
X0113681Y0548026D01*
X0113895Y0548128D01*
X0114112Y0548226D01*
X0114331Y0548318D01*
X0114553Y0548405D01*
X0114776Y0548487D01*
X0115001Y0548563D01*
X0115228Y0548634D01*
X0115457Y0548699D01*
X0115687Y0548759D01*
X0115919Y0548813D01*
X0116152Y0548862D01*
X0116386Y0548905D01*
X0116621Y0548942D01*
X0116857Y0548973D01*
X0117093Y0548999D01*
X0117330Y0549019D01*
X0117567Y0549034D01*
X0117805Y0549042D01*
X0118043Y0549045D01*
X0118043Y0549044D02*
X0295208Y0549044D01*
X0295208Y0549045D02*
X0295446Y0549042D01*
X0295684Y0549034D01*
X0295921Y0549019D01*
X0296158Y0548999D01*
X0296394Y0548973D01*
X0296630Y0548942D01*
X0296865Y0548905D01*
X0297099Y0548862D01*
X0297332Y0548813D01*
X0297564Y0548759D01*
X0297794Y0548699D01*
X0298023Y0548634D01*
X0298250Y0548563D01*
X0298475Y0548487D01*
X0298698Y0548405D01*
X0298920Y0548318D01*
X0299139Y0548226D01*
X0299356Y0548128D01*
X0299570Y0548026D01*
X0299782Y0547918D01*
X0299992Y0547804D01*
X0300198Y0547686D01*
X0300402Y0547563D01*
X0300602Y0547435D01*
X0300799Y0547303D01*
X0300994Y0547165D01*
X0301184Y0547023D01*
X0301372Y0546876D01*
X0301555Y0546725D01*
X0301735Y0546570D01*
X0301911Y0546410D01*
X0302083Y0546246D01*
X0302252Y0546077D01*
X0302416Y0545905D01*
X0302576Y0545729D01*
X0302731Y0545549D01*
X0302882Y0545366D01*
X0303029Y0545178D01*
X0303171Y0544988D01*
X0303309Y0544793D01*
X0303441Y0544596D01*
X0303569Y0544396D01*
X0303692Y0544192D01*
X0303810Y0543986D01*
X0303924Y0543776D01*
X0304032Y0543564D01*
X0304134Y0543350D01*
X0304232Y0543133D01*
X0304324Y0542914D01*
X0304411Y0542692D01*
X0304493Y0542469D01*
X0304569Y0542244D01*
X0304640Y0542017D01*
X0304705Y0541788D01*
X0304765Y0541558D01*
X0304819Y0541326D01*
X0304868Y0541093D01*
X0304911Y0540859D01*
X0304948Y0540624D01*
X0304979Y0540388D01*
X0305005Y0540152D01*
X0305025Y0539915D01*
X0305040Y0539678D01*
X0305048Y0539440D01*
X0305051Y0539202D01*
X0305050Y0539202D02*
X0305053Y0539440D01*
X0305061Y0539678D01*
X0305076Y0539915D01*
X0305096Y0540152D01*
X0305122Y0540388D01*
X0305153Y0540624D01*
X0305190Y0540859D01*
X0305233Y0541093D01*
X0305282Y0541326D01*
X0305336Y0541558D01*
X0305396Y0541788D01*
X0305461Y0542017D01*
X0305532Y0542244D01*
X0305608Y0542469D01*
X0305690Y0542692D01*
X0305777Y0542914D01*
X0305869Y0543133D01*
X0305967Y0543350D01*
X0306069Y0543564D01*
X0306177Y0543776D01*
X0306291Y0543986D01*
X0306409Y0544192D01*
X0306532Y0544396D01*
X0306660Y0544596D01*
X0306792Y0544793D01*
X0306930Y0544988D01*
X0307072Y0545178D01*
X0307219Y0545366D01*
X0307370Y0545549D01*
X0307525Y0545729D01*
X0307685Y0545905D01*
X0307849Y0546077D01*
X0308018Y0546246D01*
X0308190Y0546410D01*
X0308366Y0546570D01*
X0308546Y0546725D01*
X0308729Y0546876D01*
X0308917Y0547023D01*
X0309107Y0547165D01*
X0309302Y0547303D01*
X0309499Y0547435D01*
X0309699Y0547563D01*
X0309903Y0547686D01*
X0310109Y0547804D01*
X0310319Y0547918D01*
X0310531Y0548026D01*
X0310745Y0548128D01*
X0310962Y0548226D01*
X0311181Y0548318D01*
X0311403Y0548405D01*
X0311626Y0548487D01*
X0311851Y0548563D01*
X0312078Y0548634D01*
X0312307Y0548699D01*
X0312537Y0548759D01*
X0312769Y0548813D01*
X0313002Y0548862D01*
X0313236Y0548905D01*
X0313471Y0548942D01*
X0313707Y0548973D01*
X0313943Y0548999D01*
X0314180Y0549019D01*
X0314417Y0549034D01*
X0314655Y0549042D01*
X0314893Y0549045D01*
X0314893Y0549044D02*
X0492058Y0549044D01*
X0492058Y0549045D02*
X0492296Y0549042D01*
X0492534Y0549034D01*
X0492771Y0549019D01*
X0493008Y0548999D01*
X0493244Y0548973D01*
X0493480Y0548942D01*
X0493715Y0548905D01*
X0493949Y0548862D01*
X0494182Y0548813D01*
X0494414Y0548759D01*
X0494644Y0548699D01*
X0494873Y0548634D01*
X0495100Y0548563D01*
X0495325Y0548487D01*
X0495548Y0548405D01*
X0495770Y0548318D01*
X0495989Y0548226D01*
X0496206Y0548128D01*
X0496420Y0548026D01*
X0496632Y0547918D01*
X0496842Y0547804D01*
X0497048Y0547686D01*
X0497252Y0547563D01*
X0497452Y0547435D01*
X0497649Y0547303D01*
X0497844Y0547165D01*
X0498034Y0547023D01*
X0498222Y0546876D01*
X0498405Y0546725D01*
X0498585Y0546570D01*
X0498761Y0546410D01*
X0498933Y0546246D01*
X0499102Y0546077D01*
X0499266Y0545905D01*
X0499426Y0545729D01*
X0499581Y0545549D01*
X0499732Y0545366D01*
X0499879Y0545178D01*
X0500021Y0544988D01*
X0500159Y0544793D01*
X0500291Y0544596D01*
X0500419Y0544396D01*
X0500542Y0544192D01*
X0500660Y0543986D01*
X0500774Y0543776D01*
X0500882Y0543564D01*
X0500984Y0543350D01*
X0501082Y0543133D01*
X0501174Y0542914D01*
X0501261Y0542692D01*
X0501343Y0542469D01*
X0501419Y0542244D01*
X0501490Y0542017D01*
X0501555Y0541788D01*
X0501615Y0541558D01*
X0501669Y0541326D01*
X0501718Y0541093D01*
X0501761Y0540859D01*
X0501798Y0540624D01*
X0501829Y0540388D01*
X0501855Y0540152D01*
X0501875Y0539915D01*
X0501890Y0539678D01*
X0501898Y0539440D01*
X0501901Y0539202D01*
X0501901Y0362036D01*
X0501898Y0361798D01*
X0501890Y0361560D01*
X0501875Y0361323D01*
X0501855Y0361086D01*
X0501829Y0360850D01*
X0501798Y0360614D01*
X0501761Y0360379D01*
X0501718Y0360145D01*
X0501669Y0359912D01*
X0501615Y0359680D01*
X0501555Y0359450D01*
X0501490Y0359221D01*
X0501419Y0358994D01*
X0501343Y0358769D01*
X0501261Y0358546D01*
X0501174Y0358324D01*
X0501082Y0358105D01*
X0500984Y0357888D01*
X0500882Y0357674D01*
X0500774Y0357462D01*
X0500660Y0357252D01*
X0500542Y0357046D01*
X0500419Y0356842D01*
X0500291Y0356642D01*
X0500159Y0356445D01*
X0500021Y0356250D01*
X0499879Y0356060D01*
X0499732Y0355872D01*
X0499581Y0355689D01*
X0499426Y0355509D01*
X0499266Y0355333D01*
X0499102Y0355161D01*
X0498933Y0354992D01*
X0498761Y0354828D01*
X0498585Y0354668D01*
X0498405Y0354513D01*
X0498222Y0354362D01*
X0498034Y0354215D01*
X0497844Y0354073D01*
X0497649Y0353935D01*
X0497452Y0353803D01*
X0497252Y0353675D01*
X0497048Y0353552D01*
X0496842Y0353434D01*
X0496632Y0353320D01*
X0496420Y0353212D01*
X0496206Y0353110D01*
X0495989Y0353012D01*
X0495770Y0352920D01*
X0495548Y0352833D01*
X0495325Y0352751D01*
X0495100Y0352675D01*
X0494873Y0352604D01*
X0494644Y0352539D01*
X0494414Y0352479D01*
X0494182Y0352425D01*
X0493949Y0352376D01*
X0493715Y0352333D01*
X0493480Y0352296D01*
X0493244Y0352265D01*
X0493008Y0352239D01*
X0492771Y0352219D01*
X0492534Y0352204D01*
X0492296Y0352196D01*
X0492058Y0352193D01*
D13*
X0426109Y0361769D02*
X0426109Y0365172D01*
X0424408Y0365172D01*
X0423841Y0364605D01*
X0423841Y0363471D01*
X0424408Y0362904D01*
X0426109Y0362904D01*
X0424975Y0362904D02*
X0423841Y0361769D01*
X0422426Y0361769D02*
X0420158Y0361769D01*
X0418743Y0362336D02*
X0418176Y0361769D01*
X0417042Y0361769D01*
X0416475Y0362336D01*
X0416475Y0363471D01*
X0417609Y0363471D01*
X0418743Y0364605D02*
X0418743Y0362336D01*
X0418743Y0364605D02*
X0418176Y0365172D01*
X0417042Y0365172D01*
X0416475Y0364605D01*
X0415060Y0364038D02*
X0413926Y0365172D01*
X0413926Y0361769D01*
X0415060Y0361769D02*
X0412791Y0361769D01*
X0411377Y0361769D02*
X0409108Y0361769D01*
X0410243Y0361769D02*
X0410243Y0365172D01*
X0411377Y0364038D01*
X0407694Y0364038D02*
X0406559Y0365172D01*
X0406559Y0361769D01*
X0405425Y0361769D02*
X0407694Y0361769D01*
X0404011Y0361769D02*
X0404011Y0362336D01*
X0401742Y0364605D01*
X0401742Y0365172D01*
X0404011Y0365172D01*
X0400327Y0363471D02*
X0398059Y0363471D01*
X0396644Y0363471D02*
X0395510Y0364038D01*
X0394943Y0364038D01*
X0394376Y0363471D01*
X0394376Y0362336D01*
X0394943Y0361769D01*
X0396077Y0361769D01*
X0396644Y0362336D01*
X0396644Y0363471D02*
X0396644Y0365172D01*
X0394376Y0365172D01*
X0392961Y0365172D02*
X0392961Y0362904D01*
X0391827Y0361769D01*
X0390693Y0362904D01*
X0390693Y0365172D01*
X0394779Y0375654D02*
X0419377Y0375654D01*
X0419377Y0389276D01*
X0394779Y0389276D01*
X0394779Y0375654D01*
X0420158Y0365172D02*
X0422426Y0365172D01*
X0422426Y0361769D01*
X0422426Y0363471D02*
X0421292Y0363471D01*
X0421341Y0424269D02*
X0423609Y0424269D01*
X0423609Y0427672D01*
X0421341Y0427672D01*
X0419926Y0427105D02*
X0419926Y0424836D01*
X0419359Y0424269D01*
X0418225Y0424269D01*
X0417658Y0424836D01*
X0417658Y0425971D01*
X0418792Y0425971D01*
X0417658Y0427105D02*
X0418225Y0427672D01*
X0419359Y0427672D01*
X0419926Y0427105D01*
X0422475Y0425971D02*
X0423609Y0425971D01*
X0425024Y0425971D02*
X0425591Y0425404D01*
X0427293Y0425404D01*
X0426158Y0425404D02*
X0425024Y0424269D01*
X0425024Y0425971D02*
X0425024Y0427105D01*
X0425591Y0427672D01*
X0427293Y0427672D01*
X0427293Y0424269D01*
X0416243Y0424269D02*
X0413975Y0424269D01*
X0415109Y0424269D02*
X0415109Y0427672D01*
X0416243Y0426538D01*
X0412560Y0426538D02*
X0411426Y0427672D01*
X0411426Y0424269D01*
X0412560Y0424269D02*
X0410291Y0424269D01*
X0408877Y0424269D02*
X0406608Y0424269D01*
X0407743Y0424269D02*
X0407743Y0427672D01*
X0408877Y0426538D01*
X0405194Y0427672D02*
X0402925Y0427672D01*
X0402925Y0427105D01*
X0405194Y0424836D01*
X0405194Y0424269D01*
X0401511Y0425971D02*
X0399242Y0425971D01*
X0397827Y0427105D02*
X0397260Y0427672D01*
X0396126Y0427672D01*
X0395559Y0427105D01*
X0395559Y0426538D01*
X0396126Y0425971D01*
X0395559Y0425404D01*
X0395559Y0424836D01*
X0396126Y0424269D01*
X0397260Y0424269D01*
X0397827Y0424836D01*
X0396693Y0425971D02*
X0396126Y0425971D01*
X0394144Y0425404D02*
X0393010Y0424269D01*
X0391876Y0425404D01*
X0391876Y0427672D01*
X0390461Y0427105D02*
X0389894Y0427672D01*
X0388760Y0427672D01*
X0388193Y0427105D01*
X0388193Y0426538D01*
X0388760Y0425971D01*
X0388193Y0425404D01*
X0388193Y0424836D01*
X0388760Y0424269D01*
X0389894Y0424269D01*
X0390461Y0424836D01*
X0389327Y0425971D02*
X0388760Y0425971D01*
X0394144Y0425404D02*
X0394144Y0427672D01*
X0394779Y0438154D02*
X0419377Y0438154D01*
X0419377Y0451776D01*
X0394779Y0451776D01*
X0394779Y0438154D01*
X0356007Y0450527D02*
X0355439Y0449960D01*
X0354305Y0449960D01*
X0353738Y0450527D01*
X0353738Y0451095D01*
X0354305Y0451662D01*
X0354872Y0451662D01*
X0354305Y0451662D02*
X0353738Y0452229D01*
X0353738Y0452796D01*
X0354305Y0453363D01*
X0355439Y0453363D01*
X0356007Y0452796D01*
X0352323Y0453363D02*
X0352323Y0451095D01*
X0351189Y0449960D01*
X0350055Y0451095D01*
X0350055Y0453363D01*
X0348640Y0452796D02*
X0348073Y0453363D01*
X0346939Y0453363D01*
X0346372Y0452796D01*
X0346372Y0452229D01*
X0346939Y0451662D01*
X0346372Y0451095D01*
X0346372Y0450527D01*
X0346939Y0449960D01*
X0348073Y0449960D01*
X0348640Y0450527D01*
X0347506Y0451662D02*
X0346939Y0451662D01*
X0342213Y0451662D02*
X0341079Y0452229D01*
X0340512Y0452229D01*
X0339944Y0451662D01*
X0339944Y0450527D01*
X0340512Y0449960D01*
X0341646Y0449960D01*
X0342213Y0450527D01*
X0342213Y0451662D02*
X0342213Y0453363D01*
X0339944Y0453363D01*
X0332233Y0452796D02*
X0331666Y0453363D01*
X0330531Y0453363D01*
X0329964Y0452796D01*
X0329964Y0452229D01*
X0330531Y0451662D01*
X0329964Y0451095D01*
X0329964Y0450527D01*
X0330531Y0449960D01*
X0331666Y0449960D01*
X0332233Y0450527D01*
X0331098Y0451662D02*
X0330531Y0451662D01*
X0320928Y0450577D02*
X0320361Y0450009D01*
X0319226Y0450009D01*
X0318659Y0450577D01*
X0318659Y0451711D01*
X0319793Y0451711D01*
X0318659Y0452845D02*
X0319226Y0453412D01*
X0320361Y0453412D01*
X0320928Y0452845D01*
X0320928Y0450577D01*
X0317245Y0450009D02*
X0317245Y0453412D01*
X0314976Y0450009D01*
X0314976Y0453412D01*
X0313561Y0453412D02*
X0311860Y0453412D01*
X0311293Y0452845D01*
X0311293Y0450577D01*
X0311860Y0450009D01*
X0313561Y0450009D01*
X0313561Y0453412D01*
X0313561Y0478700D02*
X0311860Y0478700D01*
X0311293Y0479268D01*
X0311293Y0481536D01*
X0311860Y0482103D01*
X0313561Y0482103D01*
X0313561Y0478700D01*
X0314976Y0478700D02*
X0314976Y0482103D01*
X0317245Y0482103D02*
X0314976Y0478700D01*
X0317245Y0478700D02*
X0317245Y0482103D01*
X0318659Y0481536D02*
X0319226Y0482103D01*
X0320361Y0482103D01*
X0320928Y0481536D01*
X0320928Y0479268D01*
X0320361Y0478700D01*
X0319226Y0478700D01*
X0318659Y0479268D01*
X0318659Y0480402D01*
X0319793Y0480402D01*
X0329964Y0480920D02*
X0329964Y0481487D01*
X0330531Y0482054D01*
X0331666Y0482054D01*
X0332233Y0481487D01*
X0329964Y0480920D02*
X0332233Y0478651D01*
X0329964Y0478651D01*
X0339944Y0480500D02*
X0342213Y0480500D01*
X0340512Y0482202D01*
X0340512Y0478799D01*
X0346372Y0479268D02*
X0346939Y0478700D01*
X0348073Y0478700D01*
X0348640Y0479268D01*
X0350055Y0479835D02*
X0350055Y0482103D01*
X0348640Y0481536D02*
X0348073Y0482103D01*
X0346939Y0482103D01*
X0346372Y0481536D01*
X0346372Y0480969D01*
X0346939Y0480402D01*
X0346372Y0479835D01*
X0346372Y0479268D01*
X0346939Y0480402D02*
X0347506Y0480402D01*
X0350055Y0479835D02*
X0351189Y0478700D01*
X0352323Y0479835D01*
X0352323Y0482103D01*
X0353738Y0481536D02*
X0353738Y0480969D01*
X0354305Y0480402D01*
X0353738Y0479835D01*
X0353738Y0479268D01*
X0354305Y0478700D01*
X0355439Y0478700D01*
X0356007Y0479268D01*
X0354872Y0480402D02*
X0354305Y0480402D01*
X0353738Y0481536D02*
X0354305Y0482103D01*
X0355439Y0482103D01*
X0356007Y0481536D01*
X0355398Y0507441D02*
X0355965Y0508008D01*
X0355398Y0507441D02*
X0354264Y0507441D01*
X0353697Y0508008D01*
X0353697Y0509142D01*
X0354264Y0509709D01*
X0354831Y0509709D01*
X0355965Y0509142D01*
X0355965Y0510843D01*
X0353697Y0510843D01*
X0352282Y0510843D02*
X0352282Y0508575D01*
X0351148Y0507441D01*
X0350013Y0508575D01*
X0350013Y0510843D01*
X0346026Y0510276D02*
X0346026Y0509709D01*
X0345459Y0509142D01*
X0344325Y0509142D01*
X0343758Y0508575D01*
X0343758Y0508008D01*
X0344325Y0507441D01*
X0345459Y0507441D01*
X0346026Y0508008D01*
X0346026Y0510276D02*
X0345459Y0510843D01*
X0344325Y0510843D01*
X0343758Y0510276D01*
X0342343Y0510276D02*
X0342343Y0508008D01*
X0341776Y0507441D01*
X0340642Y0507441D01*
X0340074Y0508008D01*
X0338660Y0507441D02*
X0336391Y0507441D01*
X0338660Y0507441D02*
X0338660Y0510843D01*
X0340074Y0510276D02*
X0340642Y0510843D01*
X0341776Y0510843D01*
X0342343Y0510276D01*
X0333428Y0510375D02*
X0333428Y0509808D01*
X0332861Y0509240D01*
X0331726Y0509240D01*
X0331159Y0508673D01*
X0331159Y0508106D01*
X0331726Y0507539D01*
X0332861Y0507539D01*
X0333428Y0508106D01*
X0333428Y0510375D02*
X0332861Y0510942D01*
X0331726Y0510942D01*
X0331159Y0510375D01*
X0329745Y0510942D02*
X0329745Y0507539D01*
X0328043Y0507539D01*
X0327476Y0508106D01*
X0327476Y0510375D01*
X0328043Y0510942D01*
X0329745Y0510942D01*
X0326061Y0509808D02*
X0324927Y0510942D01*
X0323793Y0509808D01*
X0323793Y0507539D01*
X0323793Y0509240D02*
X0326061Y0509240D01*
X0326061Y0509808D02*
X0326061Y0507539D01*
X0320928Y0508008D02*
X0320928Y0510276D01*
X0320361Y0510843D01*
X0319226Y0510843D01*
X0318659Y0510276D01*
X0318659Y0509142D02*
X0319793Y0509142D01*
X0318659Y0509142D02*
X0318659Y0508008D01*
X0319226Y0507441D01*
X0320361Y0507441D01*
X0320928Y0508008D01*
X0317245Y0507441D02*
X0317245Y0510843D01*
X0314976Y0507441D01*
X0314976Y0510843D01*
X0313561Y0510843D02*
X0311860Y0510843D01*
X0311293Y0510276D01*
X0311293Y0508008D01*
X0311860Y0507441D01*
X0313561Y0507441D01*
X0313561Y0510843D01*
X0327631Y0536033D02*
X0329900Y0539436D01*
X0331315Y0538869D02*
X0331315Y0537735D01*
X0331882Y0537167D01*
X0333583Y0537167D01*
X0333583Y0536033D02*
X0333583Y0539436D01*
X0331882Y0539436D01*
X0331315Y0538869D01*
X0332449Y0537167D02*
X0331315Y0536033D01*
X0329900Y0536033D02*
X0327631Y0539436D01*
X0337907Y0539534D02*
X0340176Y0536131D01*
X0337907Y0536131D02*
X0340176Y0539534D01*
X0341590Y0539534D02*
X0343859Y0539534D01*
X0342725Y0539534D02*
X0342725Y0536131D01*
X0349964Y0537266D02*
X0349964Y0539534D01*
X0349964Y0537266D02*
X0351098Y0536131D01*
X0352233Y0537266D01*
X0352233Y0539534D01*
X0353647Y0539534D02*
X0355916Y0539534D01*
X0355916Y0537833D01*
X0354782Y0538400D01*
X0354214Y0538400D01*
X0353647Y0537833D01*
X0353647Y0536699D01*
X0354214Y0536131D01*
X0355349Y0536131D01*
X0355916Y0536699D01*
X0350565Y0424721D02*
X0351699Y0424154D01*
X0352833Y0423020D01*
X0351132Y0423020D01*
X0350565Y0422453D01*
X0350565Y0421886D01*
X0351132Y0421319D01*
X0352266Y0421319D01*
X0352833Y0421886D01*
X0352833Y0423020D01*
X0342164Y0421886D02*
X0342164Y0421319D01*
X0342164Y0421886D02*
X0339895Y0424154D01*
X0339895Y0424721D01*
X0342164Y0424721D01*
X0333443Y0424154D02*
X0333443Y0423587D01*
X0332876Y0423020D01*
X0331175Y0423020D01*
X0331175Y0421886D02*
X0331175Y0424154D01*
X0331742Y0424721D01*
X0332876Y0424721D01*
X0333443Y0424154D01*
X0333443Y0426296D02*
X0332876Y0426863D01*
X0331742Y0425729D01*
X0331175Y0426296D01*
X0331175Y0421886D02*
X0331742Y0421319D01*
X0332876Y0421319D01*
X0333443Y0421886D01*
X0321026Y0421886D02*
X0320459Y0421319D01*
X0319325Y0421319D01*
X0318758Y0421886D01*
X0318758Y0423020D01*
X0319892Y0423020D01*
X0321026Y0424154D02*
X0321026Y0421886D01*
X0321026Y0424154D02*
X0320459Y0424721D01*
X0319325Y0424721D01*
X0318758Y0424154D01*
X0317343Y0424721D02*
X0315074Y0421319D01*
X0315074Y0424721D01*
X0313660Y0424721D02*
X0311958Y0424721D01*
X0311391Y0424154D01*
X0311391Y0421886D01*
X0311958Y0421319D01*
X0313660Y0421319D01*
X0313660Y0424721D01*
X0317343Y0424721D02*
X0317343Y0421319D01*
X0327631Y0397458D02*
X0328199Y0396890D01*
X0329333Y0398025D01*
X0329900Y0397458D01*
X0329333Y0395883D02*
X0328199Y0395883D01*
X0327631Y0395316D01*
X0329900Y0393047D01*
X0329333Y0392480D01*
X0328199Y0392480D01*
X0327631Y0393047D01*
X0327631Y0395316D01*
X0329333Y0395883D02*
X0329900Y0395316D01*
X0329900Y0393047D01*
X0331315Y0392480D02*
X0333583Y0392480D01*
X0332449Y0392480D02*
X0332449Y0395883D01*
X0333583Y0394749D01*
X0338675Y0394749D02*
X0338675Y0395316D01*
X0339242Y0395883D01*
X0340376Y0395883D01*
X0340943Y0395316D01*
X0338675Y0394749D02*
X0340943Y0392480D01*
X0338675Y0392480D01*
X0342358Y0392480D02*
X0344627Y0392480D01*
X0343492Y0392480D02*
X0343492Y0395883D01*
X0344627Y0394749D01*
X0349964Y0394749D02*
X0350531Y0394181D01*
X0349964Y0393614D01*
X0349964Y0393047D01*
X0350531Y0392480D01*
X0351666Y0392480D01*
X0352233Y0393047D01*
X0353647Y0392480D02*
X0355916Y0392480D01*
X0354782Y0392480D02*
X0354782Y0395883D01*
X0355916Y0394749D01*
X0352233Y0395316D02*
X0351666Y0395883D01*
X0350531Y0395883D01*
X0349964Y0395316D01*
X0349964Y0394749D01*
X0350531Y0394181D02*
X0351098Y0394181D01*
X0320977Y0395217D02*
X0320977Y0392949D01*
X0320410Y0392381D01*
X0319276Y0392381D01*
X0318708Y0392949D01*
X0318708Y0394083D01*
X0319843Y0394083D01*
X0320977Y0395217D02*
X0320410Y0395784D01*
X0319276Y0395784D01*
X0318708Y0395217D01*
X0317294Y0395784D02*
X0315025Y0392381D01*
X0315025Y0395784D01*
X0313611Y0395784D02*
X0311909Y0395784D01*
X0311342Y0395217D01*
X0311342Y0392949D01*
X0311909Y0392381D01*
X0313611Y0392381D01*
X0313611Y0395784D01*
X0317294Y0395784D02*
X0317294Y0392381D01*
X0327631Y0342586D02*
X0329900Y0339183D01*
X0331315Y0339183D02*
X0332449Y0340317D01*
X0331882Y0340317D02*
X0333583Y0340317D01*
X0333583Y0339183D02*
X0333583Y0342586D01*
X0331882Y0342586D01*
X0331315Y0342018D01*
X0331315Y0340884D01*
X0331882Y0340317D01*
X0329900Y0342586D02*
X0327631Y0339183D01*
X0337907Y0339281D02*
X0340176Y0342684D01*
X0341590Y0342684D02*
X0343859Y0342684D01*
X0342725Y0342684D02*
X0342725Y0339281D01*
X0340176Y0339281D02*
X0337907Y0342684D01*
X0349964Y0342684D02*
X0349964Y0340415D01*
X0351098Y0339281D01*
X0352233Y0340415D01*
X0352233Y0342684D01*
X0353647Y0342684D02*
X0355916Y0342684D01*
X0355916Y0340983D01*
X0354782Y0341550D01*
X0354214Y0341550D01*
X0353647Y0340983D01*
X0353647Y0339848D01*
X0354214Y0339281D01*
X0355349Y0339281D01*
X0355916Y0339848D01*
X0355965Y0313993D02*
X0355965Y0312292D01*
X0354831Y0312859D01*
X0354264Y0312859D01*
X0353697Y0312292D01*
X0353697Y0311157D01*
X0354264Y0310590D01*
X0355398Y0310590D01*
X0355965Y0311157D01*
X0355965Y0313993D02*
X0353697Y0313993D01*
X0352282Y0313993D02*
X0352282Y0311724D01*
X0351148Y0310590D01*
X0350013Y0311724D01*
X0350013Y0313993D01*
X0346026Y0313426D02*
X0346026Y0312859D01*
X0345459Y0312292D01*
X0344325Y0312292D01*
X0343758Y0311724D01*
X0343758Y0311157D01*
X0344325Y0310590D01*
X0345459Y0310590D01*
X0346026Y0311157D01*
X0346026Y0313426D02*
X0345459Y0313993D01*
X0344325Y0313993D01*
X0343758Y0313426D01*
X0342343Y0313426D02*
X0342343Y0311157D01*
X0341776Y0310590D01*
X0340642Y0310590D01*
X0340074Y0311157D01*
X0338660Y0310590D02*
X0338660Y0313993D01*
X0340074Y0313426D02*
X0340642Y0313993D01*
X0341776Y0313993D01*
X0342343Y0313426D01*
X0338660Y0310590D02*
X0336391Y0310590D01*
X0333428Y0311256D02*
X0332861Y0310689D01*
X0331726Y0310689D01*
X0331159Y0311256D01*
X0331159Y0311823D01*
X0331726Y0312390D01*
X0332861Y0312390D01*
X0333428Y0312957D01*
X0333428Y0313524D01*
X0332861Y0314091D01*
X0331726Y0314091D01*
X0331159Y0313524D01*
X0329745Y0314091D02*
X0329745Y0310689D01*
X0328043Y0310689D01*
X0327476Y0311256D01*
X0327476Y0313524D01*
X0328043Y0314091D01*
X0329745Y0314091D01*
X0326061Y0312957D02*
X0324927Y0314091D01*
X0323793Y0312957D01*
X0323793Y0310689D01*
X0323793Y0312390D02*
X0326061Y0312390D01*
X0326061Y0312957D02*
X0326061Y0310689D01*
X0320928Y0311157D02*
X0320361Y0310590D01*
X0319226Y0310590D01*
X0318659Y0311157D01*
X0318659Y0312292D01*
X0319793Y0312292D01*
X0318659Y0313426D02*
X0319226Y0313993D01*
X0320361Y0313993D01*
X0320928Y0313426D01*
X0320928Y0311157D01*
X0317245Y0310590D02*
X0317245Y0313993D01*
X0314976Y0310590D01*
X0314976Y0313993D01*
X0313561Y0313993D02*
X0311860Y0313993D01*
X0311293Y0313426D01*
X0311293Y0311157D01*
X0311860Y0310590D01*
X0313561Y0310590D01*
X0313561Y0313993D01*
X0313561Y0285253D02*
X0311860Y0285253D01*
X0311293Y0284686D01*
X0311293Y0282417D01*
X0311860Y0281850D01*
X0313561Y0281850D01*
X0313561Y0285253D01*
X0314976Y0285253D02*
X0314976Y0281850D01*
X0317245Y0285253D01*
X0317245Y0281850D01*
X0318659Y0282417D02*
X0318659Y0283551D01*
X0319793Y0283551D01*
X0318659Y0282417D02*
X0319226Y0281850D01*
X0320361Y0281850D01*
X0320928Y0282417D01*
X0320928Y0284686D01*
X0320361Y0285253D01*
X0319226Y0285253D01*
X0318659Y0284686D01*
X0329964Y0284637D02*
X0329964Y0284069D01*
X0332233Y0281801D01*
X0329964Y0281801D01*
X0329964Y0284637D02*
X0330531Y0285204D01*
X0331666Y0285204D01*
X0332233Y0284637D01*
X0339944Y0283650D02*
X0342213Y0283650D01*
X0340512Y0285351D01*
X0340512Y0281948D01*
X0346372Y0282417D02*
X0346939Y0281850D01*
X0348073Y0281850D01*
X0348640Y0282417D01*
X0350055Y0282984D02*
X0350055Y0285253D01*
X0348640Y0284686D02*
X0348073Y0285253D01*
X0346939Y0285253D01*
X0346372Y0284686D01*
X0346372Y0284119D01*
X0346939Y0283551D01*
X0346372Y0282984D01*
X0346372Y0282417D01*
X0346939Y0283551D02*
X0347506Y0283551D01*
X0350055Y0282984D02*
X0351189Y0281850D01*
X0352323Y0282984D01*
X0352323Y0285253D01*
X0353738Y0284686D02*
X0353738Y0284119D01*
X0354305Y0283551D01*
X0353738Y0282984D01*
X0353738Y0282417D01*
X0354305Y0281850D01*
X0355439Y0281850D01*
X0356007Y0282417D01*
X0354872Y0283551D02*
X0354305Y0283551D01*
X0353738Y0284686D02*
X0354305Y0285253D01*
X0355439Y0285253D01*
X0356007Y0284686D01*
X0355439Y0256513D02*
X0354305Y0256513D01*
X0353738Y0255946D01*
X0353738Y0255378D01*
X0354305Y0254811D01*
X0353738Y0254244D01*
X0353738Y0253677D01*
X0354305Y0253110D01*
X0355439Y0253110D01*
X0356007Y0253677D01*
X0354872Y0254811D02*
X0354305Y0254811D01*
X0356007Y0255946D02*
X0355439Y0256513D01*
X0352323Y0256513D02*
X0352323Y0254244D01*
X0351189Y0253110D01*
X0350055Y0254244D01*
X0350055Y0256513D01*
X0348640Y0255946D02*
X0348073Y0256513D01*
X0346939Y0256513D01*
X0346372Y0255946D01*
X0346372Y0255378D01*
X0346939Y0254811D01*
X0346372Y0254244D01*
X0346372Y0253677D01*
X0346939Y0253110D01*
X0348073Y0253110D01*
X0348640Y0253677D01*
X0347506Y0254811D02*
X0346939Y0254811D01*
X0342213Y0254811D02*
X0341079Y0255378D01*
X0340512Y0255378D01*
X0339944Y0254811D01*
X0339944Y0253677D01*
X0340512Y0253110D01*
X0341646Y0253110D01*
X0342213Y0253677D01*
X0342213Y0254811D02*
X0342213Y0256513D01*
X0339944Y0256513D01*
X0332233Y0255946D02*
X0331666Y0256513D01*
X0330531Y0256513D01*
X0329964Y0255946D01*
X0329964Y0255378D01*
X0330531Y0254811D01*
X0329964Y0254244D01*
X0329964Y0253677D01*
X0330531Y0253110D01*
X0331666Y0253110D01*
X0332233Y0253677D01*
X0331098Y0254811D02*
X0330531Y0254811D01*
X0320928Y0253726D02*
X0320361Y0253159D01*
X0319226Y0253159D01*
X0318659Y0253726D01*
X0318659Y0254861D01*
X0319793Y0254861D01*
X0318659Y0255995D02*
X0319226Y0256562D01*
X0320361Y0256562D01*
X0320928Y0255995D01*
X0320928Y0253726D01*
X0317245Y0253159D02*
X0317245Y0256562D01*
X0314976Y0253159D01*
X0314976Y0256562D01*
X0313561Y0256562D02*
X0311860Y0256562D01*
X0311293Y0255995D01*
X0311293Y0253726D01*
X0311860Y0253159D01*
X0313561Y0253159D01*
X0313561Y0256562D01*
X0313660Y0227871D02*
X0311958Y0227871D01*
X0311391Y0227304D01*
X0311391Y0225035D01*
X0311958Y0224468D01*
X0313660Y0224468D01*
X0313660Y0227871D01*
X0315074Y0227871D02*
X0315074Y0224468D01*
X0317343Y0227871D01*
X0317343Y0224468D01*
X0318758Y0225035D02*
X0319325Y0224468D01*
X0320459Y0224468D01*
X0321026Y0225035D01*
X0321026Y0227304D01*
X0320459Y0227871D01*
X0319325Y0227871D01*
X0318758Y0227304D01*
X0318758Y0226170D02*
X0319892Y0226170D01*
X0318758Y0226170D02*
X0318758Y0225035D01*
X0331175Y0225035D02*
X0331742Y0224468D01*
X0332876Y0224468D01*
X0333443Y0225035D01*
X0332876Y0226170D02*
X0331175Y0226170D01*
X0331175Y0227304D02*
X0331742Y0227871D01*
X0332876Y0227871D01*
X0333443Y0227304D01*
X0333443Y0226737D01*
X0332876Y0226170D01*
X0331175Y0225035D02*
X0331175Y0227304D01*
X0331742Y0228879D02*
X0331175Y0229446D01*
X0331742Y0228879D02*
X0332876Y0230013D01*
X0333443Y0229446D01*
X0339895Y0227871D02*
X0339895Y0227304D01*
X0342164Y0225035D01*
X0342164Y0224468D01*
X0342164Y0227871D02*
X0339895Y0227871D01*
X0350565Y0227871D02*
X0351699Y0227304D01*
X0352833Y0226170D01*
X0351132Y0226170D01*
X0350565Y0225602D01*
X0350565Y0225035D01*
X0351132Y0224468D01*
X0352266Y0224468D01*
X0352833Y0225035D01*
X0352833Y0226170D01*
X0351666Y0199032D02*
X0350531Y0199032D01*
X0349964Y0198465D01*
X0349964Y0197898D01*
X0350531Y0197331D01*
X0349964Y0196764D01*
X0349964Y0196197D01*
X0350531Y0195630D01*
X0351666Y0195630D01*
X0352233Y0196197D01*
X0353647Y0195630D02*
X0355916Y0195630D01*
X0354782Y0195630D02*
X0354782Y0199032D01*
X0355916Y0197898D01*
X0352233Y0198465D02*
X0351666Y0199032D01*
X0351098Y0197331D02*
X0350531Y0197331D01*
X0344627Y0197898D02*
X0343492Y0199032D01*
X0343492Y0195630D01*
X0342358Y0195630D02*
X0344627Y0195630D01*
X0340943Y0195630D02*
X0338675Y0197898D01*
X0338675Y0198465D01*
X0339242Y0199032D01*
X0340376Y0199032D01*
X0340943Y0198465D01*
X0340943Y0195630D02*
X0338675Y0195630D01*
X0333583Y0195630D02*
X0331315Y0195630D01*
X0332449Y0195630D02*
X0332449Y0199032D01*
X0333583Y0197898D01*
X0329900Y0198465D02*
X0329900Y0196197D01*
X0327631Y0198465D01*
X0327631Y0196197D01*
X0328199Y0195630D01*
X0329333Y0195630D01*
X0329900Y0196197D01*
X0329900Y0198465D02*
X0329333Y0199032D01*
X0328199Y0199032D01*
X0327631Y0198465D01*
X0328199Y0200040D02*
X0327631Y0200607D01*
X0328199Y0200040D02*
X0329333Y0201174D01*
X0329900Y0200607D01*
X0320977Y0198367D02*
X0320977Y0196098D01*
X0320410Y0195531D01*
X0319276Y0195531D01*
X0318708Y0196098D01*
X0318708Y0197233D01*
X0319843Y0197233D01*
X0320977Y0198367D02*
X0320410Y0198934D01*
X0319276Y0198934D01*
X0318708Y0198367D01*
X0317294Y0198934D02*
X0315025Y0195531D01*
X0315025Y0198934D01*
X0313611Y0198934D02*
X0311909Y0198934D01*
X0311342Y0198367D01*
X0311342Y0196098D01*
X0311909Y0195531D01*
X0313611Y0195531D01*
X0313611Y0198934D01*
X0317294Y0198934D02*
X0317294Y0195531D01*
X0388193Y0227986D02*
X0388760Y0227419D01*
X0389894Y0227419D01*
X0390461Y0227986D01*
X0391876Y0228553D02*
X0391876Y0230822D01*
X0390461Y0230255D02*
X0389894Y0230822D01*
X0388760Y0230822D01*
X0388193Y0230255D01*
X0388193Y0229688D01*
X0388760Y0229120D01*
X0388193Y0228553D01*
X0388193Y0227986D01*
X0388760Y0229120D02*
X0389327Y0229120D01*
X0391876Y0228553D02*
X0393010Y0227419D01*
X0394144Y0228553D01*
X0394144Y0230822D01*
X0395559Y0230255D02*
X0395559Y0229688D01*
X0396126Y0229120D01*
X0395559Y0228553D01*
X0395559Y0227986D01*
X0396126Y0227419D01*
X0397260Y0227419D01*
X0397827Y0227986D01*
X0396693Y0229120D02*
X0396126Y0229120D01*
X0395559Y0230255D02*
X0396126Y0230822D01*
X0397260Y0230822D01*
X0397827Y0230255D01*
X0399242Y0229120D02*
X0401511Y0229120D01*
X0402925Y0230255D02*
X0405194Y0227986D01*
X0405194Y0227419D01*
X0406608Y0227419D02*
X0408877Y0227419D01*
X0407743Y0227419D02*
X0407743Y0230822D01*
X0408877Y0229688D01*
X0410291Y0227419D02*
X0412560Y0227419D01*
X0411426Y0227419D02*
X0411426Y0230822D01*
X0412560Y0229688D01*
X0413975Y0227419D02*
X0416243Y0227419D01*
X0415109Y0227419D02*
X0415109Y0230822D01*
X0416243Y0229688D01*
X0417658Y0230255D02*
X0418225Y0230822D01*
X0419359Y0230822D01*
X0419926Y0230255D01*
X0419926Y0227986D01*
X0419359Y0227419D01*
X0418225Y0227419D01*
X0417658Y0227986D01*
X0417658Y0229120D01*
X0418792Y0229120D01*
X0421341Y0227419D02*
X0423609Y0227419D01*
X0423609Y0230822D01*
X0421341Y0230822D01*
X0422475Y0229120D02*
X0423609Y0229120D01*
X0425024Y0229120D02*
X0425591Y0228553D01*
X0427293Y0228553D01*
X0427293Y0227419D02*
X0427293Y0230822D01*
X0425591Y0230822D01*
X0425024Y0230255D01*
X0425024Y0229120D01*
X0426158Y0228553D02*
X0425024Y0227419D01*
X0419377Y0241304D02*
X0394779Y0241304D01*
X0394779Y0254926D01*
X0419377Y0254926D01*
X0419377Y0241304D01*
X0405194Y0230822D02*
X0402925Y0230822D01*
X0402925Y0230255D01*
X0394779Y0192426D02*
X0419377Y0192426D01*
X0419377Y0178804D01*
X0394779Y0178804D01*
X0394779Y0192426D01*
X0394376Y0168322D02*
X0396644Y0168322D01*
X0396644Y0166620D01*
X0395510Y0167188D01*
X0394943Y0167188D01*
X0394376Y0166620D01*
X0394376Y0165486D01*
X0394943Y0164919D01*
X0396077Y0164919D01*
X0396644Y0165486D01*
X0398059Y0166620D02*
X0400327Y0166620D01*
X0401742Y0167755D02*
X0404011Y0165486D01*
X0404011Y0164919D01*
X0405425Y0164919D02*
X0407694Y0164919D01*
X0406559Y0164919D02*
X0406559Y0168322D01*
X0407694Y0167188D01*
X0409108Y0164919D02*
X0411377Y0164919D01*
X0410243Y0164919D02*
X0410243Y0168322D01*
X0411377Y0167188D01*
X0412791Y0164919D02*
X0415060Y0164919D01*
X0413926Y0164919D02*
X0413926Y0168322D01*
X0415060Y0167188D01*
X0416475Y0167755D02*
X0417042Y0168322D01*
X0418176Y0168322D01*
X0418743Y0167755D01*
X0418743Y0165486D01*
X0418176Y0164919D01*
X0417042Y0164919D01*
X0416475Y0165486D01*
X0416475Y0166620D01*
X0417609Y0166620D01*
X0420158Y0164919D02*
X0422426Y0164919D01*
X0422426Y0168322D01*
X0420158Y0168322D01*
X0421292Y0166620D02*
X0422426Y0166620D01*
X0423841Y0166620D02*
X0424408Y0166053D01*
X0426109Y0166053D01*
X0424975Y0166053D02*
X0423841Y0164919D01*
X0423841Y0166620D02*
X0423841Y0167755D01*
X0424408Y0168322D01*
X0426109Y0168322D01*
X0426109Y0164919D01*
X0404011Y0168322D02*
X0401742Y0168322D01*
X0401742Y0167755D01*
X0392961Y0168322D02*
X0392961Y0166053D01*
X0391827Y0164919D01*
X0390693Y0166053D01*
X0390693Y0168322D01*
X0229259Y0168322D02*
X0229259Y0164919D01*
X0229259Y0166053D02*
X0227558Y0166053D01*
X0226990Y0166620D01*
X0226990Y0167755D01*
X0227558Y0168322D01*
X0229259Y0168322D01*
X0228125Y0166053D02*
X0226990Y0164919D01*
X0225576Y0164919D02*
X0223307Y0164919D01*
X0221893Y0165486D02*
X0221326Y0164919D01*
X0220191Y0164919D01*
X0219624Y0165486D01*
X0219624Y0166620D01*
X0220758Y0166620D01*
X0219624Y0167755D02*
X0220191Y0168322D01*
X0221326Y0168322D01*
X0221893Y0167755D01*
X0221893Y0165486D01*
X0224442Y0166620D02*
X0225576Y0166620D01*
X0225576Y0164919D02*
X0225576Y0168322D01*
X0223307Y0168322D01*
X0218210Y0167188D02*
X0217075Y0168322D01*
X0217075Y0164919D01*
X0215941Y0164919D02*
X0218210Y0164919D01*
X0214526Y0164919D02*
X0212258Y0164919D01*
X0213392Y0164919D02*
X0213392Y0168322D01*
X0214526Y0167188D01*
X0210843Y0167188D02*
X0209709Y0168322D01*
X0209709Y0164919D01*
X0210843Y0164919D02*
X0208575Y0164919D01*
X0207160Y0164919D02*
X0207160Y0165486D01*
X0204892Y0167755D01*
X0204892Y0168322D01*
X0207160Y0168322D01*
X0203477Y0166620D02*
X0201208Y0166620D01*
X0199794Y0166620D02*
X0198660Y0167188D01*
X0198092Y0167188D01*
X0197525Y0166620D01*
X0197525Y0165486D01*
X0198092Y0164919D01*
X0199227Y0164919D01*
X0199794Y0165486D01*
X0199794Y0166620D02*
X0199794Y0168322D01*
X0197525Y0168322D01*
X0196111Y0168322D02*
X0196111Y0166053D01*
X0194976Y0164919D01*
X0193842Y0166053D01*
X0193842Y0168322D01*
X0197928Y0178804D02*
X0222527Y0178804D01*
X0222527Y0192426D01*
X0197928Y0192426D01*
X0197928Y0178804D01*
X0159066Y0195630D02*
X0156797Y0195630D01*
X0157931Y0195630D02*
X0157931Y0199032D01*
X0159066Y0197898D01*
X0155382Y0198465D02*
X0154815Y0199032D01*
X0153681Y0199032D01*
X0153114Y0198465D01*
X0153114Y0197898D01*
X0153681Y0197331D01*
X0153114Y0196764D01*
X0153114Y0196197D01*
X0153681Y0195630D01*
X0154815Y0195630D01*
X0155382Y0196197D01*
X0154248Y0197331D02*
X0153681Y0197331D01*
X0147776Y0197898D02*
X0146642Y0199032D01*
X0146642Y0195630D01*
X0147776Y0195630D02*
X0145508Y0195630D01*
X0144093Y0195630D02*
X0141824Y0197898D01*
X0141824Y0198465D01*
X0142392Y0199032D01*
X0143526Y0199032D01*
X0144093Y0198465D01*
X0144093Y0195630D02*
X0141824Y0195630D01*
X0136733Y0195630D02*
X0134464Y0195630D01*
X0135599Y0195630D02*
X0135599Y0199032D01*
X0136733Y0197898D01*
X0133050Y0198465D02*
X0132483Y0199032D01*
X0131348Y0199032D01*
X0130781Y0198465D01*
X0133050Y0196197D01*
X0132483Y0195630D01*
X0131348Y0195630D01*
X0130781Y0196197D01*
X0130781Y0198465D01*
X0131348Y0200040D02*
X0130781Y0200607D01*
X0131348Y0200040D02*
X0132483Y0201174D01*
X0133050Y0200607D01*
X0133050Y0198465D02*
X0133050Y0196197D01*
X0124127Y0196098D02*
X0124127Y0198367D01*
X0123559Y0198934D01*
X0122425Y0198934D01*
X0121858Y0198367D01*
X0121858Y0197233D02*
X0122992Y0197233D01*
X0121858Y0197233D02*
X0121858Y0196098D01*
X0122425Y0195531D01*
X0123559Y0195531D01*
X0124127Y0196098D01*
X0120443Y0195531D02*
X0120443Y0198934D01*
X0118175Y0195531D01*
X0118175Y0198934D01*
X0116760Y0198934D02*
X0115059Y0198934D01*
X0114492Y0198367D01*
X0114492Y0196098D01*
X0115059Y0195531D01*
X0116760Y0195531D01*
X0116760Y0198934D01*
X0116810Y0224468D02*
X0115108Y0224468D01*
X0114541Y0225035D01*
X0114541Y0227304D01*
X0115108Y0227871D01*
X0116810Y0227871D01*
X0116810Y0224468D01*
X0118224Y0224468D02*
X0118224Y0227871D01*
X0120493Y0227871D02*
X0118224Y0224468D01*
X0120493Y0224468D02*
X0120493Y0227871D01*
X0121907Y0227304D02*
X0122474Y0227871D01*
X0123609Y0227871D01*
X0124176Y0227304D01*
X0124176Y0225035D01*
X0123609Y0224468D01*
X0122474Y0224468D01*
X0121907Y0225035D01*
X0121907Y0226170D01*
X0123042Y0226170D01*
X0134324Y0226170D02*
X0136026Y0226170D01*
X0136593Y0226737D01*
X0136593Y0227304D01*
X0136026Y0227871D01*
X0134892Y0227871D01*
X0134324Y0227304D01*
X0134324Y0225035D01*
X0134892Y0224468D01*
X0136026Y0224468D01*
X0136593Y0225035D01*
X0134892Y0228879D02*
X0134324Y0229446D01*
X0134892Y0228879D02*
X0136026Y0230013D01*
X0136593Y0229446D01*
X0143045Y0227871D02*
X0143045Y0227304D01*
X0145313Y0225035D01*
X0145313Y0224468D01*
X0145313Y0227871D02*
X0143045Y0227871D01*
X0153714Y0227871D02*
X0154848Y0227304D01*
X0155983Y0226170D01*
X0154281Y0226170D01*
X0153714Y0225602D01*
X0153714Y0225035D01*
X0154281Y0224468D01*
X0155416Y0224468D01*
X0155983Y0225035D01*
X0155983Y0226170D01*
X0157455Y0253110D02*
X0158589Y0253110D01*
X0159156Y0253677D01*
X0158022Y0254811D02*
X0157455Y0254811D01*
X0156888Y0254244D01*
X0156888Y0253677D01*
X0157455Y0253110D01*
X0157455Y0254811D02*
X0156888Y0255378D01*
X0156888Y0255946D01*
X0157455Y0256513D01*
X0158589Y0256513D01*
X0159156Y0255946D01*
X0155473Y0256513D02*
X0155473Y0254244D01*
X0154339Y0253110D01*
X0153204Y0254244D01*
X0153204Y0256513D01*
X0151790Y0255946D02*
X0151223Y0256513D01*
X0150088Y0256513D01*
X0149521Y0255946D01*
X0149521Y0255378D01*
X0150088Y0254811D01*
X0149521Y0254244D01*
X0149521Y0253677D01*
X0150088Y0253110D01*
X0151223Y0253110D01*
X0151790Y0253677D01*
X0150656Y0254811D02*
X0150088Y0254811D01*
X0145363Y0254811D02*
X0144228Y0255378D01*
X0143661Y0255378D01*
X0143094Y0254811D01*
X0143094Y0253677D01*
X0143661Y0253110D01*
X0144796Y0253110D01*
X0145363Y0253677D01*
X0145363Y0254811D02*
X0145363Y0256513D01*
X0143094Y0256513D01*
X0135382Y0255946D02*
X0134815Y0256513D01*
X0133681Y0256513D01*
X0133114Y0255946D01*
X0133114Y0255378D01*
X0133681Y0254811D01*
X0133114Y0254244D01*
X0133114Y0253677D01*
X0133681Y0253110D01*
X0134815Y0253110D01*
X0135382Y0253677D01*
X0134248Y0254811D02*
X0133681Y0254811D01*
X0124077Y0253726D02*
X0123510Y0253159D01*
X0122376Y0253159D01*
X0121809Y0253726D01*
X0121809Y0254861D01*
X0122943Y0254861D01*
X0121809Y0255995D02*
X0122376Y0256562D01*
X0123510Y0256562D01*
X0124077Y0255995D01*
X0124077Y0253726D01*
X0120394Y0253159D02*
X0120394Y0256562D01*
X0118126Y0253159D01*
X0118126Y0256562D01*
X0116711Y0256562D02*
X0115010Y0256562D01*
X0114442Y0255995D01*
X0114442Y0253726D01*
X0115010Y0253159D01*
X0116711Y0253159D01*
X0116711Y0256562D01*
X0116711Y0281850D02*
X0115010Y0281850D01*
X0114442Y0282417D01*
X0114442Y0284686D01*
X0115010Y0285253D01*
X0116711Y0285253D01*
X0116711Y0281850D01*
X0118126Y0281850D02*
X0118126Y0285253D01*
X0120394Y0285253D02*
X0118126Y0281850D01*
X0120394Y0281850D02*
X0120394Y0285253D01*
X0121809Y0284686D02*
X0122376Y0285253D01*
X0123510Y0285253D01*
X0124077Y0284686D01*
X0124077Y0282417D01*
X0123510Y0281850D01*
X0122376Y0281850D01*
X0121809Y0282417D01*
X0121809Y0283551D01*
X0122943Y0283551D01*
X0133114Y0284069D02*
X0133114Y0284637D01*
X0133681Y0285204D01*
X0134815Y0285204D01*
X0135382Y0284637D01*
X0133114Y0284069D02*
X0135382Y0281801D01*
X0133114Y0281801D01*
X0143094Y0283650D02*
X0145363Y0283650D01*
X0143661Y0285351D01*
X0143661Y0281948D01*
X0149521Y0282417D02*
X0150088Y0281850D01*
X0151223Y0281850D01*
X0151790Y0282417D01*
X0153204Y0282984D02*
X0153204Y0285253D01*
X0151790Y0284686D02*
X0151223Y0285253D01*
X0150088Y0285253D01*
X0149521Y0284686D01*
X0149521Y0284119D01*
X0150088Y0283551D01*
X0149521Y0282984D01*
X0149521Y0282417D01*
X0150088Y0283551D02*
X0150656Y0283551D01*
X0153204Y0282984D02*
X0154339Y0281850D01*
X0155473Y0282984D01*
X0155473Y0285253D01*
X0156888Y0284686D02*
X0156888Y0284119D01*
X0157455Y0283551D01*
X0156888Y0282984D01*
X0156888Y0282417D01*
X0157455Y0281850D01*
X0158589Y0281850D01*
X0159156Y0282417D01*
X0158022Y0283551D02*
X0157455Y0283551D01*
X0156888Y0284686D02*
X0157455Y0285253D01*
X0158589Y0285253D01*
X0159156Y0284686D01*
X0158548Y0310590D02*
X0159115Y0311157D01*
X0158548Y0310590D02*
X0157413Y0310590D01*
X0156846Y0311157D01*
X0156846Y0312292D01*
X0157413Y0312859D01*
X0157980Y0312859D01*
X0159115Y0312292D01*
X0159115Y0313993D01*
X0156846Y0313993D01*
X0155432Y0313993D02*
X0155432Y0311724D01*
X0154297Y0310590D01*
X0153163Y0311724D01*
X0153163Y0313993D01*
X0149176Y0313426D02*
X0149176Y0312859D01*
X0148609Y0312292D01*
X0147474Y0312292D01*
X0146907Y0311724D01*
X0146907Y0311157D01*
X0147474Y0310590D01*
X0148609Y0310590D01*
X0149176Y0311157D01*
X0149176Y0313426D02*
X0148609Y0313993D01*
X0147474Y0313993D01*
X0146907Y0313426D01*
X0145493Y0313426D02*
X0145493Y0311157D01*
X0144926Y0310590D01*
X0143791Y0310590D01*
X0143224Y0311157D01*
X0141810Y0310590D02*
X0141810Y0313993D01*
X0143224Y0313426D02*
X0143791Y0313993D01*
X0144926Y0313993D01*
X0145493Y0313426D01*
X0141810Y0310590D02*
X0139541Y0310590D01*
X0136577Y0311256D02*
X0136010Y0310689D01*
X0134876Y0310689D01*
X0134309Y0311256D01*
X0134309Y0311823D01*
X0134876Y0312390D01*
X0136010Y0312390D01*
X0136577Y0312957D01*
X0136577Y0313524D01*
X0136010Y0314091D01*
X0134876Y0314091D01*
X0134309Y0313524D01*
X0132894Y0314091D02*
X0131193Y0314091D01*
X0130626Y0313524D01*
X0130626Y0311256D01*
X0131193Y0310689D01*
X0132894Y0310689D01*
X0132894Y0314091D01*
X0129211Y0312957D02*
X0128077Y0314091D01*
X0126942Y0312957D01*
X0126942Y0310689D01*
X0126942Y0312390D02*
X0129211Y0312390D01*
X0129211Y0312957D02*
X0129211Y0310689D01*
X0124077Y0311157D02*
X0123510Y0310590D01*
X0122376Y0310590D01*
X0121809Y0311157D01*
X0121809Y0312292D01*
X0122943Y0312292D01*
X0121809Y0313426D02*
X0122376Y0313993D01*
X0123510Y0313993D01*
X0124077Y0313426D01*
X0124077Y0311157D01*
X0120394Y0310590D02*
X0120394Y0313993D01*
X0118126Y0310590D01*
X0118126Y0313993D01*
X0116711Y0313993D02*
X0115010Y0313993D01*
X0114442Y0313426D01*
X0114442Y0311157D01*
X0115010Y0310590D01*
X0116711Y0310590D01*
X0116711Y0313993D01*
X0130781Y0339183D02*
X0133050Y0342586D01*
X0134464Y0342018D02*
X0134464Y0340884D01*
X0135031Y0340317D01*
X0136733Y0340317D01*
X0136733Y0339183D02*
X0136733Y0342586D01*
X0135031Y0342586D01*
X0134464Y0342018D01*
X0135599Y0340317D02*
X0134464Y0339183D01*
X0133050Y0339183D02*
X0130781Y0342586D01*
X0141057Y0342684D02*
X0143325Y0339281D01*
X0141057Y0339281D02*
X0143325Y0342684D01*
X0144740Y0342684D02*
X0147008Y0342684D01*
X0145874Y0342684D02*
X0145874Y0339281D01*
X0153114Y0340415D02*
X0153114Y0342684D01*
X0155382Y0342684D02*
X0155382Y0340415D01*
X0154248Y0339281D01*
X0153114Y0340415D01*
X0156797Y0339848D02*
X0157364Y0339281D01*
X0158498Y0339281D01*
X0159066Y0339848D01*
X0159066Y0340983D02*
X0157931Y0341550D01*
X0157364Y0341550D01*
X0156797Y0340983D01*
X0156797Y0339848D01*
X0159066Y0340983D02*
X0159066Y0342684D01*
X0156797Y0342684D01*
X0193842Y0362904D02*
X0193842Y0365172D01*
X0193842Y0362904D02*
X0194976Y0361769D01*
X0196111Y0362904D01*
X0196111Y0365172D01*
X0197525Y0365172D02*
X0199794Y0365172D01*
X0199794Y0363471D01*
X0198660Y0364038D01*
X0198092Y0364038D01*
X0197525Y0363471D01*
X0197525Y0362336D01*
X0198092Y0361769D01*
X0199227Y0361769D01*
X0199794Y0362336D01*
X0201208Y0363471D02*
X0203477Y0363471D01*
X0204892Y0364605D02*
X0207160Y0362336D01*
X0207160Y0361769D01*
X0208575Y0361769D02*
X0210843Y0361769D01*
X0209709Y0361769D02*
X0209709Y0365172D01*
X0210843Y0364038D01*
X0212258Y0361769D02*
X0214526Y0361769D01*
X0213392Y0361769D02*
X0213392Y0365172D01*
X0214526Y0364038D01*
X0215941Y0361769D02*
X0218210Y0361769D01*
X0217075Y0361769D02*
X0217075Y0365172D01*
X0218210Y0364038D01*
X0219624Y0364605D02*
X0220191Y0365172D01*
X0221326Y0365172D01*
X0221893Y0364605D01*
X0221893Y0362336D01*
X0221326Y0361769D01*
X0220191Y0361769D01*
X0219624Y0362336D01*
X0219624Y0363471D01*
X0220758Y0363471D01*
X0223307Y0365172D02*
X0225576Y0365172D01*
X0225576Y0361769D01*
X0223307Y0361769D01*
X0224442Y0363471D02*
X0225576Y0363471D01*
X0226990Y0363471D02*
X0227558Y0362904D01*
X0229259Y0362904D01*
X0228125Y0362904D02*
X0226990Y0361769D01*
X0226990Y0363471D02*
X0226990Y0364605D01*
X0227558Y0365172D01*
X0229259Y0365172D01*
X0229259Y0361769D01*
X0222527Y0375654D02*
X0197928Y0375654D01*
X0197928Y0389276D01*
X0222527Y0389276D01*
X0222527Y0375654D01*
X0207160Y0365172D02*
X0204892Y0365172D01*
X0204892Y0364605D01*
X0159066Y0392480D02*
X0156797Y0392480D01*
X0157931Y0392480D02*
X0157931Y0395883D01*
X0159066Y0394749D01*
X0155382Y0395316D02*
X0154815Y0395883D01*
X0153681Y0395883D01*
X0153114Y0395316D01*
X0153114Y0394749D01*
X0153681Y0394181D01*
X0153114Y0393614D01*
X0153114Y0393047D01*
X0153681Y0392480D01*
X0154815Y0392480D01*
X0155382Y0393047D01*
X0154248Y0394181D02*
X0153681Y0394181D01*
X0147776Y0394749D02*
X0146642Y0395883D01*
X0146642Y0392480D01*
X0147776Y0392480D02*
X0145508Y0392480D01*
X0144093Y0392480D02*
X0141824Y0394749D01*
X0141824Y0395316D01*
X0142392Y0395883D01*
X0143526Y0395883D01*
X0144093Y0395316D01*
X0144093Y0392480D02*
X0141824Y0392480D01*
X0136733Y0392480D02*
X0134464Y0392480D01*
X0135599Y0392480D02*
X0135599Y0395883D01*
X0136733Y0394749D01*
X0133050Y0395316D02*
X0132483Y0395883D01*
X0131348Y0395883D01*
X0130781Y0395316D01*
X0133050Y0393047D01*
X0132483Y0392480D01*
X0131348Y0392480D01*
X0130781Y0393047D01*
X0130781Y0395316D01*
X0131348Y0396890D02*
X0130781Y0397458D01*
X0131348Y0396890D02*
X0132483Y0398025D01*
X0133050Y0397458D01*
X0133050Y0395316D02*
X0133050Y0393047D01*
X0124127Y0392949D02*
X0123559Y0392381D01*
X0122425Y0392381D01*
X0121858Y0392949D01*
X0121858Y0394083D01*
X0122992Y0394083D01*
X0121858Y0395217D02*
X0122425Y0395784D01*
X0123559Y0395784D01*
X0124127Y0395217D01*
X0124127Y0392949D01*
X0120443Y0392381D02*
X0120443Y0395784D01*
X0118175Y0392381D01*
X0118175Y0395784D01*
X0116760Y0395784D02*
X0115059Y0395784D01*
X0114492Y0395217D01*
X0114492Y0392949D01*
X0115059Y0392381D01*
X0116760Y0392381D01*
X0116760Y0395784D01*
X0116810Y0421319D02*
X0115108Y0421319D01*
X0114541Y0421886D01*
X0114541Y0424154D01*
X0115108Y0424721D01*
X0116810Y0424721D01*
X0116810Y0421319D01*
X0118224Y0421319D02*
X0118224Y0424721D01*
X0120493Y0424721D02*
X0118224Y0421319D01*
X0120493Y0421319D02*
X0120493Y0424721D01*
X0121907Y0424154D02*
X0122474Y0424721D01*
X0123609Y0424721D01*
X0124176Y0424154D01*
X0124176Y0421886D01*
X0123609Y0421319D01*
X0122474Y0421319D01*
X0121907Y0421886D01*
X0121907Y0423020D01*
X0123042Y0423020D01*
X0134324Y0423020D02*
X0136026Y0423020D01*
X0136593Y0423587D01*
X0136593Y0424154D01*
X0136026Y0424721D01*
X0134892Y0424721D01*
X0134324Y0424154D01*
X0134324Y0421886D01*
X0134892Y0421319D01*
X0136026Y0421319D01*
X0136593Y0421886D01*
X0134892Y0425729D02*
X0134324Y0426296D01*
X0134892Y0425729D02*
X0136026Y0426863D01*
X0136593Y0426296D01*
X0143045Y0424721D02*
X0143045Y0424154D01*
X0145313Y0421886D01*
X0145313Y0421319D01*
X0145313Y0424721D02*
X0143045Y0424721D01*
X0153714Y0424721D02*
X0154848Y0424154D01*
X0155983Y0423020D01*
X0154281Y0423020D01*
X0153714Y0422453D01*
X0153714Y0421886D01*
X0154281Y0421319D01*
X0155416Y0421319D01*
X0155983Y0421886D01*
X0155983Y0423020D01*
X0157455Y0449960D02*
X0158589Y0449960D01*
X0159156Y0450527D01*
X0158022Y0451662D02*
X0157455Y0451662D01*
X0156888Y0451095D01*
X0156888Y0450527D01*
X0157455Y0449960D01*
X0157455Y0451662D02*
X0156888Y0452229D01*
X0156888Y0452796D01*
X0157455Y0453363D01*
X0158589Y0453363D01*
X0159156Y0452796D01*
X0155473Y0453363D02*
X0155473Y0451095D01*
X0154339Y0449960D01*
X0153204Y0451095D01*
X0153204Y0453363D01*
X0151790Y0452796D02*
X0151223Y0453363D01*
X0150088Y0453363D01*
X0149521Y0452796D01*
X0149521Y0452229D01*
X0150088Y0451662D01*
X0149521Y0451095D01*
X0149521Y0450527D01*
X0150088Y0449960D01*
X0151223Y0449960D01*
X0151790Y0450527D01*
X0150656Y0451662D02*
X0150088Y0451662D01*
X0145363Y0451662D02*
X0144228Y0452229D01*
X0143661Y0452229D01*
X0143094Y0451662D01*
X0143094Y0450527D01*
X0143661Y0449960D01*
X0144796Y0449960D01*
X0145363Y0450527D01*
X0145363Y0451662D02*
X0145363Y0453363D01*
X0143094Y0453363D01*
X0135382Y0452796D02*
X0134815Y0453363D01*
X0133681Y0453363D01*
X0133114Y0452796D01*
X0133114Y0452229D01*
X0133681Y0451662D01*
X0133114Y0451095D01*
X0133114Y0450527D01*
X0133681Y0449960D01*
X0134815Y0449960D01*
X0135382Y0450527D01*
X0134248Y0451662D02*
X0133681Y0451662D01*
X0124077Y0450577D02*
X0123510Y0450009D01*
X0122376Y0450009D01*
X0121809Y0450577D01*
X0121809Y0451711D01*
X0122943Y0451711D01*
X0121809Y0452845D02*
X0122376Y0453412D01*
X0123510Y0453412D01*
X0124077Y0452845D01*
X0124077Y0450577D01*
X0120394Y0450009D02*
X0120394Y0453412D01*
X0118126Y0450009D01*
X0118126Y0453412D01*
X0116711Y0453412D02*
X0115010Y0453412D01*
X0114442Y0452845D01*
X0114442Y0450577D01*
X0115010Y0450009D01*
X0116711Y0450009D01*
X0116711Y0453412D01*
X0116711Y0478700D02*
X0115010Y0478700D01*
X0114442Y0479268D01*
X0114442Y0481536D01*
X0115010Y0482103D01*
X0116711Y0482103D01*
X0116711Y0478700D01*
X0118126Y0478700D02*
X0118126Y0482103D01*
X0120394Y0482103D02*
X0118126Y0478700D01*
X0120394Y0478700D02*
X0120394Y0482103D01*
X0121809Y0481536D02*
X0122376Y0482103D01*
X0123510Y0482103D01*
X0124077Y0481536D01*
X0124077Y0479268D01*
X0123510Y0478700D01*
X0122376Y0478700D01*
X0121809Y0479268D01*
X0121809Y0480402D01*
X0122943Y0480402D01*
X0133114Y0480920D02*
X0133114Y0481487D01*
X0133681Y0482054D01*
X0134815Y0482054D01*
X0135382Y0481487D01*
X0133114Y0480920D02*
X0135382Y0478651D01*
X0133114Y0478651D01*
X0143094Y0480500D02*
X0145363Y0480500D01*
X0143661Y0482202D01*
X0143661Y0478799D01*
X0149521Y0479268D02*
X0150088Y0478700D01*
X0151223Y0478700D01*
X0151790Y0479268D01*
X0153204Y0479835D02*
X0153204Y0482103D01*
X0151790Y0481536D02*
X0151223Y0482103D01*
X0150088Y0482103D01*
X0149521Y0481536D01*
X0149521Y0480969D01*
X0150088Y0480402D01*
X0149521Y0479835D01*
X0149521Y0479268D01*
X0150088Y0480402D02*
X0150656Y0480402D01*
X0153204Y0479835D02*
X0154339Y0478700D01*
X0155473Y0479835D01*
X0155473Y0482103D01*
X0156888Y0481536D02*
X0156888Y0480969D01*
X0157455Y0480402D01*
X0156888Y0479835D01*
X0156888Y0479268D01*
X0157455Y0478700D01*
X0158589Y0478700D01*
X0159156Y0479268D01*
X0158022Y0480402D02*
X0157455Y0480402D01*
X0156888Y0481536D02*
X0157455Y0482103D01*
X0158589Y0482103D01*
X0159156Y0481536D01*
X0158548Y0507441D02*
X0159115Y0508008D01*
X0158548Y0507441D02*
X0157413Y0507441D01*
X0156846Y0508008D01*
X0156846Y0509142D01*
X0157413Y0509709D01*
X0157980Y0509709D01*
X0159115Y0509142D01*
X0159115Y0510843D01*
X0156846Y0510843D01*
X0155432Y0510843D02*
X0155432Y0508575D01*
X0154297Y0507441D01*
X0153163Y0508575D01*
X0153163Y0510843D01*
X0149176Y0510276D02*
X0149176Y0509709D01*
X0148609Y0509142D01*
X0147474Y0509142D01*
X0146907Y0508575D01*
X0146907Y0508008D01*
X0147474Y0507441D01*
X0148609Y0507441D01*
X0149176Y0508008D01*
X0149176Y0510276D02*
X0148609Y0510843D01*
X0147474Y0510843D01*
X0146907Y0510276D01*
X0145493Y0510276D02*
X0145493Y0508008D01*
X0144926Y0507441D01*
X0143791Y0507441D01*
X0143224Y0508008D01*
X0141810Y0507441D02*
X0139541Y0507441D01*
X0141810Y0507441D02*
X0141810Y0510843D01*
X0143224Y0510276D02*
X0143791Y0510843D01*
X0144926Y0510843D01*
X0145493Y0510276D01*
X0136577Y0510375D02*
X0136577Y0509808D01*
X0136010Y0509240D01*
X0134876Y0509240D01*
X0134309Y0508673D01*
X0134309Y0508106D01*
X0134876Y0507539D01*
X0136010Y0507539D01*
X0136577Y0508106D01*
X0136577Y0510375D02*
X0136010Y0510942D01*
X0134876Y0510942D01*
X0134309Y0510375D01*
X0132894Y0510942D02*
X0131193Y0510942D01*
X0130626Y0510375D01*
X0130626Y0508106D01*
X0131193Y0507539D01*
X0132894Y0507539D01*
X0132894Y0510942D01*
X0129211Y0509808D02*
X0128077Y0510942D01*
X0126942Y0509808D01*
X0126942Y0507539D01*
X0126942Y0509240D02*
X0129211Y0509240D01*
X0129211Y0509808D02*
X0129211Y0507539D01*
X0124077Y0508008D02*
X0124077Y0510276D01*
X0123510Y0510843D01*
X0122376Y0510843D01*
X0121809Y0510276D01*
X0121809Y0509142D02*
X0122943Y0509142D01*
X0121809Y0509142D02*
X0121809Y0508008D01*
X0122376Y0507441D01*
X0123510Y0507441D01*
X0124077Y0508008D01*
X0120394Y0507441D02*
X0120394Y0510843D01*
X0118126Y0507441D01*
X0118126Y0510843D01*
X0116711Y0510843D02*
X0115010Y0510843D01*
X0114442Y0510276D01*
X0114442Y0508008D01*
X0115010Y0507441D01*
X0116711Y0507441D01*
X0116711Y0510843D01*
X0130781Y0536033D02*
X0133050Y0539436D01*
X0134464Y0538869D02*
X0134464Y0537735D01*
X0135031Y0537167D01*
X0136733Y0537167D01*
X0136733Y0536033D02*
X0136733Y0539436D01*
X0135031Y0539436D01*
X0134464Y0538869D01*
X0135599Y0537167D02*
X0134464Y0536033D01*
X0133050Y0536033D02*
X0130781Y0539436D01*
X0141057Y0539534D02*
X0143325Y0536131D01*
X0141057Y0536131D02*
X0143325Y0539534D01*
X0144740Y0539534D02*
X0147008Y0539534D01*
X0145874Y0539534D02*
X0145874Y0536131D01*
X0153114Y0537266D02*
X0153114Y0539534D01*
X0153114Y0537266D02*
X0154248Y0536131D01*
X0155382Y0537266D01*
X0155382Y0539534D01*
X0156797Y0539534D02*
X0159066Y0539534D01*
X0159066Y0537833D01*
X0157931Y0538400D01*
X0157364Y0538400D01*
X0156797Y0537833D01*
X0156797Y0536699D01*
X0157364Y0536131D01*
X0158498Y0536131D01*
X0159066Y0536699D01*
X0197928Y0451776D02*
X0222527Y0451776D01*
X0222527Y0438154D01*
X0197928Y0438154D01*
X0197928Y0451776D01*
X0197294Y0427672D02*
X0197294Y0425404D01*
X0196160Y0424269D01*
X0195025Y0425404D01*
X0195025Y0427672D01*
X0193611Y0427105D02*
X0193044Y0427672D01*
X0191909Y0427672D01*
X0191342Y0427105D01*
X0191342Y0426538D01*
X0191909Y0425971D01*
X0191342Y0425404D01*
X0191342Y0424836D01*
X0191909Y0424269D01*
X0193044Y0424269D01*
X0193611Y0424836D01*
X0192476Y0425971D02*
X0191909Y0425971D01*
X0198708Y0426538D02*
X0199276Y0425971D01*
X0198708Y0425404D01*
X0198708Y0424836D01*
X0199276Y0424269D01*
X0200410Y0424269D01*
X0200977Y0424836D01*
X0199843Y0425971D02*
X0199276Y0425971D01*
X0198708Y0426538D02*
X0198708Y0427105D01*
X0199276Y0427672D01*
X0200410Y0427672D01*
X0200977Y0427105D01*
X0202392Y0425971D02*
X0204660Y0425971D01*
X0206075Y0427105D02*
X0208343Y0424836D01*
X0208343Y0424269D01*
X0209758Y0424269D02*
X0212026Y0424269D01*
X0210892Y0424269D02*
X0210892Y0427672D01*
X0212026Y0426538D01*
X0213441Y0424269D02*
X0215710Y0424269D01*
X0214575Y0424269D02*
X0214575Y0427672D01*
X0215710Y0426538D01*
X0217124Y0424269D02*
X0219393Y0424269D01*
X0218258Y0424269D02*
X0218258Y0427672D01*
X0219393Y0426538D01*
X0220807Y0427105D02*
X0221374Y0427672D01*
X0222509Y0427672D01*
X0223076Y0427105D01*
X0223076Y0424836D01*
X0222509Y0424269D01*
X0221374Y0424269D01*
X0220807Y0424836D01*
X0220807Y0425971D01*
X0221942Y0425971D01*
X0224490Y0427672D02*
X0226759Y0427672D01*
X0226759Y0424269D01*
X0224490Y0424269D01*
X0225625Y0425971D02*
X0226759Y0425971D01*
X0228174Y0425971D02*
X0228741Y0425404D01*
X0230442Y0425404D01*
X0229308Y0425404D02*
X0228174Y0424269D01*
X0228174Y0425971D02*
X0228174Y0427105D01*
X0228741Y0427672D01*
X0230442Y0427672D01*
X0230442Y0424269D01*
X0208343Y0427672D02*
X0206075Y0427672D01*
X0206075Y0427105D01*
X0197928Y0254926D02*
X0222527Y0254926D01*
X0222527Y0241304D01*
X0197928Y0241304D01*
X0197928Y0254926D01*
X0197294Y0230822D02*
X0197294Y0228553D01*
X0196160Y0227419D01*
X0195025Y0228553D01*
X0195025Y0230822D01*
X0193611Y0230255D02*
X0193044Y0230822D01*
X0191909Y0230822D01*
X0191342Y0230255D01*
X0191342Y0229688D01*
X0191909Y0229120D01*
X0191342Y0228553D01*
X0191342Y0227986D01*
X0191909Y0227419D01*
X0193044Y0227419D01*
X0193611Y0227986D01*
X0192476Y0229120D02*
X0191909Y0229120D01*
X0198708Y0228553D02*
X0198708Y0227986D01*
X0199276Y0227419D01*
X0200410Y0227419D01*
X0200977Y0227986D01*
X0199843Y0229120D02*
X0199276Y0229120D01*
X0198708Y0228553D01*
X0199276Y0229120D02*
X0198708Y0229688D01*
X0198708Y0230255D01*
X0199276Y0230822D01*
X0200410Y0230822D01*
X0200977Y0230255D01*
X0202392Y0229120D02*
X0204660Y0229120D01*
X0206075Y0230255D02*
X0208343Y0227986D01*
X0208343Y0227419D01*
X0209758Y0227419D02*
X0212026Y0227419D01*
X0210892Y0227419D02*
X0210892Y0230822D01*
X0212026Y0229688D01*
X0213441Y0227419D02*
X0215710Y0227419D01*
X0214575Y0227419D02*
X0214575Y0230822D01*
X0215710Y0229688D01*
X0217124Y0227419D02*
X0219393Y0227419D01*
X0218258Y0227419D02*
X0218258Y0230822D01*
X0219393Y0229688D01*
X0220807Y0230255D02*
X0221374Y0230822D01*
X0222509Y0230822D01*
X0223076Y0230255D01*
X0223076Y0227986D01*
X0222509Y0227419D01*
X0221374Y0227419D01*
X0220807Y0227986D01*
X0220807Y0229120D01*
X0221942Y0229120D01*
X0224490Y0227419D02*
X0226759Y0227419D01*
X0226759Y0230822D01*
X0224490Y0230822D01*
X0225625Y0229120D02*
X0226759Y0229120D01*
X0228174Y0229120D02*
X0228741Y0228553D01*
X0230442Y0228553D01*
X0229308Y0228553D02*
X0228174Y0227419D01*
X0228174Y0229120D02*
X0228174Y0230255D01*
X0228741Y0230822D01*
X0230442Y0230822D01*
X0230442Y0227419D01*
X0208343Y0230822D02*
X0206075Y0230822D01*
X0206075Y0230255D01*
D14*
X0117058Y0155343D02*
X0295208Y0155343D01*
X0295446Y0155346D01*
X0295684Y0155354D01*
X0295921Y0155369D01*
X0296158Y0155389D01*
X0296394Y0155415D01*
X0296630Y0155446D01*
X0296865Y0155483D01*
X0297099Y0155526D01*
X0297332Y0155575D01*
X0297564Y0155629D01*
X0297794Y0155689D01*
X0298023Y0155754D01*
X0298250Y0155825D01*
X0298475Y0155901D01*
X0298698Y0155983D01*
X0298920Y0156070D01*
X0299139Y0156162D01*
X0299356Y0156260D01*
X0299570Y0156362D01*
X0299782Y0156470D01*
X0299992Y0156584D01*
X0300198Y0156702D01*
X0300402Y0156825D01*
X0300602Y0156953D01*
X0300799Y0157085D01*
X0300994Y0157223D01*
X0301184Y0157365D01*
X0301372Y0157512D01*
X0301555Y0157663D01*
X0301735Y0157818D01*
X0301911Y0157978D01*
X0302083Y0158142D01*
X0302252Y0158311D01*
X0302416Y0158483D01*
X0302576Y0158659D01*
X0302731Y0158839D01*
X0302882Y0159022D01*
X0303029Y0159210D01*
X0303171Y0159400D01*
X0303309Y0159595D01*
X0303441Y0159792D01*
X0303569Y0159992D01*
X0303692Y0160196D01*
X0303810Y0160402D01*
X0303924Y0160612D01*
X0304032Y0160824D01*
X0304134Y0161038D01*
X0304232Y0161255D01*
X0304324Y0161474D01*
X0304411Y0161696D01*
X0304493Y0161919D01*
X0304569Y0162144D01*
X0304640Y0162371D01*
X0304705Y0162600D01*
X0304765Y0162830D01*
X0304819Y0163062D01*
X0304868Y0163295D01*
X0304911Y0163529D01*
X0304948Y0163764D01*
X0304979Y0164000D01*
X0305005Y0164236D01*
X0305025Y0164473D01*
X0305040Y0164710D01*
X0305048Y0164948D01*
X0305051Y0165186D01*
X0305050Y0165186D02*
X0305050Y0342351D01*
X0305050Y0165186D01*
X0305051Y0165186D02*
X0305042Y0164960D01*
X0305038Y0164734D01*
X0305040Y0164508D01*
X0305047Y0164281D01*
X0305060Y0164055D01*
X0305078Y0163830D01*
X0305102Y0163605D01*
X0305131Y0163381D01*
X0305165Y0163157D01*
X0305205Y0162934D01*
X0305250Y0162712D01*
X0305301Y0162492D01*
X0305356Y0162273D01*
X0305418Y0162055D01*
X0305484Y0161839D01*
X0305556Y0161624D01*
X0305632Y0161411D01*
X0305714Y0161200D01*
X0305801Y0160991D01*
X0305893Y0160785D01*
X0305990Y0160580D01*
X0306092Y0160378D01*
X0306199Y0160179D01*
X0306310Y0159982D01*
X0306427Y0159788D01*
X0306547Y0159596D01*
X0306673Y0159408D01*
X0306803Y0159223D01*
X0306937Y0159041D01*
X0307076Y0158862D01*
X0307219Y0158687D01*
X0307366Y0158515D01*
X0307518Y0158347D01*
X0307673Y0158182D01*
X0307832Y0158022D01*
X0307996Y0157865D01*
X0308162Y0157712D01*
X0308333Y0157563D01*
X0308507Y0157419D01*
X0308685Y0157279D01*
X0308865Y0157143D01*
X0309050Y0157011D01*
X0309237Y0156884D01*
X0309427Y0156762D01*
X0309620Y0156644D01*
X0309816Y0156530D01*
X0310015Y0156422D01*
X0310216Y0156318D01*
X0310419Y0156220D01*
X0310625Y0156126D01*
X0310833Y0156037D01*
X0311044Y0155954D01*
X0311256Y0155875D01*
X0311470Y0155802D01*
X0311686Y0155733D01*
X0311903Y0155670D01*
X0312122Y0155613D01*
X0312342Y0155560D01*
X0312563Y0155513D01*
X0312785Y0155471D01*
X0313009Y0155435D01*
X0313233Y0155404D01*
X0313458Y0155379D01*
X0313683Y0155359D01*
X0313909Y0155344D01*
X0313909Y0155343D02*
X0492058Y0155343D01*
X0492296Y0155346D01*
X0492534Y0155354D01*
X0492771Y0155369D01*
X0493008Y0155389D01*
X0493244Y0155415D01*
X0493480Y0155446D01*
X0493715Y0155483D01*
X0493949Y0155526D01*
X0494182Y0155575D01*
X0494414Y0155629D01*
X0494644Y0155689D01*
X0494873Y0155754D01*
X0495100Y0155825D01*
X0495325Y0155901D01*
X0495548Y0155983D01*
X0495770Y0156070D01*
X0495989Y0156162D01*
X0496206Y0156260D01*
X0496420Y0156362D01*
X0496632Y0156470D01*
X0496842Y0156584D01*
X0497048Y0156702D01*
X0497252Y0156825D01*
X0497452Y0156953D01*
X0497649Y0157085D01*
X0497844Y0157223D01*
X0498034Y0157365D01*
X0498222Y0157512D01*
X0498405Y0157663D01*
X0498585Y0157818D01*
X0498761Y0157978D01*
X0498933Y0158142D01*
X0499102Y0158311D01*
X0499266Y0158483D01*
X0499426Y0158659D01*
X0499581Y0158839D01*
X0499732Y0159022D01*
X0499879Y0159210D01*
X0500021Y0159400D01*
X0500159Y0159595D01*
X0500291Y0159792D01*
X0500419Y0159992D01*
X0500542Y0160196D01*
X0500660Y0160402D01*
X0500774Y0160612D01*
X0500882Y0160824D01*
X0500984Y0161038D01*
X0501082Y0161255D01*
X0501174Y0161474D01*
X0501261Y0161696D01*
X0501343Y0161919D01*
X0501419Y0162144D01*
X0501490Y0162371D01*
X0501555Y0162600D01*
X0501615Y0162830D01*
X0501669Y0163062D01*
X0501718Y0163295D01*
X0501761Y0163529D01*
X0501798Y0163764D01*
X0501829Y0164000D01*
X0501855Y0164236D01*
X0501875Y0164473D01*
X0501890Y0164710D01*
X0501898Y0164948D01*
X0501901Y0165186D01*
X0501901Y0342351D01*
X0501898Y0342589D01*
X0501890Y0342827D01*
X0501875Y0343064D01*
X0501855Y0343301D01*
X0501829Y0343537D01*
X0501798Y0343773D01*
X0501761Y0344008D01*
X0501718Y0344242D01*
X0501669Y0344475D01*
X0501615Y0344707D01*
X0501555Y0344937D01*
X0501490Y0345166D01*
X0501419Y0345393D01*
X0501343Y0345618D01*
X0501261Y0345841D01*
X0501174Y0346063D01*
X0501082Y0346282D01*
X0500984Y0346499D01*
X0500882Y0346713D01*
X0500774Y0346925D01*
X0500660Y0347135D01*
X0500542Y0347341D01*
X0500419Y0347545D01*
X0500291Y0347745D01*
X0500159Y0347942D01*
X0500021Y0348137D01*
X0499879Y0348327D01*
X0499732Y0348515D01*
X0499581Y0348698D01*
X0499426Y0348878D01*
X0499266Y0349054D01*
X0499102Y0349226D01*
X0498933Y0349395D01*
X0498761Y0349559D01*
X0498585Y0349719D01*
X0498405Y0349874D01*
X0498222Y0350025D01*
X0498034Y0350172D01*
X0497844Y0350314D01*
X0497649Y0350452D01*
X0497452Y0350584D01*
X0497252Y0350712D01*
X0497048Y0350835D01*
X0496842Y0350953D01*
X0496632Y0351067D01*
X0496420Y0351175D01*
X0496206Y0351277D01*
X0495989Y0351375D01*
X0495770Y0351467D01*
X0495548Y0351554D01*
X0495325Y0351636D01*
X0495100Y0351712D01*
X0494873Y0351783D01*
X0494644Y0351848D01*
X0494414Y0351908D01*
X0494182Y0351962D01*
X0493949Y0352011D01*
X0493715Y0352054D01*
X0493480Y0352091D01*
X0493244Y0352122D01*
X0493008Y0352148D01*
X0492771Y0352168D01*
X0492534Y0352183D01*
X0492296Y0352191D01*
X0492058Y0352194D01*
X0313909Y0352194D01*
X0314893Y0352194D01*
X0492058Y0352194D01*
X0492058Y0352193D02*
X0492296Y0352196D01*
X0492534Y0352204D01*
X0492771Y0352219D01*
X0493008Y0352239D01*
X0493244Y0352265D01*
X0493480Y0352296D01*
X0493715Y0352333D01*
X0493949Y0352376D01*
X0494182Y0352425D01*
X0494414Y0352479D01*
X0494644Y0352539D01*
X0494873Y0352604D01*
X0495100Y0352675D01*
X0495325Y0352751D01*
X0495548Y0352833D01*
X0495770Y0352920D01*
X0495989Y0353012D01*
X0496206Y0353110D01*
X0496420Y0353212D01*
X0496632Y0353320D01*
X0496842Y0353434D01*
X0497048Y0353552D01*
X0497252Y0353675D01*
X0497452Y0353803D01*
X0497649Y0353935D01*
X0497844Y0354073D01*
X0498034Y0354215D01*
X0498222Y0354362D01*
X0498405Y0354513D01*
X0498585Y0354668D01*
X0498761Y0354828D01*
X0498933Y0354992D01*
X0499102Y0355161D01*
X0499266Y0355333D01*
X0499426Y0355509D01*
X0499581Y0355689D01*
X0499732Y0355872D01*
X0499879Y0356060D01*
X0500021Y0356250D01*
X0500159Y0356445D01*
X0500291Y0356642D01*
X0500419Y0356842D01*
X0500542Y0357046D01*
X0500660Y0357252D01*
X0500774Y0357462D01*
X0500882Y0357674D01*
X0500984Y0357888D01*
X0501082Y0358105D01*
X0501174Y0358324D01*
X0501261Y0358546D01*
X0501343Y0358769D01*
X0501419Y0358994D01*
X0501490Y0359221D01*
X0501555Y0359450D01*
X0501615Y0359680D01*
X0501669Y0359912D01*
X0501718Y0360145D01*
X0501761Y0360379D01*
X0501798Y0360614D01*
X0501829Y0360850D01*
X0501855Y0361086D01*
X0501875Y0361323D01*
X0501890Y0361560D01*
X0501898Y0361798D01*
X0501901Y0362036D01*
X0501901Y0539202D01*
X0501898Y0539440D01*
X0501890Y0539678D01*
X0501875Y0539915D01*
X0501855Y0540152D01*
X0501829Y0540388D01*
X0501798Y0540624D01*
X0501761Y0540859D01*
X0501718Y0541093D01*
X0501669Y0541326D01*
X0501615Y0541558D01*
X0501555Y0541788D01*
X0501490Y0542017D01*
X0501419Y0542244D01*
X0501343Y0542469D01*
X0501261Y0542692D01*
X0501174Y0542914D01*
X0501082Y0543133D01*
X0500984Y0543350D01*
X0500882Y0543564D01*
X0500774Y0543776D01*
X0500660Y0543986D01*
X0500542Y0544192D01*
X0500419Y0544396D01*
X0500291Y0544596D01*
X0500159Y0544793D01*
X0500021Y0544988D01*
X0499879Y0545178D01*
X0499732Y0545366D01*
X0499581Y0545549D01*
X0499426Y0545729D01*
X0499266Y0545905D01*
X0499102Y0546077D01*
X0498933Y0546246D01*
X0498761Y0546410D01*
X0498585Y0546570D01*
X0498405Y0546725D01*
X0498222Y0546876D01*
X0498034Y0547023D01*
X0497844Y0547165D01*
X0497649Y0547303D01*
X0497452Y0547435D01*
X0497252Y0547563D01*
X0497048Y0547686D01*
X0496842Y0547804D01*
X0496632Y0547918D01*
X0496420Y0548026D01*
X0496206Y0548128D01*
X0495989Y0548226D01*
X0495770Y0548318D01*
X0495548Y0548405D01*
X0495325Y0548487D01*
X0495100Y0548563D01*
X0494873Y0548634D01*
X0494644Y0548699D01*
X0494414Y0548759D01*
X0494182Y0548813D01*
X0493949Y0548862D01*
X0493715Y0548905D01*
X0493480Y0548942D01*
X0493244Y0548973D01*
X0493008Y0548999D01*
X0492771Y0549019D01*
X0492534Y0549034D01*
X0492296Y0549042D01*
X0492058Y0549045D01*
X0492058Y0549044D02*
X0314893Y0549044D01*
X0313909Y0549044D01*
X0314893Y0549045D02*
X0314655Y0549042D01*
X0314417Y0549034D01*
X0314180Y0549019D01*
X0313943Y0548999D01*
X0313707Y0548973D01*
X0313471Y0548942D01*
X0313236Y0548905D01*
X0313002Y0548862D01*
X0312769Y0548813D01*
X0312537Y0548759D01*
X0312307Y0548699D01*
X0312078Y0548634D01*
X0311851Y0548563D01*
X0311626Y0548487D01*
X0311403Y0548405D01*
X0311181Y0548318D01*
X0310962Y0548226D01*
X0310745Y0548128D01*
X0310531Y0548026D01*
X0310319Y0547918D01*
X0310109Y0547804D01*
X0309903Y0547686D01*
X0309699Y0547563D01*
X0309499Y0547435D01*
X0309302Y0547303D01*
X0309107Y0547165D01*
X0308917Y0547023D01*
X0308729Y0546876D01*
X0308546Y0546725D01*
X0308366Y0546570D01*
X0308190Y0546410D01*
X0308018Y0546246D01*
X0307849Y0546077D01*
X0307685Y0545905D01*
X0307525Y0545729D01*
X0307370Y0545549D01*
X0307219Y0545366D01*
X0307072Y0545178D01*
X0306930Y0544988D01*
X0306792Y0544793D01*
X0306660Y0544596D01*
X0306532Y0544396D01*
X0306409Y0544192D01*
X0306291Y0543986D01*
X0306177Y0543776D01*
X0306069Y0543564D01*
X0305967Y0543350D01*
X0305869Y0543133D01*
X0305777Y0542914D01*
X0305690Y0542692D01*
X0305608Y0542469D01*
X0305532Y0542244D01*
X0305461Y0542017D01*
X0305396Y0541788D01*
X0305336Y0541558D01*
X0305282Y0541326D01*
X0305233Y0541093D01*
X0305190Y0540859D01*
X0305153Y0540624D01*
X0305122Y0540388D01*
X0305096Y0540152D01*
X0305076Y0539915D01*
X0305061Y0539678D01*
X0305053Y0539440D01*
X0305050Y0539202D01*
X0305050Y0362036D01*
X0305050Y0539202D01*
X0305051Y0539202D02*
X0305048Y0539440D01*
X0305040Y0539678D01*
X0305025Y0539915D01*
X0305005Y0540152D01*
X0304979Y0540388D01*
X0304948Y0540624D01*
X0304911Y0540859D01*
X0304868Y0541093D01*
X0304819Y0541326D01*
X0304765Y0541558D01*
X0304705Y0541788D01*
X0304640Y0542017D01*
X0304569Y0542244D01*
X0304493Y0542469D01*
X0304411Y0542692D01*
X0304324Y0542914D01*
X0304232Y0543133D01*
X0304134Y0543350D01*
X0304032Y0543564D01*
X0303924Y0543776D01*
X0303810Y0543986D01*
X0303692Y0544192D01*
X0303569Y0544396D01*
X0303441Y0544596D01*
X0303309Y0544793D01*
X0303171Y0544988D01*
X0303029Y0545178D01*
X0302882Y0545366D01*
X0302731Y0545549D01*
X0302576Y0545729D01*
X0302416Y0545905D01*
X0302252Y0546077D01*
X0302083Y0546246D01*
X0301911Y0546410D01*
X0301735Y0546570D01*
X0301555Y0546725D01*
X0301372Y0546876D01*
X0301184Y0547023D01*
X0300994Y0547165D01*
X0300799Y0547303D01*
X0300602Y0547435D01*
X0300402Y0547563D01*
X0300198Y0547686D01*
X0299992Y0547804D01*
X0299782Y0547918D01*
X0299570Y0548026D01*
X0299356Y0548128D01*
X0299139Y0548226D01*
X0298920Y0548318D01*
X0298698Y0548405D01*
X0298475Y0548487D01*
X0298250Y0548563D01*
X0298023Y0548634D01*
X0297794Y0548699D01*
X0297564Y0548759D01*
X0297332Y0548813D01*
X0297099Y0548862D01*
X0296865Y0548905D01*
X0296630Y0548942D01*
X0296394Y0548973D01*
X0296158Y0548999D01*
X0295921Y0549019D01*
X0295684Y0549034D01*
X0295446Y0549042D01*
X0295208Y0549045D01*
X0295208Y0549044D02*
X0118043Y0549044D01*
X0117058Y0549044D01*
X0118043Y0549045D02*
X0117805Y0549042D01*
X0117567Y0549034D01*
X0117330Y0549019D01*
X0117093Y0548999D01*
X0116857Y0548973D01*
X0116621Y0548942D01*
X0116386Y0548905D01*
X0116152Y0548862D01*
X0115919Y0548813D01*
X0115687Y0548759D01*
X0115457Y0548699D01*
X0115228Y0548634D01*
X0115001Y0548563D01*
X0114776Y0548487D01*
X0114553Y0548405D01*
X0114331Y0548318D01*
X0114112Y0548226D01*
X0113895Y0548128D01*
X0113681Y0548026D01*
X0113469Y0547918D01*
X0113259Y0547804D01*
X0113053Y0547686D01*
X0112849Y0547563D01*
X0112649Y0547435D01*
X0112452Y0547303D01*
X0112257Y0547165D01*
X0112067Y0547023D01*
X0111879Y0546876D01*
X0111696Y0546725D01*
X0111516Y0546570D01*
X0111340Y0546410D01*
X0111168Y0546246D01*
X0110999Y0546077D01*
X0110835Y0545905D01*
X0110675Y0545729D01*
X0110520Y0545549D01*
X0110369Y0545366D01*
X0110222Y0545178D01*
X0110080Y0544988D01*
X0109942Y0544793D01*
X0109810Y0544596D01*
X0109682Y0544396D01*
X0109559Y0544192D01*
X0109441Y0543986D01*
X0109327Y0543776D01*
X0109219Y0543564D01*
X0109117Y0543350D01*
X0109019Y0543133D01*
X0108927Y0542914D01*
X0108840Y0542692D01*
X0108758Y0542469D01*
X0108682Y0542244D01*
X0108611Y0542017D01*
X0108546Y0541788D01*
X0108486Y0541558D01*
X0108432Y0541326D01*
X0108383Y0541093D01*
X0108340Y0540859D01*
X0108303Y0540624D01*
X0108272Y0540388D01*
X0108246Y0540152D01*
X0108226Y0539915D01*
X0108211Y0539678D01*
X0108203Y0539440D01*
X0108200Y0539202D01*
X0108200Y0362036D01*
X0108191Y0361810D01*
X0108187Y0361584D01*
X0108189Y0361358D01*
X0108196Y0361131D01*
X0108209Y0360905D01*
X0108227Y0360680D01*
X0108251Y0360455D01*
X0108280Y0360231D01*
X0108314Y0360007D01*
X0108354Y0359784D01*
X0108399Y0359562D01*
X0108450Y0359342D01*
X0108505Y0359123D01*
X0108567Y0358905D01*
X0108633Y0358689D01*
X0108705Y0358474D01*
X0108781Y0358261D01*
X0108863Y0358050D01*
X0108950Y0357841D01*
X0109042Y0357635D01*
X0109139Y0357430D01*
X0109241Y0357228D01*
X0109348Y0357029D01*
X0109459Y0356832D01*
X0109576Y0356638D01*
X0109696Y0356446D01*
X0109822Y0356258D01*
X0109952Y0356073D01*
X0110086Y0355891D01*
X0110225Y0355712D01*
X0110368Y0355537D01*
X0110515Y0355365D01*
X0110667Y0355197D01*
X0110822Y0355032D01*
X0110981Y0354872D01*
X0111145Y0354715D01*
X0111311Y0354562D01*
X0111482Y0354413D01*
X0111656Y0354269D01*
X0111834Y0354129D01*
X0112014Y0353993D01*
X0112199Y0353861D01*
X0112386Y0353734D01*
X0112576Y0353612D01*
X0112769Y0353494D01*
X0112965Y0353380D01*
X0113164Y0353272D01*
X0113365Y0353168D01*
X0113568Y0353070D01*
X0113774Y0352976D01*
X0113982Y0352887D01*
X0114193Y0352804D01*
X0114405Y0352725D01*
X0114619Y0352652D01*
X0114835Y0352583D01*
X0115052Y0352520D01*
X0115271Y0352463D01*
X0115491Y0352410D01*
X0115712Y0352363D01*
X0115934Y0352321D01*
X0116158Y0352285D01*
X0116382Y0352254D01*
X0116607Y0352229D01*
X0116832Y0352209D01*
X0117058Y0352194D01*
X0295208Y0352194D01*
X0118043Y0352194D01*
X0117058Y0352194D01*
X0118043Y0352194D02*
X0117805Y0352191D01*
X0117567Y0352183D01*
X0117330Y0352168D01*
X0117093Y0352148D01*
X0116857Y0352122D01*
X0116621Y0352091D01*
X0116386Y0352054D01*
X0116152Y0352011D01*
X0115919Y0351962D01*
X0115687Y0351908D01*
X0115457Y0351848D01*
X0115228Y0351783D01*
X0115001Y0351712D01*
X0114776Y0351636D01*
X0114553Y0351554D01*
X0114331Y0351467D01*
X0114112Y0351375D01*
X0113895Y0351277D01*
X0113681Y0351175D01*
X0113469Y0351067D01*
X0113259Y0350953D01*
X0113053Y0350835D01*
X0112849Y0350712D01*
X0112649Y0350584D01*
X0112452Y0350452D01*
X0112257Y0350314D01*
X0112067Y0350172D01*
X0111879Y0350025D01*
X0111696Y0349874D01*
X0111516Y0349719D01*
X0111340Y0349559D01*
X0111168Y0349395D01*
X0110999Y0349226D01*
X0110835Y0349054D01*
X0110675Y0348878D01*
X0110520Y0348698D01*
X0110369Y0348515D01*
X0110222Y0348327D01*
X0110080Y0348137D01*
X0109942Y0347942D01*
X0109810Y0347745D01*
X0109682Y0347545D01*
X0109559Y0347341D01*
X0109441Y0347135D01*
X0109327Y0346925D01*
X0109219Y0346713D01*
X0109117Y0346499D01*
X0109019Y0346282D01*
X0108927Y0346063D01*
X0108840Y0345841D01*
X0108758Y0345618D01*
X0108682Y0345393D01*
X0108611Y0345166D01*
X0108546Y0344937D01*
X0108486Y0344707D01*
X0108432Y0344475D01*
X0108383Y0344242D01*
X0108340Y0344008D01*
X0108303Y0343773D01*
X0108272Y0343537D01*
X0108246Y0343301D01*
X0108226Y0343064D01*
X0108211Y0342827D01*
X0108203Y0342589D01*
X0108200Y0342351D01*
X0108200Y0165186D01*
X0108191Y0164960D01*
X0108187Y0164734D01*
X0108189Y0164508D01*
X0108196Y0164281D01*
X0108209Y0164055D01*
X0108227Y0163830D01*
X0108251Y0163605D01*
X0108280Y0163381D01*
X0108314Y0163157D01*
X0108354Y0162934D01*
X0108399Y0162712D01*
X0108450Y0162492D01*
X0108505Y0162273D01*
X0108567Y0162055D01*
X0108633Y0161839D01*
X0108705Y0161624D01*
X0108781Y0161411D01*
X0108863Y0161200D01*
X0108950Y0160991D01*
X0109042Y0160785D01*
X0109139Y0160580D01*
X0109241Y0160378D01*
X0109348Y0160179D01*
X0109459Y0159982D01*
X0109576Y0159788D01*
X0109696Y0159596D01*
X0109822Y0159408D01*
X0109952Y0159223D01*
X0110086Y0159041D01*
X0110225Y0158862D01*
X0110368Y0158687D01*
X0110515Y0158515D01*
X0110667Y0158347D01*
X0110822Y0158182D01*
X0110981Y0158022D01*
X0111145Y0157865D01*
X0111311Y0157712D01*
X0111482Y0157563D01*
X0111656Y0157419D01*
X0111834Y0157279D01*
X0112014Y0157143D01*
X0112199Y0157011D01*
X0112386Y0156884D01*
X0112576Y0156762D01*
X0112769Y0156644D01*
X0112965Y0156530D01*
X0113164Y0156422D01*
X0113365Y0156318D01*
X0113568Y0156220D01*
X0113774Y0156126D01*
X0113982Y0156037D01*
X0114193Y0155954D01*
X0114405Y0155875D01*
X0114619Y0155802D01*
X0114835Y0155733D01*
X0115052Y0155670D01*
X0115271Y0155613D01*
X0115491Y0155560D01*
X0115712Y0155513D01*
X0115934Y0155471D01*
X0116158Y0155435D01*
X0116382Y0155404D01*
X0116607Y0155379D01*
X0116832Y0155359D01*
X0117058Y0155344D01*
X0305051Y0342351D02*
X0305048Y0342589D01*
X0305040Y0342827D01*
X0305025Y0343064D01*
X0305005Y0343301D01*
X0304979Y0343537D01*
X0304948Y0343773D01*
X0304911Y0344008D01*
X0304868Y0344242D01*
X0304819Y0344475D01*
X0304765Y0344707D01*
X0304705Y0344937D01*
X0304640Y0345166D01*
X0304569Y0345393D01*
X0304493Y0345618D01*
X0304411Y0345841D01*
X0304324Y0346063D01*
X0304232Y0346282D01*
X0304134Y0346499D01*
X0304032Y0346713D01*
X0303924Y0346925D01*
X0303810Y0347135D01*
X0303692Y0347341D01*
X0303569Y0347545D01*
X0303441Y0347745D01*
X0303309Y0347942D01*
X0303171Y0348137D01*
X0303029Y0348327D01*
X0302882Y0348515D01*
X0302731Y0348698D01*
X0302576Y0348878D01*
X0302416Y0349054D01*
X0302252Y0349226D01*
X0302083Y0349395D01*
X0301911Y0349559D01*
X0301735Y0349719D01*
X0301555Y0349874D01*
X0301372Y0350025D01*
X0301184Y0350172D01*
X0300994Y0350314D01*
X0300799Y0350452D01*
X0300602Y0350584D01*
X0300402Y0350712D01*
X0300198Y0350835D01*
X0299992Y0350953D01*
X0299782Y0351067D01*
X0299570Y0351175D01*
X0299356Y0351277D01*
X0299139Y0351375D01*
X0298920Y0351467D01*
X0298698Y0351554D01*
X0298475Y0351636D01*
X0298250Y0351712D01*
X0298023Y0351783D01*
X0297794Y0351848D01*
X0297564Y0351908D01*
X0297332Y0351962D01*
X0297099Y0352011D01*
X0296865Y0352054D01*
X0296630Y0352091D01*
X0296394Y0352122D01*
X0296158Y0352148D01*
X0295921Y0352168D01*
X0295684Y0352183D01*
X0295446Y0352191D01*
X0295208Y0352194D01*
X0295208Y0352193D02*
X0295446Y0352196D01*
X0295684Y0352204D01*
X0295921Y0352219D01*
X0296158Y0352239D01*
X0296394Y0352265D01*
X0296630Y0352296D01*
X0296865Y0352333D01*
X0297099Y0352376D01*
X0297332Y0352425D01*
X0297564Y0352479D01*
X0297794Y0352539D01*
X0298023Y0352604D01*
X0298250Y0352675D01*
X0298475Y0352751D01*
X0298698Y0352833D01*
X0298920Y0352920D01*
X0299139Y0353012D01*
X0299356Y0353110D01*
X0299570Y0353212D01*
X0299782Y0353320D01*
X0299992Y0353434D01*
X0300198Y0353552D01*
X0300402Y0353675D01*
X0300602Y0353803D01*
X0300799Y0353935D01*
X0300994Y0354073D01*
X0301184Y0354215D01*
X0301372Y0354362D01*
X0301555Y0354513D01*
X0301735Y0354668D01*
X0301911Y0354828D01*
X0302083Y0354992D01*
X0302252Y0355161D01*
X0302416Y0355333D01*
X0302576Y0355509D01*
X0302731Y0355689D01*
X0302882Y0355872D01*
X0303029Y0356060D01*
X0303171Y0356250D01*
X0303309Y0356445D01*
X0303441Y0356642D01*
X0303569Y0356842D01*
X0303692Y0357046D01*
X0303810Y0357252D01*
X0303924Y0357462D01*
X0304032Y0357674D01*
X0304134Y0357888D01*
X0304232Y0358105D01*
X0304324Y0358324D01*
X0304411Y0358546D01*
X0304493Y0358769D01*
X0304569Y0358994D01*
X0304640Y0359221D01*
X0304705Y0359450D01*
X0304765Y0359680D01*
X0304819Y0359912D01*
X0304868Y0360145D01*
X0304911Y0360379D01*
X0304948Y0360614D01*
X0304979Y0360850D01*
X0305005Y0361086D01*
X0305025Y0361323D01*
X0305040Y0361560D01*
X0305048Y0361798D01*
X0305051Y0362036D01*
X0305042Y0361810D01*
X0305038Y0361584D01*
X0305040Y0361358D01*
X0305047Y0361131D01*
X0305060Y0360905D01*
X0305078Y0360680D01*
X0305102Y0360455D01*
X0305131Y0360231D01*
X0305165Y0360007D01*
X0305205Y0359784D01*
X0305250Y0359562D01*
X0305301Y0359342D01*
X0305356Y0359123D01*
X0305418Y0358905D01*
X0305484Y0358689D01*
X0305556Y0358474D01*
X0305632Y0358261D01*
X0305714Y0358050D01*
X0305801Y0357841D01*
X0305893Y0357635D01*
X0305990Y0357430D01*
X0306092Y0357228D01*
X0306199Y0357029D01*
X0306310Y0356832D01*
X0306427Y0356638D01*
X0306547Y0356446D01*
X0306673Y0356258D01*
X0306803Y0356073D01*
X0306937Y0355891D01*
X0307076Y0355712D01*
X0307219Y0355537D01*
X0307366Y0355365D01*
X0307518Y0355197D01*
X0307673Y0355032D01*
X0307832Y0354872D01*
X0307996Y0354715D01*
X0308162Y0354562D01*
X0308333Y0354413D01*
X0308507Y0354269D01*
X0308685Y0354129D01*
X0308865Y0353993D01*
X0309050Y0353861D01*
X0309237Y0353734D01*
X0309427Y0353612D01*
X0309620Y0353494D01*
X0309816Y0353380D01*
X0310015Y0353272D01*
X0310216Y0353168D01*
X0310419Y0353070D01*
X0310625Y0352976D01*
X0310833Y0352887D01*
X0311044Y0352804D01*
X0311256Y0352725D01*
X0311470Y0352652D01*
X0311686Y0352583D01*
X0311903Y0352520D01*
X0312122Y0352463D01*
X0312342Y0352410D01*
X0312563Y0352363D01*
X0312785Y0352321D01*
X0313009Y0352285D01*
X0313233Y0352254D01*
X0313458Y0352229D01*
X0313683Y0352209D01*
X0313909Y0352194D01*
X0314893Y0352194D02*
X0314655Y0352191D01*
X0314417Y0352183D01*
X0314180Y0352168D01*
X0313943Y0352148D01*
X0313707Y0352122D01*
X0313471Y0352091D01*
X0313236Y0352054D01*
X0313002Y0352011D01*
X0312769Y0351962D01*
X0312537Y0351908D01*
X0312307Y0351848D01*
X0312078Y0351783D01*
X0311851Y0351712D01*
X0311626Y0351636D01*
X0311403Y0351554D01*
X0311181Y0351467D01*
X0310962Y0351375D01*
X0310745Y0351277D01*
X0310531Y0351175D01*
X0310319Y0351067D01*
X0310109Y0350953D01*
X0309903Y0350835D01*
X0309699Y0350712D01*
X0309499Y0350584D01*
X0309302Y0350452D01*
X0309107Y0350314D01*
X0308917Y0350172D01*
X0308729Y0350025D01*
X0308546Y0349874D01*
X0308366Y0349719D01*
X0308190Y0349559D01*
X0308018Y0349395D01*
X0307849Y0349226D01*
X0307685Y0349054D01*
X0307525Y0348878D01*
X0307370Y0348698D01*
X0307219Y0348515D01*
X0307072Y0348327D01*
X0306930Y0348137D01*
X0306792Y0347942D01*
X0306660Y0347745D01*
X0306532Y0347545D01*
X0306409Y0347341D01*
X0306291Y0347135D01*
X0306177Y0346925D01*
X0306069Y0346713D01*
X0305967Y0346499D01*
X0305869Y0346282D01*
X0305777Y0346063D01*
X0305690Y0345841D01*
X0305608Y0345618D01*
X0305532Y0345393D01*
X0305461Y0345166D01*
X0305396Y0344937D01*
X0305336Y0344707D01*
X0305282Y0344475D01*
X0305233Y0344242D01*
X0305190Y0344008D01*
X0305153Y0343773D01*
X0305122Y0343537D01*
X0305096Y0343301D01*
X0305076Y0343064D01*
X0305061Y0342827D01*
X0305053Y0342589D01*
X0305050Y0342351D01*
M02*
