G75*
%MOIN*%
%OFA0B0*%
%FSLAX25Y25*%
%IPPOS*%
%LPD*%
%AMOC8*
5,1,8,0,0,1.08239X$1,22.5*
%
%ADD10C,0.00000*%
%ADD11C,0.11424*%
%ADD12C,0.01600*%
%ADD13R,0.05715X0.05715*%
%ADD14C,0.05715*%
%ADD15C,0.07900*%
%ADD16R,0.08400X0.08400*%
%ADD17C,0.08400*%
%ADD18C,0.05550*%
%ADD19C,0.07800*%
%ADD20OC8,0.07800*%
%ADD21R,0.07800X0.07800*%
D10*
X0006143Y0011643D02*
X0006145Y0011791D01*
X0006151Y0011939D01*
X0006161Y0012087D01*
X0006175Y0012234D01*
X0006193Y0012381D01*
X0006214Y0012527D01*
X0006240Y0012673D01*
X0006270Y0012818D01*
X0006303Y0012962D01*
X0006341Y0013105D01*
X0006382Y0013247D01*
X0006427Y0013388D01*
X0006475Y0013528D01*
X0006528Y0013667D01*
X0006584Y0013804D01*
X0006644Y0013939D01*
X0006707Y0014073D01*
X0006774Y0014205D01*
X0006845Y0014335D01*
X0006919Y0014463D01*
X0006996Y0014589D01*
X0007077Y0014713D01*
X0007161Y0014835D01*
X0007248Y0014954D01*
X0007339Y0015071D01*
X0007433Y0015186D01*
X0007529Y0015298D01*
X0007629Y0015408D01*
X0007731Y0015514D01*
X0007837Y0015618D01*
X0007945Y0015719D01*
X0008056Y0015817D01*
X0008169Y0015913D01*
X0008285Y0016005D01*
X0008403Y0016094D01*
X0008524Y0016179D01*
X0008647Y0016262D01*
X0008772Y0016341D01*
X0008899Y0016417D01*
X0009028Y0016489D01*
X0009159Y0016558D01*
X0009292Y0016623D01*
X0009427Y0016684D01*
X0009563Y0016742D01*
X0009700Y0016797D01*
X0009839Y0016847D01*
X0009980Y0016894D01*
X0010121Y0016937D01*
X0010264Y0016977D01*
X0010408Y0017012D01*
X0010552Y0017044D01*
X0010698Y0017071D01*
X0010844Y0017095D01*
X0010991Y0017115D01*
X0011138Y0017131D01*
X0011285Y0017143D01*
X0011433Y0017151D01*
X0011581Y0017155D01*
X0011729Y0017155D01*
X0011877Y0017151D01*
X0012025Y0017143D01*
X0012172Y0017131D01*
X0012319Y0017115D01*
X0012466Y0017095D01*
X0012612Y0017071D01*
X0012758Y0017044D01*
X0012902Y0017012D01*
X0013046Y0016977D01*
X0013189Y0016937D01*
X0013330Y0016894D01*
X0013471Y0016847D01*
X0013610Y0016797D01*
X0013747Y0016742D01*
X0013883Y0016684D01*
X0014018Y0016623D01*
X0014151Y0016558D01*
X0014282Y0016489D01*
X0014411Y0016417D01*
X0014538Y0016341D01*
X0014663Y0016262D01*
X0014786Y0016179D01*
X0014907Y0016094D01*
X0015025Y0016005D01*
X0015141Y0015913D01*
X0015254Y0015817D01*
X0015365Y0015719D01*
X0015473Y0015618D01*
X0015579Y0015514D01*
X0015681Y0015408D01*
X0015781Y0015298D01*
X0015877Y0015186D01*
X0015971Y0015071D01*
X0016062Y0014954D01*
X0016149Y0014835D01*
X0016233Y0014713D01*
X0016314Y0014589D01*
X0016391Y0014463D01*
X0016465Y0014335D01*
X0016536Y0014205D01*
X0016603Y0014073D01*
X0016666Y0013939D01*
X0016726Y0013804D01*
X0016782Y0013667D01*
X0016835Y0013528D01*
X0016883Y0013388D01*
X0016928Y0013247D01*
X0016969Y0013105D01*
X0017007Y0012962D01*
X0017040Y0012818D01*
X0017070Y0012673D01*
X0017096Y0012527D01*
X0017117Y0012381D01*
X0017135Y0012234D01*
X0017149Y0012087D01*
X0017159Y0011939D01*
X0017165Y0011791D01*
X0017167Y0011643D01*
X0017165Y0011495D01*
X0017159Y0011347D01*
X0017149Y0011199D01*
X0017135Y0011052D01*
X0017117Y0010905D01*
X0017096Y0010759D01*
X0017070Y0010613D01*
X0017040Y0010468D01*
X0017007Y0010324D01*
X0016969Y0010181D01*
X0016928Y0010039D01*
X0016883Y0009898D01*
X0016835Y0009758D01*
X0016782Y0009619D01*
X0016726Y0009482D01*
X0016666Y0009347D01*
X0016603Y0009213D01*
X0016536Y0009081D01*
X0016465Y0008951D01*
X0016391Y0008823D01*
X0016314Y0008697D01*
X0016233Y0008573D01*
X0016149Y0008451D01*
X0016062Y0008332D01*
X0015971Y0008215D01*
X0015877Y0008100D01*
X0015781Y0007988D01*
X0015681Y0007878D01*
X0015579Y0007772D01*
X0015473Y0007668D01*
X0015365Y0007567D01*
X0015254Y0007469D01*
X0015141Y0007373D01*
X0015025Y0007281D01*
X0014907Y0007192D01*
X0014786Y0007107D01*
X0014663Y0007024D01*
X0014538Y0006945D01*
X0014411Y0006869D01*
X0014282Y0006797D01*
X0014151Y0006728D01*
X0014018Y0006663D01*
X0013883Y0006602D01*
X0013747Y0006544D01*
X0013610Y0006489D01*
X0013471Y0006439D01*
X0013330Y0006392D01*
X0013189Y0006349D01*
X0013046Y0006309D01*
X0012902Y0006274D01*
X0012758Y0006242D01*
X0012612Y0006215D01*
X0012466Y0006191D01*
X0012319Y0006171D01*
X0012172Y0006155D01*
X0012025Y0006143D01*
X0011877Y0006135D01*
X0011729Y0006131D01*
X0011581Y0006131D01*
X0011433Y0006135D01*
X0011285Y0006143D01*
X0011138Y0006155D01*
X0010991Y0006171D01*
X0010844Y0006191D01*
X0010698Y0006215D01*
X0010552Y0006242D01*
X0010408Y0006274D01*
X0010264Y0006309D01*
X0010121Y0006349D01*
X0009980Y0006392D01*
X0009839Y0006439D01*
X0009700Y0006489D01*
X0009563Y0006544D01*
X0009427Y0006602D01*
X0009292Y0006663D01*
X0009159Y0006728D01*
X0009028Y0006797D01*
X0008899Y0006869D01*
X0008772Y0006945D01*
X0008647Y0007024D01*
X0008524Y0007107D01*
X0008403Y0007192D01*
X0008285Y0007281D01*
X0008169Y0007373D01*
X0008056Y0007469D01*
X0007945Y0007567D01*
X0007837Y0007668D01*
X0007731Y0007772D01*
X0007629Y0007878D01*
X0007529Y0007988D01*
X0007433Y0008100D01*
X0007339Y0008215D01*
X0007248Y0008332D01*
X0007161Y0008451D01*
X0007077Y0008573D01*
X0006996Y0008697D01*
X0006919Y0008823D01*
X0006845Y0008951D01*
X0006774Y0009081D01*
X0006707Y0009213D01*
X0006644Y0009347D01*
X0006584Y0009482D01*
X0006528Y0009619D01*
X0006475Y0009758D01*
X0006427Y0009898D01*
X0006382Y0010039D01*
X0006341Y0010181D01*
X0006303Y0010324D01*
X0006270Y0010468D01*
X0006240Y0010613D01*
X0006214Y0010759D01*
X0006193Y0010905D01*
X0006175Y0011052D01*
X0006161Y0011199D01*
X0006151Y0011347D01*
X0006145Y0011495D01*
X0006143Y0011643D01*
X0006143Y0188808D02*
X0006145Y0188956D01*
X0006151Y0189104D01*
X0006161Y0189252D01*
X0006175Y0189399D01*
X0006193Y0189546D01*
X0006214Y0189692D01*
X0006240Y0189838D01*
X0006270Y0189983D01*
X0006303Y0190127D01*
X0006341Y0190270D01*
X0006382Y0190412D01*
X0006427Y0190553D01*
X0006475Y0190693D01*
X0006528Y0190832D01*
X0006584Y0190969D01*
X0006644Y0191104D01*
X0006707Y0191238D01*
X0006774Y0191370D01*
X0006845Y0191500D01*
X0006919Y0191628D01*
X0006996Y0191754D01*
X0007077Y0191878D01*
X0007161Y0192000D01*
X0007248Y0192119D01*
X0007339Y0192236D01*
X0007433Y0192351D01*
X0007529Y0192463D01*
X0007629Y0192573D01*
X0007731Y0192679D01*
X0007837Y0192783D01*
X0007945Y0192884D01*
X0008056Y0192982D01*
X0008169Y0193078D01*
X0008285Y0193170D01*
X0008403Y0193259D01*
X0008524Y0193344D01*
X0008647Y0193427D01*
X0008772Y0193506D01*
X0008899Y0193582D01*
X0009028Y0193654D01*
X0009159Y0193723D01*
X0009292Y0193788D01*
X0009427Y0193849D01*
X0009563Y0193907D01*
X0009700Y0193962D01*
X0009839Y0194012D01*
X0009980Y0194059D01*
X0010121Y0194102D01*
X0010264Y0194142D01*
X0010408Y0194177D01*
X0010552Y0194209D01*
X0010698Y0194236D01*
X0010844Y0194260D01*
X0010991Y0194280D01*
X0011138Y0194296D01*
X0011285Y0194308D01*
X0011433Y0194316D01*
X0011581Y0194320D01*
X0011729Y0194320D01*
X0011877Y0194316D01*
X0012025Y0194308D01*
X0012172Y0194296D01*
X0012319Y0194280D01*
X0012466Y0194260D01*
X0012612Y0194236D01*
X0012758Y0194209D01*
X0012902Y0194177D01*
X0013046Y0194142D01*
X0013189Y0194102D01*
X0013330Y0194059D01*
X0013471Y0194012D01*
X0013610Y0193962D01*
X0013747Y0193907D01*
X0013883Y0193849D01*
X0014018Y0193788D01*
X0014151Y0193723D01*
X0014282Y0193654D01*
X0014411Y0193582D01*
X0014538Y0193506D01*
X0014663Y0193427D01*
X0014786Y0193344D01*
X0014907Y0193259D01*
X0015025Y0193170D01*
X0015141Y0193078D01*
X0015254Y0192982D01*
X0015365Y0192884D01*
X0015473Y0192783D01*
X0015579Y0192679D01*
X0015681Y0192573D01*
X0015781Y0192463D01*
X0015877Y0192351D01*
X0015971Y0192236D01*
X0016062Y0192119D01*
X0016149Y0192000D01*
X0016233Y0191878D01*
X0016314Y0191754D01*
X0016391Y0191628D01*
X0016465Y0191500D01*
X0016536Y0191370D01*
X0016603Y0191238D01*
X0016666Y0191104D01*
X0016726Y0190969D01*
X0016782Y0190832D01*
X0016835Y0190693D01*
X0016883Y0190553D01*
X0016928Y0190412D01*
X0016969Y0190270D01*
X0017007Y0190127D01*
X0017040Y0189983D01*
X0017070Y0189838D01*
X0017096Y0189692D01*
X0017117Y0189546D01*
X0017135Y0189399D01*
X0017149Y0189252D01*
X0017159Y0189104D01*
X0017165Y0188956D01*
X0017167Y0188808D01*
X0017165Y0188660D01*
X0017159Y0188512D01*
X0017149Y0188364D01*
X0017135Y0188217D01*
X0017117Y0188070D01*
X0017096Y0187924D01*
X0017070Y0187778D01*
X0017040Y0187633D01*
X0017007Y0187489D01*
X0016969Y0187346D01*
X0016928Y0187204D01*
X0016883Y0187063D01*
X0016835Y0186923D01*
X0016782Y0186784D01*
X0016726Y0186647D01*
X0016666Y0186512D01*
X0016603Y0186378D01*
X0016536Y0186246D01*
X0016465Y0186116D01*
X0016391Y0185988D01*
X0016314Y0185862D01*
X0016233Y0185738D01*
X0016149Y0185616D01*
X0016062Y0185497D01*
X0015971Y0185380D01*
X0015877Y0185265D01*
X0015781Y0185153D01*
X0015681Y0185043D01*
X0015579Y0184937D01*
X0015473Y0184833D01*
X0015365Y0184732D01*
X0015254Y0184634D01*
X0015141Y0184538D01*
X0015025Y0184446D01*
X0014907Y0184357D01*
X0014786Y0184272D01*
X0014663Y0184189D01*
X0014538Y0184110D01*
X0014411Y0184034D01*
X0014282Y0183962D01*
X0014151Y0183893D01*
X0014018Y0183828D01*
X0013883Y0183767D01*
X0013747Y0183709D01*
X0013610Y0183654D01*
X0013471Y0183604D01*
X0013330Y0183557D01*
X0013189Y0183514D01*
X0013046Y0183474D01*
X0012902Y0183439D01*
X0012758Y0183407D01*
X0012612Y0183380D01*
X0012466Y0183356D01*
X0012319Y0183336D01*
X0012172Y0183320D01*
X0012025Y0183308D01*
X0011877Y0183300D01*
X0011729Y0183296D01*
X0011581Y0183296D01*
X0011433Y0183300D01*
X0011285Y0183308D01*
X0011138Y0183320D01*
X0010991Y0183336D01*
X0010844Y0183356D01*
X0010698Y0183380D01*
X0010552Y0183407D01*
X0010408Y0183439D01*
X0010264Y0183474D01*
X0010121Y0183514D01*
X0009980Y0183557D01*
X0009839Y0183604D01*
X0009700Y0183654D01*
X0009563Y0183709D01*
X0009427Y0183767D01*
X0009292Y0183828D01*
X0009159Y0183893D01*
X0009028Y0183962D01*
X0008899Y0184034D01*
X0008772Y0184110D01*
X0008647Y0184189D01*
X0008524Y0184272D01*
X0008403Y0184357D01*
X0008285Y0184446D01*
X0008169Y0184538D01*
X0008056Y0184634D01*
X0007945Y0184732D01*
X0007837Y0184833D01*
X0007731Y0184937D01*
X0007629Y0185043D01*
X0007529Y0185153D01*
X0007433Y0185265D01*
X0007339Y0185380D01*
X0007248Y0185497D01*
X0007161Y0185616D01*
X0007077Y0185738D01*
X0006996Y0185862D01*
X0006919Y0185988D01*
X0006845Y0186116D01*
X0006774Y0186246D01*
X0006707Y0186378D01*
X0006644Y0186512D01*
X0006584Y0186647D01*
X0006528Y0186784D01*
X0006475Y0186923D01*
X0006427Y0187063D01*
X0006382Y0187204D01*
X0006341Y0187346D01*
X0006303Y0187489D01*
X0006270Y0187633D01*
X0006240Y0187778D01*
X0006214Y0187924D01*
X0006193Y0188070D01*
X0006175Y0188217D01*
X0006161Y0188364D01*
X0006151Y0188512D01*
X0006145Y0188660D01*
X0006143Y0188808D01*
X0183309Y0188808D02*
X0183311Y0188956D01*
X0183317Y0189104D01*
X0183327Y0189252D01*
X0183341Y0189399D01*
X0183359Y0189546D01*
X0183380Y0189692D01*
X0183406Y0189838D01*
X0183436Y0189983D01*
X0183469Y0190127D01*
X0183507Y0190270D01*
X0183548Y0190412D01*
X0183593Y0190553D01*
X0183641Y0190693D01*
X0183694Y0190832D01*
X0183750Y0190969D01*
X0183810Y0191104D01*
X0183873Y0191238D01*
X0183940Y0191370D01*
X0184011Y0191500D01*
X0184085Y0191628D01*
X0184162Y0191754D01*
X0184243Y0191878D01*
X0184327Y0192000D01*
X0184414Y0192119D01*
X0184505Y0192236D01*
X0184599Y0192351D01*
X0184695Y0192463D01*
X0184795Y0192573D01*
X0184897Y0192679D01*
X0185003Y0192783D01*
X0185111Y0192884D01*
X0185222Y0192982D01*
X0185335Y0193078D01*
X0185451Y0193170D01*
X0185569Y0193259D01*
X0185690Y0193344D01*
X0185813Y0193427D01*
X0185938Y0193506D01*
X0186065Y0193582D01*
X0186194Y0193654D01*
X0186325Y0193723D01*
X0186458Y0193788D01*
X0186593Y0193849D01*
X0186729Y0193907D01*
X0186866Y0193962D01*
X0187005Y0194012D01*
X0187146Y0194059D01*
X0187287Y0194102D01*
X0187430Y0194142D01*
X0187574Y0194177D01*
X0187718Y0194209D01*
X0187864Y0194236D01*
X0188010Y0194260D01*
X0188157Y0194280D01*
X0188304Y0194296D01*
X0188451Y0194308D01*
X0188599Y0194316D01*
X0188747Y0194320D01*
X0188895Y0194320D01*
X0189043Y0194316D01*
X0189191Y0194308D01*
X0189338Y0194296D01*
X0189485Y0194280D01*
X0189632Y0194260D01*
X0189778Y0194236D01*
X0189924Y0194209D01*
X0190068Y0194177D01*
X0190212Y0194142D01*
X0190355Y0194102D01*
X0190496Y0194059D01*
X0190637Y0194012D01*
X0190776Y0193962D01*
X0190913Y0193907D01*
X0191049Y0193849D01*
X0191184Y0193788D01*
X0191317Y0193723D01*
X0191448Y0193654D01*
X0191577Y0193582D01*
X0191704Y0193506D01*
X0191829Y0193427D01*
X0191952Y0193344D01*
X0192073Y0193259D01*
X0192191Y0193170D01*
X0192307Y0193078D01*
X0192420Y0192982D01*
X0192531Y0192884D01*
X0192639Y0192783D01*
X0192745Y0192679D01*
X0192847Y0192573D01*
X0192947Y0192463D01*
X0193043Y0192351D01*
X0193137Y0192236D01*
X0193228Y0192119D01*
X0193315Y0192000D01*
X0193399Y0191878D01*
X0193480Y0191754D01*
X0193557Y0191628D01*
X0193631Y0191500D01*
X0193702Y0191370D01*
X0193769Y0191238D01*
X0193832Y0191104D01*
X0193892Y0190969D01*
X0193948Y0190832D01*
X0194001Y0190693D01*
X0194049Y0190553D01*
X0194094Y0190412D01*
X0194135Y0190270D01*
X0194173Y0190127D01*
X0194206Y0189983D01*
X0194236Y0189838D01*
X0194262Y0189692D01*
X0194283Y0189546D01*
X0194301Y0189399D01*
X0194315Y0189252D01*
X0194325Y0189104D01*
X0194331Y0188956D01*
X0194333Y0188808D01*
X0194331Y0188660D01*
X0194325Y0188512D01*
X0194315Y0188364D01*
X0194301Y0188217D01*
X0194283Y0188070D01*
X0194262Y0187924D01*
X0194236Y0187778D01*
X0194206Y0187633D01*
X0194173Y0187489D01*
X0194135Y0187346D01*
X0194094Y0187204D01*
X0194049Y0187063D01*
X0194001Y0186923D01*
X0193948Y0186784D01*
X0193892Y0186647D01*
X0193832Y0186512D01*
X0193769Y0186378D01*
X0193702Y0186246D01*
X0193631Y0186116D01*
X0193557Y0185988D01*
X0193480Y0185862D01*
X0193399Y0185738D01*
X0193315Y0185616D01*
X0193228Y0185497D01*
X0193137Y0185380D01*
X0193043Y0185265D01*
X0192947Y0185153D01*
X0192847Y0185043D01*
X0192745Y0184937D01*
X0192639Y0184833D01*
X0192531Y0184732D01*
X0192420Y0184634D01*
X0192307Y0184538D01*
X0192191Y0184446D01*
X0192073Y0184357D01*
X0191952Y0184272D01*
X0191829Y0184189D01*
X0191704Y0184110D01*
X0191577Y0184034D01*
X0191448Y0183962D01*
X0191317Y0183893D01*
X0191184Y0183828D01*
X0191049Y0183767D01*
X0190913Y0183709D01*
X0190776Y0183654D01*
X0190637Y0183604D01*
X0190496Y0183557D01*
X0190355Y0183514D01*
X0190212Y0183474D01*
X0190068Y0183439D01*
X0189924Y0183407D01*
X0189778Y0183380D01*
X0189632Y0183356D01*
X0189485Y0183336D01*
X0189338Y0183320D01*
X0189191Y0183308D01*
X0189043Y0183300D01*
X0188895Y0183296D01*
X0188747Y0183296D01*
X0188599Y0183300D01*
X0188451Y0183308D01*
X0188304Y0183320D01*
X0188157Y0183336D01*
X0188010Y0183356D01*
X0187864Y0183380D01*
X0187718Y0183407D01*
X0187574Y0183439D01*
X0187430Y0183474D01*
X0187287Y0183514D01*
X0187146Y0183557D01*
X0187005Y0183604D01*
X0186866Y0183654D01*
X0186729Y0183709D01*
X0186593Y0183767D01*
X0186458Y0183828D01*
X0186325Y0183893D01*
X0186194Y0183962D01*
X0186065Y0184034D01*
X0185938Y0184110D01*
X0185813Y0184189D01*
X0185690Y0184272D01*
X0185569Y0184357D01*
X0185451Y0184446D01*
X0185335Y0184538D01*
X0185222Y0184634D01*
X0185111Y0184732D01*
X0185003Y0184833D01*
X0184897Y0184937D01*
X0184795Y0185043D01*
X0184695Y0185153D01*
X0184599Y0185265D01*
X0184505Y0185380D01*
X0184414Y0185497D01*
X0184327Y0185616D01*
X0184243Y0185738D01*
X0184162Y0185862D01*
X0184085Y0185988D01*
X0184011Y0186116D01*
X0183940Y0186246D01*
X0183873Y0186378D01*
X0183810Y0186512D01*
X0183750Y0186647D01*
X0183694Y0186784D01*
X0183641Y0186923D01*
X0183593Y0187063D01*
X0183548Y0187204D01*
X0183507Y0187346D01*
X0183469Y0187489D01*
X0183436Y0187633D01*
X0183406Y0187778D01*
X0183380Y0187924D01*
X0183359Y0188070D01*
X0183341Y0188217D01*
X0183327Y0188364D01*
X0183317Y0188512D01*
X0183311Y0188660D01*
X0183309Y0188808D01*
X0183309Y0011643D02*
X0183311Y0011791D01*
X0183317Y0011939D01*
X0183327Y0012087D01*
X0183341Y0012234D01*
X0183359Y0012381D01*
X0183380Y0012527D01*
X0183406Y0012673D01*
X0183436Y0012818D01*
X0183469Y0012962D01*
X0183507Y0013105D01*
X0183548Y0013247D01*
X0183593Y0013388D01*
X0183641Y0013528D01*
X0183694Y0013667D01*
X0183750Y0013804D01*
X0183810Y0013939D01*
X0183873Y0014073D01*
X0183940Y0014205D01*
X0184011Y0014335D01*
X0184085Y0014463D01*
X0184162Y0014589D01*
X0184243Y0014713D01*
X0184327Y0014835D01*
X0184414Y0014954D01*
X0184505Y0015071D01*
X0184599Y0015186D01*
X0184695Y0015298D01*
X0184795Y0015408D01*
X0184897Y0015514D01*
X0185003Y0015618D01*
X0185111Y0015719D01*
X0185222Y0015817D01*
X0185335Y0015913D01*
X0185451Y0016005D01*
X0185569Y0016094D01*
X0185690Y0016179D01*
X0185813Y0016262D01*
X0185938Y0016341D01*
X0186065Y0016417D01*
X0186194Y0016489D01*
X0186325Y0016558D01*
X0186458Y0016623D01*
X0186593Y0016684D01*
X0186729Y0016742D01*
X0186866Y0016797D01*
X0187005Y0016847D01*
X0187146Y0016894D01*
X0187287Y0016937D01*
X0187430Y0016977D01*
X0187574Y0017012D01*
X0187718Y0017044D01*
X0187864Y0017071D01*
X0188010Y0017095D01*
X0188157Y0017115D01*
X0188304Y0017131D01*
X0188451Y0017143D01*
X0188599Y0017151D01*
X0188747Y0017155D01*
X0188895Y0017155D01*
X0189043Y0017151D01*
X0189191Y0017143D01*
X0189338Y0017131D01*
X0189485Y0017115D01*
X0189632Y0017095D01*
X0189778Y0017071D01*
X0189924Y0017044D01*
X0190068Y0017012D01*
X0190212Y0016977D01*
X0190355Y0016937D01*
X0190496Y0016894D01*
X0190637Y0016847D01*
X0190776Y0016797D01*
X0190913Y0016742D01*
X0191049Y0016684D01*
X0191184Y0016623D01*
X0191317Y0016558D01*
X0191448Y0016489D01*
X0191577Y0016417D01*
X0191704Y0016341D01*
X0191829Y0016262D01*
X0191952Y0016179D01*
X0192073Y0016094D01*
X0192191Y0016005D01*
X0192307Y0015913D01*
X0192420Y0015817D01*
X0192531Y0015719D01*
X0192639Y0015618D01*
X0192745Y0015514D01*
X0192847Y0015408D01*
X0192947Y0015298D01*
X0193043Y0015186D01*
X0193137Y0015071D01*
X0193228Y0014954D01*
X0193315Y0014835D01*
X0193399Y0014713D01*
X0193480Y0014589D01*
X0193557Y0014463D01*
X0193631Y0014335D01*
X0193702Y0014205D01*
X0193769Y0014073D01*
X0193832Y0013939D01*
X0193892Y0013804D01*
X0193948Y0013667D01*
X0194001Y0013528D01*
X0194049Y0013388D01*
X0194094Y0013247D01*
X0194135Y0013105D01*
X0194173Y0012962D01*
X0194206Y0012818D01*
X0194236Y0012673D01*
X0194262Y0012527D01*
X0194283Y0012381D01*
X0194301Y0012234D01*
X0194315Y0012087D01*
X0194325Y0011939D01*
X0194331Y0011791D01*
X0194333Y0011643D01*
X0194331Y0011495D01*
X0194325Y0011347D01*
X0194315Y0011199D01*
X0194301Y0011052D01*
X0194283Y0010905D01*
X0194262Y0010759D01*
X0194236Y0010613D01*
X0194206Y0010468D01*
X0194173Y0010324D01*
X0194135Y0010181D01*
X0194094Y0010039D01*
X0194049Y0009898D01*
X0194001Y0009758D01*
X0193948Y0009619D01*
X0193892Y0009482D01*
X0193832Y0009347D01*
X0193769Y0009213D01*
X0193702Y0009081D01*
X0193631Y0008951D01*
X0193557Y0008823D01*
X0193480Y0008697D01*
X0193399Y0008573D01*
X0193315Y0008451D01*
X0193228Y0008332D01*
X0193137Y0008215D01*
X0193043Y0008100D01*
X0192947Y0007988D01*
X0192847Y0007878D01*
X0192745Y0007772D01*
X0192639Y0007668D01*
X0192531Y0007567D01*
X0192420Y0007469D01*
X0192307Y0007373D01*
X0192191Y0007281D01*
X0192073Y0007192D01*
X0191952Y0007107D01*
X0191829Y0007024D01*
X0191704Y0006945D01*
X0191577Y0006869D01*
X0191448Y0006797D01*
X0191317Y0006728D01*
X0191184Y0006663D01*
X0191049Y0006602D01*
X0190913Y0006544D01*
X0190776Y0006489D01*
X0190637Y0006439D01*
X0190496Y0006392D01*
X0190355Y0006349D01*
X0190212Y0006309D01*
X0190068Y0006274D01*
X0189924Y0006242D01*
X0189778Y0006215D01*
X0189632Y0006191D01*
X0189485Y0006171D01*
X0189338Y0006155D01*
X0189191Y0006143D01*
X0189043Y0006135D01*
X0188895Y0006131D01*
X0188747Y0006131D01*
X0188599Y0006135D01*
X0188451Y0006143D01*
X0188304Y0006155D01*
X0188157Y0006171D01*
X0188010Y0006191D01*
X0187864Y0006215D01*
X0187718Y0006242D01*
X0187574Y0006274D01*
X0187430Y0006309D01*
X0187287Y0006349D01*
X0187146Y0006392D01*
X0187005Y0006439D01*
X0186866Y0006489D01*
X0186729Y0006544D01*
X0186593Y0006602D01*
X0186458Y0006663D01*
X0186325Y0006728D01*
X0186194Y0006797D01*
X0186065Y0006869D01*
X0185938Y0006945D01*
X0185813Y0007024D01*
X0185690Y0007107D01*
X0185569Y0007192D01*
X0185451Y0007281D01*
X0185335Y0007373D01*
X0185222Y0007469D01*
X0185111Y0007567D01*
X0185003Y0007668D01*
X0184897Y0007772D01*
X0184795Y0007878D01*
X0184695Y0007988D01*
X0184599Y0008100D01*
X0184505Y0008215D01*
X0184414Y0008332D01*
X0184327Y0008451D01*
X0184243Y0008573D01*
X0184162Y0008697D01*
X0184085Y0008823D01*
X0184011Y0008951D01*
X0183940Y0009081D01*
X0183873Y0009213D01*
X0183810Y0009347D01*
X0183750Y0009482D01*
X0183694Y0009619D01*
X0183641Y0009758D01*
X0183593Y0009898D01*
X0183548Y0010039D01*
X0183507Y0010181D01*
X0183469Y0010324D01*
X0183436Y0010468D01*
X0183406Y0010613D01*
X0183380Y0010759D01*
X0183359Y0010905D01*
X0183341Y0011052D01*
X0183327Y0011199D01*
X0183317Y0011347D01*
X0183311Y0011495D01*
X0183309Y0011643D01*
D11*
X0188821Y0011643D03*
X0188821Y0188808D03*
X0011655Y0188808D03*
X0011655Y0011643D03*
D12*
X0010671Y0001800D02*
X0188821Y0001800D01*
X0189059Y0001803D01*
X0189297Y0001811D01*
X0189534Y0001826D01*
X0189771Y0001846D01*
X0190007Y0001872D01*
X0190243Y0001903D01*
X0190478Y0001940D01*
X0190712Y0001983D01*
X0190945Y0002032D01*
X0191177Y0002086D01*
X0191407Y0002146D01*
X0191636Y0002211D01*
X0191863Y0002282D01*
X0192088Y0002358D01*
X0192311Y0002440D01*
X0192533Y0002527D01*
X0192752Y0002619D01*
X0192969Y0002717D01*
X0193183Y0002819D01*
X0193395Y0002927D01*
X0193605Y0003041D01*
X0193811Y0003159D01*
X0194015Y0003282D01*
X0194215Y0003410D01*
X0194412Y0003542D01*
X0194607Y0003680D01*
X0194797Y0003822D01*
X0194985Y0003969D01*
X0195168Y0004120D01*
X0195348Y0004275D01*
X0195524Y0004435D01*
X0195696Y0004599D01*
X0195865Y0004768D01*
X0196029Y0004940D01*
X0196189Y0005116D01*
X0196344Y0005296D01*
X0196495Y0005479D01*
X0196642Y0005667D01*
X0196784Y0005857D01*
X0196922Y0006052D01*
X0197054Y0006249D01*
X0197182Y0006449D01*
X0197305Y0006653D01*
X0197423Y0006859D01*
X0197537Y0007069D01*
X0197645Y0007281D01*
X0197747Y0007495D01*
X0197845Y0007712D01*
X0197937Y0007931D01*
X0198024Y0008153D01*
X0198106Y0008376D01*
X0198182Y0008601D01*
X0198253Y0008828D01*
X0198318Y0009057D01*
X0198378Y0009287D01*
X0198432Y0009519D01*
X0198481Y0009752D01*
X0198524Y0009986D01*
X0198561Y0010221D01*
X0198592Y0010457D01*
X0198618Y0010693D01*
X0198638Y0010930D01*
X0198653Y0011167D01*
X0198661Y0011405D01*
X0198664Y0011643D01*
X0198663Y0011643D02*
X0198663Y0188808D01*
X0198664Y0188808D02*
X0198661Y0189046D01*
X0198653Y0189284D01*
X0198638Y0189521D01*
X0198618Y0189758D01*
X0198592Y0189994D01*
X0198561Y0190230D01*
X0198524Y0190465D01*
X0198481Y0190699D01*
X0198432Y0190932D01*
X0198378Y0191164D01*
X0198318Y0191394D01*
X0198253Y0191623D01*
X0198182Y0191850D01*
X0198106Y0192075D01*
X0198024Y0192298D01*
X0197937Y0192520D01*
X0197845Y0192739D01*
X0197747Y0192956D01*
X0197645Y0193170D01*
X0197537Y0193382D01*
X0197423Y0193592D01*
X0197305Y0193798D01*
X0197182Y0194002D01*
X0197054Y0194202D01*
X0196922Y0194399D01*
X0196784Y0194594D01*
X0196642Y0194784D01*
X0196495Y0194972D01*
X0196344Y0195155D01*
X0196189Y0195335D01*
X0196029Y0195511D01*
X0195865Y0195683D01*
X0195696Y0195852D01*
X0195524Y0196016D01*
X0195348Y0196176D01*
X0195168Y0196331D01*
X0194985Y0196482D01*
X0194797Y0196629D01*
X0194607Y0196771D01*
X0194412Y0196909D01*
X0194215Y0197041D01*
X0194015Y0197169D01*
X0193811Y0197292D01*
X0193605Y0197410D01*
X0193395Y0197524D01*
X0193183Y0197632D01*
X0192969Y0197734D01*
X0192752Y0197832D01*
X0192533Y0197924D01*
X0192311Y0198011D01*
X0192088Y0198093D01*
X0191863Y0198169D01*
X0191636Y0198240D01*
X0191407Y0198305D01*
X0191177Y0198365D01*
X0190945Y0198419D01*
X0190712Y0198468D01*
X0190478Y0198511D01*
X0190243Y0198548D01*
X0190007Y0198579D01*
X0189771Y0198605D01*
X0189534Y0198625D01*
X0189297Y0198640D01*
X0189059Y0198648D01*
X0188821Y0198651D01*
X0188821Y0198650D02*
X0011655Y0198650D01*
X0011655Y0198651D02*
X0011417Y0198648D01*
X0011179Y0198640D01*
X0010942Y0198625D01*
X0010705Y0198605D01*
X0010469Y0198579D01*
X0010233Y0198548D01*
X0009998Y0198511D01*
X0009764Y0198468D01*
X0009531Y0198419D01*
X0009299Y0198365D01*
X0009069Y0198305D01*
X0008840Y0198240D01*
X0008613Y0198169D01*
X0008388Y0198093D01*
X0008165Y0198011D01*
X0007943Y0197924D01*
X0007724Y0197832D01*
X0007507Y0197734D01*
X0007293Y0197632D01*
X0007081Y0197524D01*
X0006871Y0197410D01*
X0006665Y0197292D01*
X0006461Y0197169D01*
X0006261Y0197041D01*
X0006064Y0196909D01*
X0005869Y0196771D01*
X0005679Y0196629D01*
X0005491Y0196482D01*
X0005308Y0196331D01*
X0005128Y0196176D01*
X0004952Y0196016D01*
X0004780Y0195852D01*
X0004611Y0195683D01*
X0004447Y0195511D01*
X0004287Y0195335D01*
X0004132Y0195155D01*
X0003981Y0194972D01*
X0003834Y0194784D01*
X0003692Y0194594D01*
X0003554Y0194399D01*
X0003422Y0194202D01*
X0003294Y0194002D01*
X0003171Y0193798D01*
X0003053Y0193592D01*
X0002939Y0193382D01*
X0002831Y0193170D01*
X0002729Y0192956D01*
X0002631Y0192739D01*
X0002539Y0192520D01*
X0002452Y0192298D01*
X0002370Y0192075D01*
X0002294Y0191850D01*
X0002223Y0191623D01*
X0002158Y0191394D01*
X0002098Y0191164D01*
X0002044Y0190932D01*
X0001995Y0190699D01*
X0001952Y0190465D01*
X0001915Y0190230D01*
X0001884Y0189994D01*
X0001858Y0189758D01*
X0001838Y0189521D01*
X0001823Y0189284D01*
X0001815Y0189046D01*
X0001812Y0188808D01*
X0001813Y0188808D02*
X0001813Y0011643D01*
X0001813Y0011642D02*
X0001804Y0011416D01*
X0001800Y0011190D01*
X0001802Y0010964D01*
X0001809Y0010737D01*
X0001822Y0010511D01*
X0001840Y0010286D01*
X0001864Y0010061D01*
X0001893Y0009837D01*
X0001927Y0009613D01*
X0001967Y0009390D01*
X0002012Y0009168D01*
X0002063Y0008948D01*
X0002118Y0008729D01*
X0002180Y0008511D01*
X0002246Y0008295D01*
X0002318Y0008080D01*
X0002394Y0007867D01*
X0002476Y0007656D01*
X0002563Y0007447D01*
X0002655Y0007241D01*
X0002752Y0007036D01*
X0002854Y0006834D01*
X0002961Y0006635D01*
X0003072Y0006438D01*
X0003189Y0006244D01*
X0003309Y0006052D01*
X0003435Y0005864D01*
X0003565Y0005679D01*
X0003699Y0005497D01*
X0003838Y0005318D01*
X0003981Y0005143D01*
X0004128Y0004971D01*
X0004280Y0004803D01*
X0004435Y0004638D01*
X0004594Y0004478D01*
X0004758Y0004321D01*
X0004924Y0004168D01*
X0005095Y0004019D01*
X0005269Y0003875D01*
X0005447Y0003735D01*
X0005627Y0003599D01*
X0005812Y0003467D01*
X0005999Y0003340D01*
X0006189Y0003218D01*
X0006382Y0003100D01*
X0006578Y0002986D01*
X0006777Y0002878D01*
X0006978Y0002774D01*
X0007181Y0002676D01*
X0007387Y0002582D01*
X0007595Y0002493D01*
X0007806Y0002410D01*
X0008018Y0002331D01*
X0008232Y0002258D01*
X0008448Y0002189D01*
X0008665Y0002126D01*
X0008884Y0002069D01*
X0009104Y0002016D01*
X0009325Y0001969D01*
X0009547Y0001927D01*
X0009771Y0001891D01*
X0009995Y0001860D01*
X0010220Y0001835D01*
X0010445Y0001815D01*
X0010671Y0001800D01*
D13*
X0104903Y0061013D03*
X0105277Y0124576D03*
D14*
X0097403Y0124576D03*
X0097029Y0061013D03*
D15*
X0118840Y0132076D03*
X0118840Y0167076D03*
D16*
X0168466Y0167981D03*
D17*
X0168466Y0148296D03*
D18*
X0136415Y0152076D02*
X0131266Y0152076D01*
X0131266Y0142076D02*
X0136415Y0142076D01*
X0136415Y0132076D02*
X0131266Y0132076D01*
X0131266Y0122076D02*
X0136415Y0122076D01*
X0136415Y0112076D02*
X0131266Y0112076D01*
X0131266Y0102076D02*
X0136415Y0102076D01*
X0136415Y0092076D02*
X0131266Y0092076D01*
X0131266Y0082076D02*
X0136415Y0082076D01*
X0136415Y0072076D02*
X0131266Y0072076D01*
X0131266Y0062076D02*
X0136415Y0062076D01*
X0136415Y0052076D02*
X0131266Y0052076D01*
X0131266Y0042076D02*
X0136415Y0042076D01*
X0136415Y0032076D02*
X0131266Y0032076D01*
X0131266Y0022076D02*
X0136415Y0022076D01*
X0136415Y0012076D02*
X0131266Y0012076D01*
X0076415Y0012076D02*
X0071266Y0012076D01*
X0071266Y0022076D02*
X0076415Y0022076D01*
X0076415Y0032076D02*
X0071266Y0032076D01*
X0071266Y0042076D02*
X0076415Y0042076D01*
X0076415Y0052076D02*
X0071266Y0052076D01*
X0071266Y0062076D02*
X0076415Y0062076D01*
X0076415Y0072076D02*
X0071266Y0072076D01*
X0071266Y0082076D02*
X0076415Y0082076D01*
X0076415Y0092076D02*
X0071266Y0092076D01*
X0071266Y0102076D02*
X0076415Y0102076D01*
X0076415Y0112076D02*
X0071266Y0112076D01*
X0071266Y0122076D02*
X0076415Y0122076D01*
X0076415Y0132076D02*
X0071266Y0132076D01*
X0071266Y0142076D02*
X0076415Y0142076D01*
X0076415Y0152076D02*
X0071266Y0152076D01*
D19*
X0038653Y0143513D03*
X0028653Y0143513D03*
X0018653Y0143513D03*
X0018840Y0117076D03*
X0028840Y0117076D03*
X0038840Y0117076D03*
X0038840Y0087076D03*
X0028840Y0087076D03*
X0018840Y0087076D03*
X0018840Y0058513D03*
X0028840Y0058513D03*
X0038840Y0058513D03*
X0038840Y0032076D03*
X0028840Y0032076D03*
X0018840Y0032076D03*
X0018840Y0172076D03*
X0028840Y0172076D03*
X0038840Y0172076D03*
X0127777Y0189576D03*
X0137777Y0189576D03*
X0158840Y0119576D03*
X0158840Y0109576D03*
X0158840Y0099576D03*
X0158840Y0089576D03*
X0158840Y0079576D03*
X0158840Y0069576D03*
X0158840Y0059576D03*
X0168840Y0059576D03*
X0168840Y0069576D03*
X0168840Y0079576D03*
X0168840Y0089576D03*
X0168840Y0099576D03*
X0168840Y0109576D03*
X0168840Y0119576D03*
X0178840Y0119576D03*
X0178840Y0109576D03*
X0178840Y0099576D03*
X0178840Y0089576D03*
X0178840Y0079576D03*
X0178840Y0069576D03*
X0178840Y0059576D03*
X0179146Y0039492D03*
X0179146Y0029492D03*
X0169136Y0029610D03*
X0169136Y0039610D03*
X0159008Y0039704D03*
X0159008Y0029704D03*
D20*
X0101340Y0179576D03*
X0091340Y0179576D03*
X0081340Y0179576D03*
X0081340Y0189576D03*
X0091340Y0189576D03*
X0101340Y0189576D03*
D21*
X0048840Y0172076D03*
X0048653Y0143513D03*
X0048840Y0117076D03*
X0048840Y0087076D03*
X0048840Y0058513D03*
X0048840Y0032076D03*
X0158840Y0049576D03*
X0168840Y0049576D03*
X0178840Y0049576D03*
M02*
