G75*
%MOIN*%
%OFA0B0*%
%FSLAX25Y25*%
%IPPOS*%
%LPD*%
%AMOC8*
5,1,8,0,0,1.08239X$1,22.5*
%
%ADD10C,0.00400*%
%ADD11C,0.00500*%
%ADD12C,0.00000*%
%ADD13C,0.01300*%
%ADD14C,0.00900*%
%ADD15C,0.01000*%
%ADD16C,0.01600*%
%ADD17C,0.00700*%
%ADD18R,0.10000X0.02500*%
%ADD19R,0.02500X0.02992*%
%ADD20C,0.00800*%
D10*
X0008592Y0041681D02*
X0009793Y0041681D01*
X0010393Y0042282D01*
X0010393Y0043483D01*
X0009192Y0043483D01*
X0007991Y0044684D02*
X0007991Y0042282D01*
X0008592Y0041681D01*
X0011674Y0041681D02*
X0011674Y0045284D01*
X0014076Y0041681D01*
X0014076Y0045284D01*
X0015357Y0045284D02*
X0017159Y0045284D01*
X0017759Y0044684D01*
X0017759Y0042282D01*
X0017159Y0041681D01*
X0015357Y0041681D01*
X0015357Y0045284D01*
X0010393Y0044684D02*
X0009793Y0045284D01*
X0008592Y0045284D01*
X0007991Y0044684D01*
X0024174Y0044428D02*
X0025375Y0045629D01*
X0025375Y0042026D01*
X0024174Y0042026D02*
X0026576Y0042026D01*
X0027857Y0042626D02*
X0030259Y0045028D01*
X0030259Y0042626D01*
X0029659Y0042026D01*
X0028458Y0042026D01*
X0027857Y0042626D01*
X0027857Y0045028D01*
X0028458Y0045629D01*
X0029659Y0045629D01*
X0030259Y0045028D01*
X0029659Y0047528D02*
X0030259Y0048129D01*
X0029659Y0047528D02*
X0028458Y0048729D01*
X0027857Y0048129D01*
X0035424Y0044428D02*
X0036625Y0045629D01*
X0036625Y0042026D01*
X0035424Y0042026D02*
X0037826Y0042026D01*
X0039107Y0042026D02*
X0041509Y0044428D01*
X0041509Y0045028D01*
X0040909Y0045629D01*
X0039708Y0045629D01*
X0039107Y0045028D01*
X0039107Y0042026D02*
X0041509Y0042026D01*
X0046674Y0042026D02*
X0049076Y0042026D01*
X0047875Y0042026D02*
X0047875Y0045629D01*
X0046674Y0044428D01*
X0050357Y0045028D02*
X0050958Y0045629D01*
X0052159Y0045629D01*
X0052759Y0045028D01*
X0052759Y0044428D01*
X0052159Y0043827D01*
X0052759Y0043227D01*
X0052759Y0042626D01*
X0052159Y0042026D01*
X0050958Y0042026D01*
X0050357Y0042626D01*
X0051558Y0043827D02*
X0052159Y0043827D01*
X0058737Y0037593D02*
X0062340Y0037593D01*
X0062340Y0036392D02*
X0062340Y0038794D01*
X0059938Y0036392D02*
X0058737Y0037593D01*
X0059338Y0035111D02*
X0060539Y0035111D01*
X0061139Y0034511D01*
X0061139Y0032709D01*
X0061139Y0033910D02*
X0062340Y0035111D01*
X0062340Y0032709D02*
X0058737Y0032709D01*
X0058737Y0034511D01*
X0059338Y0035111D01*
X0059338Y0031428D02*
X0058737Y0030828D01*
X0058737Y0029627D01*
X0059338Y0029026D01*
X0061740Y0029026D01*
X0062340Y0029627D01*
X0062340Y0030828D01*
X0061740Y0031428D01*
X0059338Y0031428D01*
X0058737Y0027745D02*
X0058737Y0025343D01*
X0058737Y0026544D02*
X0062340Y0026544D01*
X0061740Y0024062D02*
X0059338Y0024062D01*
X0058737Y0023461D01*
X0058737Y0022260D01*
X0059338Y0021660D01*
X0061740Y0021660D01*
X0062340Y0022260D01*
X0062340Y0023461D01*
X0061740Y0024062D01*
X0062340Y0020379D02*
X0058737Y0020379D01*
X0059938Y0019178D01*
X0058737Y0017977D01*
X0062340Y0017977D01*
X0062340Y0051914D02*
X0058737Y0051914D01*
X0059938Y0053115D01*
X0058737Y0054316D01*
X0062340Y0054316D01*
X0061740Y0055597D02*
X0062340Y0056197D01*
X0062340Y0057398D01*
X0061740Y0057999D01*
X0059338Y0057999D01*
X0058737Y0057398D01*
X0058737Y0056197D01*
X0059338Y0055597D01*
X0061740Y0055597D01*
X0058737Y0059280D02*
X0058737Y0061682D01*
X0058737Y0060481D02*
X0062340Y0060481D01*
X0061740Y0062963D02*
X0062340Y0063564D01*
X0062340Y0064765D01*
X0061740Y0065365D01*
X0059338Y0065365D01*
X0058737Y0064765D01*
X0058737Y0063564D01*
X0059338Y0062963D01*
X0061740Y0062963D01*
X0062340Y0066646D02*
X0058737Y0066646D01*
X0058737Y0068448D01*
X0059338Y0069048D01*
X0060539Y0069048D01*
X0061139Y0068448D01*
X0061139Y0066646D01*
X0061139Y0067847D02*
X0062340Y0069048D01*
X0062340Y0070329D02*
X0059938Y0072731D01*
X0059338Y0072731D01*
X0058737Y0072131D01*
X0058737Y0070930D01*
X0059338Y0070329D01*
X0062340Y0070329D02*
X0062340Y0072731D01*
X0062340Y0080343D02*
X0058737Y0080343D01*
X0058737Y0082745D01*
X0058737Y0084026D02*
X0062340Y0086428D01*
X0058737Y0086428D01*
X0059338Y0087709D02*
X0061740Y0087709D01*
X0062340Y0088310D01*
X0062340Y0089511D01*
X0061740Y0090111D01*
X0062340Y0091392D02*
X0062340Y0093794D01*
X0062340Y0092593D02*
X0058737Y0092593D01*
X0059938Y0091392D01*
X0059338Y0090111D02*
X0058737Y0089511D01*
X0058737Y0088310D01*
X0059338Y0087709D01*
X0058737Y0084026D02*
X0062340Y0084026D01*
X0062340Y0082745D02*
X0062340Y0080343D01*
X0060539Y0080343D02*
X0060539Y0081544D01*
X0049009Y0072784D02*
X0047808Y0072184D01*
X0046607Y0070983D01*
X0048409Y0070983D01*
X0049009Y0070382D01*
X0049009Y0069782D01*
X0048409Y0069181D01*
X0047208Y0069181D01*
X0046607Y0069782D01*
X0046607Y0070983D01*
X0039009Y0072184D02*
X0036607Y0069782D01*
X0036607Y0069181D01*
X0036607Y0072784D02*
X0039009Y0072784D01*
X0039009Y0072184D01*
X0030259Y0072184D02*
X0030259Y0069782D01*
X0029659Y0069181D01*
X0028458Y0069181D01*
X0027857Y0069782D01*
X0028458Y0070983D02*
X0027857Y0071583D01*
X0027857Y0072184D01*
X0028458Y0072784D01*
X0029659Y0072784D01*
X0030259Y0072184D01*
X0030259Y0070983D02*
X0028458Y0070983D01*
X0029659Y0075028D02*
X0030259Y0075629D01*
X0029659Y0075028D02*
X0028458Y0076229D01*
X0027857Y0075629D01*
X0017759Y0072184D02*
X0017759Y0069782D01*
X0017159Y0069181D01*
X0015357Y0069181D01*
X0015357Y0072784D01*
X0017159Y0072784D01*
X0017759Y0072184D01*
X0014076Y0072784D02*
X0014076Y0069181D01*
X0011674Y0072784D01*
X0011674Y0069181D01*
X0010393Y0069782D02*
X0010393Y0070983D01*
X0009192Y0070983D01*
X0007991Y0072184D02*
X0007991Y0069782D01*
X0008592Y0069181D01*
X0009793Y0069181D01*
X0010393Y0069782D01*
X0010393Y0072184D02*
X0009793Y0072784D01*
X0008592Y0072784D01*
X0007991Y0072184D01*
X0008592Y0098276D02*
X0007991Y0098876D01*
X0007991Y0101278D01*
X0008592Y0101879D01*
X0009793Y0101879D01*
X0010393Y0101278D01*
X0010393Y0100077D02*
X0009192Y0100077D01*
X0010393Y0100077D02*
X0010393Y0098876D01*
X0009793Y0098276D01*
X0008592Y0098276D01*
X0011674Y0098276D02*
X0011674Y0101879D01*
X0014076Y0098276D01*
X0014076Y0101879D01*
X0015357Y0101879D02*
X0017159Y0101879D01*
X0017759Y0101278D01*
X0017759Y0098876D01*
X0017159Y0098276D01*
X0015357Y0098276D01*
X0015357Y0101879D01*
X0026607Y0101278D02*
X0027208Y0101879D01*
X0028409Y0101879D01*
X0029009Y0101278D01*
X0029009Y0100678D01*
X0028409Y0100077D01*
X0029009Y0099477D01*
X0029009Y0098876D01*
X0028409Y0098276D01*
X0027208Y0098276D01*
X0026607Y0098876D01*
X0027808Y0100077D02*
X0028409Y0100077D01*
X0036607Y0100077D02*
X0037808Y0100678D01*
X0038409Y0100678D01*
X0039009Y0100077D01*
X0039009Y0098876D01*
X0038409Y0098276D01*
X0037208Y0098276D01*
X0036607Y0098876D01*
X0036607Y0100077D02*
X0036607Y0101879D01*
X0039009Y0101879D01*
X0042991Y0101278D02*
X0043592Y0101879D01*
X0044793Y0101879D01*
X0045393Y0101278D01*
X0045393Y0100678D01*
X0044793Y0100077D01*
X0045393Y0099477D01*
X0045393Y0098876D01*
X0044793Y0098276D01*
X0043592Y0098276D01*
X0042991Y0098876D01*
X0044192Y0100077D02*
X0044793Y0100077D01*
X0046674Y0099477D02*
X0046674Y0101879D01*
X0049076Y0101879D02*
X0049076Y0099477D01*
X0047875Y0098276D01*
X0046674Y0099477D01*
X0050357Y0098876D02*
X0050958Y0098276D01*
X0052159Y0098276D01*
X0052759Y0098876D01*
X0052759Y0099477D01*
X0052159Y0100077D01*
X0051558Y0100077D01*
X0052159Y0100077D02*
X0052759Y0100678D01*
X0052759Y0101278D01*
X0052159Y0101879D01*
X0050958Y0101879D01*
X0050357Y0101278D01*
X0058737Y0110343D02*
X0062340Y0110343D01*
X0062340Y0112745D01*
X0062340Y0114026D02*
X0058737Y0114026D01*
X0062340Y0116428D01*
X0058737Y0116428D01*
X0059338Y0117709D02*
X0061740Y0117709D01*
X0062340Y0118310D01*
X0062340Y0119511D01*
X0061740Y0120111D01*
X0062340Y0121392D02*
X0059938Y0123794D01*
X0059338Y0123794D01*
X0058737Y0123194D01*
X0058737Y0121993D01*
X0059338Y0121392D01*
X0059338Y0120111D02*
X0058737Y0119511D01*
X0058737Y0118310D01*
X0059338Y0117709D01*
X0062340Y0121392D02*
X0062340Y0123794D01*
X0052759Y0128876D02*
X0052159Y0128276D01*
X0050958Y0128276D01*
X0050357Y0128876D01*
X0049076Y0129477D02*
X0049076Y0131879D01*
X0050357Y0131278D02*
X0050958Y0131879D01*
X0052159Y0131879D01*
X0052759Y0131278D01*
X0052759Y0130678D01*
X0052159Y0130077D01*
X0052759Y0129477D01*
X0052759Y0128876D01*
X0052159Y0130077D02*
X0051558Y0130077D01*
X0049076Y0129477D02*
X0047875Y0128276D01*
X0046674Y0129477D01*
X0046674Y0131879D01*
X0045393Y0131278D02*
X0045393Y0130678D01*
X0044793Y0130077D01*
X0045393Y0129477D01*
X0045393Y0128876D01*
X0044793Y0128276D01*
X0043592Y0128276D01*
X0042991Y0128876D01*
X0044192Y0130077D02*
X0044793Y0130077D01*
X0045393Y0131278D02*
X0044793Y0131879D01*
X0043592Y0131879D01*
X0042991Y0131278D01*
X0039009Y0130077D02*
X0036607Y0130077D01*
X0038409Y0131879D01*
X0038409Y0128276D01*
X0029009Y0128276D02*
X0026607Y0128276D01*
X0029009Y0130678D01*
X0029009Y0131278D01*
X0028409Y0131879D01*
X0027208Y0131879D01*
X0026607Y0131278D01*
X0017759Y0131278D02*
X0017759Y0128876D01*
X0017159Y0128276D01*
X0015357Y0128276D01*
X0015357Y0131879D01*
X0017159Y0131879D01*
X0017759Y0131278D01*
X0014076Y0131879D02*
X0014076Y0128276D01*
X0011674Y0131879D01*
X0011674Y0128276D01*
X0010393Y0128876D02*
X0010393Y0130077D01*
X0009192Y0130077D01*
X0007991Y0131278D02*
X0007991Y0128876D01*
X0008592Y0128276D01*
X0009793Y0128276D01*
X0010393Y0128876D01*
X0010393Y0131278D02*
X0009793Y0131879D01*
X0008592Y0131879D01*
X0007991Y0131278D01*
X0059200Y0138443D02*
X0059200Y0139644D01*
X0059200Y0139043D02*
X0062803Y0139043D01*
X0062803Y0138443D02*
X0062803Y0139644D01*
X0062803Y0140898D02*
X0060401Y0143300D01*
X0059801Y0143300D01*
X0059200Y0142700D01*
X0059200Y0141499D01*
X0059801Y0140898D01*
X0062803Y0140898D02*
X0062803Y0143300D01*
X0062203Y0144581D02*
X0062803Y0145182D01*
X0062803Y0146383D01*
X0062203Y0146983D01*
X0062203Y0144581D02*
X0059801Y0144581D01*
X0059200Y0145182D01*
X0059200Y0146383D01*
X0059801Y0146983D01*
X0061267Y0161704D02*
X0061868Y0161704D01*
X0062468Y0162305D01*
X0062468Y0163506D01*
X0063069Y0164106D01*
X0063669Y0164106D01*
X0064270Y0163506D01*
X0064270Y0162305D01*
X0063669Y0161704D01*
X0061267Y0161704D02*
X0060667Y0162305D01*
X0060667Y0163506D01*
X0061267Y0164106D01*
X0060667Y0165388D02*
X0064270Y0165388D01*
X0064270Y0167790D01*
X0064270Y0169071D02*
X0060667Y0169071D01*
X0060667Y0170872D01*
X0061267Y0171473D01*
X0062468Y0171473D01*
X0063069Y0170872D01*
X0063069Y0169071D01*
X0063069Y0170272D02*
X0064270Y0171473D01*
X0064270Y0172754D02*
X0064270Y0173955D01*
X0064270Y0173354D02*
X0060667Y0173354D01*
X0060667Y0172754D02*
X0060667Y0173955D01*
X0061868Y0175209D02*
X0060667Y0176410D01*
X0061868Y0177611D01*
X0064270Y0177611D01*
X0064270Y0178892D02*
X0064270Y0181294D01*
X0064270Y0178892D02*
X0060667Y0178892D01*
X0062468Y0177611D02*
X0062468Y0175209D01*
X0061868Y0175209D02*
X0064270Y0175209D01*
X0060667Y0167790D02*
X0060667Y0165388D01*
X0062468Y0165388D02*
X0062468Y0166589D01*
X0051558Y0183276D02*
X0052759Y0184477D01*
X0052759Y0186879D01*
X0050357Y0186879D02*
X0050357Y0184477D01*
X0051558Y0183276D01*
X0049076Y0183876D02*
X0049076Y0185077D01*
X0048476Y0185678D01*
X0047875Y0185678D01*
X0046674Y0185077D01*
X0046674Y0186879D01*
X0049076Y0186879D01*
X0049076Y0183876D02*
X0048476Y0183276D01*
X0047275Y0183276D01*
X0046674Y0183876D01*
X0040259Y0183276D02*
X0037857Y0186879D01*
X0036576Y0186879D02*
X0034174Y0186879D01*
X0035375Y0186879D02*
X0035375Y0183276D01*
X0037857Y0183276D02*
X0040259Y0186879D01*
X0030259Y0186879D02*
X0027857Y0183276D01*
X0026576Y0183276D02*
X0025375Y0184477D01*
X0025976Y0184477D02*
X0024174Y0184477D01*
X0024174Y0183276D02*
X0024174Y0186879D01*
X0025976Y0186879D01*
X0026576Y0186278D01*
X0026576Y0185077D01*
X0025976Y0184477D01*
X0027857Y0186879D02*
X0030259Y0183276D01*
X0058737Y0112745D02*
X0058737Y0110343D01*
X0060539Y0110343D02*
X0060539Y0111544D01*
X0101674Y0112278D02*
X0101674Y0109876D01*
X0102275Y0109276D01*
X0103476Y0109276D01*
X0104076Y0109876D01*
X0105357Y0109276D02*
X0107759Y0111678D01*
X0107759Y0112278D01*
X0107159Y0112879D01*
X0105958Y0112879D01*
X0105357Y0112278D01*
X0104076Y0112278D02*
X0103476Y0112879D01*
X0102275Y0112879D01*
X0101674Y0112278D01*
X0105357Y0109276D02*
X0107759Y0109276D01*
X0126737Y0165528D02*
X0128539Y0165528D01*
X0129139Y0166128D01*
X0129139Y0168530D01*
X0128539Y0169131D01*
X0126737Y0169131D01*
X0126737Y0165528D01*
X0130420Y0165528D02*
X0132823Y0165528D01*
X0131622Y0165528D02*
X0131622Y0169131D01*
X0130420Y0167930D01*
X0118566Y0178876D02*
X0117966Y0178276D01*
X0116765Y0178276D01*
X0116164Y0178876D01*
X0114883Y0179477D02*
X0114883Y0181879D01*
X0116164Y0181278D02*
X0116765Y0181879D01*
X0117966Y0181879D01*
X0118566Y0181278D01*
X0118566Y0180678D01*
X0117966Y0180077D01*
X0118566Y0179477D01*
X0118566Y0178876D01*
X0117966Y0180077D02*
X0117365Y0180077D01*
X0114883Y0179477D02*
X0113682Y0178276D01*
X0112481Y0179477D01*
X0112481Y0181879D01*
X0111200Y0181278D02*
X0111200Y0180678D01*
X0110600Y0180077D01*
X0111200Y0179477D01*
X0111200Y0178876D01*
X0110600Y0178276D01*
X0109399Y0178276D01*
X0108798Y0178876D01*
X0109999Y0180077D02*
X0110600Y0180077D01*
X0111200Y0181278D02*
X0110600Y0181879D01*
X0109399Y0181879D01*
X0108798Y0181278D01*
X0109399Y0188276D02*
X0110600Y0188276D01*
X0111200Y0188876D01*
X0111200Y0190077D01*
X0109999Y0190077D01*
X0108798Y0188876D02*
X0109399Y0188276D01*
X0108798Y0188876D02*
X0108798Y0191278D01*
X0109399Y0191879D01*
X0110600Y0191879D01*
X0111200Y0191278D01*
X0112481Y0191879D02*
X0114883Y0188276D01*
X0114883Y0191879D01*
X0116164Y0191879D02*
X0117966Y0191879D01*
X0118566Y0191278D01*
X0118566Y0188876D01*
X0117966Y0188276D01*
X0116164Y0188276D01*
X0116164Y0191879D01*
X0112481Y0191879D02*
X0112481Y0188276D01*
X0145748Y0188924D02*
X0145748Y0192527D01*
X0147550Y0192527D01*
X0148150Y0191927D01*
X0148150Y0190726D01*
X0147550Y0190125D01*
X0145748Y0190125D01*
X0146949Y0190125D02*
X0148150Y0188924D01*
X0149432Y0189525D02*
X0150032Y0188924D01*
X0151233Y0188924D01*
X0151834Y0189525D01*
X0151834Y0190125D01*
X0151233Y0190726D01*
X0150032Y0190726D01*
X0149432Y0191326D01*
X0149432Y0191927D01*
X0150032Y0192527D01*
X0151233Y0192527D01*
X0151834Y0191927D01*
X0153115Y0192527D02*
X0155517Y0192527D01*
X0154316Y0192527D02*
X0154316Y0188924D01*
X0187350Y0172506D02*
X0187350Y0171305D01*
X0187951Y0170705D01*
X0190353Y0170705D01*
X0190953Y0171305D01*
X0190953Y0172506D01*
X0190353Y0173107D01*
X0187951Y0173107D02*
X0187350Y0172506D01*
X0187951Y0169424D02*
X0187350Y0168823D01*
X0187350Y0167622D01*
X0187951Y0167022D01*
X0190353Y0167022D01*
X0190953Y0167622D01*
X0190953Y0168823D01*
X0190353Y0169424D01*
X0189752Y0165741D02*
X0187350Y0165741D01*
X0187350Y0163339D02*
X0189752Y0163339D01*
X0190953Y0164540D01*
X0189752Y0165741D01*
X0190353Y0154357D02*
X0187951Y0154357D01*
X0187350Y0153756D01*
X0187350Y0151955D01*
X0190953Y0151955D01*
X0190953Y0153756D01*
X0190353Y0154357D01*
X0190953Y0150674D02*
X0187350Y0150674D01*
X0187350Y0148272D02*
X0190953Y0150674D01*
X0190953Y0148272D02*
X0187350Y0148272D01*
X0187951Y0146991D02*
X0187350Y0146390D01*
X0187350Y0145189D01*
X0187951Y0144589D01*
X0190353Y0144589D01*
X0190953Y0145189D01*
X0190953Y0146390D01*
X0190353Y0146991D01*
X0189152Y0146991D01*
X0189152Y0145790D01*
X0108684Y0049316D02*
X0107483Y0048115D01*
X0106202Y0048715D02*
X0105602Y0049316D01*
X0104401Y0049316D01*
X0103800Y0048715D01*
X0103800Y0046313D01*
X0104401Y0045713D01*
X0105602Y0045713D01*
X0106202Y0046313D01*
X0107483Y0045713D02*
X0109885Y0045713D01*
X0108684Y0045713D02*
X0108684Y0049316D01*
D11*
X0100966Y0050513D02*
X0100966Y0054513D01*
X0095966Y0051763D01*
X0093966Y0053263D02*
X0100966Y0057013D01*
X0100966Y0059513D01*
X0092466Y0055013D01*
X0091466Y0057013D02*
X0094716Y0058513D01*
X0094077Y0061013D02*
X0091466Y0059513D01*
X0090966Y0062513D02*
X0100966Y0067013D01*
X0100966Y0070013D01*
X0091966Y0066013D01*
X0100966Y0067013D02*
X0100966Y0059513D01*
X0090533Y0061013D02*
X0090536Y0061269D01*
X0090546Y0061525D01*
X0090561Y0061780D01*
X0090583Y0062036D01*
X0090611Y0062290D01*
X0090646Y0062544D01*
X0090687Y0062797D01*
X0090733Y0063048D01*
X0090786Y0063299D01*
X0090846Y0063548D01*
X0090911Y0063796D01*
X0090982Y0064042D01*
X0091060Y0064286D01*
X0091143Y0064528D01*
X0091232Y0064768D01*
X0091327Y0065006D01*
X0091428Y0065241D01*
X0091535Y0065474D01*
X0091647Y0065704D01*
X0091765Y0065931D01*
X0091888Y0066155D01*
X0092017Y0066377D01*
X0092152Y0066595D01*
X0092291Y0066809D01*
X0092436Y0067020D01*
X0092586Y0067228D01*
X0092741Y0067432D01*
X0092901Y0067632D01*
X0093066Y0067828D01*
X0093236Y0068019D01*
X0093410Y0068207D01*
X0093589Y0068390D01*
X0093772Y0068569D01*
X0093960Y0068743D01*
X0094151Y0068913D01*
X0094347Y0069078D01*
X0094547Y0069238D01*
X0094751Y0069393D01*
X0094959Y0069543D01*
X0095170Y0069688D01*
X0095384Y0069827D01*
X0095602Y0069962D01*
X0095824Y0070091D01*
X0096048Y0070214D01*
X0096275Y0070332D01*
X0096505Y0070444D01*
X0096738Y0070551D01*
X0096973Y0070652D01*
X0097211Y0070747D01*
X0097451Y0070836D01*
X0097693Y0070919D01*
X0097937Y0070997D01*
X0098183Y0071068D01*
X0098431Y0071133D01*
X0098680Y0071193D01*
X0098931Y0071246D01*
X0099182Y0071292D01*
X0099435Y0071333D01*
X0099689Y0071368D01*
X0099943Y0071396D01*
X0100199Y0071418D01*
X0100454Y0071433D01*
X0100710Y0071443D01*
X0100966Y0071446D01*
X0101222Y0071443D01*
X0101478Y0071433D01*
X0101733Y0071418D01*
X0101989Y0071396D01*
X0102243Y0071368D01*
X0102497Y0071333D01*
X0102750Y0071292D01*
X0103001Y0071246D01*
X0103252Y0071193D01*
X0103501Y0071133D01*
X0103749Y0071068D01*
X0103995Y0070997D01*
X0104239Y0070919D01*
X0104481Y0070836D01*
X0104721Y0070747D01*
X0104959Y0070652D01*
X0105194Y0070551D01*
X0105427Y0070444D01*
X0105657Y0070332D01*
X0105884Y0070214D01*
X0106108Y0070091D01*
X0106330Y0069962D01*
X0106548Y0069827D01*
X0106762Y0069688D01*
X0106973Y0069543D01*
X0107181Y0069393D01*
X0107385Y0069238D01*
X0107585Y0069078D01*
X0107781Y0068913D01*
X0107972Y0068743D01*
X0108160Y0068569D01*
X0108343Y0068390D01*
X0108522Y0068207D01*
X0108696Y0068019D01*
X0108866Y0067828D01*
X0109031Y0067632D01*
X0109191Y0067432D01*
X0109346Y0067228D01*
X0109496Y0067020D01*
X0109641Y0066809D01*
X0109780Y0066595D01*
X0109915Y0066377D01*
X0110044Y0066155D01*
X0110167Y0065931D01*
X0110285Y0065704D01*
X0110397Y0065474D01*
X0110504Y0065241D01*
X0110605Y0065006D01*
X0110700Y0064768D01*
X0110789Y0064528D01*
X0110872Y0064286D01*
X0110950Y0064042D01*
X0111021Y0063796D01*
X0111086Y0063548D01*
X0111146Y0063299D01*
X0111199Y0063048D01*
X0111245Y0062797D01*
X0111286Y0062544D01*
X0111321Y0062290D01*
X0111349Y0062036D01*
X0111371Y0061780D01*
X0111386Y0061525D01*
X0111396Y0061269D01*
X0111399Y0061013D01*
X0111396Y0060757D01*
X0111386Y0060501D01*
X0111371Y0060246D01*
X0111349Y0059990D01*
X0111321Y0059736D01*
X0111286Y0059482D01*
X0111245Y0059229D01*
X0111199Y0058978D01*
X0111146Y0058727D01*
X0111086Y0058478D01*
X0111021Y0058230D01*
X0110950Y0057984D01*
X0110872Y0057740D01*
X0110789Y0057498D01*
X0110700Y0057258D01*
X0110605Y0057020D01*
X0110504Y0056785D01*
X0110397Y0056552D01*
X0110285Y0056322D01*
X0110167Y0056095D01*
X0110044Y0055871D01*
X0109915Y0055649D01*
X0109780Y0055431D01*
X0109641Y0055217D01*
X0109496Y0055006D01*
X0109346Y0054798D01*
X0109191Y0054594D01*
X0109031Y0054394D01*
X0108866Y0054198D01*
X0108696Y0054007D01*
X0108522Y0053819D01*
X0108343Y0053636D01*
X0108160Y0053457D01*
X0107972Y0053283D01*
X0107781Y0053113D01*
X0107585Y0052948D01*
X0107385Y0052788D01*
X0107181Y0052633D01*
X0106973Y0052483D01*
X0106762Y0052338D01*
X0106548Y0052199D01*
X0106330Y0052064D01*
X0106108Y0051935D01*
X0105884Y0051812D01*
X0105657Y0051694D01*
X0105427Y0051582D01*
X0105194Y0051475D01*
X0104959Y0051374D01*
X0104721Y0051279D01*
X0104481Y0051190D01*
X0104239Y0051107D01*
X0103995Y0051029D01*
X0103749Y0050958D01*
X0103501Y0050893D01*
X0103252Y0050833D01*
X0103001Y0050780D01*
X0102750Y0050734D01*
X0102497Y0050693D01*
X0102243Y0050658D01*
X0101989Y0050630D01*
X0101733Y0050608D01*
X0101478Y0050593D01*
X0101222Y0050583D01*
X0100966Y0050580D01*
X0100710Y0050583D01*
X0100454Y0050593D01*
X0100199Y0050608D01*
X0099943Y0050630D01*
X0099689Y0050658D01*
X0099435Y0050693D01*
X0099182Y0050734D01*
X0098931Y0050780D01*
X0098680Y0050833D01*
X0098431Y0050893D01*
X0098183Y0050958D01*
X0097937Y0051029D01*
X0097693Y0051107D01*
X0097451Y0051190D01*
X0097211Y0051279D01*
X0096973Y0051374D01*
X0096738Y0051475D01*
X0096505Y0051582D01*
X0096275Y0051694D01*
X0096048Y0051812D01*
X0095824Y0051935D01*
X0095602Y0052064D01*
X0095384Y0052199D01*
X0095170Y0052338D01*
X0094959Y0052483D01*
X0094751Y0052633D01*
X0094547Y0052788D01*
X0094347Y0052948D01*
X0094151Y0053113D01*
X0093960Y0053283D01*
X0093772Y0053457D01*
X0093589Y0053636D01*
X0093410Y0053819D01*
X0093236Y0054007D01*
X0093066Y0054198D01*
X0092901Y0054394D01*
X0092741Y0054594D01*
X0092586Y0054798D01*
X0092436Y0055006D01*
X0092291Y0055217D01*
X0092152Y0055431D01*
X0092017Y0055649D01*
X0091888Y0055871D01*
X0091765Y0056095D01*
X0091647Y0056322D01*
X0091535Y0056552D01*
X0091428Y0056785D01*
X0091327Y0057020D01*
X0091232Y0057258D01*
X0091143Y0057498D01*
X0091060Y0057740D01*
X0090982Y0057984D01*
X0090911Y0058230D01*
X0090846Y0058478D01*
X0090786Y0058727D01*
X0090733Y0058978D01*
X0090687Y0059229D01*
X0090646Y0059482D01*
X0090611Y0059736D01*
X0090583Y0059990D01*
X0090561Y0060246D01*
X0090546Y0060501D01*
X0090536Y0060757D01*
X0090533Y0061013D01*
X0100966Y0057013D02*
X0100966Y0054513D01*
X0113466Y0061013D02*
X0115966Y0061013D01*
X0115966Y0063513D01*
X0115966Y0061013D02*
X0115966Y0058513D01*
X0115966Y0061013D02*
X0118466Y0061013D01*
X0100966Y0070013D02*
X0100966Y0071513D01*
X0101340Y0114076D02*
X0101340Y0118076D01*
X0096340Y0115326D01*
X0094340Y0116826D02*
X0101340Y0120576D01*
X0101340Y0123076D01*
X0092840Y0118576D01*
X0091840Y0120576D02*
X0095090Y0122076D01*
X0094451Y0124576D02*
X0091840Y0123076D01*
X0091340Y0126076D02*
X0101340Y0130576D01*
X0101340Y0133576D01*
X0092340Y0129576D01*
X0101340Y0130576D02*
X0101340Y0123076D01*
X0090907Y0124576D02*
X0090910Y0124832D01*
X0090920Y0125088D01*
X0090935Y0125343D01*
X0090957Y0125599D01*
X0090985Y0125853D01*
X0091020Y0126107D01*
X0091061Y0126360D01*
X0091107Y0126611D01*
X0091160Y0126862D01*
X0091220Y0127111D01*
X0091285Y0127359D01*
X0091356Y0127605D01*
X0091434Y0127849D01*
X0091517Y0128091D01*
X0091606Y0128331D01*
X0091701Y0128569D01*
X0091802Y0128804D01*
X0091909Y0129037D01*
X0092021Y0129267D01*
X0092139Y0129494D01*
X0092262Y0129718D01*
X0092391Y0129940D01*
X0092526Y0130158D01*
X0092665Y0130372D01*
X0092810Y0130583D01*
X0092960Y0130791D01*
X0093115Y0130995D01*
X0093275Y0131195D01*
X0093440Y0131391D01*
X0093610Y0131582D01*
X0093784Y0131770D01*
X0093963Y0131953D01*
X0094146Y0132132D01*
X0094334Y0132306D01*
X0094525Y0132476D01*
X0094721Y0132641D01*
X0094921Y0132801D01*
X0095125Y0132956D01*
X0095333Y0133106D01*
X0095544Y0133251D01*
X0095758Y0133390D01*
X0095976Y0133525D01*
X0096198Y0133654D01*
X0096422Y0133777D01*
X0096649Y0133895D01*
X0096879Y0134007D01*
X0097112Y0134114D01*
X0097347Y0134215D01*
X0097585Y0134310D01*
X0097825Y0134399D01*
X0098067Y0134482D01*
X0098311Y0134560D01*
X0098557Y0134631D01*
X0098805Y0134696D01*
X0099054Y0134756D01*
X0099305Y0134809D01*
X0099556Y0134855D01*
X0099809Y0134896D01*
X0100063Y0134931D01*
X0100317Y0134959D01*
X0100573Y0134981D01*
X0100828Y0134996D01*
X0101084Y0135006D01*
X0101340Y0135009D01*
X0101596Y0135006D01*
X0101852Y0134996D01*
X0102107Y0134981D01*
X0102363Y0134959D01*
X0102617Y0134931D01*
X0102871Y0134896D01*
X0103124Y0134855D01*
X0103375Y0134809D01*
X0103626Y0134756D01*
X0103875Y0134696D01*
X0104123Y0134631D01*
X0104369Y0134560D01*
X0104613Y0134482D01*
X0104855Y0134399D01*
X0105095Y0134310D01*
X0105333Y0134215D01*
X0105568Y0134114D01*
X0105801Y0134007D01*
X0106031Y0133895D01*
X0106258Y0133777D01*
X0106482Y0133654D01*
X0106704Y0133525D01*
X0106922Y0133390D01*
X0107136Y0133251D01*
X0107347Y0133106D01*
X0107555Y0132956D01*
X0107759Y0132801D01*
X0107959Y0132641D01*
X0108155Y0132476D01*
X0108346Y0132306D01*
X0108534Y0132132D01*
X0108717Y0131953D01*
X0108896Y0131770D01*
X0109070Y0131582D01*
X0109240Y0131391D01*
X0109405Y0131195D01*
X0109565Y0130995D01*
X0109720Y0130791D01*
X0109870Y0130583D01*
X0110015Y0130372D01*
X0110154Y0130158D01*
X0110289Y0129940D01*
X0110418Y0129718D01*
X0110541Y0129494D01*
X0110659Y0129267D01*
X0110771Y0129037D01*
X0110878Y0128804D01*
X0110979Y0128569D01*
X0111074Y0128331D01*
X0111163Y0128091D01*
X0111246Y0127849D01*
X0111324Y0127605D01*
X0111395Y0127359D01*
X0111460Y0127111D01*
X0111520Y0126862D01*
X0111573Y0126611D01*
X0111619Y0126360D01*
X0111660Y0126107D01*
X0111695Y0125853D01*
X0111723Y0125599D01*
X0111745Y0125343D01*
X0111760Y0125088D01*
X0111770Y0124832D01*
X0111773Y0124576D01*
X0111770Y0124320D01*
X0111760Y0124064D01*
X0111745Y0123809D01*
X0111723Y0123553D01*
X0111695Y0123299D01*
X0111660Y0123045D01*
X0111619Y0122792D01*
X0111573Y0122541D01*
X0111520Y0122290D01*
X0111460Y0122041D01*
X0111395Y0121793D01*
X0111324Y0121547D01*
X0111246Y0121303D01*
X0111163Y0121061D01*
X0111074Y0120821D01*
X0110979Y0120583D01*
X0110878Y0120348D01*
X0110771Y0120115D01*
X0110659Y0119885D01*
X0110541Y0119658D01*
X0110418Y0119434D01*
X0110289Y0119212D01*
X0110154Y0118994D01*
X0110015Y0118780D01*
X0109870Y0118569D01*
X0109720Y0118361D01*
X0109565Y0118157D01*
X0109405Y0117957D01*
X0109240Y0117761D01*
X0109070Y0117570D01*
X0108896Y0117382D01*
X0108717Y0117199D01*
X0108534Y0117020D01*
X0108346Y0116846D01*
X0108155Y0116676D01*
X0107959Y0116511D01*
X0107759Y0116351D01*
X0107555Y0116196D01*
X0107347Y0116046D01*
X0107136Y0115901D01*
X0106922Y0115762D01*
X0106704Y0115627D01*
X0106482Y0115498D01*
X0106258Y0115375D01*
X0106031Y0115257D01*
X0105801Y0115145D01*
X0105568Y0115038D01*
X0105333Y0114937D01*
X0105095Y0114842D01*
X0104855Y0114753D01*
X0104613Y0114670D01*
X0104369Y0114592D01*
X0104123Y0114521D01*
X0103875Y0114456D01*
X0103626Y0114396D01*
X0103375Y0114343D01*
X0103124Y0114297D01*
X0102871Y0114256D01*
X0102617Y0114221D01*
X0102363Y0114193D01*
X0102107Y0114171D01*
X0101852Y0114156D01*
X0101596Y0114146D01*
X0101340Y0114143D01*
X0101084Y0114146D01*
X0100828Y0114156D01*
X0100573Y0114171D01*
X0100317Y0114193D01*
X0100063Y0114221D01*
X0099809Y0114256D01*
X0099556Y0114297D01*
X0099305Y0114343D01*
X0099054Y0114396D01*
X0098805Y0114456D01*
X0098557Y0114521D01*
X0098311Y0114592D01*
X0098067Y0114670D01*
X0097825Y0114753D01*
X0097585Y0114842D01*
X0097347Y0114937D01*
X0097112Y0115038D01*
X0096879Y0115145D01*
X0096649Y0115257D01*
X0096422Y0115375D01*
X0096198Y0115498D01*
X0095976Y0115627D01*
X0095758Y0115762D01*
X0095544Y0115901D01*
X0095333Y0116046D01*
X0095125Y0116196D01*
X0094921Y0116351D01*
X0094721Y0116511D01*
X0094525Y0116676D01*
X0094334Y0116846D01*
X0094146Y0117020D01*
X0093963Y0117199D01*
X0093784Y0117382D01*
X0093610Y0117570D01*
X0093440Y0117761D01*
X0093275Y0117957D01*
X0093115Y0118157D01*
X0092960Y0118361D01*
X0092810Y0118569D01*
X0092665Y0118780D01*
X0092526Y0118994D01*
X0092391Y0119212D01*
X0092262Y0119434D01*
X0092139Y0119658D01*
X0092021Y0119885D01*
X0091909Y0120115D01*
X0091802Y0120348D01*
X0091701Y0120583D01*
X0091606Y0120821D01*
X0091517Y0121061D01*
X0091434Y0121303D01*
X0091356Y0121547D01*
X0091285Y0121793D01*
X0091220Y0122041D01*
X0091160Y0122290D01*
X0091107Y0122541D01*
X0091061Y0122792D01*
X0091020Y0123045D01*
X0090985Y0123299D01*
X0090957Y0123553D01*
X0090935Y0123809D01*
X0090920Y0124064D01*
X0090910Y0124320D01*
X0090907Y0124576D01*
X0101340Y0120576D02*
X0101340Y0118076D01*
X0113840Y0124576D02*
X0116340Y0124576D01*
X0116340Y0127076D01*
X0116340Y0124576D02*
X0116340Y0122076D01*
X0116340Y0124576D02*
X0118840Y0124576D01*
X0113840Y0139576D02*
X0113840Y0159576D01*
X0123840Y0159576D01*
X0123840Y0139576D01*
X0113840Y0139576D01*
X0101340Y0135076D02*
X0101340Y0133576D01*
X0144839Y0119858D02*
X0144839Y0117522D01*
X0144839Y0119274D02*
X0147174Y0119274D01*
X0147174Y0119858D02*
X0147174Y0117522D01*
X0148522Y0117522D02*
X0148522Y0118106D01*
X0150857Y0120442D01*
X0150857Y0121025D01*
X0148522Y0121025D01*
X0147174Y0119858D02*
X0146006Y0121025D01*
X0144839Y0119858D01*
X0146006Y0111025D02*
X0147174Y0109858D01*
X0147174Y0107522D01*
X0148522Y0108106D02*
X0148522Y0109274D01*
X0150273Y0109274D01*
X0150857Y0108690D01*
X0150857Y0108106D01*
X0150273Y0107522D01*
X0149105Y0107522D01*
X0148522Y0108106D01*
X0148522Y0109274D02*
X0149689Y0110442D01*
X0150857Y0111025D01*
X0147174Y0109274D02*
X0144839Y0109274D01*
X0144839Y0109858D02*
X0146006Y0111025D01*
X0144839Y0109858D02*
X0144839Y0107522D01*
X0146006Y0101025D02*
X0147174Y0099858D01*
X0147174Y0097522D01*
X0148522Y0098106D02*
X0149105Y0097522D01*
X0150273Y0097522D01*
X0150857Y0098106D01*
X0150857Y0099274D01*
X0150273Y0099858D01*
X0149689Y0099858D01*
X0148522Y0099274D01*
X0148522Y0101025D01*
X0150857Y0101025D01*
X0147174Y0099274D02*
X0144839Y0099274D01*
X0144839Y0099858D02*
X0146006Y0101025D01*
X0144839Y0099858D02*
X0144839Y0097522D01*
X0146006Y0091025D02*
X0147174Y0089858D01*
X0147174Y0087522D01*
X0147174Y0089274D02*
X0144839Y0089274D01*
X0144839Y0089858D02*
X0146006Y0091025D01*
X0144839Y0089858D02*
X0144839Y0087522D01*
X0148522Y0089274D02*
X0150273Y0091025D01*
X0150273Y0087522D01*
X0150857Y0089274D02*
X0148522Y0089274D01*
X0149105Y0081025D02*
X0150273Y0081025D01*
X0150857Y0080442D01*
X0150857Y0079858D01*
X0150273Y0079274D01*
X0150857Y0078690D01*
X0150857Y0078106D01*
X0150273Y0077522D01*
X0149105Y0077522D01*
X0148522Y0078106D01*
X0147174Y0077522D02*
X0147174Y0079858D01*
X0146006Y0081025D01*
X0144839Y0079858D01*
X0144839Y0077522D01*
X0144839Y0079274D02*
X0147174Y0079274D01*
X0148522Y0080442D02*
X0149105Y0081025D01*
X0149689Y0079274D02*
X0150273Y0079274D01*
X0150273Y0071025D02*
X0149105Y0071025D01*
X0148522Y0070442D01*
X0147174Y0069858D02*
X0147174Y0067522D01*
X0148522Y0067522D02*
X0150857Y0069858D01*
X0150857Y0070442D01*
X0150273Y0071025D01*
X0147174Y0069858D02*
X0146006Y0071025D01*
X0144839Y0069858D01*
X0144839Y0067522D01*
X0144839Y0069274D02*
X0147174Y0069274D01*
X0148522Y0067522D02*
X0150857Y0067522D01*
X0149689Y0061025D02*
X0149689Y0057522D01*
X0148522Y0057522D02*
X0150857Y0057522D01*
X0148522Y0059858D02*
X0149689Y0061025D01*
X0147174Y0059858D02*
X0147174Y0057522D01*
X0147174Y0059274D02*
X0144839Y0059274D01*
X0144839Y0059858D02*
X0146006Y0061025D01*
X0147174Y0059858D01*
X0144839Y0059858D02*
X0144839Y0057522D01*
X0146006Y0051025D02*
X0147174Y0049858D01*
X0147174Y0047522D01*
X0148522Y0048106D02*
X0150857Y0050442D01*
X0150857Y0048106D01*
X0150273Y0047522D01*
X0149105Y0047522D01*
X0148522Y0048106D01*
X0148522Y0050442D01*
X0149105Y0051025D01*
X0150273Y0051025D01*
X0150857Y0050442D01*
X0147174Y0049274D02*
X0144839Y0049274D01*
X0144839Y0049858D02*
X0146006Y0051025D01*
X0144839Y0049858D02*
X0144839Y0047522D01*
X0150747Y0041203D02*
X0150163Y0040619D01*
X0150163Y0040035D01*
X0150747Y0039451D01*
X0151915Y0039451D01*
X0152499Y0038867D01*
X0152499Y0038283D01*
X0151915Y0037700D01*
X0150747Y0037700D01*
X0150163Y0038283D01*
X0150163Y0038867D01*
X0150747Y0039451D01*
X0151915Y0039451D02*
X0152499Y0040035D01*
X0152499Y0040619D01*
X0151915Y0041203D01*
X0150747Y0041203D01*
X0151264Y0031203D02*
X0151264Y0027700D01*
X0150096Y0027700D02*
X0152432Y0027700D01*
X0150096Y0030035D02*
X0151264Y0031203D01*
X0147581Y0031203D02*
X0147581Y0027700D01*
X0146413Y0027700D02*
X0148749Y0027700D01*
X0146413Y0030035D02*
X0147581Y0031203D01*
X0166722Y0127522D02*
X0166138Y0128106D01*
X0166722Y0127522D02*
X0167889Y0127522D01*
X0168473Y0128106D01*
X0168473Y0129274D01*
X0167889Y0129858D01*
X0167305Y0129858D01*
X0166138Y0129274D01*
X0166138Y0131025D01*
X0168473Y0131025D01*
X0169821Y0131025D02*
X0169821Y0128690D01*
X0170989Y0127522D01*
X0172156Y0128690D01*
X0172156Y0131025D01*
X0176138Y0130442D02*
X0176138Y0128106D01*
X0176722Y0127522D01*
X0177889Y0127522D01*
X0178473Y0128106D01*
X0178473Y0129274D01*
X0177305Y0129274D01*
X0176138Y0130442D02*
X0176722Y0131025D01*
X0177889Y0131025D01*
X0178473Y0130442D01*
X0179821Y0131025D02*
X0182156Y0127522D01*
X0182156Y0131025D01*
X0183504Y0131025D02*
X0185256Y0131025D01*
X0185839Y0130442D01*
X0185839Y0128106D01*
X0185256Y0127522D01*
X0183504Y0127522D01*
X0183504Y0131025D01*
X0179821Y0131025D02*
X0179821Y0127522D01*
X0184466Y0137639D02*
X0152466Y0137639D01*
X0152466Y0178639D01*
X0184466Y0178639D01*
X0184466Y0137639D01*
X0178466Y0138639D02*
X0158466Y0138639D01*
X0158466Y0177639D01*
X0178466Y0177639D01*
X0178466Y0138639D01*
X0159452Y0148139D02*
X0159455Y0148360D01*
X0159463Y0148581D01*
X0159476Y0148802D01*
X0159495Y0149023D01*
X0159520Y0149242D01*
X0159550Y0149462D01*
X0159585Y0149680D01*
X0159625Y0149898D01*
X0159671Y0150114D01*
X0159722Y0150329D01*
X0159779Y0150543D01*
X0159840Y0150756D01*
X0159907Y0150967D01*
X0159979Y0151176D01*
X0160056Y0151383D01*
X0160138Y0151589D01*
X0160225Y0151792D01*
X0160317Y0151993D01*
X0160414Y0152192D01*
X0160516Y0152388D01*
X0160623Y0152582D01*
X0160734Y0152773D01*
X0160850Y0152961D01*
X0160971Y0153147D01*
X0161096Y0153329D01*
X0161226Y0153509D01*
X0161360Y0153685D01*
X0161498Y0153857D01*
X0161641Y0154027D01*
X0161787Y0154192D01*
X0161938Y0154355D01*
X0162092Y0154513D01*
X0162250Y0154667D01*
X0162413Y0154818D01*
X0162578Y0154964D01*
X0162748Y0155107D01*
X0162920Y0155245D01*
X0163096Y0155379D01*
X0163276Y0155509D01*
X0163458Y0155634D01*
X0163644Y0155755D01*
X0163832Y0155871D01*
X0164023Y0155982D01*
X0164217Y0156089D01*
X0164413Y0156191D01*
X0164612Y0156288D01*
X0164813Y0156380D01*
X0165016Y0156467D01*
X0165222Y0156549D01*
X0165429Y0156626D01*
X0165638Y0156698D01*
X0165849Y0156765D01*
X0166062Y0156826D01*
X0166276Y0156883D01*
X0166491Y0156934D01*
X0166707Y0156980D01*
X0166925Y0157020D01*
X0167143Y0157055D01*
X0167363Y0157085D01*
X0167582Y0157110D01*
X0167803Y0157129D01*
X0168024Y0157142D01*
X0168245Y0157150D01*
X0168466Y0157153D01*
X0168687Y0157150D01*
X0168908Y0157142D01*
X0169129Y0157129D01*
X0169350Y0157110D01*
X0169569Y0157085D01*
X0169789Y0157055D01*
X0170007Y0157020D01*
X0170225Y0156980D01*
X0170441Y0156934D01*
X0170656Y0156883D01*
X0170870Y0156826D01*
X0171083Y0156765D01*
X0171294Y0156698D01*
X0171503Y0156626D01*
X0171710Y0156549D01*
X0171916Y0156467D01*
X0172119Y0156380D01*
X0172320Y0156288D01*
X0172519Y0156191D01*
X0172715Y0156089D01*
X0172909Y0155982D01*
X0173100Y0155871D01*
X0173288Y0155755D01*
X0173474Y0155634D01*
X0173656Y0155509D01*
X0173836Y0155379D01*
X0174012Y0155245D01*
X0174184Y0155107D01*
X0174354Y0154964D01*
X0174519Y0154818D01*
X0174682Y0154667D01*
X0174840Y0154513D01*
X0174994Y0154355D01*
X0175145Y0154192D01*
X0175291Y0154027D01*
X0175434Y0153857D01*
X0175572Y0153685D01*
X0175706Y0153509D01*
X0175836Y0153329D01*
X0175961Y0153147D01*
X0176082Y0152961D01*
X0176198Y0152773D01*
X0176309Y0152582D01*
X0176416Y0152388D01*
X0176518Y0152192D01*
X0176615Y0151993D01*
X0176707Y0151792D01*
X0176794Y0151589D01*
X0176876Y0151383D01*
X0176953Y0151176D01*
X0177025Y0150967D01*
X0177092Y0150756D01*
X0177153Y0150543D01*
X0177210Y0150329D01*
X0177261Y0150114D01*
X0177307Y0149898D01*
X0177347Y0149680D01*
X0177382Y0149462D01*
X0177412Y0149242D01*
X0177437Y0149023D01*
X0177456Y0148802D01*
X0177469Y0148581D01*
X0177477Y0148360D01*
X0177480Y0148139D01*
X0177477Y0147918D01*
X0177469Y0147697D01*
X0177456Y0147476D01*
X0177437Y0147255D01*
X0177412Y0147036D01*
X0177382Y0146816D01*
X0177347Y0146598D01*
X0177307Y0146380D01*
X0177261Y0146164D01*
X0177210Y0145949D01*
X0177153Y0145735D01*
X0177092Y0145522D01*
X0177025Y0145311D01*
X0176953Y0145102D01*
X0176876Y0144895D01*
X0176794Y0144689D01*
X0176707Y0144486D01*
X0176615Y0144285D01*
X0176518Y0144086D01*
X0176416Y0143890D01*
X0176309Y0143696D01*
X0176198Y0143505D01*
X0176082Y0143317D01*
X0175961Y0143131D01*
X0175836Y0142949D01*
X0175706Y0142769D01*
X0175572Y0142593D01*
X0175434Y0142421D01*
X0175291Y0142251D01*
X0175145Y0142086D01*
X0174994Y0141923D01*
X0174840Y0141765D01*
X0174682Y0141611D01*
X0174519Y0141460D01*
X0174354Y0141314D01*
X0174184Y0141171D01*
X0174012Y0141033D01*
X0173836Y0140899D01*
X0173656Y0140769D01*
X0173474Y0140644D01*
X0173288Y0140523D01*
X0173100Y0140407D01*
X0172909Y0140296D01*
X0172715Y0140189D01*
X0172519Y0140087D01*
X0172320Y0139990D01*
X0172119Y0139898D01*
X0171916Y0139811D01*
X0171710Y0139729D01*
X0171503Y0139652D01*
X0171294Y0139580D01*
X0171083Y0139513D01*
X0170870Y0139452D01*
X0170656Y0139395D01*
X0170441Y0139344D01*
X0170225Y0139298D01*
X0170007Y0139258D01*
X0169789Y0139223D01*
X0169569Y0139193D01*
X0169350Y0139168D01*
X0169129Y0139149D01*
X0168908Y0139136D01*
X0168687Y0139128D01*
X0168466Y0139125D01*
X0168245Y0139128D01*
X0168024Y0139136D01*
X0167803Y0139149D01*
X0167582Y0139168D01*
X0167363Y0139193D01*
X0167143Y0139223D01*
X0166925Y0139258D01*
X0166707Y0139298D01*
X0166491Y0139344D01*
X0166276Y0139395D01*
X0166062Y0139452D01*
X0165849Y0139513D01*
X0165638Y0139580D01*
X0165429Y0139652D01*
X0165222Y0139729D01*
X0165016Y0139811D01*
X0164813Y0139898D01*
X0164612Y0139990D01*
X0164413Y0140087D01*
X0164217Y0140189D01*
X0164023Y0140296D01*
X0163832Y0140407D01*
X0163644Y0140523D01*
X0163458Y0140644D01*
X0163276Y0140769D01*
X0163096Y0140899D01*
X0162920Y0141033D01*
X0162748Y0141171D01*
X0162578Y0141314D01*
X0162413Y0141460D01*
X0162250Y0141611D01*
X0162092Y0141765D01*
X0161938Y0141923D01*
X0161787Y0142086D01*
X0161641Y0142251D01*
X0161498Y0142421D01*
X0161360Y0142593D01*
X0161226Y0142769D01*
X0161096Y0142949D01*
X0160971Y0143131D01*
X0160850Y0143317D01*
X0160734Y0143505D01*
X0160623Y0143696D01*
X0160516Y0143890D01*
X0160414Y0144086D01*
X0160317Y0144285D01*
X0160225Y0144486D01*
X0160138Y0144689D01*
X0160056Y0144895D01*
X0159979Y0145102D01*
X0159907Y0145311D01*
X0159840Y0145522D01*
X0159779Y0145735D01*
X0159722Y0145949D01*
X0159671Y0146164D01*
X0159625Y0146380D01*
X0159585Y0146598D01*
X0159550Y0146816D01*
X0159520Y0147036D01*
X0159495Y0147255D01*
X0159476Y0147476D01*
X0159463Y0147697D01*
X0159455Y0147918D01*
X0159452Y0148139D01*
X0159452Y0168139D02*
X0159455Y0168360D01*
X0159463Y0168581D01*
X0159476Y0168802D01*
X0159495Y0169023D01*
X0159520Y0169242D01*
X0159550Y0169462D01*
X0159585Y0169680D01*
X0159625Y0169898D01*
X0159671Y0170114D01*
X0159722Y0170329D01*
X0159779Y0170543D01*
X0159840Y0170756D01*
X0159907Y0170967D01*
X0159979Y0171176D01*
X0160056Y0171383D01*
X0160138Y0171589D01*
X0160225Y0171792D01*
X0160317Y0171993D01*
X0160414Y0172192D01*
X0160516Y0172388D01*
X0160623Y0172582D01*
X0160734Y0172773D01*
X0160850Y0172961D01*
X0160971Y0173147D01*
X0161096Y0173329D01*
X0161226Y0173509D01*
X0161360Y0173685D01*
X0161498Y0173857D01*
X0161641Y0174027D01*
X0161787Y0174192D01*
X0161938Y0174355D01*
X0162092Y0174513D01*
X0162250Y0174667D01*
X0162413Y0174818D01*
X0162578Y0174964D01*
X0162748Y0175107D01*
X0162920Y0175245D01*
X0163096Y0175379D01*
X0163276Y0175509D01*
X0163458Y0175634D01*
X0163644Y0175755D01*
X0163832Y0175871D01*
X0164023Y0175982D01*
X0164217Y0176089D01*
X0164413Y0176191D01*
X0164612Y0176288D01*
X0164813Y0176380D01*
X0165016Y0176467D01*
X0165222Y0176549D01*
X0165429Y0176626D01*
X0165638Y0176698D01*
X0165849Y0176765D01*
X0166062Y0176826D01*
X0166276Y0176883D01*
X0166491Y0176934D01*
X0166707Y0176980D01*
X0166925Y0177020D01*
X0167143Y0177055D01*
X0167363Y0177085D01*
X0167582Y0177110D01*
X0167803Y0177129D01*
X0168024Y0177142D01*
X0168245Y0177150D01*
X0168466Y0177153D01*
X0168687Y0177150D01*
X0168908Y0177142D01*
X0169129Y0177129D01*
X0169350Y0177110D01*
X0169569Y0177085D01*
X0169789Y0177055D01*
X0170007Y0177020D01*
X0170225Y0176980D01*
X0170441Y0176934D01*
X0170656Y0176883D01*
X0170870Y0176826D01*
X0171083Y0176765D01*
X0171294Y0176698D01*
X0171503Y0176626D01*
X0171710Y0176549D01*
X0171916Y0176467D01*
X0172119Y0176380D01*
X0172320Y0176288D01*
X0172519Y0176191D01*
X0172715Y0176089D01*
X0172909Y0175982D01*
X0173100Y0175871D01*
X0173288Y0175755D01*
X0173474Y0175634D01*
X0173656Y0175509D01*
X0173836Y0175379D01*
X0174012Y0175245D01*
X0174184Y0175107D01*
X0174354Y0174964D01*
X0174519Y0174818D01*
X0174682Y0174667D01*
X0174840Y0174513D01*
X0174994Y0174355D01*
X0175145Y0174192D01*
X0175291Y0174027D01*
X0175434Y0173857D01*
X0175572Y0173685D01*
X0175706Y0173509D01*
X0175836Y0173329D01*
X0175961Y0173147D01*
X0176082Y0172961D01*
X0176198Y0172773D01*
X0176309Y0172582D01*
X0176416Y0172388D01*
X0176518Y0172192D01*
X0176615Y0171993D01*
X0176707Y0171792D01*
X0176794Y0171589D01*
X0176876Y0171383D01*
X0176953Y0171176D01*
X0177025Y0170967D01*
X0177092Y0170756D01*
X0177153Y0170543D01*
X0177210Y0170329D01*
X0177261Y0170114D01*
X0177307Y0169898D01*
X0177347Y0169680D01*
X0177382Y0169462D01*
X0177412Y0169242D01*
X0177437Y0169023D01*
X0177456Y0168802D01*
X0177469Y0168581D01*
X0177477Y0168360D01*
X0177480Y0168139D01*
X0177477Y0167918D01*
X0177469Y0167697D01*
X0177456Y0167476D01*
X0177437Y0167255D01*
X0177412Y0167036D01*
X0177382Y0166816D01*
X0177347Y0166598D01*
X0177307Y0166380D01*
X0177261Y0166164D01*
X0177210Y0165949D01*
X0177153Y0165735D01*
X0177092Y0165522D01*
X0177025Y0165311D01*
X0176953Y0165102D01*
X0176876Y0164895D01*
X0176794Y0164689D01*
X0176707Y0164486D01*
X0176615Y0164285D01*
X0176518Y0164086D01*
X0176416Y0163890D01*
X0176309Y0163696D01*
X0176198Y0163505D01*
X0176082Y0163317D01*
X0175961Y0163131D01*
X0175836Y0162949D01*
X0175706Y0162769D01*
X0175572Y0162593D01*
X0175434Y0162421D01*
X0175291Y0162251D01*
X0175145Y0162086D01*
X0174994Y0161923D01*
X0174840Y0161765D01*
X0174682Y0161611D01*
X0174519Y0161460D01*
X0174354Y0161314D01*
X0174184Y0161171D01*
X0174012Y0161033D01*
X0173836Y0160899D01*
X0173656Y0160769D01*
X0173474Y0160644D01*
X0173288Y0160523D01*
X0173100Y0160407D01*
X0172909Y0160296D01*
X0172715Y0160189D01*
X0172519Y0160087D01*
X0172320Y0159990D01*
X0172119Y0159898D01*
X0171916Y0159811D01*
X0171710Y0159729D01*
X0171503Y0159652D01*
X0171294Y0159580D01*
X0171083Y0159513D01*
X0170870Y0159452D01*
X0170656Y0159395D01*
X0170441Y0159344D01*
X0170225Y0159298D01*
X0170007Y0159258D01*
X0169789Y0159223D01*
X0169569Y0159193D01*
X0169350Y0159168D01*
X0169129Y0159149D01*
X0168908Y0159136D01*
X0168687Y0159128D01*
X0168466Y0159125D01*
X0168245Y0159128D01*
X0168024Y0159136D01*
X0167803Y0159149D01*
X0167582Y0159168D01*
X0167363Y0159193D01*
X0167143Y0159223D01*
X0166925Y0159258D01*
X0166707Y0159298D01*
X0166491Y0159344D01*
X0166276Y0159395D01*
X0166062Y0159452D01*
X0165849Y0159513D01*
X0165638Y0159580D01*
X0165429Y0159652D01*
X0165222Y0159729D01*
X0165016Y0159811D01*
X0164813Y0159898D01*
X0164612Y0159990D01*
X0164413Y0160087D01*
X0164217Y0160189D01*
X0164023Y0160296D01*
X0163832Y0160407D01*
X0163644Y0160523D01*
X0163458Y0160644D01*
X0163276Y0160769D01*
X0163096Y0160899D01*
X0162920Y0161033D01*
X0162748Y0161171D01*
X0162578Y0161314D01*
X0162413Y0161460D01*
X0162250Y0161611D01*
X0162092Y0161765D01*
X0161938Y0161923D01*
X0161787Y0162086D01*
X0161641Y0162251D01*
X0161498Y0162421D01*
X0161360Y0162593D01*
X0161226Y0162769D01*
X0161096Y0162949D01*
X0160971Y0163131D01*
X0160850Y0163317D01*
X0160734Y0163505D01*
X0160623Y0163696D01*
X0160516Y0163890D01*
X0160414Y0164086D01*
X0160317Y0164285D01*
X0160225Y0164486D01*
X0160138Y0164689D01*
X0160056Y0164895D01*
X0159979Y0165102D01*
X0159907Y0165311D01*
X0159840Y0165522D01*
X0159779Y0165735D01*
X0159722Y0165949D01*
X0159671Y0166164D01*
X0159625Y0166380D01*
X0159585Y0166598D01*
X0159550Y0166816D01*
X0159520Y0167036D01*
X0159495Y0167255D01*
X0159476Y0167476D01*
X0159463Y0167697D01*
X0159455Y0167918D01*
X0159452Y0168139D01*
X0052743Y0156829D02*
X0052743Y0154493D01*
X0051575Y0153326D01*
X0050407Y0154493D01*
X0050407Y0156829D01*
X0049060Y0156829D02*
X0046724Y0156829D01*
X0046724Y0155077D01*
X0047892Y0155661D01*
X0048476Y0155661D01*
X0049060Y0155077D01*
X0049060Y0153909D01*
X0048476Y0153326D01*
X0047308Y0153326D01*
X0046724Y0153909D01*
X0042743Y0153326D02*
X0040407Y0153326D01*
X0040407Y0156829D01*
X0039060Y0156245D02*
X0038476Y0156829D01*
X0037308Y0156829D01*
X0036724Y0156245D01*
X0036724Y0153909D01*
X0037308Y0153326D01*
X0038476Y0153326D01*
X0039060Y0153909D01*
X0035376Y0153909D02*
X0034793Y0153326D01*
X0033625Y0153326D01*
X0033041Y0153909D01*
X0033625Y0155077D02*
X0034793Y0155077D01*
X0035376Y0154493D01*
X0035376Y0153909D01*
X0033625Y0155077D02*
X0033041Y0155661D01*
X0033041Y0156245D01*
X0033625Y0156829D01*
X0034793Y0156829D01*
X0035376Y0156245D01*
X0030243Y0155661D02*
X0030243Y0153326D01*
X0030243Y0155077D02*
X0027907Y0155077D01*
X0027907Y0155661D02*
X0029075Y0156829D01*
X0030243Y0155661D01*
X0027907Y0155661D02*
X0027907Y0153326D01*
X0026560Y0153909D02*
X0026560Y0156245D01*
X0025976Y0156829D01*
X0024224Y0156829D01*
X0024224Y0153326D01*
X0025976Y0153326D01*
X0026560Y0153909D01*
X0022876Y0153909D02*
X0022293Y0153326D01*
X0021125Y0153326D01*
X0020541Y0153909D01*
X0021125Y0155077D02*
X0022293Y0155077D01*
X0022876Y0154493D01*
X0022876Y0153909D01*
X0021125Y0155077D02*
X0020541Y0155661D01*
X0020541Y0156245D01*
X0021125Y0156829D01*
X0022293Y0156829D01*
X0022876Y0156245D01*
X0017743Y0156245D02*
X0017743Y0153909D01*
X0017159Y0153326D01*
X0015407Y0153326D01*
X0015407Y0156829D01*
X0017159Y0156829D01*
X0017743Y0156245D01*
X0014060Y0156829D02*
X0014060Y0153326D01*
X0011724Y0156829D01*
X0011724Y0153326D01*
X0010376Y0153909D02*
X0010376Y0155077D01*
X0009209Y0155077D01*
X0010376Y0153909D02*
X0009793Y0153326D01*
X0008625Y0153326D01*
X0008041Y0153909D01*
X0008041Y0156245D01*
X0008625Y0156829D01*
X0009793Y0156829D01*
X0010376Y0156245D01*
D12*
X0006143Y0188808D02*
X0006145Y0188956D01*
X0006151Y0189104D01*
X0006161Y0189252D01*
X0006175Y0189399D01*
X0006193Y0189546D01*
X0006214Y0189692D01*
X0006240Y0189838D01*
X0006270Y0189983D01*
X0006303Y0190127D01*
X0006341Y0190270D01*
X0006382Y0190412D01*
X0006427Y0190553D01*
X0006475Y0190693D01*
X0006528Y0190832D01*
X0006584Y0190969D01*
X0006644Y0191104D01*
X0006707Y0191238D01*
X0006774Y0191370D01*
X0006845Y0191500D01*
X0006919Y0191628D01*
X0006996Y0191754D01*
X0007077Y0191878D01*
X0007161Y0192000D01*
X0007248Y0192119D01*
X0007339Y0192236D01*
X0007433Y0192351D01*
X0007529Y0192463D01*
X0007629Y0192573D01*
X0007731Y0192679D01*
X0007837Y0192783D01*
X0007945Y0192884D01*
X0008056Y0192982D01*
X0008169Y0193078D01*
X0008285Y0193170D01*
X0008403Y0193259D01*
X0008524Y0193344D01*
X0008647Y0193427D01*
X0008772Y0193506D01*
X0008899Y0193582D01*
X0009028Y0193654D01*
X0009159Y0193723D01*
X0009292Y0193788D01*
X0009427Y0193849D01*
X0009563Y0193907D01*
X0009700Y0193962D01*
X0009839Y0194012D01*
X0009980Y0194059D01*
X0010121Y0194102D01*
X0010264Y0194142D01*
X0010408Y0194177D01*
X0010552Y0194209D01*
X0010698Y0194236D01*
X0010844Y0194260D01*
X0010991Y0194280D01*
X0011138Y0194296D01*
X0011285Y0194308D01*
X0011433Y0194316D01*
X0011581Y0194320D01*
X0011729Y0194320D01*
X0011877Y0194316D01*
X0012025Y0194308D01*
X0012172Y0194296D01*
X0012319Y0194280D01*
X0012466Y0194260D01*
X0012612Y0194236D01*
X0012758Y0194209D01*
X0012902Y0194177D01*
X0013046Y0194142D01*
X0013189Y0194102D01*
X0013330Y0194059D01*
X0013471Y0194012D01*
X0013610Y0193962D01*
X0013747Y0193907D01*
X0013883Y0193849D01*
X0014018Y0193788D01*
X0014151Y0193723D01*
X0014282Y0193654D01*
X0014411Y0193582D01*
X0014538Y0193506D01*
X0014663Y0193427D01*
X0014786Y0193344D01*
X0014907Y0193259D01*
X0015025Y0193170D01*
X0015141Y0193078D01*
X0015254Y0192982D01*
X0015365Y0192884D01*
X0015473Y0192783D01*
X0015579Y0192679D01*
X0015681Y0192573D01*
X0015781Y0192463D01*
X0015877Y0192351D01*
X0015971Y0192236D01*
X0016062Y0192119D01*
X0016149Y0192000D01*
X0016233Y0191878D01*
X0016314Y0191754D01*
X0016391Y0191628D01*
X0016465Y0191500D01*
X0016536Y0191370D01*
X0016603Y0191238D01*
X0016666Y0191104D01*
X0016726Y0190969D01*
X0016782Y0190832D01*
X0016835Y0190693D01*
X0016883Y0190553D01*
X0016928Y0190412D01*
X0016969Y0190270D01*
X0017007Y0190127D01*
X0017040Y0189983D01*
X0017070Y0189838D01*
X0017096Y0189692D01*
X0017117Y0189546D01*
X0017135Y0189399D01*
X0017149Y0189252D01*
X0017159Y0189104D01*
X0017165Y0188956D01*
X0017167Y0188808D01*
X0017165Y0188660D01*
X0017159Y0188512D01*
X0017149Y0188364D01*
X0017135Y0188217D01*
X0017117Y0188070D01*
X0017096Y0187924D01*
X0017070Y0187778D01*
X0017040Y0187633D01*
X0017007Y0187489D01*
X0016969Y0187346D01*
X0016928Y0187204D01*
X0016883Y0187063D01*
X0016835Y0186923D01*
X0016782Y0186784D01*
X0016726Y0186647D01*
X0016666Y0186512D01*
X0016603Y0186378D01*
X0016536Y0186246D01*
X0016465Y0186116D01*
X0016391Y0185988D01*
X0016314Y0185862D01*
X0016233Y0185738D01*
X0016149Y0185616D01*
X0016062Y0185497D01*
X0015971Y0185380D01*
X0015877Y0185265D01*
X0015781Y0185153D01*
X0015681Y0185043D01*
X0015579Y0184937D01*
X0015473Y0184833D01*
X0015365Y0184732D01*
X0015254Y0184634D01*
X0015141Y0184538D01*
X0015025Y0184446D01*
X0014907Y0184357D01*
X0014786Y0184272D01*
X0014663Y0184189D01*
X0014538Y0184110D01*
X0014411Y0184034D01*
X0014282Y0183962D01*
X0014151Y0183893D01*
X0014018Y0183828D01*
X0013883Y0183767D01*
X0013747Y0183709D01*
X0013610Y0183654D01*
X0013471Y0183604D01*
X0013330Y0183557D01*
X0013189Y0183514D01*
X0013046Y0183474D01*
X0012902Y0183439D01*
X0012758Y0183407D01*
X0012612Y0183380D01*
X0012466Y0183356D01*
X0012319Y0183336D01*
X0012172Y0183320D01*
X0012025Y0183308D01*
X0011877Y0183300D01*
X0011729Y0183296D01*
X0011581Y0183296D01*
X0011433Y0183300D01*
X0011285Y0183308D01*
X0011138Y0183320D01*
X0010991Y0183336D01*
X0010844Y0183356D01*
X0010698Y0183380D01*
X0010552Y0183407D01*
X0010408Y0183439D01*
X0010264Y0183474D01*
X0010121Y0183514D01*
X0009980Y0183557D01*
X0009839Y0183604D01*
X0009700Y0183654D01*
X0009563Y0183709D01*
X0009427Y0183767D01*
X0009292Y0183828D01*
X0009159Y0183893D01*
X0009028Y0183962D01*
X0008899Y0184034D01*
X0008772Y0184110D01*
X0008647Y0184189D01*
X0008524Y0184272D01*
X0008403Y0184357D01*
X0008285Y0184446D01*
X0008169Y0184538D01*
X0008056Y0184634D01*
X0007945Y0184732D01*
X0007837Y0184833D01*
X0007731Y0184937D01*
X0007629Y0185043D01*
X0007529Y0185153D01*
X0007433Y0185265D01*
X0007339Y0185380D01*
X0007248Y0185497D01*
X0007161Y0185616D01*
X0007077Y0185738D01*
X0006996Y0185862D01*
X0006919Y0185988D01*
X0006845Y0186116D01*
X0006774Y0186246D01*
X0006707Y0186378D01*
X0006644Y0186512D01*
X0006584Y0186647D01*
X0006528Y0186784D01*
X0006475Y0186923D01*
X0006427Y0187063D01*
X0006382Y0187204D01*
X0006341Y0187346D01*
X0006303Y0187489D01*
X0006270Y0187633D01*
X0006240Y0187778D01*
X0006214Y0187924D01*
X0006193Y0188070D01*
X0006175Y0188217D01*
X0006161Y0188364D01*
X0006151Y0188512D01*
X0006145Y0188660D01*
X0006143Y0188808D01*
X0006143Y0011643D02*
X0006145Y0011791D01*
X0006151Y0011939D01*
X0006161Y0012087D01*
X0006175Y0012234D01*
X0006193Y0012381D01*
X0006214Y0012527D01*
X0006240Y0012673D01*
X0006270Y0012818D01*
X0006303Y0012962D01*
X0006341Y0013105D01*
X0006382Y0013247D01*
X0006427Y0013388D01*
X0006475Y0013528D01*
X0006528Y0013667D01*
X0006584Y0013804D01*
X0006644Y0013939D01*
X0006707Y0014073D01*
X0006774Y0014205D01*
X0006845Y0014335D01*
X0006919Y0014463D01*
X0006996Y0014589D01*
X0007077Y0014713D01*
X0007161Y0014835D01*
X0007248Y0014954D01*
X0007339Y0015071D01*
X0007433Y0015186D01*
X0007529Y0015298D01*
X0007629Y0015408D01*
X0007731Y0015514D01*
X0007837Y0015618D01*
X0007945Y0015719D01*
X0008056Y0015817D01*
X0008169Y0015913D01*
X0008285Y0016005D01*
X0008403Y0016094D01*
X0008524Y0016179D01*
X0008647Y0016262D01*
X0008772Y0016341D01*
X0008899Y0016417D01*
X0009028Y0016489D01*
X0009159Y0016558D01*
X0009292Y0016623D01*
X0009427Y0016684D01*
X0009563Y0016742D01*
X0009700Y0016797D01*
X0009839Y0016847D01*
X0009980Y0016894D01*
X0010121Y0016937D01*
X0010264Y0016977D01*
X0010408Y0017012D01*
X0010552Y0017044D01*
X0010698Y0017071D01*
X0010844Y0017095D01*
X0010991Y0017115D01*
X0011138Y0017131D01*
X0011285Y0017143D01*
X0011433Y0017151D01*
X0011581Y0017155D01*
X0011729Y0017155D01*
X0011877Y0017151D01*
X0012025Y0017143D01*
X0012172Y0017131D01*
X0012319Y0017115D01*
X0012466Y0017095D01*
X0012612Y0017071D01*
X0012758Y0017044D01*
X0012902Y0017012D01*
X0013046Y0016977D01*
X0013189Y0016937D01*
X0013330Y0016894D01*
X0013471Y0016847D01*
X0013610Y0016797D01*
X0013747Y0016742D01*
X0013883Y0016684D01*
X0014018Y0016623D01*
X0014151Y0016558D01*
X0014282Y0016489D01*
X0014411Y0016417D01*
X0014538Y0016341D01*
X0014663Y0016262D01*
X0014786Y0016179D01*
X0014907Y0016094D01*
X0015025Y0016005D01*
X0015141Y0015913D01*
X0015254Y0015817D01*
X0015365Y0015719D01*
X0015473Y0015618D01*
X0015579Y0015514D01*
X0015681Y0015408D01*
X0015781Y0015298D01*
X0015877Y0015186D01*
X0015971Y0015071D01*
X0016062Y0014954D01*
X0016149Y0014835D01*
X0016233Y0014713D01*
X0016314Y0014589D01*
X0016391Y0014463D01*
X0016465Y0014335D01*
X0016536Y0014205D01*
X0016603Y0014073D01*
X0016666Y0013939D01*
X0016726Y0013804D01*
X0016782Y0013667D01*
X0016835Y0013528D01*
X0016883Y0013388D01*
X0016928Y0013247D01*
X0016969Y0013105D01*
X0017007Y0012962D01*
X0017040Y0012818D01*
X0017070Y0012673D01*
X0017096Y0012527D01*
X0017117Y0012381D01*
X0017135Y0012234D01*
X0017149Y0012087D01*
X0017159Y0011939D01*
X0017165Y0011791D01*
X0017167Y0011643D01*
X0017165Y0011495D01*
X0017159Y0011347D01*
X0017149Y0011199D01*
X0017135Y0011052D01*
X0017117Y0010905D01*
X0017096Y0010759D01*
X0017070Y0010613D01*
X0017040Y0010468D01*
X0017007Y0010324D01*
X0016969Y0010181D01*
X0016928Y0010039D01*
X0016883Y0009898D01*
X0016835Y0009758D01*
X0016782Y0009619D01*
X0016726Y0009482D01*
X0016666Y0009347D01*
X0016603Y0009213D01*
X0016536Y0009081D01*
X0016465Y0008951D01*
X0016391Y0008823D01*
X0016314Y0008697D01*
X0016233Y0008573D01*
X0016149Y0008451D01*
X0016062Y0008332D01*
X0015971Y0008215D01*
X0015877Y0008100D01*
X0015781Y0007988D01*
X0015681Y0007878D01*
X0015579Y0007772D01*
X0015473Y0007668D01*
X0015365Y0007567D01*
X0015254Y0007469D01*
X0015141Y0007373D01*
X0015025Y0007281D01*
X0014907Y0007192D01*
X0014786Y0007107D01*
X0014663Y0007024D01*
X0014538Y0006945D01*
X0014411Y0006869D01*
X0014282Y0006797D01*
X0014151Y0006728D01*
X0014018Y0006663D01*
X0013883Y0006602D01*
X0013747Y0006544D01*
X0013610Y0006489D01*
X0013471Y0006439D01*
X0013330Y0006392D01*
X0013189Y0006349D01*
X0013046Y0006309D01*
X0012902Y0006274D01*
X0012758Y0006242D01*
X0012612Y0006215D01*
X0012466Y0006191D01*
X0012319Y0006171D01*
X0012172Y0006155D01*
X0012025Y0006143D01*
X0011877Y0006135D01*
X0011729Y0006131D01*
X0011581Y0006131D01*
X0011433Y0006135D01*
X0011285Y0006143D01*
X0011138Y0006155D01*
X0010991Y0006171D01*
X0010844Y0006191D01*
X0010698Y0006215D01*
X0010552Y0006242D01*
X0010408Y0006274D01*
X0010264Y0006309D01*
X0010121Y0006349D01*
X0009980Y0006392D01*
X0009839Y0006439D01*
X0009700Y0006489D01*
X0009563Y0006544D01*
X0009427Y0006602D01*
X0009292Y0006663D01*
X0009159Y0006728D01*
X0009028Y0006797D01*
X0008899Y0006869D01*
X0008772Y0006945D01*
X0008647Y0007024D01*
X0008524Y0007107D01*
X0008403Y0007192D01*
X0008285Y0007281D01*
X0008169Y0007373D01*
X0008056Y0007469D01*
X0007945Y0007567D01*
X0007837Y0007668D01*
X0007731Y0007772D01*
X0007629Y0007878D01*
X0007529Y0007988D01*
X0007433Y0008100D01*
X0007339Y0008215D01*
X0007248Y0008332D01*
X0007161Y0008451D01*
X0007077Y0008573D01*
X0006996Y0008697D01*
X0006919Y0008823D01*
X0006845Y0008951D01*
X0006774Y0009081D01*
X0006707Y0009213D01*
X0006644Y0009347D01*
X0006584Y0009482D01*
X0006528Y0009619D01*
X0006475Y0009758D01*
X0006427Y0009898D01*
X0006382Y0010039D01*
X0006341Y0010181D01*
X0006303Y0010324D01*
X0006270Y0010468D01*
X0006240Y0010613D01*
X0006214Y0010759D01*
X0006193Y0010905D01*
X0006175Y0011052D01*
X0006161Y0011199D01*
X0006151Y0011347D01*
X0006145Y0011495D01*
X0006143Y0011643D01*
X0183309Y0011643D02*
X0183311Y0011791D01*
X0183317Y0011939D01*
X0183327Y0012087D01*
X0183341Y0012234D01*
X0183359Y0012381D01*
X0183380Y0012527D01*
X0183406Y0012673D01*
X0183436Y0012818D01*
X0183469Y0012962D01*
X0183507Y0013105D01*
X0183548Y0013247D01*
X0183593Y0013388D01*
X0183641Y0013528D01*
X0183694Y0013667D01*
X0183750Y0013804D01*
X0183810Y0013939D01*
X0183873Y0014073D01*
X0183940Y0014205D01*
X0184011Y0014335D01*
X0184085Y0014463D01*
X0184162Y0014589D01*
X0184243Y0014713D01*
X0184327Y0014835D01*
X0184414Y0014954D01*
X0184505Y0015071D01*
X0184599Y0015186D01*
X0184695Y0015298D01*
X0184795Y0015408D01*
X0184897Y0015514D01*
X0185003Y0015618D01*
X0185111Y0015719D01*
X0185222Y0015817D01*
X0185335Y0015913D01*
X0185451Y0016005D01*
X0185569Y0016094D01*
X0185690Y0016179D01*
X0185813Y0016262D01*
X0185938Y0016341D01*
X0186065Y0016417D01*
X0186194Y0016489D01*
X0186325Y0016558D01*
X0186458Y0016623D01*
X0186593Y0016684D01*
X0186729Y0016742D01*
X0186866Y0016797D01*
X0187005Y0016847D01*
X0187146Y0016894D01*
X0187287Y0016937D01*
X0187430Y0016977D01*
X0187574Y0017012D01*
X0187718Y0017044D01*
X0187864Y0017071D01*
X0188010Y0017095D01*
X0188157Y0017115D01*
X0188304Y0017131D01*
X0188451Y0017143D01*
X0188599Y0017151D01*
X0188747Y0017155D01*
X0188895Y0017155D01*
X0189043Y0017151D01*
X0189191Y0017143D01*
X0189338Y0017131D01*
X0189485Y0017115D01*
X0189632Y0017095D01*
X0189778Y0017071D01*
X0189924Y0017044D01*
X0190068Y0017012D01*
X0190212Y0016977D01*
X0190355Y0016937D01*
X0190496Y0016894D01*
X0190637Y0016847D01*
X0190776Y0016797D01*
X0190913Y0016742D01*
X0191049Y0016684D01*
X0191184Y0016623D01*
X0191317Y0016558D01*
X0191448Y0016489D01*
X0191577Y0016417D01*
X0191704Y0016341D01*
X0191829Y0016262D01*
X0191952Y0016179D01*
X0192073Y0016094D01*
X0192191Y0016005D01*
X0192307Y0015913D01*
X0192420Y0015817D01*
X0192531Y0015719D01*
X0192639Y0015618D01*
X0192745Y0015514D01*
X0192847Y0015408D01*
X0192947Y0015298D01*
X0193043Y0015186D01*
X0193137Y0015071D01*
X0193228Y0014954D01*
X0193315Y0014835D01*
X0193399Y0014713D01*
X0193480Y0014589D01*
X0193557Y0014463D01*
X0193631Y0014335D01*
X0193702Y0014205D01*
X0193769Y0014073D01*
X0193832Y0013939D01*
X0193892Y0013804D01*
X0193948Y0013667D01*
X0194001Y0013528D01*
X0194049Y0013388D01*
X0194094Y0013247D01*
X0194135Y0013105D01*
X0194173Y0012962D01*
X0194206Y0012818D01*
X0194236Y0012673D01*
X0194262Y0012527D01*
X0194283Y0012381D01*
X0194301Y0012234D01*
X0194315Y0012087D01*
X0194325Y0011939D01*
X0194331Y0011791D01*
X0194333Y0011643D01*
X0194331Y0011495D01*
X0194325Y0011347D01*
X0194315Y0011199D01*
X0194301Y0011052D01*
X0194283Y0010905D01*
X0194262Y0010759D01*
X0194236Y0010613D01*
X0194206Y0010468D01*
X0194173Y0010324D01*
X0194135Y0010181D01*
X0194094Y0010039D01*
X0194049Y0009898D01*
X0194001Y0009758D01*
X0193948Y0009619D01*
X0193892Y0009482D01*
X0193832Y0009347D01*
X0193769Y0009213D01*
X0193702Y0009081D01*
X0193631Y0008951D01*
X0193557Y0008823D01*
X0193480Y0008697D01*
X0193399Y0008573D01*
X0193315Y0008451D01*
X0193228Y0008332D01*
X0193137Y0008215D01*
X0193043Y0008100D01*
X0192947Y0007988D01*
X0192847Y0007878D01*
X0192745Y0007772D01*
X0192639Y0007668D01*
X0192531Y0007567D01*
X0192420Y0007469D01*
X0192307Y0007373D01*
X0192191Y0007281D01*
X0192073Y0007192D01*
X0191952Y0007107D01*
X0191829Y0007024D01*
X0191704Y0006945D01*
X0191577Y0006869D01*
X0191448Y0006797D01*
X0191317Y0006728D01*
X0191184Y0006663D01*
X0191049Y0006602D01*
X0190913Y0006544D01*
X0190776Y0006489D01*
X0190637Y0006439D01*
X0190496Y0006392D01*
X0190355Y0006349D01*
X0190212Y0006309D01*
X0190068Y0006274D01*
X0189924Y0006242D01*
X0189778Y0006215D01*
X0189632Y0006191D01*
X0189485Y0006171D01*
X0189338Y0006155D01*
X0189191Y0006143D01*
X0189043Y0006135D01*
X0188895Y0006131D01*
X0188747Y0006131D01*
X0188599Y0006135D01*
X0188451Y0006143D01*
X0188304Y0006155D01*
X0188157Y0006171D01*
X0188010Y0006191D01*
X0187864Y0006215D01*
X0187718Y0006242D01*
X0187574Y0006274D01*
X0187430Y0006309D01*
X0187287Y0006349D01*
X0187146Y0006392D01*
X0187005Y0006439D01*
X0186866Y0006489D01*
X0186729Y0006544D01*
X0186593Y0006602D01*
X0186458Y0006663D01*
X0186325Y0006728D01*
X0186194Y0006797D01*
X0186065Y0006869D01*
X0185938Y0006945D01*
X0185813Y0007024D01*
X0185690Y0007107D01*
X0185569Y0007192D01*
X0185451Y0007281D01*
X0185335Y0007373D01*
X0185222Y0007469D01*
X0185111Y0007567D01*
X0185003Y0007668D01*
X0184897Y0007772D01*
X0184795Y0007878D01*
X0184695Y0007988D01*
X0184599Y0008100D01*
X0184505Y0008215D01*
X0184414Y0008332D01*
X0184327Y0008451D01*
X0184243Y0008573D01*
X0184162Y0008697D01*
X0184085Y0008823D01*
X0184011Y0008951D01*
X0183940Y0009081D01*
X0183873Y0009213D01*
X0183810Y0009347D01*
X0183750Y0009482D01*
X0183694Y0009619D01*
X0183641Y0009758D01*
X0183593Y0009898D01*
X0183548Y0010039D01*
X0183507Y0010181D01*
X0183469Y0010324D01*
X0183436Y0010468D01*
X0183406Y0010613D01*
X0183380Y0010759D01*
X0183359Y0010905D01*
X0183341Y0011052D01*
X0183327Y0011199D01*
X0183317Y0011347D01*
X0183311Y0011495D01*
X0183309Y0011643D01*
X0183309Y0188808D02*
X0183311Y0188956D01*
X0183317Y0189104D01*
X0183327Y0189252D01*
X0183341Y0189399D01*
X0183359Y0189546D01*
X0183380Y0189692D01*
X0183406Y0189838D01*
X0183436Y0189983D01*
X0183469Y0190127D01*
X0183507Y0190270D01*
X0183548Y0190412D01*
X0183593Y0190553D01*
X0183641Y0190693D01*
X0183694Y0190832D01*
X0183750Y0190969D01*
X0183810Y0191104D01*
X0183873Y0191238D01*
X0183940Y0191370D01*
X0184011Y0191500D01*
X0184085Y0191628D01*
X0184162Y0191754D01*
X0184243Y0191878D01*
X0184327Y0192000D01*
X0184414Y0192119D01*
X0184505Y0192236D01*
X0184599Y0192351D01*
X0184695Y0192463D01*
X0184795Y0192573D01*
X0184897Y0192679D01*
X0185003Y0192783D01*
X0185111Y0192884D01*
X0185222Y0192982D01*
X0185335Y0193078D01*
X0185451Y0193170D01*
X0185569Y0193259D01*
X0185690Y0193344D01*
X0185813Y0193427D01*
X0185938Y0193506D01*
X0186065Y0193582D01*
X0186194Y0193654D01*
X0186325Y0193723D01*
X0186458Y0193788D01*
X0186593Y0193849D01*
X0186729Y0193907D01*
X0186866Y0193962D01*
X0187005Y0194012D01*
X0187146Y0194059D01*
X0187287Y0194102D01*
X0187430Y0194142D01*
X0187574Y0194177D01*
X0187718Y0194209D01*
X0187864Y0194236D01*
X0188010Y0194260D01*
X0188157Y0194280D01*
X0188304Y0194296D01*
X0188451Y0194308D01*
X0188599Y0194316D01*
X0188747Y0194320D01*
X0188895Y0194320D01*
X0189043Y0194316D01*
X0189191Y0194308D01*
X0189338Y0194296D01*
X0189485Y0194280D01*
X0189632Y0194260D01*
X0189778Y0194236D01*
X0189924Y0194209D01*
X0190068Y0194177D01*
X0190212Y0194142D01*
X0190355Y0194102D01*
X0190496Y0194059D01*
X0190637Y0194012D01*
X0190776Y0193962D01*
X0190913Y0193907D01*
X0191049Y0193849D01*
X0191184Y0193788D01*
X0191317Y0193723D01*
X0191448Y0193654D01*
X0191577Y0193582D01*
X0191704Y0193506D01*
X0191829Y0193427D01*
X0191952Y0193344D01*
X0192073Y0193259D01*
X0192191Y0193170D01*
X0192307Y0193078D01*
X0192420Y0192982D01*
X0192531Y0192884D01*
X0192639Y0192783D01*
X0192745Y0192679D01*
X0192847Y0192573D01*
X0192947Y0192463D01*
X0193043Y0192351D01*
X0193137Y0192236D01*
X0193228Y0192119D01*
X0193315Y0192000D01*
X0193399Y0191878D01*
X0193480Y0191754D01*
X0193557Y0191628D01*
X0193631Y0191500D01*
X0193702Y0191370D01*
X0193769Y0191238D01*
X0193832Y0191104D01*
X0193892Y0190969D01*
X0193948Y0190832D01*
X0194001Y0190693D01*
X0194049Y0190553D01*
X0194094Y0190412D01*
X0194135Y0190270D01*
X0194173Y0190127D01*
X0194206Y0189983D01*
X0194236Y0189838D01*
X0194262Y0189692D01*
X0194283Y0189546D01*
X0194301Y0189399D01*
X0194315Y0189252D01*
X0194325Y0189104D01*
X0194331Y0188956D01*
X0194333Y0188808D01*
X0194331Y0188660D01*
X0194325Y0188512D01*
X0194315Y0188364D01*
X0194301Y0188217D01*
X0194283Y0188070D01*
X0194262Y0187924D01*
X0194236Y0187778D01*
X0194206Y0187633D01*
X0194173Y0187489D01*
X0194135Y0187346D01*
X0194094Y0187204D01*
X0194049Y0187063D01*
X0194001Y0186923D01*
X0193948Y0186784D01*
X0193892Y0186647D01*
X0193832Y0186512D01*
X0193769Y0186378D01*
X0193702Y0186246D01*
X0193631Y0186116D01*
X0193557Y0185988D01*
X0193480Y0185862D01*
X0193399Y0185738D01*
X0193315Y0185616D01*
X0193228Y0185497D01*
X0193137Y0185380D01*
X0193043Y0185265D01*
X0192947Y0185153D01*
X0192847Y0185043D01*
X0192745Y0184937D01*
X0192639Y0184833D01*
X0192531Y0184732D01*
X0192420Y0184634D01*
X0192307Y0184538D01*
X0192191Y0184446D01*
X0192073Y0184357D01*
X0191952Y0184272D01*
X0191829Y0184189D01*
X0191704Y0184110D01*
X0191577Y0184034D01*
X0191448Y0183962D01*
X0191317Y0183893D01*
X0191184Y0183828D01*
X0191049Y0183767D01*
X0190913Y0183709D01*
X0190776Y0183654D01*
X0190637Y0183604D01*
X0190496Y0183557D01*
X0190355Y0183514D01*
X0190212Y0183474D01*
X0190068Y0183439D01*
X0189924Y0183407D01*
X0189778Y0183380D01*
X0189632Y0183356D01*
X0189485Y0183336D01*
X0189338Y0183320D01*
X0189191Y0183308D01*
X0189043Y0183300D01*
X0188895Y0183296D01*
X0188747Y0183296D01*
X0188599Y0183300D01*
X0188451Y0183308D01*
X0188304Y0183320D01*
X0188157Y0183336D01*
X0188010Y0183356D01*
X0187864Y0183380D01*
X0187718Y0183407D01*
X0187574Y0183439D01*
X0187430Y0183474D01*
X0187287Y0183514D01*
X0187146Y0183557D01*
X0187005Y0183604D01*
X0186866Y0183654D01*
X0186729Y0183709D01*
X0186593Y0183767D01*
X0186458Y0183828D01*
X0186325Y0183893D01*
X0186194Y0183962D01*
X0186065Y0184034D01*
X0185938Y0184110D01*
X0185813Y0184189D01*
X0185690Y0184272D01*
X0185569Y0184357D01*
X0185451Y0184446D01*
X0185335Y0184538D01*
X0185222Y0184634D01*
X0185111Y0184732D01*
X0185003Y0184833D01*
X0184897Y0184937D01*
X0184795Y0185043D01*
X0184695Y0185153D01*
X0184599Y0185265D01*
X0184505Y0185380D01*
X0184414Y0185497D01*
X0184327Y0185616D01*
X0184243Y0185738D01*
X0184162Y0185862D01*
X0184085Y0185988D01*
X0184011Y0186116D01*
X0183940Y0186246D01*
X0183873Y0186378D01*
X0183810Y0186512D01*
X0183750Y0186647D01*
X0183694Y0186784D01*
X0183641Y0186923D01*
X0183593Y0187063D01*
X0183548Y0187204D01*
X0183507Y0187346D01*
X0183469Y0187489D01*
X0183436Y0187633D01*
X0183406Y0187778D01*
X0183380Y0187924D01*
X0183359Y0188070D01*
X0183341Y0188217D01*
X0183327Y0188364D01*
X0183317Y0188512D01*
X0183311Y0188660D01*
X0183309Y0188808D01*
D13*
X0055844Y0018113D02*
X0055844Y0017062D01*
X0055844Y0014960D02*
X0055844Y0010756D01*
X0054793Y0010756D02*
X0056895Y0010756D01*
X0059458Y0010756D02*
X0059458Y0014960D01*
X0059458Y0012858D02*
X0061560Y0014960D01*
X0062611Y0014960D01*
X0055844Y0014960D02*
X0054793Y0014960D01*
X0052230Y0013909D02*
X0050128Y0013909D01*
X0051179Y0016011D02*
X0051179Y0010756D01*
X0047333Y0010756D02*
X0044181Y0010756D01*
X0043130Y0011807D01*
X0044181Y0012858D01*
X0047333Y0012858D01*
X0047333Y0013909D02*
X0047333Y0010756D01*
X0047333Y0013909D02*
X0046282Y0014960D01*
X0044181Y0014960D01*
X0040335Y0014960D02*
X0037183Y0014960D01*
X0036132Y0013909D01*
X0037183Y0012858D01*
X0039284Y0012858D01*
X0040335Y0011807D01*
X0039284Y0010756D01*
X0036132Y0010756D01*
X0033337Y0010756D02*
X0033337Y0014960D01*
X0029134Y0014960D02*
X0029134Y0011807D01*
X0030185Y0010756D01*
X0033337Y0010756D01*
X0026339Y0010756D02*
X0026339Y0017062D01*
X0024238Y0014960D01*
X0022136Y0017062D01*
X0022136Y0010756D01*
X0051179Y0016011D02*
X0052230Y0017062D01*
D14*
X0143563Y0012776D02*
X0143563Y0010040D01*
X0144246Y0009356D01*
X0145614Y0009356D01*
X0146298Y0010040D01*
X0148166Y0010040D02*
X0148850Y0009356D01*
X0150218Y0009356D01*
X0150902Y0010040D01*
X0150902Y0011408D01*
X0150218Y0012092D01*
X0148850Y0012092D01*
X0148166Y0011408D01*
X0148166Y0010040D01*
X0146298Y0012776D02*
X0145614Y0013460D01*
X0144246Y0013460D01*
X0143563Y0012776D01*
X0152770Y0012092D02*
X0152770Y0009356D01*
X0155506Y0009356D02*
X0155506Y0011408D01*
X0154822Y0012092D01*
X0152770Y0012092D01*
X0157374Y0012092D02*
X0158742Y0012092D01*
X0158058Y0012776D02*
X0158058Y0010040D01*
X0158742Y0009356D01*
X0160444Y0009356D02*
X0160444Y0012092D01*
X0161811Y0012092D02*
X0162495Y0012092D01*
X0161811Y0012092D02*
X0160444Y0010724D01*
X0164280Y0010040D02*
X0164964Y0009356D01*
X0166332Y0009356D01*
X0167016Y0010040D01*
X0167016Y0011408D01*
X0166332Y0012092D01*
X0164964Y0012092D01*
X0164280Y0011408D01*
X0164280Y0010040D01*
X0168884Y0009356D02*
X0170252Y0009356D01*
X0169568Y0009356D02*
X0169568Y0013460D01*
X0168884Y0013460D01*
X0171953Y0013460D02*
X0172637Y0013460D01*
X0172637Y0009356D01*
X0171953Y0009356D02*
X0173321Y0009356D01*
X0175023Y0010040D02*
X0175023Y0011408D01*
X0175707Y0012092D01*
X0177074Y0012092D01*
X0177758Y0011408D01*
X0177758Y0010724D01*
X0175023Y0010724D01*
X0175023Y0010040D02*
X0175707Y0009356D01*
X0177074Y0009356D01*
X0179627Y0009356D02*
X0179627Y0012092D01*
X0180994Y0012092D02*
X0179627Y0010724D01*
X0180994Y0012092D02*
X0181678Y0012092D01*
X0172087Y0019592D02*
X0171403Y0019592D01*
X0170035Y0018224D01*
X0170035Y0016856D02*
X0170035Y0019592D01*
X0168167Y0018908D02*
X0168167Y0017540D01*
X0167483Y0016856D01*
X0166115Y0016856D01*
X0165431Y0017540D01*
X0165431Y0018908D01*
X0166115Y0019592D01*
X0167483Y0019592D01*
X0168167Y0018908D01*
X0163730Y0019592D02*
X0162362Y0019592D01*
X0163046Y0020276D02*
X0163046Y0017540D01*
X0163730Y0016856D01*
X0160494Y0017540D02*
X0160494Y0018908D01*
X0159810Y0019592D01*
X0158442Y0019592D01*
X0157758Y0018908D01*
X0157758Y0017540D01*
X0158442Y0016856D01*
X0159810Y0016856D01*
X0160494Y0017540D01*
X0155890Y0016856D02*
X0155890Y0020960D01*
X0154522Y0019592D01*
X0153154Y0020960D01*
X0153154Y0016856D01*
D15*
X0110539Y0028624D02*
X0109771Y0027856D01*
X0107469Y0027856D01*
X0107469Y0026322D02*
X0107469Y0030926D01*
X0109771Y0030926D01*
X0110539Y0030158D01*
X0110539Y0028624D01*
X0107193Y0024060D02*
X0107960Y0023293D01*
X0107960Y0022526D01*
X0107193Y0021758D01*
X0104891Y0021758D01*
X0102804Y0020991D02*
X0102804Y0020224D01*
X0102037Y0019456D01*
X0100502Y0019456D01*
X0099735Y0020224D01*
X0100502Y0021758D02*
X0099735Y0022526D01*
X0099735Y0023293D01*
X0100502Y0024060D01*
X0102037Y0024060D01*
X0102804Y0023293D01*
X0102037Y0021758D02*
X0102804Y0020991D01*
X0102037Y0021758D02*
X0100502Y0021758D01*
X0097648Y0020224D02*
X0097648Y0024060D01*
X0094578Y0024060D02*
X0094578Y0020224D01*
X0095346Y0019456D01*
X0096880Y0019456D01*
X0097648Y0020224D01*
X0097157Y0027856D02*
X0100226Y0030926D01*
X0100226Y0031693D01*
X0099458Y0032460D01*
X0097924Y0032460D01*
X0097157Y0031693D01*
X0095069Y0031693D02*
X0094302Y0032460D01*
X0092767Y0032460D01*
X0092000Y0031693D01*
X0093535Y0030158D02*
X0094302Y0030158D01*
X0095069Y0029391D01*
X0095069Y0028624D01*
X0094302Y0027856D01*
X0092767Y0027856D01*
X0092000Y0028624D01*
X0094302Y0030158D02*
X0095069Y0030926D01*
X0095069Y0031693D01*
X0097157Y0027856D02*
X0100226Y0027856D01*
X0102313Y0028624D02*
X0103080Y0027856D01*
X0104615Y0027856D01*
X0105382Y0028624D01*
X0105382Y0029391D01*
X0104615Y0030158D01*
X0103080Y0030158D01*
X0102313Y0030926D01*
X0102313Y0031693D01*
X0103080Y0032460D01*
X0104615Y0032460D01*
X0105382Y0031693D01*
X0105382Y0030926D01*
X0104615Y0030158D01*
X0103080Y0030158D02*
X0102313Y0029391D01*
X0102313Y0028624D01*
X0104891Y0024060D02*
X0107193Y0024060D01*
X0104891Y0024060D02*
X0104891Y0019456D01*
X0107193Y0019456D01*
X0107960Y0020224D01*
X0107960Y0020991D01*
X0107193Y0021758D01*
X0108237Y0036256D02*
X0107469Y0037024D01*
X0107469Y0038558D01*
X0108237Y0039326D01*
X0109771Y0039326D01*
X0110539Y0038558D01*
X0110539Y0037024D01*
X0109771Y0036256D01*
X0108237Y0036256D01*
X0105382Y0036256D02*
X0105382Y0038558D01*
X0104615Y0039326D01*
X0102313Y0039326D01*
X0102313Y0036256D01*
X0100226Y0036256D02*
X0097924Y0036256D01*
X0097157Y0037024D01*
X0097924Y0037791D01*
X0100226Y0037791D01*
X0100226Y0038558D02*
X0100226Y0036256D01*
X0100226Y0038558D02*
X0099458Y0039326D01*
X0097924Y0039326D01*
X0095069Y0040860D02*
X0095069Y0036256D01*
X0092000Y0040860D01*
X0092000Y0036256D01*
X0065382Y0009193D02*
X0064615Y0009960D01*
X0063080Y0009960D01*
X0062313Y0009193D01*
X0060226Y0008426D02*
X0058691Y0005356D01*
X0057157Y0008426D01*
X0062313Y0005356D02*
X0065382Y0008426D01*
X0065382Y0009193D01*
X0065382Y0005356D02*
X0062313Y0005356D01*
X0164657Y0181156D02*
X0167726Y0181156D01*
X0169813Y0181156D02*
X0169813Y0185760D01*
X0172115Y0185760D01*
X0172882Y0184993D01*
X0172882Y0183458D01*
X0172115Y0182691D01*
X0169813Y0182691D01*
X0167726Y0184993D02*
X0164657Y0181924D01*
X0164657Y0181156D01*
X0164657Y0185760D02*
X0167726Y0185760D01*
X0167726Y0184993D01*
X0167726Y0189556D02*
X0167726Y0194160D01*
X0166191Y0192626D01*
X0164657Y0194160D01*
X0164657Y0189556D01*
X0169813Y0189556D02*
X0169813Y0194160D01*
X0171348Y0192626D01*
X0172882Y0194160D01*
X0172882Y0189556D01*
D16*
X0188821Y0001800D02*
X0010671Y0001800D01*
X0010445Y0001815D01*
X0010220Y0001835D01*
X0009995Y0001860D01*
X0009771Y0001891D01*
X0009547Y0001927D01*
X0009325Y0001969D01*
X0009104Y0002016D01*
X0008884Y0002069D01*
X0008665Y0002126D01*
X0008448Y0002189D01*
X0008232Y0002258D01*
X0008018Y0002331D01*
X0007806Y0002410D01*
X0007595Y0002493D01*
X0007387Y0002582D01*
X0007181Y0002676D01*
X0006978Y0002774D01*
X0006777Y0002878D01*
X0006578Y0002986D01*
X0006382Y0003100D01*
X0006189Y0003218D01*
X0005999Y0003340D01*
X0005812Y0003467D01*
X0005627Y0003599D01*
X0005447Y0003735D01*
X0005269Y0003875D01*
X0005095Y0004019D01*
X0004924Y0004168D01*
X0004758Y0004321D01*
X0004594Y0004478D01*
X0004435Y0004638D01*
X0004280Y0004803D01*
X0004128Y0004971D01*
X0003981Y0005143D01*
X0003838Y0005318D01*
X0003699Y0005497D01*
X0003565Y0005679D01*
X0003435Y0005864D01*
X0003309Y0006052D01*
X0003189Y0006244D01*
X0003072Y0006438D01*
X0002961Y0006635D01*
X0002854Y0006834D01*
X0002752Y0007036D01*
X0002655Y0007241D01*
X0002563Y0007447D01*
X0002476Y0007656D01*
X0002394Y0007867D01*
X0002318Y0008080D01*
X0002246Y0008295D01*
X0002180Y0008511D01*
X0002118Y0008729D01*
X0002063Y0008948D01*
X0002012Y0009168D01*
X0001967Y0009390D01*
X0001927Y0009613D01*
X0001893Y0009837D01*
X0001864Y0010061D01*
X0001840Y0010286D01*
X0001822Y0010511D01*
X0001809Y0010737D01*
X0001802Y0010964D01*
X0001800Y0011190D01*
X0001804Y0011416D01*
X0001813Y0011642D01*
X0001813Y0011643D02*
X0001813Y0188808D01*
X0001812Y0188808D02*
X0001815Y0189046D01*
X0001823Y0189284D01*
X0001838Y0189521D01*
X0001858Y0189758D01*
X0001884Y0189994D01*
X0001915Y0190230D01*
X0001952Y0190465D01*
X0001995Y0190699D01*
X0002044Y0190932D01*
X0002098Y0191164D01*
X0002158Y0191394D01*
X0002223Y0191623D01*
X0002294Y0191850D01*
X0002370Y0192075D01*
X0002452Y0192298D01*
X0002539Y0192520D01*
X0002631Y0192739D01*
X0002729Y0192956D01*
X0002831Y0193170D01*
X0002939Y0193382D01*
X0003053Y0193592D01*
X0003171Y0193798D01*
X0003294Y0194002D01*
X0003422Y0194202D01*
X0003554Y0194399D01*
X0003692Y0194594D01*
X0003834Y0194784D01*
X0003981Y0194972D01*
X0004132Y0195155D01*
X0004287Y0195335D01*
X0004447Y0195511D01*
X0004611Y0195683D01*
X0004780Y0195852D01*
X0004952Y0196016D01*
X0005128Y0196176D01*
X0005308Y0196331D01*
X0005491Y0196482D01*
X0005679Y0196629D01*
X0005869Y0196771D01*
X0006064Y0196909D01*
X0006261Y0197041D01*
X0006461Y0197169D01*
X0006665Y0197292D01*
X0006871Y0197410D01*
X0007081Y0197524D01*
X0007293Y0197632D01*
X0007507Y0197734D01*
X0007724Y0197832D01*
X0007943Y0197924D01*
X0008165Y0198011D01*
X0008388Y0198093D01*
X0008613Y0198169D01*
X0008840Y0198240D01*
X0009069Y0198305D01*
X0009299Y0198365D01*
X0009531Y0198419D01*
X0009764Y0198468D01*
X0009998Y0198511D01*
X0010233Y0198548D01*
X0010469Y0198579D01*
X0010705Y0198605D01*
X0010942Y0198625D01*
X0011179Y0198640D01*
X0011417Y0198648D01*
X0011655Y0198651D01*
X0011655Y0198650D02*
X0188821Y0198650D01*
X0188821Y0198651D02*
X0189059Y0198648D01*
X0189297Y0198640D01*
X0189534Y0198625D01*
X0189771Y0198605D01*
X0190007Y0198579D01*
X0190243Y0198548D01*
X0190478Y0198511D01*
X0190712Y0198468D01*
X0190945Y0198419D01*
X0191177Y0198365D01*
X0191407Y0198305D01*
X0191636Y0198240D01*
X0191863Y0198169D01*
X0192088Y0198093D01*
X0192311Y0198011D01*
X0192533Y0197924D01*
X0192752Y0197832D01*
X0192969Y0197734D01*
X0193183Y0197632D01*
X0193395Y0197524D01*
X0193605Y0197410D01*
X0193811Y0197292D01*
X0194015Y0197169D01*
X0194215Y0197041D01*
X0194412Y0196909D01*
X0194607Y0196771D01*
X0194797Y0196629D01*
X0194985Y0196482D01*
X0195168Y0196331D01*
X0195348Y0196176D01*
X0195524Y0196016D01*
X0195696Y0195852D01*
X0195865Y0195683D01*
X0196029Y0195511D01*
X0196189Y0195335D01*
X0196344Y0195155D01*
X0196495Y0194972D01*
X0196642Y0194784D01*
X0196784Y0194594D01*
X0196922Y0194399D01*
X0197054Y0194202D01*
X0197182Y0194002D01*
X0197305Y0193798D01*
X0197423Y0193592D01*
X0197537Y0193382D01*
X0197645Y0193170D01*
X0197747Y0192956D01*
X0197845Y0192739D01*
X0197937Y0192520D01*
X0198024Y0192298D01*
X0198106Y0192075D01*
X0198182Y0191850D01*
X0198253Y0191623D01*
X0198318Y0191394D01*
X0198378Y0191164D01*
X0198432Y0190932D01*
X0198481Y0190699D01*
X0198524Y0190465D01*
X0198561Y0190230D01*
X0198592Y0189994D01*
X0198618Y0189758D01*
X0198638Y0189521D01*
X0198653Y0189284D01*
X0198661Y0189046D01*
X0198664Y0188808D01*
X0198663Y0188808D02*
X0198663Y0011643D01*
X0198664Y0011643D02*
X0198661Y0011405D01*
X0198653Y0011167D01*
X0198638Y0010930D01*
X0198618Y0010693D01*
X0198592Y0010457D01*
X0198561Y0010221D01*
X0198524Y0009986D01*
X0198481Y0009752D01*
X0198432Y0009519D01*
X0198378Y0009287D01*
X0198318Y0009057D01*
X0198253Y0008828D01*
X0198182Y0008601D01*
X0198106Y0008376D01*
X0198024Y0008153D01*
X0197937Y0007931D01*
X0197845Y0007712D01*
X0197747Y0007495D01*
X0197645Y0007281D01*
X0197537Y0007069D01*
X0197423Y0006859D01*
X0197305Y0006653D01*
X0197182Y0006449D01*
X0197054Y0006249D01*
X0196922Y0006052D01*
X0196784Y0005857D01*
X0196642Y0005667D01*
X0196495Y0005479D01*
X0196344Y0005296D01*
X0196189Y0005116D01*
X0196029Y0004940D01*
X0195865Y0004768D01*
X0195696Y0004599D01*
X0195524Y0004435D01*
X0195348Y0004275D01*
X0195168Y0004120D01*
X0194985Y0003969D01*
X0194797Y0003822D01*
X0194607Y0003680D01*
X0194412Y0003542D01*
X0194215Y0003410D01*
X0194015Y0003282D01*
X0193811Y0003159D01*
X0193605Y0003041D01*
X0193395Y0002927D01*
X0193183Y0002819D01*
X0192969Y0002717D01*
X0192752Y0002619D01*
X0192533Y0002527D01*
X0192311Y0002440D01*
X0192088Y0002358D01*
X0191863Y0002282D01*
X0191636Y0002211D01*
X0191407Y0002146D01*
X0191177Y0002086D01*
X0190945Y0002032D01*
X0190712Y0001983D01*
X0190478Y0001940D01*
X0190243Y0001903D01*
X0190007Y0001872D01*
X0189771Y0001846D01*
X0189534Y0001826D01*
X0189297Y0001811D01*
X0189059Y0001803D01*
X0188821Y0001800D01*
D17*
X0181865Y0018506D02*
X0179663Y0018506D01*
X0180764Y0018506D02*
X0180764Y0021809D01*
X0179663Y0020708D01*
X0178182Y0020708D02*
X0177081Y0018506D01*
X0175980Y0020708D01*
D18*
X0118840Y0143326D03*
D19*
X0118840Y0138080D03*
X0118840Y0161072D03*
D20*
X0103840Y0174576D02*
X0106340Y0177076D01*
X0106340Y0192076D01*
X0103840Y0194576D01*
X0098840Y0194576D01*
X0096340Y0192076D01*
X0096340Y0177076D01*
X0098840Y0174576D01*
X0103840Y0174576D01*
X0096340Y0177076D02*
X0093840Y0174576D01*
X0088840Y0174576D01*
X0086340Y0177076D01*
X0086340Y0192076D01*
X0088840Y0194576D01*
X0093840Y0194576D01*
X0096340Y0192076D01*
X0086340Y0192076D02*
X0083840Y0194576D01*
X0078840Y0194576D01*
X0076340Y0192076D01*
X0076340Y0177076D01*
X0078840Y0174576D01*
X0083840Y0174576D01*
X0086340Y0177076D01*
X0083840Y0173257D02*
X0078840Y0173257D01*
X0053840Y0174576D02*
X0053840Y0169576D01*
X0051340Y0167076D01*
X0046340Y0167076D01*
X0043840Y0169576D01*
X0041340Y0167076D01*
X0036340Y0167076D01*
X0033840Y0169576D01*
X0031340Y0167076D01*
X0026340Y0167076D01*
X0023840Y0169576D01*
X0021340Y0167076D01*
X0016340Y0167076D01*
X0013840Y0169576D01*
X0013840Y0174576D01*
X0016340Y0177076D01*
X0021340Y0177076D01*
X0023840Y0174576D01*
X0026340Y0177076D01*
X0031340Y0177076D01*
X0033840Y0174576D01*
X0036340Y0177076D01*
X0041340Y0177076D01*
X0043840Y0174576D01*
X0046340Y0177076D01*
X0051340Y0177076D01*
X0053840Y0174576D01*
X0051153Y0148513D02*
X0046153Y0148513D01*
X0043653Y0146013D01*
X0041153Y0148513D01*
X0036153Y0148513D01*
X0033653Y0146013D01*
X0031153Y0148513D01*
X0026153Y0148513D01*
X0023653Y0146013D01*
X0021153Y0148513D01*
X0016153Y0148513D01*
X0013653Y0146013D01*
X0013653Y0141013D01*
X0016153Y0138513D01*
X0021153Y0138513D01*
X0023653Y0141013D01*
X0026153Y0138513D01*
X0031153Y0138513D01*
X0033653Y0141013D01*
X0036153Y0138513D01*
X0041153Y0138513D01*
X0043653Y0141013D01*
X0046153Y0138513D01*
X0051153Y0138513D01*
X0053653Y0141013D01*
X0053653Y0146013D01*
X0051153Y0148513D01*
X0051340Y0122076D02*
X0046340Y0122076D01*
X0043840Y0119576D01*
X0041340Y0122076D01*
X0036340Y0122076D01*
X0033840Y0119576D01*
X0031340Y0122076D01*
X0026340Y0122076D01*
X0023840Y0119576D01*
X0021340Y0122076D01*
X0016340Y0122076D01*
X0013840Y0119576D01*
X0013840Y0114576D01*
X0016340Y0112076D01*
X0021340Y0112076D01*
X0023840Y0114576D01*
X0026340Y0112076D01*
X0031340Y0112076D01*
X0033840Y0114576D01*
X0036340Y0112076D01*
X0041340Y0112076D01*
X0043840Y0114576D01*
X0046340Y0112076D01*
X0051340Y0112076D01*
X0053840Y0114576D01*
X0053840Y0119576D01*
X0051340Y0122076D01*
X0051340Y0092076D02*
X0046340Y0092076D01*
X0043840Y0089576D01*
X0041340Y0092076D01*
X0036340Y0092076D01*
X0033840Y0089576D01*
X0031340Y0092076D01*
X0026340Y0092076D01*
X0023840Y0089576D01*
X0021340Y0092076D01*
X0016340Y0092076D01*
X0013840Y0089576D01*
X0013840Y0084576D01*
X0016340Y0082076D01*
X0021340Y0082076D01*
X0023840Y0084576D01*
X0026340Y0082076D01*
X0031340Y0082076D01*
X0033840Y0084576D01*
X0036340Y0082076D01*
X0041340Y0082076D01*
X0043840Y0084576D01*
X0046340Y0082076D01*
X0051340Y0082076D01*
X0053840Y0084576D01*
X0053840Y0089576D01*
X0051340Y0092076D01*
X0051340Y0063513D02*
X0046340Y0063513D01*
X0043840Y0061013D01*
X0041340Y0063513D01*
X0036340Y0063513D01*
X0033840Y0061013D01*
X0031340Y0063513D01*
X0026340Y0063513D01*
X0023840Y0061013D01*
X0021340Y0063513D01*
X0016340Y0063513D01*
X0013840Y0061013D01*
X0013840Y0056013D01*
X0016340Y0053513D01*
X0021340Y0053513D01*
X0023840Y0056013D01*
X0026340Y0053513D01*
X0031340Y0053513D01*
X0033840Y0056013D01*
X0036340Y0053513D01*
X0041340Y0053513D01*
X0043840Y0056013D01*
X0046340Y0053513D01*
X0051340Y0053513D01*
X0053840Y0056013D01*
X0053840Y0061013D01*
X0051340Y0063513D01*
X0051340Y0037076D02*
X0046340Y0037076D01*
X0043840Y0034576D01*
X0041340Y0037076D01*
X0036340Y0037076D01*
X0033840Y0034576D01*
X0031340Y0037076D01*
X0026340Y0037076D01*
X0023840Y0034576D01*
X0021340Y0037076D01*
X0016340Y0037076D01*
X0013840Y0034576D01*
X0013840Y0029576D01*
X0016340Y0027076D01*
X0021340Y0027076D01*
X0023840Y0029576D01*
X0026340Y0027076D01*
X0031340Y0027076D01*
X0033840Y0029576D01*
X0036340Y0027076D01*
X0041340Y0027076D01*
X0043840Y0029576D01*
X0046340Y0027076D01*
X0051340Y0027076D01*
X0053840Y0029576D01*
X0053840Y0034576D01*
X0051340Y0037076D01*
X0154008Y0037204D02*
X0154008Y0042204D01*
X0156508Y0044704D01*
X0161508Y0044704D01*
X0164008Y0042204D01*
X0164008Y0037204D01*
X0161508Y0034704D01*
X0164008Y0032204D01*
X0164008Y0027204D01*
X0161508Y0024704D01*
X0156508Y0024704D01*
X0154008Y0027204D01*
X0154008Y0032204D01*
X0156508Y0034704D01*
X0154008Y0037204D01*
X0156340Y0044576D02*
X0153840Y0047076D01*
X0153840Y0052076D01*
X0156340Y0054576D01*
X0153840Y0057076D01*
X0153840Y0062076D01*
X0156340Y0064576D01*
X0153840Y0067076D01*
X0153840Y0072076D01*
X0156340Y0074576D01*
X0153840Y0077076D01*
X0153840Y0082076D01*
X0156340Y0084576D01*
X0153840Y0087076D01*
X0153840Y0092076D01*
X0156340Y0094576D01*
X0153840Y0097076D01*
X0153840Y0102076D01*
X0156340Y0104576D01*
X0153840Y0107076D01*
X0153840Y0112076D01*
X0156340Y0114576D01*
X0153840Y0117076D01*
X0153840Y0122076D01*
X0156340Y0124576D01*
X0161340Y0124576D01*
X0163840Y0122076D01*
X0163840Y0117076D01*
X0161340Y0114576D01*
X0163840Y0112076D01*
X0163840Y0107076D01*
X0161340Y0104576D01*
X0163840Y0102076D01*
X0163840Y0097076D01*
X0161340Y0094576D01*
X0163840Y0092076D01*
X0163840Y0087076D01*
X0161340Y0084576D01*
X0163840Y0082076D01*
X0163840Y0077076D01*
X0161340Y0074576D01*
X0163840Y0072076D01*
X0163840Y0067076D01*
X0161340Y0064576D01*
X0163840Y0062076D01*
X0163840Y0057076D01*
X0161340Y0054576D01*
X0163840Y0052076D01*
X0163840Y0047076D01*
X0161340Y0044576D01*
X0156340Y0044576D01*
X0163840Y0047076D02*
X0166340Y0044576D01*
X0171340Y0044576D01*
X0173840Y0047076D01*
X0173840Y0052076D01*
X0171340Y0054576D01*
X0173840Y0057076D01*
X0173840Y0062076D01*
X0171340Y0064576D01*
X0173840Y0067076D01*
X0173840Y0072076D01*
X0171340Y0074576D01*
X0173840Y0077076D01*
X0173840Y0082076D01*
X0171340Y0084576D01*
X0173840Y0087076D01*
X0173840Y0092076D01*
X0171340Y0094576D01*
X0173840Y0097076D01*
X0173840Y0102076D01*
X0171340Y0104576D01*
X0173840Y0107076D01*
X0173840Y0112076D01*
X0171340Y0114576D01*
X0173840Y0117076D01*
X0173840Y0122076D01*
X0171340Y0124576D01*
X0166340Y0124576D01*
X0163840Y0122076D01*
X0163840Y0117076D01*
X0166340Y0114576D01*
X0163840Y0112076D01*
X0163840Y0107076D01*
X0166340Y0104576D01*
X0163840Y0102076D01*
X0163840Y0097076D01*
X0166340Y0094576D01*
X0163840Y0092076D01*
X0163840Y0087076D01*
X0166340Y0084576D01*
X0163840Y0082076D01*
X0163840Y0077076D01*
X0166340Y0074576D01*
X0163840Y0072076D01*
X0163840Y0067076D01*
X0166340Y0064576D01*
X0163840Y0062076D01*
X0163840Y0057076D01*
X0166340Y0054576D01*
X0163840Y0052076D01*
X0163840Y0047076D01*
X0166636Y0044610D02*
X0164136Y0042110D01*
X0164136Y0037110D01*
X0166636Y0034610D01*
X0164136Y0032110D01*
X0164136Y0027110D01*
X0166636Y0024610D01*
X0171636Y0024610D01*
X0174136Y0027110D01*
X0174136Y0032110D01*
X0171636Y0034610D01*
X0174136Y0037110D01*
X0174136Y0042110D01*
X0171636Y0044610D01*
X0166636Y0044610D01*
X0173840Y0047076D02*
X0173840Y0052076D01*
X0176340Y0054576D01*
X0173840Y0057076D01*
X0173840Y0062076D01*
X0176340Y0064576D01*
X0173840Y0067076D01*
X0173840Y0072076D01*
X0176340Y0074576D01*
X0173840Y0077076D01*
X0173840Y0082076D01*
X0176340Y0084576D01*
X0173840Y0087076D01*
X0173840Y0092076D01*
X0176340Y0094576D01*
X0173840Y0097076D01*
X0173840Y0102076D01*
X0176340Y0104576D01*
X0173840Y0107076D01*
X0173840Y0112076D01*
X0176340Y0114576D01*
X0173840Y0117076D01*
X0173840Y0122076D01*
X0176340Y0124576D01*
X0181340Y0124576D01*
X0183840Y0122076D01*
X0183840Y0117076D01*
X0181340Y0114576D01*
X0183840Y0112076D01*
X0183840Y0107076D01*
X0181340Y0104576D01*
X0183840Y0102076D01*
X0183840Y0097076D01*
X0181340Y0094576D01*
X0183840Y0092076D01*
X0183840Y0087076D01*
X0181340Y0084576D01*
X0183840Y0082076D01*
X0183840Y0077076D01*
X0181340Y0074576D01*
X0183840Y0072076D01*
X0183840Y0067076D01*
X0181340Y0064576D01*
X0183840Y0062076D01*
X0183840Y0057076D01*
X0181340Y0054576D01*
X0183840Y0052076D01*
X0183840Y0047076D01*
X0181340Y0044576D01*
X0176340Y0044576D01*
X0173840Y0047076D01*
X0176646Y0044492D02*
X0174146Y0041992D01*
X0174146Y0036992D01*
X0176646Y0034492D01*
X0174146Y0031992D01*
X0174146Y0026992D01*
X0176646Y0024492D01*
X0181646Y0024492D01*
X0184146Y0026992D01*
X0184146Y0031992D01*
X0181646Y0034492D01*
X0184146Y0036992D01*
X0184146Y0041992D01*
X0181646Y0044492D01*
X0176646Y0044492D01*
X0140277Y0184576D02*
X0135277Y0184576D01*
X0132777Y0187076D01*
X0130277Y0184576D01*
X0125277Y0184576D01*
X0122777Y0187076D01*
X0122777Y0192076D01*
X0125277Y0194576D01*
X0130277Y0194576D01*
X0132777Y0192076D01*
X0135277Y0194576D01*
X0140277Y0194576D01*
X0142777Y0192076D01*
X0142777Y0187076D01*
X0140277Y0184576D01*
M02*
