G75*
%MOIN*%
%OFA0B0*%
%FSLAX25Y25*%
%IPPOS*%
%LPD*%
%AMOC8*
5,1,8,0,0,1.08239X$1,22.5*
%
%ADD10C,0.00000*%
%ADD11C,0.11424*%
%ADD12C,0.01000*%
%ADD13R,0.05715X0.05715*%
%ADD14C,0.05715*%
%ADD15C,0.07900*%
%ADD16R,0.08400X0.08400*%
%ADD17C,0.08400*%
%ADD18C,0.05550*%
%ADD19C,0.07800*%
%ADD20OC8,0.07800*%
%ADD21R,0.07800X0.07800*%
D10*
X0112531Y0165186D02*
X0112533Y0165334D01*
X0112539Y0165482D01*
X0112549Y0165630D01*
X0112563Y0165777D01*
X0112581Y0165924D01*
X0112602Y0166070D01*
X0112628Y0166216D01*
X0112658Y0166361D01*
X0112691Y0166505D01*
X0112729Y0166648D01*
X0112770Y0166790D01*
X0112815Y0166931D01*
X0112863Y0167071D01*
X0112916Y0167210D01*
X0112972Y0167347D01*
X0113032Y0167482D01*
X0113095Y0167616D01*
X0113162Y0167748D01*
X0113233Y0167878D01*
X0113307Y0168006D01*
X0113384Y0168132D01*
X0113465Y0168256D01*
X0113549Y0168378D01*
X0113636Y0168497D01*
X0113727Y0168614D01*
X0113821Y0168729D01*
X0113917Y0168841D01*
X0114017Y0168951D01*
X0114119Y0169057D01*
X0114225Y0169161D01*
X0114333Y0169262D01*
X0114444Y0169360D01*
X0114557Y0169456D01*
X0114673Y0169548D01*
X0114791Y0169637D01*
X0114912Y0169722D01*
X0115035Y0169805D01*
X0115160Y0169884D01*
X0115287Y0169960D01*
X0115416Y0170032D01*
X0115547Y0170101D01*
X0115680Y0170166D01*
X0115815Y0170227D01*
X0115951Y0170285D01*
X0116088Y0170340D01*
X0116227Y0170390D01*
X0116368Y0170437D01*
X0116509Y0170480D01*
X0116652Y0170520D01*
X0116796Y0170555D01*
X0116940Y0170587D01*
X0117086Y0170614D01*
X0117232Y0170638D01*
X0117379Y0170658D01*
X0117526Y0170674D01*
X0117673Y0170686D01*
X0117821Y0170694D01*
X0117969Y0170698D01*
X0118117Y0170698D01*
X0118265Y0170694D01*
X0118413Y0170686D01*
X0118560Y0170674D01*
X0118707Y0170658D01*
X0118854Y0170638D01*
X0119000Y0170614D01*
X0119146Y0170587D01*
X0119290Y0170555D01*
X0119434Y0170520D01*
X0119577Y0170480D01*
X0119718Y0170437D01*
X0119859Y0170390D01*
X0119998Y0170340D01*
X0120135Y0170285D01*
X0120271Y0170227D01*
X0120406Y0170166D01*
X0120539Y0170101D01*
X0120670Y0170032D01*
X0120799Y0169960D01*
X0120926Y0169884D01*
X0121051Y0169805D01*
X0121174Y0169722D01*
X0121295Y0169637D01*
X0121413Y0169548D01*
X0121529Y0169456D01*
X0121642Y0169360D01*
X0121753Y0169262D01*
X0121861Y0169161D01*
X0121967Y0169057D01*
X0122069Y0168951D01*
X0122169Y0168841D01*
X0122265Y0168729D01*
X0122359Y0168614D01*
X0122450Y0168497D01*
X0122537Y0168378D01*
X0122621Y0168256D01*
X0122702Y0168132D01*
X0122779Y0168006D01*
X0122853Y0167878D01*
X0122924Y0167748D01*
X0122991Y0167616D01*
X0123054Y0167482D01*
X0123114Y0167347D01*
X0123170Y0167210D01*
X0123223Y0167071D01*
X0123271Y0166931D01*
X0123316Y0166790D01*
X0123357Y0166648D01*
X0123395Y0166505D01*
X0123428Y0166361D01*
X0123458Y0166216D01*
X0123484Y0166070D01*
X0123505Y0165924D01*
X0123523Y0165777D01*
X0123537Y0165630D01*
X0123547Y0165482D01*
X0123553Y0165334D01*
X0123555Y0165186D01*
X0123553Y0165038D01*
X0123547Y0164890D01*
X0123537Y0164742D01*
X0123523Y0164595D01*
X0123505Y0164448D01*
X0123484Y0164302D01*
X0123458Y0164156D01*
X0123428Y0164011D01*
X0123395Y0163867D01*
X0123357Y0163724D01*
X0123316Y0163582D01*
X0123271Y0163441D01*
X0123223Y0163301D01*
X0123170Y0163162D01*
X0123114Y0163025D01*
X0123054Y0162890D01*
X0122991Y0162756D01*
X0122924Y0162624D01*
X0122853Y0162494D01*
X0122779Y0162366D01*
X0122702Y0162240D01*
X0122621Y0162116D01*
X0122537Y0161994D01*
X0122450Y0161875D01*
X0122359Y0161758D01*
X0122265Y0161643D01*
X0122169Y0161531D01*
X0122069Y0161421D01*
X0121967Y0161315D01*
X0121861Y0161211D01*
X0121753Y0161110D01*
X0121642Y0161012D01*
X0121529Y0160916D01*
X0121413Y0160824D01*
X0121295Y0160735D01*
X0121174Y0160650D01*
X0121051Y0160567D01*
X0120926Y0160488D01*
X0120799Y0160412D01*
X0120670Y0160340D01*
X0120539Y0160271D01*
X0120406Y0160206D01*
X0120271Y0160145D01*
X0120135Y0160087D01*
X0119998Y0160032D01*
X0119859Y0159982D01*
X0119718Y0159935D01*
X0119577Y0159892D01*
X0119434Y0159852D01*
X0119290Y0159817D01*
X0119146Y0159785D01*
X0119000Y0159758D01*
X0118854Y0159734D01*
X0118707Y0159714D01*
X0118560Y0159698D01*
X0118413Y0159686D01*
X0118265Y0159678D01*
X0118117Y0159674D01*
X0117969Y0159674D01*
X0117821Y0159678D01*
X0117673Y0159686D01*
X0117526Y0159698D01*
X0117379Y0159714D01*
X0117232Y0159734D01*
X0117086Y0159758D01*
X0116940Y0159785D01*
X0116796Y0159817D01*
X0116652Y0159852D01*
X0116509Y0159892D01*
X0116368Y0159935D01*
X0116227Y0159982D01*
X0116088Y0160032D01*
X0115951Y0160087D01*
X0115815Y0160145D01*
X0115680Y0160206D01*
X0115547Y0160271D01*
X0115416Y0160340D01*
X0115287Y0160412D01*
X0115160Y0160488D01*
X0115035Y0160567D01*
X0114912Y0160650D01*
X0114791Y0160735D01*
X0114673Y0160824D01*
X0114557Y0160916D01*
X0114444Y0161012D01*
X0114333Y0161110D01*
X0114225Y0161211D01*
X0114119Y0161315D01*
X0114017Y0161421D01*
X0113917Y0161531D01*
X0113821Y0161643D01*
X0113727Y0161758D01*
X0113636Y0161875D01*
X0113549Y0161994D01*
X0113465Y0162116D01*
X0113384Y0162240D01*
X0113307Y0162366D01*
X0113233Y0162494D01*
X0113162Y0162624D01*
X0113095Y0162756D01*
X0113032Y0162890D01*
X0112972Y0163025D01*
X0112916Y0163162D01*
X0112863Y0163301D01*
X0112815Y0163441D01*
X0112770Y0163582D01*
X0112729Y0163724D01*
X0112691Y0163867D01*
X0112658Y0164011D01*
X0112628Y0164156D01*
X0112602Y0164302D01*
X0112581Y0164448D01*
X0112563Y0164595D01*
X0112549Y0164742D01*
X0112539Y0164890D01*
X0112533Y0165038D01*
X0112531Y0165186D01*
X0112531Y0342351D02*
X0112533Y0342499D01*
X0112539Y0342647D01*
X0112549Y0342795D01*
X0112563Y0342942D01*
X0112581Y0343089D01*
X0112602Y0343235D01*
X0112628Y0343381D01*
X0112658Y0343526D01*
X0112691Y0343670D01*
X0112729Y0343813D01*
X0112770Y0343955D01*
X0112815Y0344096D01*
X0112863Y0344236D01*
X0112916Y0344375D01*
X0112972Y0344512D01*
X0113032Y0344647D01*
X0113095Y0344781D01*
X0113162Y0344913D01*
X0113233Y0345043D01*
X0113307Y0345171D01*
X0113384Y0345297D01*
X0113465Y0345421D01*
X0113549Y0345543D01*
X0113636Y0345662D01*
X0113727Y0345779D01*
X0113821Y0345894D01*
X0113917Y0346006D01*
X0114017Y0346116D01*
X0114119Y0346222D01*
X0114225Y0346326D01*
X0114333Y0346427D01*
X0114444Y0346525D01*
X0114557Y0346621D01*
X0114673Y0346713D01*
X0114791Y0346802D01*
X0114912Y0346887D01*
X0115035Y0346970D01*
X0115160Y0347049D01*
X0115287Y0347125D01*
X0115416Y0347197D01*
X0115547Y0347266D01*
X0115680Y0347331D01*
X0115815Y0347392D01*
X0115951Y0347450D01*
X0116088Y0347505D01*
X0116227Y0347555D01*
X0116368Y0347602D01*
X0116509Y0347645D01*
X0116652Y0347685D01*
X0116796Y0347720D01*
X0116940Y0347752D01*
X0117086Y0347779D01*
X0117232Y0347803D01*
X0117379Y0347823D01*
X0117526Y0347839D01*
X0117673Y0347851D01*
X0117821Y0347859D01*
X0117969Y0347863D01*
X0118117Y0347863D01*
X0118265Y0347859D01*
X0118413Y0347851D01*
X0118560Y0347839D01*
X0118707Y0347823D01*
X0118854Y0347803D01*
X0119000Y0347779D01*
X0119146Y0347752D01*
X0119290Y0347720D01*
X0119434Y0347685D01*
X0119577Y0347645D01*
X0119718Y0347602D01*
X0119859Y0347555D01*
X0119998Y0347505D01*
X0120135Y0347450D01*
X0120271Y0347392D01*
X0120406Y0347331D01*
X0120539Y0347266D01*
X0120670Y0347197D01*
X0120799Y0347125D01*
X0120926Y0347049D01*
X0121051Y0346970D01*
X0121174Y0346887D01*
X0121295Y0346802D01*
X0121413Y0346713D01*
X0121529Y0346621D01*
X0121642Y0346525D01*
X0121753Y0346427D01*
X0121861Y0346326D01*
X0121967Y0346222D01*
X0122069Y0346116D01*
X0122169Y0346006D01*
X0122265Y0345894D01*
X0122359Y0345779D01*
X0122450Y0345662D01*
X0122537Y0345543D01*
X0122621Y0345421D01*
X0122702Y0345297D01*
X0122779Y0345171D01*
X0122853Y0345043D01*
X0122924Y0344913D01*
X0122991Y0344781D01*
X0123054Y0344647D01*
X0123114Y0344512D01*
X0123170Y0344375D01*
X0123223Y0344236D01*
X0123271Y0344096D01*
X0123316Y0343955D01*
X0123357Y0343813D01*
X0123395Y0343670D01*
X0123428Y0343526D01*
X0123458Y0343381D01*
X0123484Y0343235D01*
X0123505Y0343089D01*
X0123523Y0342942D01*
X0123537Y0342795D01*
X0123547Y0342647D01*
X0123553Y0342499D01*
X0123555Y0342351D01*
X0123553Y0342203D01*
X0123547Y0342055D01*
X0123537Y0341907D01*
X0123523Y0341760D01*
X0123505Y0341613D01*
X0123484Y0341467D01*
X0123458Y0341321D01*
X0123428Y0341176D01*
X0123395Y0341032D01*
X0123357Y0340889D01*
X0123316Y0340747D01*
X0123271Y0340606D01*
X0123223Y0340466D01*
X0123170Y0340327D01*
X0123114Y0340190D01*
X0123054Y0340055D01*
X0122991Y0339921D01*
X0122924Y0339789D01*
X0122853Y0339659D01*
X0122779Y0339531D01*
X0122702Y0339405D01*
X0122621Y0339281D01*
X0122537Y0339159D01*
X0122450Y0339040D01*
X0122359Y0338923D01*
X0122265Y0338808D01*
X0122169Y0338696D01*
X0122069Y0338586D01*
X0121967Y0338480D01*
X0121861Y0338376D01*
X0121753Y0338275D01*
X0121642Y0338177D01*
X0121529Y0338081D01*
X0121413Y0337989D01*
X0121295Y0337900D01*
X0121174Y0337815D01*
X0121051Y0337732D01*
X0120926Y0337653D01*
X0120799Y0337577D01*
X0120670Y0337505D01*
X0120539Y0337436D01*
X0120406Y0337371D01*
X0120271Y0337310D01*
X0120135Y0337252D01*
X0119998Y0337197D01*
X0119859Y0337147D01*
X0119718Y0337100D01*
X0119577Y0337057D01*
X0119434Y0337017D01*
X0119290Y0336982D01*
X0119146Y0336950D01*
X0119000Y0336923D01*
X0118854Y0336899D01*
X0118707Y0336879D01*
X0118560Y0336863D01*
X0118413Y0336851D01*
X0118265Y0336843D01*
X0118117Y0336839D01*
X0117969Y0336839D01*
X0117821Y0336843D01*
X0117673Y0336851D01*
X0117526Y0336863D01*
X0117379Y0336879D01*
X0117232Y0336899D01*
X0117086Y0336923D01*
X0116940Y0336950D01*
X0116796Y0336982D01*
X0116652Y0337017D01*
X0116509Y0337057D01*
X0116368Y0337100D01*
X0116227Y0337147D01*
X0116088Y0337197D01*
X0115951Y0337252D01*
X0115815Y0337310D01*
X0115680Y0337371D01*
X0115547Y0337436D01*
X0115416Y0337505D01*
X0115287Y0337577D01*
X0115160Y0337653D01*
X0115035Y0337732D01*
X0114912Y0337815D01*
X0114791Y0337900D01*
X0114673Y0337989D01*
X0114557Y0338081D01*
X0114444Y0338177D01*
X0114333Y0338275D01*
X0114225Y0338376D01*
X0114119Y0338480D01*
X0114017Y0338586D01*
X0113917Y0338696D01*
X0113821Y0338808D01*
X0113727Y0338923D01*
X0113636Y0339040D01*
X0113549Y0339159D01*
X0113465Y0339281D01*
X0113384Y0339405D01*
X0113307Y0339531D01*
X0113233Y0339659D01*
X0113162Y0339789D01*
X0113095Y0339921D01*
X0113032Y0340055D01*
X0112972Y0340190D01*
X0112916Y0340327D01*
X0112863Y0340466D01*
X0112815Y0340606D01*
X0112770Y0340747D01*
X0112729Y0340889D01*
X0112691Y0341032D01*
X0112658Y0341176D01*
X0112628Y0341321D01*
X0112602Y0341467D01*
X0112581Y0341613D01*
X0112563Y0341760D01*
X0112549Y0341907D01*
X0112539Y0342055D01*
X0112533Y0342203D01*
X0112531Y0342351D01*
X0112531Y0362036D02*
X0112533Y0362184D01*
X0112539Y0362332D01*
X0112549Y0362480D01*
X0112563Y0362627D01*
X0112581Y0362774D01*
X0112602Y0362920D01*
X0112628Y0363066D01*
X0112658Y0363211D01*
X0112691Y0363355D01*
X0112729Y0363498D01*
X0112770Y0363640D01*
X0112815Y0363781D01*
X0112863Y0363921D01*
X0112916Y0364060D01*
X0112972Y0364197D01*
X0113032Y0364332D01*
X0113095Y0364466D01*
X0113162Y0364598D01*
X0113233Y0364728D01*
X0113307Y0364856D01*
X0113384Y0364982D01*
X0113465Y0365106D01*
X0113549Y0365228D01*
X0113636Y0365347D01*
X0113727Y0365464D01*
X0113821Y0365579D01*
X0113917Y0365691D01*
X0114017Y0365801D01*
X0114119Y0365907D01*
X0114225Y0366011D01*
X0114333Y0366112D01*
X0114444Y0366210D01*
X0114557Y0366306D01*
X0114673Y0366398D01*
X0114791Y0366487D01*
X0114912Y0366572D01*
X0115035Y0366655D01*
X0115160Y0366734D01*
X0115287Y0366810D01*
X0115416Y0366882D01*
X0115547Y0366951D01*
X0115680Y0367016D01*
X0115815Y0367077D01*
X0115951Y0367135D01*
X0116088Y0367190D01*
X0116227Y0367240D01*
X0116368Y0367287D01*
X0116509Y0367330D01*
X0116652Y0367370D01*
X0116796Y0367405D01*
X0116940Y0367437D01*
X0117086Y0367464D01*
X0117232Y0367488D01*
X0117379Y0367508D01*
X0117526Y0367524D01*
X0117673Y0367536D01*
X0117821Y0367544D01*
X0117969Y0367548D01*
X0118117Y0367548D01*
X0118265Y0367544D01*
X0118413Y0367536D01*
X0118560Y0367524D01*
X0118707Y0367508D01*
X0118854Y0367488D01*
X0119000Y0367464D01*
X0119146Y0367437D01*
X0119290Y0367405D01*
X0119434Y0367370D01*
X0119577Y0367330D01*
X0119718Y0367287D01*
X0119859Y0367240D01*
X0119998Y0367190D01*
X0120135Y0367135D01*
X0120271Y0367077D01*
X0120406Y0367016D01*
X0120539Y0366951D01*
X0120670Y0366882D01*
X0120799Y0366810D01*
X0120926Y0366734D01*
X0121051Y0366655D01*
X0121174Y0366572D01*
X0121295Y0366487D01*
X0121413Y0366398D01*
X0121529Y0366306D01*
X0121642Y0366210D01*
X0121753Y0366112D01*
X0121861Y0366011D01*
X0121967Y0365907D01*
X0122069Y0365801D01*
X0122169Y0365691D01*
X0122265Y0365579D01*
X0122359Y0365464D01*
X0122450Y0365347D01*
X0122537Y0365228D01*
X0122621Y0365106D01*
X0122702Y0364982D01*
X0122779Y0364856D01*
X0122853Y0364728D01*
X0122924Y0364598D01*
X0122991Y0364466D01*
X0123054Y0364332D01*
X0123114Y0364197D01*
X0123170Y0364060D01*
X0123223Y0363921D01*
X0123271Y0363781D01*
X0123316Y0363640D01*
X0123357Y0363498D01*
X0123395Y0363355D01*
X0123428Y0363211D01*
X0123458Y0363066D01*
X0123484Y0362920D01*
X0123505Y0362774D01*
X0123523Y0362627D01*
X0123537Y0362480D01*
X0123547Y0362332D01*
X0123553Y0362184D01*
X0123555Y0362036D01*
X0123553Y0361888D01*
X0123547Y0361740D01*
X0123537Y0361592D01*
X0123523Y0361445D01*
X0123505Y0361298D01*
X0123484Y0361152D01*
X0123458Y0361006D01*
X0123428Y0360861D01*
X0123395Y0360717D01*
X0123357Y0360574D01*
X0123316Y0360432D01*
X0123271Y0360291D01*
X0123223Y0360151D01*
X0123170Y0360012D01*
X0123114Y0359875D01*
X0123054Y0359740D01*
X0122991Y0359606D01*
X0122924Y0359474D01*
X0122853Y0359344D01*
X0122779Y0359216D01*
X0122702Y0359090D01*
X0122621Y0358966D01*
X0122537Y0358844D01*
X0122450Y0358725D01*
X0122359Y0358608D01*
X0122265Y0358493D01*
X0122169Y0358381D01*
X0122069Y0358271D01*
X0121967Y0358165D01*
X0121861Y0358061D01*
X0121753Y0357960D01*
X0121642Y0357862D01*
X0121529Y0357766D01*
X0121413Y0357674D01*
X0121295Y0357585D01*
X0121174Y0357500D01*
X0121051Y0357417D01*
X0120926Y0357338D01*
X0120799Y0357262D01*
X0120670Y0357190D01*
X0120539Y0357121D01*
X0120406Y0357056D01*
X0120271Y0356995D01*
X0120135Y0356937D01*
X0119998Y0356882D01*
X0119859Y0356832D01*
X0119718Y0356785D01*
X0119577Y0356742D01*
X0119434Y0356702D01*
X0119290Y0356667D01*
X0119146Y0356635D01*
X0119000Y0356608D01*
X0118854Y0356584D01*
X0118707Y0356564D01*
X0118560Y0356548D01*
X0118413Y0356536D01*
X0118265Y0356528D01*
X0118117Y0356524D01*
X0117969Y0356524D01*
X0117821Y0356528D01*
X0117673Y0356536D01*
X0117526Y0356548D01*
X0117379Y0356564D01*
X0117232Y0356584D01*
X0117086Y0356608D01*
X0116940Y0356635D01*
X0116796Y0356667D01*
X0116652Y0356702D01*
X0116509Y0356742D01*
X0116368Y0356785D01*
X0116227Y0356832D01*
X0116088Y0356882D01*
X0115951Y0356937D01*
X0115815Y0356995D01*
X0115680Y0357056D01*
X0115547Y0357121D01*
X0115416Y0357190D01*
X0115287Y0357262D01*
X0115160Y0357338D01*
X0115035Y0357417D01*
X0114912Y0357500D01*
X0114791Y0357585D01*
X0114673Y0357674D01*
X0114557Y0357766D01*
X0114444Y0357862D01*
X0114333Y0357960D01*
X0114225Y0358061D01*
X0114119Y0358165D01*
X0114017Y0358271D01*
X0113917Y0358381D01*
X0113821Y0358493D01*
X0113727Y0358608D01*
X0113636Y0358725D01*
X0113549Y0358844D01*
X0113465Y0358966D01*
X0113384Y0359090D01*
X0113307Y0359216D01*
X0113233Y0359344D01*
X0113162Y0359474D01*
X0113095Y0359606D01*
X0113032Y0359740D01*
X0112972Y0359875D01*
X0112916Y0360012D01*
X0112863Y0360151D01*
X0112815Y0360291D01*
X0112770Y0360432D01*
X0112729Y0360574D01*
X0112691Y0360717D01*
X0112658Y0360861D01*
X0112628Y0361006D01*
X0112602Y0361152D01*
X0112581Y0361298D01*
X0112563Y0361445D01*
X0112549Y0361592D01*
X0112539Y0361740D01*
X0112533Y0361888D01*
X0112531Y0362036D01*
X0112531Y0539202D02*
X0112533Y0539350D01*
X0112539Y0539498D01*
X0112549Y0539646D01*
X0112563Y0539793D01*
X0112581Y0539940D01*
X0112602Y0540086D01*
X0112628Y0540232D01*
X0112658Y0540377D01*
X0112691Y0540521D01*
X0112729Y0540664D01*
X0112770Y0540806D01*
X0112815Y0540947D01*
X0112863Y0541087D01*
X0112916Y0541226D01*
X0112972Y0541363D01*
X0113032Y0541498D01*
X0113095Y0541632D01*
X0113162Y0541764D01*
X0113233Y0541894D01*
X0113307Y0542022D01*
X0113384Y0542148D01*
X0113465Y0542272D01*
X0113549Y0542394D01*
X0113636Y0542513D01*
X0113727Y0542630D01*
X0113821Y0542745D01*
X0113917Y0542857D01*
X0114017Y0542967D01*
X0114119Y0543073D01*
X0114225Y0543177D01*
X0114333Y0543278D01*
X0114444Y0543376D01*
X0114557Y0543472D01*
X0114673Y0543564D01*
X0114791Y0543653D01*
X0114912Y0543738D01*
X0115035Y0543821D01*
X0115160Y0543900D01*
X0115287Y0543976D01*
X0115416Y0544048D01*
X0115547Y0544117D01*
X0115680Y0544182D01*
X0115815Y0544243D01*
X0115951Y0544301D01*
X0116088Y0544356D01*
X0116227Y0544406D01*
X0116368Y0544453D01*
X0116509Y0544496D01*
X0116652Y0544536D01*
X0116796Y0544571D01*
X0116940Y0544603D01*
X0117086Y0544630D01*
X0117232Y0544654D01*
X0117379Y0544674D01*
X0117526Y0544690D01*
X0117673Y0544702D01*
X0117821Y0544710D01*
X0117969Y0544714D01*
X0118117Y0544714D01*
X0118265Y0544710D01*
X0118413Y0544702D01*
X0118560Y0544690D01*
X0118707Y0544674D01*
X0118854Y0544654D01*
X0119000Y0544630D01*
X0119146Y0544603D01*
X0119290Y0544571D01*
X0119434Y0544536D01*
X0119577Y0544496D01*
X0119718Y0544453D01*
X0119859Y0544406D01*
X0119998Y0544356D01*
X0120135Y0544301D01*
X0120271Y0544243D01*
X0120406Y0544182D01*
X0120539Y0544117D01*
X0120670Y0544048D01*
X0120799Y0543976D01*
X0120926Y0543900D01*
X0121051Y0543821D01*
X0121174Y0543738D01*
X0121295Y0543653D01*
X0121413Y0543564D01*
X0121529Y0543472D01*
X0121642Y0543376D01*
X0121753Y0543278D01*
X0121861Y0543177D01*
X0121967Y0543073D01*
X0122069Y0542967D01*
X0122169Y0542857D01*
X0122265Y0542745D01*
X0122359Y0542630D01*
X0122450Y0542513D01*
X0122537Y0542394D01*
X0122621Y0542272D01*
X0122702Y0542148D01*
X0122779Y0542022D01*
X0122853Y0541894D01*
X0122924Y0541764D01*
X0122991Y0541632D01*
X0123054Y0541498D01*
X0123114Y0541363D01*
X0123170Y0541226D01*
X0123223Y0541087D01*
X0123271Y0540947D01*
X0123316Y0540806D01*
X0123357Y0540664D01*
X0123395Y0540521D01*
X0123428Y0540377D01*
X0123458Y0540232D01*
X0123484Y0540086D01*
X0123505Y0539940D01*
X0123523Y0539793D01*
X0123537Y0539646D01*
X0123547Y0539498D01*
X0123553Y0539350D01*
X0123555Y0539202D01*
X0123553Y0539054D01*
X0123547Y0538906D01*
X0123537Y0538758D01*
X0123523Y0538611D01*
X0123505Y0538464D01*
X0123484Y0538318D01*
X0123458Y0538172D01*
X0123428Y0538027D01*
X0123395Y0537883D01*
X0123357Y0537740D01*
X0123316Y0537598D01*
X0123271Y0537457D01*
X0123223Y0537317D01*
X0123170Y0537178D01*
X0123114Y0537041D01*
X0123054Y0536906D01*
X0122991Y0536772D01*
X0122924Y0536640D01*
X0122853Y0536510D01*
X0122779Y0536382D01*
X0122702Y0536256D01*
X0122621Y0536132D01*
X0122537Y0536010D01*
X0122450Y0535891D01*
X0122359Y0535774D01*
X0122265Y0535659D01*
X0122169Y0535547D01*
X0122069Y0535437D01*
X0121967Y0535331D01*
X0121861Y0535227D01*
X0121753Y0535126D01*
X0121642Y0535028D01*
X0121529Y0534932D01*
X0121413Y0534840D01*
X0121295Y0534751D01*
X0121174Y0534666D01*
X0121051Y0534583D01*
X0120926Y0534504D01*
X0120799Y0534428D01*
X0120670Y0534356D01*
X0120539Y0534287D01*
X0120406Y0534222D01*
X0120271Y0534161D01*
X0120135Y0534103D01*
X0119998Y0534048D01*
X0119859Y0533998D01*
X0119718Y0533951D01*
X0119577Y0533908D01*
X0119434Y0533868D01*
X0119290Y0533833D01*
X0119146Y0533801D01*
X0119000Y0533774D01*
X0118854Y0533750D01*
X0118707Y0533730D01*
X0118560Y0533714D01*
X0118413Y0533702D01*
X0118265Y0533694D01*
X0118117Y0533690D01*
X0117969Y0533690D01*
X0117821Y0533694D01*
X0117673Y0533702D01*
X0117526Y0533714D01*
X0117379Y0533730D01*
X0117232Y0533750D01*
X0117086Y0533774D01*
X0116940Y0533801D01*
X0116796Y0533833D01*
X0116652Y0533868D01*
X0116509Y0533908D01*
X0116368Y0533951D01*
X0116227Y0533998D01*
X0116088Y0534048D01*
X0115951Y0534103D01*
X0115815Y0534161D01*
X0115680Y0534222D01*
X0115547Y0534287D01*
X0115416Y0534356D01*
X0115287Y0534428D01*
X0115160Y0534504D01*
X0115035Y0534583D01*
X0114912Y0534666D01*
X0114791Y0534751D01*
X0114673Y0534840D01*
X0114557Y0534932D01*
X0114444Y0535028D01*
X0114333Y0535126D01*
X0114225Y0535227D01*
X0114119Y0535331D01*
X0114017Y0535437D01*
X0113917Y0535547D01*
X0113821Y0535659D01*
X0113727Y0535774D01*
X0113636Y0535891D01*
X0113549Y0536010D01*
X0113465Y0536132D01*
X0113384Y0536256D01*
X0113307Y0536382D01*
X0113233Y0536510D01*
X0113162Y0536640D01*
X0113095Y0536772D01*
X0113032Y0536906D01*
X0112972Y0537041D01*
X0112916Y0537178D01*
X0112863Y0537317D01*
X0112815Y0537457D01*
X0112770Y0537598D01*
X0112729Y0537740D01*
X0112691Y0537883D01*
X0112658Y0538027D01*
X0112628Y0538172D01*
X0112602Y0538318D01*
X0112581Y0538464D01*
X0112563Y0538611D01*
X0112549Y0538758D01*
X0112539Y0538906D01*
X0112533Y0539054D01*
X0112531Y0539202D01*
X0289696Y0539202D02*
X0289698Y0539350D01*
X0289704Y0539498D01*
X0289714Y0539646D01*
X0289728Y0539793D01*
X0289746Y0539940D01*
X0289767Y0540086D01*
X0289793Y0540232D01*
X0289823Y0540377D01*
X0289856Y0540521D01*
X0289894Y0540664D01*
X0289935Y0540806D01*
X0289980Y0540947D01*
X0290028Y0541087D01*
X0290081Y0541226D01*
X0290137Y0541363D01*
X0290197Y0541498D01*
X0290260Y0541632D01*
X0290327Y0541764D01*
X0290398Y0541894D01*
X0290472Y0542022D01*
X0290549Y0542148D01*
X0290630Y0542272D01*
X0290714Y0542394D01*
X0290801Y0542513D01*
X0290892Y0542630D01*
X0290986Y0542745D01*
X0291082Y0542857D01*
X0291182Y0542967D01*
X0291284Y0543073D01*
X0291390Y0543177D01*
X0291498Y0543278D01*
X0291609Y0543376D01*
X0291722Y0543472D01*
X0291838Y0543564D01*
X0291956Y0543653D01*
X0292077Y0543738D01*
X0292200Y0543821D01*
X0292325Y0543900D01*
X0292452Y0543976D01*
X0292581Y0544048D01*
X0292712Y0544117D01*
X0292845Y0544182D01*
X0292980Y0544243D01*
X0293116Y0544301D01*
X0293253Y0544356D01*
X0293392Y0544406D01*
X0293533Y0544453D01*
X0293674Y0544496D01*
X0293817Y0544536D01*
X0293961Y0544571D01*
X0294105Y0544603D01*
X0294251Y0544630D01*
X0294397Y0544654D01*
X0294544Y0544674D01*
X0294691Y0544690D01*
X0294838Y0544702D01*
X0294986Y0544710D01*
X0295134Y0544714D01*
X0295282Y0544714D01*
X0295430Y0544710D01*
X0295578Y0544702D01*
X0295725Y0544690D01*
X0295872Y0544674D01*
X0296019Y0544654D01*
X0296165Y0544630D01*
X0296311Y0544603D01*
X0296455Y0544571D01*
X0296599Y0544536D01*
X0296742Y0544496D01*
X0296883Y0544453D01*
X0297024Y0544406D01*
X0297163Y0544356D01*
X0297300Y0544301D01*
X0297436Y0544243D01*
X0297571Y0544182D01*
X0297704Y0544117D01*
X0297835Y0544048D01*
X0297964Y0543976D01*
X0298091Y0543900D01*
X0298216Y0543821D01*
X0298339Y0543738D01*
X0298460Y0543653D01*
X0298578Y0543564D01*
X0298694Y0543472D01*
X0298807Y0543376D01*
X0298918Y0543278D01*
X0299026Y0543177D01*
X0299132Y0543073D01*
X0299234Y0542967D01*
X0299334Y0542857D01*
X0299430Y0542745D01*
X0299524Y0542630D01*
X0299615Y0542513D01*
X0299702Y0542394D01*
X0299786Y0542272D01*
X0299867Y0542148D01*
X0299944Y0542022D01*
X0300018Y0541894D01*
X0300089Y0541764D01*
X0300156Y0541632D01*
X0300219Y0541498D01*
X0300279Y0541363D01*
X0300335Y0541226D01*
X0300388Y0541087D01*
X0300436Y0540947D01*
X0300481Y0540806D01*
X0300522Y0540664D01*
X0300560Y0540521D01*
X0300593Y0540377D01*
X0300623Y0540232D01*
X0300649Y0540086D01*
X0300670Y0539940D01*
X0300688Y0539793D01*
X0300702Y0539646D01*
X0300712Y0539498D01*
X0300718Y0539350D01*
X0300720Y0539202D01*
X0300718Y0539054D01*
X0300712Y0538906D01*
X0300702Y0538758D01*
X0300688Y0538611D01*
X0300670Y0538464D01*
X0300649Y0538318D01*
X0300623Y0538172D01*
X0300593Y0538027D01*
X0300560Y0537883D01*
X0300522Y0537740D01*
X0300481Y0537598D01*
X0300436Y0537457D01*
X0300388Y0537317D01*
X0300335Y0537178D01*
X0300279Y0537041D01*
X0300219Y0536906D01*
X0300156Y0536772D01*
X0300089Y0536640D01*
X0300018Y0536510D01*
X0299944Y0536382D01*
X0299867Y0536256D01*
X0299786Y0536132D01*
X0299702Y0536010D01*
X0299615Y0535891D01*
X0299524Y0535774D01*
X0299430Y0535659D01*
X0299334Y0535547D01*
X0299234Y0535437D01*
X0299132Y0535331D01*
X0299026Y0535227D01*
X0298918Y0535126D01*
X0298807Y0535028D01*
X0298694Y0534932D01*
X0298578Y0534840D01*
X0298460Y0534751D01*
X0298339Y0534666D01*
X0298216Y0534583D01*
X0298091Y0534504D01*
X0297964Y0534428D01*
X0297835Y0534356D01*
X0297704Y0534287D01*
X0297571Y0534222D01*
X0297436Y0534161D01*
X0297300Y0534103D01*
X0297163Y0534048D01*
X0297024Y0533998D01*
X0296883Y0533951D01*
X0296742Y0533908D01*
X0296599Y0533868D01*
X0296455Y0533833D01*
X0296311Y0533801D01*
X0296165Y0533774D01*
X0296019Y0533750D01*
X0295872Y0533730D01*
X0295725Y0533714D01*
X0295578Y0533702D01*
X0295430Y0533694D01*
X0295282Y0533690D01*
X0295134Y0533690D01*
X0294986Y0533694D01*
X0294838Y0533702D01*
X0294691Y0533714D01*
X0294544Y0533730D01*
X0294397Y0533750D01*
X0294251Y0533774D01*
X0294105Y0533801D01*
X0293961Y0533833D01*
X0293817Y0533868D01*
X0293674Y0533908D01*
X0293533Y0533951D01*
X0293392Y0533998D01*
X0293253Y0534048D01*
X0293116Y0534103D01*
X0292980Y0534161D01*
X0292845Y0534222D01*
X0292712Y0534287D01*
X0292581Y0534356D01*
X0292452Y0534428D01*
X0292325Y0534504D01*
X0292200Y0534583D01*
X0292077Y0534666D01*
X0291956Y0534751D01*
X0291838Y0534840D01*
X0291722Y0534932D01*
X0291609Y0535028D01*
X0291498Y0535126D01*
X0291390Y0535227D01*
X0291284Y0535331D01*
X0291182Y0535437D01*
X0291082Y0535547D01*
X0290986Y0535659D01*
X0290892Y0535774D01*
X0290801Y0535891D01*
X0290714Y0536010D01*
X0290630Y0536132D01*
X0290549Y0536256D01*
X0290472Y0536382D01*
X0290398Y0536510D01*
X0290327Y0536640D01*
X0290260Y0536772D01*
X0290197Y0536906D01*
X0290137Y0537041D01*
X0290081Y0537178D01*
X0290028Y0537317D01*
X0289980Y0537457D01*
X0289935Y0537598D01*
X0289894Y0537740D01*
X0289856Y0537883D01*
X0289823Y0538027D01*
X0289793Y0538172D01*
X0289767Y0538318D01*
X0289746Y0538464D01*
X0289728Y0538611D01*
X0289714Y0538758D01*
X0289704Y0538906D01*
X0289698Y0539054D01*
X0289696Y0539202D01*
X0309381Y0539202D02*
X0309383Y0539350D01*
X0309389Y0539498D01*
X0309399Y0539646D01*
X0309413Y0539793D01*
X0309431Y0539940D01*
X0309452Y0540086D01*
X0309478Y0540232D01*
X0309508Y0540377D01*
X0309541Y0540521D01*
X0309579Y0540664D01*
X0309620Y0540806D01*
X0309665Y0540947D01*
X0309713Y0541087D01*
X0309766Y0541226D01*
X0309822Y0541363D01*
X0309882Y0541498D01*
X0309945Y0541632D01*
X0310012Y0541764D01*
X0310083Y0541894D01*
X0310157Y0542022D01*
X0310234Y0542148D01*
X0310315Y0542272D01*
X0310399Y0542394D01*
X0310486Y0542513D01*
X0310577Y0542630D01*
X0310671Y0542745D01*
X0310767Y0542857D01*
X0310867Y0542967D01*
X0310969Y0543073D01*
X0311075Y0543177D01*
X0311183Y0543278D01*
X0311294Y0543376D01*
X0311407Y0543472D01*
X0311523Y0543564D01*
X0311641Y0543653D01*
X0311762Y0543738D01*
X0311885Y0543821D01*
X0312010Y0543900D01*
X0312137Y0543976D01*
X0312266Y0544048D01*
X0312397Y0544117D01*
X0312530Y0544182D01*
X0312665Y0544243D01*
X0312801Y0544301D01*
X0312938Y0544356D01*
X0313077Y0544406D01*
X0313218Y0544453D01*
X0313359Y0544496D01*
X0313502Y0544536D01*
X0313646Y0544571D01*
X0313790Y0544603D01*
X0313936Y0544630D01*
X0314082Y0544654D01*
X0314229Y0544674D01*
X0314376Y0544690D01*
X0314523Y0544702D01*
X0314671Y0544710D01*
X0314819Y0544714D01*
X0314967Y0544714D01*
X0315115Y0544710D01*
X0315263Y0544702D01*
X0315410Y0544690D01*
X0315557Y0544674D01*
X0315704Y0544654D01*
X0315850Y0544630D01*
X0315996Y0544603D01*
X0316140Y0544571D01*
X0316284Y0544536D01*
X0316427Y0544496D01*
X0316568Y0544453D01*
X0316709Y0544406D01*
X0316848Y0544356D01*
X0316985Y0544301D01*
X0317121Y0544243D01*
X0317256Y0544182D01*
X0317389Y0544117D01*
X0317520Y0544048D01*
X0317649Y0543976D01*
X0317776Y0543900D01*
X0317901Y0543821D01*
X0318024Y0543738D01*
X0318145Y0543653D01*
X0318263Y0543564D01*
X0318379Y0543472D01*
X0318492Y0543376D01*
X0318603Y0543278D01*
X0318711Y0543177D01*
X0318817Y0543073D01*
X0318919Y0542967D01*
X0319019Y0542857D01*
X0319115Y0542745D01*
X0319209Y0542630D01*
X0319300Y0542513D01*
X0319387Y0542394D01*
X0319471Y0542272D01*
X0319552Y0542148D01*
X0319629Y0542022D01*
X0319703Y0541894D01*
X0319774Y0541764D01*
X0319841Y0541632D01*
X0319904Y0541498D01*
X0319964Y0541363D01*
X0320020Y0541226D01*
X0320073Y0541087D01*
X0320121Y0540947D01*
X0320166Y0540806D01*
X0320207Y0540664D01*
X0320245Y0540521D01*
X0320278Y0540377D01*
X0320308Y0540232D01*
X0320334Y0540086D01*
X0320355Y0539940D01*
X0320373Y0539793D01*
X0320387Y0539646D01*
X0320397Y0539498D01*
X0320403Y0539350D01*
X0320405Y0539202D01*
X0320403Y0539054D01*
X0320397Y0538906D01*
X0320387Y0538758D01*
X0320373Y0538611D01*
X0320355Y0538464D01*
X0320334Y0538318D01*
X0320308Y0538172D01*
X0320278Y0538027D01*
X0320245Y0537883D01*
X0320207Y0537740D01*
X0320166Y0537598D01*
X0320121Y0537457D01*
X0320073Y0537317D01*
X0320020Y0537178D01*
X0319964Y0537041D01*
X0319904Y0536906D01*
X0319841Y0536772D01*
X0319774Y0536640D01*
X0319703Y0536510D01*
X0319629Y0536382D01*
X0319552Y0536256D01*
X0319471Y0536132D01*
X0319387Y0536010D01*
X0319300Y0535891D01*
X0319209Y0535774D01*
X0319115Y0535659D01*
X0319019Y0535547D01*
X0318919Y0535437D01*
X0318817Y0535331D01*
X0318711Y0535227D01*
X0318603Y0535126D01*
X0318492Y0535028D01*
X0318379Y0534932D01*
X0318263Y0534840D01*
X0318145Y0534751D01*
X0318024Y0534666D01*
X0317901Y0534583D01*
X0317776Y0534504D01*
X0317649Y0534428D01*
X0317520Y0534356D01*
X0317389Y0534287D01*
X0317256Y0534222D01*
X0317121Y0534161D01*
X0316985Y0534103D01*
X0316848Y0534048D01*
X0316709Y0533998D01*
X0316568Y0533951D01*
X0316427Y0533908D01*
X0316284Y0533868D01*
X0316140Y0533833D01*
X0315996Y0533801D01*
X0315850Y0533774D01*
X0315704Y0533750D01*
X0315557Y0533730D01*
X0315410Y0533714D01*
X0315263Y0533702D01*
X0315115Y0533694D01*
X0314967Y0533690D01*
X0314819Y0533690D01*
X0314671Y0533694D01*
X0314523Y0533702D01*
X0314376Y0533714D01*
X0314229Y0533730D01*
X0314082Y0533750D01*
X0313936Y0533774D01*
X0313790Y0533801D01*
X0313646Y0533833D01*
X0313502Y0533868D01*
X0313359Y0533908D01*
X0313218Y0533951D01*
X0313077Y0533998D01*
X0312938Y0534048D01*
X0312801Y0534103D01*
X0312665Y0534161D01*
X0312530Y0534222D01*
X0312397Y0534287D01*
X0312266Y0534356D01*
X0312137Y0534428D01*
X0312010Y0534504D01*
X0311885Y0534583D01*
X0311762Y0534666D01*
X0311641Y0534751D01*
X0311523Y0534840D01*
X0311407Y0534932D01*
X0311294Y0535028D01*
X0311183Y0535126D01*
X0311075Y0535227D01*
X0310969Y0535331D01*
X0310867Y0535437D01*
X0310767Y0535547D01*
X0310671Y0535659D01*
X0310577Y0535774D01*
X0310486Y0535891D01*
X0310399Y0536010D01*
X0310315Y0536132D01*
X0310234Y0536256D01*
X0310157Y0536382D01*
X0310083Y0536510D01*
X0310012Y0536640D01*
X0309945Y0536772D01*
X0309882Y0536906D01*
X0309822Y0537041D01*
X0309766Y0537178D01*
X0309713Y0537317D01*
X0309665Y0537457D01*
X0309620Y0537598D01*
X0309579Y0537740D01*
X0309541Y0537883D01*
X0309508Y0538027D01*
X0309478Y0538172D01*
X0309452Y0538318D01*
X0309431Y0538464D01*
X0309413Y0538611D01*
X0309399Y0538758D01*
X0309389Y0538906D01*
X0309383Y0539054D01*
X0309381Y0539202D01*
X0309381Y0362036D02*
X0309383Y0362184D01*
X0309389Y0362332D01*
X0309399Y0362480D01*
X0309413Y0362627D01*
X0309431Y0362774D01*
X0309452Y0362920D01*
X0309478Y0363066D01*
X0309508Y0363211D01*
X0309541Y0363355D01*
X0309579Y0363498D01*
X0309620Y0363640D01*
X0309665Y0363781D01*
X0309713Y0363921D01*
X0309766Y0364060D01*
X0309822Y0364197D01*
X0309882Y0364332D01*
X0309945Y0364466D01*
X0310012Y0364598D01*
X0310083Y0364728D01*
X0310157Y0364856D01*
X0310234Y0364982D01*
X0310315Y0365106D01*
X0310399Y0365228D01*
X0310486Y0365347D01*
X0310577Y0365464D01*
X0310671Y0365579D01*
X0310767Y0365691D01*
X0310867Y0365801D01*
X0310969Y0365907D01*
X0311075Y0366011D01*
X0311183Y0366112D01*
X0311294Y0366210D01*
X0311407Y0366306D01*
X0311523Y0366398D01*
X0311641Y0366487D01*
X0311762Y0366572D01*
X0311885Y0366655D01*
X0312010Y0366734D01*
X0312137Y0366810D01*
X0312266Y0366882D01*
X0312397Y0366951D01*
X0312530Y0367016D01*
X0312665Y0367077D01*
X0312801Y0367135D01*
X0312938Y0367190D01*
X0313077Y0367240D01*
X0313218Y0367287D01*
X0313359Y0367330D01*
X0313502Y0367370D01*
X0313646Y0367405D01*
X0313790Y0367437D01*
X0313936Y0367464D01*
X0314082Y0367488D01*
X0314229Y0367508D01*
X0314376Y0367524D01*
X0314523Y0367536D01*
X0314671Y0367544D01*
X0314819Y0367548D01*
X0314967Y0367548D01*
X0315115Y0367544D01*
X0315263Y0367536D01*
X0315410Y0367524D01*
X0315557Y0367508D01*
X0315704Y0367488D01*
X0315850Y0367464D01*
X0315996Y0367437D01*
X0316140Y0367405D01*
X0316284Y0367370D01*
X0316427Y0367330D01*
X0316568Y0367287D01*
X0316709Y0367240D01*
X0316848Y0367190D01*
X0316985Y0367135D01*
X0317121Y0367077D01*
X0317256Y0367016D01*
X0317389Y0366951D01*
X0317520Y0366882D01*
X0317649Y0366810D01*
X0317776Y0366734D01*
X0317901Y0366655D01*
X0318024Y0366572D01*
X0318145Y0366487D01*
X0318263Y0366398D01*
X0318379Y0366306D01*
X0318492Y0366210D01*
X0318603Y0366112D01*
X0318711Y0366011D01*
X0318817Y0365907D01*
X0318919Y0365801D01*
X0319019Y0365691D01*
X0319115Y0365579D01*
X0319209Y0365464D01*
X0319300Y0365347D01*
X0319387Y0365228D01*
X0319471Y0365106D01*
X0319552Y0364982D01*
X0319629Y0364856D01*
X0319703Y0364728D01*
X0319774Y0364598D01*
X0319841Y0364466D01*
X0319904Y0364332D01*
X0319964Y0364197D01*
X0320020Y0364060D01*
X0320073Y0363921D01*
X0320121Y0363781D01*
X0320166Y0363640D01*
X0320207Y0363498D01*
X0320245Y0363355D01*
X0320278Y0363211D01*
X0320308Y0363066D01*
X0320334Y0362920D01*
X0320355Y0362774D01*
X0320373Y0362627D01*
X0320387Y0362480D01*
X0320397Y0362332D01*
X0320403Y0362184D01*
X0320405Y0362036D01*
X0320403Y0361888D01*
X0320397Y0361740D01*
X0320387Y0361592D01*
X0320373Y0361445D01*
X0320355Y0361298D01*
X0320334Y0361152D01*
X0320308Y0361006D01*
X0320278Y0360861D01*
X0320245Y0360717D01*
X0320207Y0360574D01*
X0320166Y0360432D01*
X0320121Y0360291D01*
X0320073Y0360151D01*
X0320020Y0360012D01*
X0319964Y0359875D01*
X0319904Y0359740D01*
X0319841Y0359606D01*
X0319774Y0359474D01*
X0319703Y0359344D01*
X0319629Y0359216D01*
X0319552Y0359090D01*
X0319471Y0358966D01*
X0319387Y0358844D01*
X0319300Y0358725D01*
X0319209Y0358608D01*
X0319115Y0358493D01*
X0319019Y0358381D01*
X0318919Y0358271D01*
X0318817Y0358165D01*
X0318711Y0358061D01*
X0318603Y0357960D01*
X0318492Y0357862D01*
X0318379Y0357766D01*
X0318263Y0357674D01*
X0318145Y0357585D01*
X0318024Y0357500D01*
X0317901Y0357417D01*
X0317776Y0357338D01*
X0317649Y0357262D01*
X0317520Y0357190D01*
X0317389Y0357121D01*
X0317256Y0357056D01*
X0317121Y0356995D01*
X0316985Y0356937D01*
X0316848Y0356882D01*
X0316709Y0356832D01*
X0316568Y0356785D01*
X0316427Y0356742D01*
X0316284Y0356702D01*
X0316140Y0356667D01*
X0315996Y0356635D01*
X0315850Y0356608D01*
X0315704Y0356584D01*
X0315557Y0356564D01*
X0315410Y0356548D01*
X0315263Y0356536D01*
X0315115Y0356528D01*
X0314967Y0356524D01*
X0314819Y0356524D01*
X0314671Y0356528D01*
X0314523Y0356536D01*
X0314376Y0356548D01*
X0314229Y0356564D01*
X0314082Y0356584D01*
X0313936Y0356608D01*
X0313790Y0356635D01*
X0313646Y0356667D01*
X0313502Y0356702D01*
X0313359Y0356742D01*
X0313218Y0356785D01*
X0313077Y0356832D01*
X0312938Y0356882D01*
X0312801Y0356937D01*
X0312665Y0356995D01*
X0312530Y0357056D01*
X0312397Y0357121D01*
X0312266Y0357190D01*
X0312137Y0357262D01*
X0312010Y0357338D01*
X0311885Y0357417D01*
X0311762Y0357500D01*
X0311641Y0357585D01*
X0311523Y0357674D01*
X0311407Y0357766D01*
X0311294Y0357862D01*
X0311183Y0357960D01*
X0311075Y0358061D01*
X0310969Y0358165D01*
X0310867Y0358271D01*
X0310767Y0358381D01*
X0310671Y0358493D01*
X0310577Y0358608D01*
X0310486Y0358725D01*
X0310399Y0358844D01*
X0310315Y0358966D01*
X0310234Y0359090D01*
X0310157Y0359216D01*
X0310083Y0359344D01*
X0310012Y0359474D01*
X0309945Y0359606D01*
X0309882Y0359740D01*
X0309822Y0359875D01*
X0309766Y0360012D01*
X0309713Y0360151D01*
X0309665Y0360291D01*
X0309620Y0360432D01*
X0309579Y0360574D01*
X0309541Y0360717D01*
X0309508Y0360861D01*
X0309478Y0361006D01*
X0309452Y0361152D01*
X0309431Y0361298D01*
X0309413Y0361445D01*
X0309399Y0361592D01*
X0309389Y0361740D01*
X0309383Y0361888D01*
X0309381Y0362036D01*
X0289696Y0362036D02*
X0289698Y0362184D01*
X0289704Y0362332D01*
X0289714Y0362480D01*
X0289728Y0362627D01*
X0289746Y0362774D01*
X0289767Y0362920D01*
X0289793Y0363066D01*
X0289823Y0363211D01*
X0289856Y0363355D01*
X0289894Y0363498D01*
X0289935Y0363640D01*
X0289980Y0363781D01*
X0290028Y0363921D01*
X0290081Y0364060D01*
X0290137Y0364197D01*
X0290197Y0364332D01*
X0290260Y0364466D01*
X0290327Y0364598D01*
X0290398Y0364728D01*
X0290472Y0364856D01*
X0290549Y0364982D01*
X0290630Y0365106D01*
X0290714Y0365228D01*
X0290801Y0365347D01*
X0290892Y0365464D01*
X0290986Y0365579D01*
X0291082Y0365691D01*
X0291182Y0365801D01*
X0291284Y0365907D01*
X0291390Y0366011D01*
X0291498Y0366112D01*
X0291609Y0366210D01*
X0291722Y0366306D01*
X0291838Y0366398D01*
X0291956Y0366487D01*
X0292077Y0366572D01*
X0292200Y0366655D01*
X0292325Y0366734D01*
X0292452Y0366810D01*
X0292581Y0366882D01*
X0292712Y0366951D01*
X0292845Y0367016D01*
X0292980Y0367077D01*
X0293116Y0367135D01*
X0293253Y0367190D01*
X0293392Y0367240D01*
X0293533Y0367287D01*
X0293674Y0367330D01*
X0293817Y0367370D01*
X0293961Y0367405D01*
X0294105Y0367437D01*
X0294251Y0367464D01*
X0294397Y0367488D01*
X0294544Y0367508D01*
X0294691Y0367524D01*
X0294838Y0367536D01*
X0294986Y0367544D01*
X0295134Y0367548D01*
X0295282Y0367548D01*
X0295430Y0367544D01*
X0295578Y0367536D01*
X0295725Y0367524D01*
X0295872Y0367508D01*
X0296019Y0367488D01*
X0296165Y0367464D01*
X0296311Y0367437D01*
X0296455Y0367405D01*
X0296599Y0367370D01*
X0296742Y0367330D01*
X0296883Y0367287D01*
X0297024Y0367240D01*
X0297163Y0367190D01*
X0297300Y0367135D01*
X0297436Y0367077D01*
X0297571Y0367016D01*
X0297704Y0366951D01*
X0297835Y0366882D01*
X0297964Y0366810D01*
X0298091Y0366734D01*
X0298216Y0366655D01*
X0298339Y0366572D01*
X0298460Y0366487D01*
X0298578Y0366398D01*
X0298694Y0366306D01*
X0298807Y0366210D01*
X0298918Y0366112D01*
X0299026Y0366011D01*
X0299132Y0365907D01*
X0299234Y0365801D01*
X0299334Y0365691D01*
X0299430Y0365579D01*
X0299524Y0365464D01*
X0299615Y0365347D01*
X0299702Y0365228D01*
X0299786Y0365106D01*
X0299867Y0364982D01*
X0299944Y0364856D01*
X0300018Y0364728D01*
X0300089Y0364598D01*
X0300156Y0364466D01*
X0300219Y0364332D01*
X0300279Y0364197D01*
X0300335Y0364060D01*
X0300388Y0363921D01*
X0300436Y0363781D01*
X0300481Y0363640D01*
X0300522Y0363498D01*
X0300560Y0363355D01*
X0300593Y0363211D01*
X0300623Y0363066D01*
X0300649Y0362920D01*
X0300670Y0362774D01*
X0300688Y0362627D01*
X0300702Y0362480D01*
X0300712Y0362332D01*
X0300718Y0362184D01*
X0300720Y0362036D01*
X0300718Y0361888D01*
X0300712Y0361740D01*
X0300702Y0361592D01*
X0300688Y0361445D01*
X0300670Y0361298D01*
X0300649Y0361152D01*
X0300623Y0361006D01*
X0300593Y0360861D01*
X0300560Y0360717D01*
X0300522Y0360574D01*
X0300481Y0360432D01*
X0300436Y0360291D01*
X0300388Y0360151D01*
X0300335Y0360012D01*
X0300279Y0359875D01*
X0300219Y0359740D01*
X0300156Y0359606D01*
X0300089Y0359474D01*
X0300018Y0359344D01*
X0299944Y0359216D01*
X0299867Y0359090D01*
X0299786Y0358966D01*
X0299702Y0358844D01*
X0299615Y0358725D01*
X0299524Y0358608D01*
X0299430Y0358493D01*
X0299334Y0358381D01*
X0299234Y0358271D01*
X0299132Y0358165D01*
X0299026Y0358061D01*
X0298918Y0357960D01*
X0298807Y0357862D01*
X0298694Y0357766D01*
X0298578Y0357674D01*
X0298460Y0357585D01*
X0298339Y0357500D01*
X0298216Y0357417D01*
X0298091Y0357338D01*
X0297964Y0357262D01*
X0297835Y0357190D01*
X0297704Y0357121D01*
X0297571Y0357056D01*
X0297436Y0356995D01*
X0297300Y0356937D01*
X0297163Y0356882D01*
X0297024Y0356832D01*
X0296883Y0356785D01*
X0296742Y0356742D01*
X0296599Y0356702D01*
X0296455Y0356667D01*
X0296311Y0356635D01*
X0296165Y0356608D01*
X0296019Y0356584D01*
X0295872Y0356564D01*
X0295725Y0356548D01*
X0295578Y0356536D01*
X0295430Y0356528D01*
X0295282Y0356524D01*
X0295134Y0356524D01*
X0294986Y0356528D01*
X0294838Y0356536D01*
X0294691Y0356548D01*
X0294544Y0356564D01*
X0294397Y0356584D01*
X0294251Y0356608D01*
X0294105Y0356635D01*
X0293961Y0356667D01*
X0293817Y0356702D01*
X0293674Y0356742D01*
X0293533Y0356785D01*
X0293392Y0356832D01*
X0293253Y0356882D01*
X0293116Y0356937D01*
X0292980Y0356995D01*
X0292845Y0357056D01*
X0292712Y0357121D01*
X0292581Y0357190D01*
X0292452Y0357262D01*
X0292325Y0357338D01*
X0292200Y0357417D01*
X0292077Y0357500D01*
X0291956Y0357585D01*
X0291838Y0357674D01*
X0291722Y0357766D01*
X0291609Y0357862D01*
X0291498Y0357960D01*
X0291390Y0358061D01*
X0291284Y0358165D01*
X0291182Y0358271D01*
X0291082Y0358381D01*
X0290986Y0358493D01*
X0290892Y0358608D01*
X0290801Y0358725D01*
X0290714Y0358844D01*
X0290630Y0358966D01*
X0290549Y0359090D01*
X0290472Y0359216D01*
X0290398Y0359344D01*
X0290327Y0359474D01*
X0290260Y0359606D01*
X0290197Y0359740D01*
X0290137Y0359875D01*
X0290081Y0360012D01*
X0290028Y0360151D01*
X0289980Y0360291D01*
X0289935Y0360432D01*
X0289894Y0360574D01*
X0289856Y0360717D01*
X0289823Y0360861D01*
X0289793Y0361006D01*
X0289767Y0361152D01*
X0289746Y0361298D01*
X0289728Y0361445D01*
X0289714Y0361592D01*
X0289704Y0361740D01*
X0289698Y0361888D01*
X0289696Y0362036D01*
X0289696Y0342351D02*
X0289698Y0342499D01*
X0289704Y0342647D01*
X0289714Y0342795D01*
X0289728Y0342942D01*
X0289746Y0343089D01*
X0289767Y0343235D01*
X0289793Y0343381D01*
X0289823Y0343526D01*
X0289856Y0343670D01*
X0289894Y0343813D01*
X0289935Y0343955D01*
X0289980Y0344096D01*
X0290028Y0344236D01*
X0290081Y0344375D01*
X0290137Y0344512D01*
X0290197Y0344647D01*
X0290260Y0344781D01*
X0290327Y0344913D01*
X0290398Y0345043D01*
X0290472Y0345171D01*
X0290549Y0345297D01*
X0290630Y0345421D01*
X0290714Y0345543D01*
X0290801Y0345662D01*
X0290892Y0345779D01*
X0290986Y0345894D01*
X0291082Y0346006D01*
X0291182Y0346116D01*
X0291284Y0346222D01*
X0291390Y0346326D01*
X0291498Y0346427D01*
X0291609Y0346525D01*
X0291722Y0346621D01*
X0291838Y0346713D01*
X0291956Y0346802D01*
X0292077Y0346887D01*
X0292200Y0346970D01*
X0292325Y0347049D01*
X0292452Y0347125D01*
X0292581Y0347197D01*
X0292712Y0347266D01*
X0292845Y0347331D01*
X0292980Y0347392D01*
X0293116Y0347450D01*
X0293253Y0347505D01*
X0293392Y0347555D01*
X0293533Y0347602D01*
X0293674Y0347645D01*
X0293817Y0347685D01*
X0293961Y0347720D01*
X0294105Y0347752D01*
X0294251Y0347779D01*
X0294397Y0347803D01*
X0294544Y0347823D01*
X0294691Y0347839D01*
X0294838Y0347851D01*
X0294986Y0347859D01*
X0295134Y0347863D01*
X0295282Y0347863D01*
X0295430Y0347859D01*
X0295578Y0347851D01*
X0295725Y0347839D01*
X0295872Y0347823D01*
X0296019Y0347803D01*
X0296165Y0347779D01*
X0296311Y0347752D01*
X0296455Y0347720D01*
X0296599Y0347685D01*
X0296742Y0347645D01*
X0296883Y0347602D01*
X0297024Y0347555D01*
X0297163Y0347505D01*
X0297300Y0347450D01*
X0297436Y0347392D01*
X0297571Y0347331D01*
X0297704Y0347266D01*
X0297835Y0347197D01*
X0297964Y0347125D01*
X0298091Y0347049D01*
X0298216Y0346970D01*
X0298339Y0346887D01*
X0298460Y0346802D01*
X0298578Y0346713D01*
X0298694Y0346621D01*
X0298807Y0346525D01*
X0298918Y0346427D01*
X0299026Y0346326D01*
X0299132Y0346222D01*
X0299234Y0346116D01*
X0299334Y0346006D01*
X0299430Y0345894D01*
X0299524Y0345779D01*
X0299615Y0345662D01*
X0299702Y0345543D01*
X0299786Y0345421D01*
X0299867Y0345297D01*
X0299944Y0345171D01*
X0300018Y0345043D01*
X0300089Y0344913D01*
X0300156Y0344781D01*
X0300219Y0344647D01*
X0300279Y0344512D01*
X0300335Y0344375D01*
X0300388Y0344236D01*
X0300436Y0344096D01*
X0300481Y0343955D01*
X0300522Y0343813D01*
X0300560Y0343670D01*
X0300593Y0343526D01*
X0300623Y0343381D01*
X0300649Y0343235D01*
X0300670Y0343089D01*
X0300688Y0342942D01*
X0300702Y0342795D01*
X0300712Y0342647D01*
X0300718Y0342499D01*
X0300720Y0342351D01*
X0300718Y0342203D01*
X0300712Y0342055D01*
X0300702Y0341907D01*
X0300688Y0341760D01*
X0300670Y0341613D01*
X0300649Y0341467D01*
X0300623Y0341321D01*
X0300593Y0341176D01*
X0300560Y0341032D01*
X0300522Y0340889D01*
X0300481Y0340747D01*
X0300436Y0340606D01*
X0300388Y0340466D01*
X0300335Y0340327D01*
X0300279Y0340190D01*
X0300219Y0340055D01*
X0300156Y0339921D01*
X0300089Y0339789D01*
X0300018Y0339659D01*
X0299944Y0339531D01*
X0299867Y0339405D01*
X0299786Y0339281D01*
X0299702Y0339159D01*
X0299615Y0339040D01*
X0299524Y0338923D01*
X0299430Y0338808D01*
X0299334Y0338696D01*
X0299234Y0338586D01*
X0299132Y0338480D01*
X0299026Y0338376D01*
X0298918Y0338275D01*
X0298807Y0338177D01*
X0298694Y0338081D01*
X0298578Y0337989D01*
X0298460Y0337900D01*
X0298339Y0337815D01*
X0298216Y0337732D01*
X0298091Y0337653D01*
X0297964Y0337577D01*
X0297835Y0337505D01*
X0297704Y0337436D01*
X0297571Y0337371D01*
X0297436Y0337310D01*
X0297300Y0337252D01*
X0297163Y0337197D01*
X0297024Y0337147D01*
X0296883Y0337100D01*
X0296742Y0337057D01*
X0296599Y0337017D01*
X0296455Y0336982D01*
X0296311Y0336950D01*
X0296165Y0336923D01*
X0296019Y0336899D01*
X0295872Y0336879D01*
X0295725Y0336863D01*
X0295578Y0336851D01*
X0295430Y0336843D01*
X0295282Y0336839D01*
X0295134Y0336839D01*
X0294986Y0336843D01*
X0294838Y0336851D01*
X0294691Y0336863D01*
X0294544Y0336879D01*
X0294397Y0336899D01*
X0294251Y0336923D01*
X0294105Y0336950D01*
X0293961Y0336982D01*
X0293817Y0337017D01*
X0293674Y0337057D01*
X0293533Y0337100D01*
X0293392Y0337147D01*
X0293253Y0337197D01*
X0293116Y0337252D01*
X0292980Y0337310D01*
X0292845Y0337371D01*
X0292712Y0337436D01*
X0292581Y0337505D01*
X0292452Y0337577D01*
X0292325Y0337653D01*
X0292200Y0337732D01*
X0292077Y0337815D01*
X0291956Y0337900D01*
X0291838Y0337989D01*
X0291722Y0338081D01*
X0291609Y0338177D01*
X0291498Y0338275D01*
X0291390Y0338376D01*
X0291284Y0338480D01*
X0291182Y0338586D01*
X0291082Y0338696D01*
X0290986Y0338808D01*
X0290892Y0338923D01*
X0290801Y0339040D01*
X0290714Y0339159D01*
X0290630Y0339281D01*
X0290549Y0339405D01*
X0290472Y0339531D01*
X0290398Y0339659D01*
X0290327Y0339789D01*
X0290260Y0339921D01*
X0290197Y0340055D01*
X0290137Y0340190D01*
X0290081Y0340327D01*
X0290028Y0340466D01*
X0289980Y0340606D01*
X0289935Y0340747D01*
X0289894Y0340889D01*
X0289856Y0341032D01*
X0289823Y0341176D01*
X0289793Y0341321D01*
X0289767Y0341467D01*
X0289746Y0341613D01*
X0289728Y0341760D01*
X0289714Y0341907D01*
X0289704Y0342055D01*
X0289698Y0342203D01*
X0289696Y0342351D01*
X0309381Y0342351D02*
X0309383Y0342499D01*
X0309389Y0342647D01*
X0309399Y0342795D01*
X0309413Y0342942D01*
X0309431Y0343089D01*
X0309452Y0343235D01*
X0309478Y0343381D01*
X0309508Y0343526D01*
X0309541Y0343670D01*
X0309579Y0343813D01*
X0309620Y0343955D01*
X0309665Y0344096D01*
X0309713Y0344236D01*
X0309766Y0344375D01*
X0309822Y0344512D01*
X0309882Y0344647D01*
X0309945Y0344781D01*
X0310012Y0344913D01*
X0310083Y0345043D01*
X0310157Y0345171D01*
X0310234Y0345297D01*
X0310315Y0345421D01*
X0310399Y0345543D01*
X0310486Y0345662D01*
X0310577Y0345779D01*
X0310671Y0345894D01*
X0310767Y0346006D01*
X0310867Y0346116D01*
X0310969Y0346222D01*
X0311075Y0346326D01*
X0311183Y0346427D01*
X0311294Y0346525D01*
X0311407Y0346621D01*
X0311523Y0346713D01*
X0311641Y0346802D01*
X0311762Y0346887D01*
X0311885Y0346970D01*
X0312010Y0347049D01*
X0312137Y0347125D01*
X0312266Y0347197D01*
X0312397Y0347266D01*
X0312530Y0347331D01*
X0312665Y0347392D01*
X0312801Y0347450D01*
X0312938Y0347505D01*
X0313077Y0347555D01*
X0313218Y0347602D01*
X0313359Y0347645D01*
X0313502Y0347685D01*
X0313646Y0347720D01*
X0313790Y0347752D01*
X0313936Y0347779D01*
X0314082Y0347803D01*
X0314229Y0347823D01*
X0314376Y0347839D01*
X0314523Y0347851D01*
X0314671Y0347859D01*
X0314819Y0347863D01*
X0314967Y0347863D01*
X0315115Y0347859D01*
X0315263Y0347851D01*
X0315410Y0347839D01*
X0315557Y0347823D01*
X0315704Y0347803D01*
X0315850Y0347779D01*
X0315996Y0347752D01*
X0316140Y0347720D01*
X0316284Y0347685D01*
X0316427Y0347645D01*
X0316568Y0347602D01*
X0316709Y0347555D01*
X0316848Y0347505D01*
X0316985Y0347450D01*
X0317121Y0347392D01*
X0317256Y0347331D01*
X0317389Y0347266D01*
X0317520Y0347197D01*
X0317649Y0347125D01*
X0317776Y0347049D01*
X0317901Y0346970D01*
X0318024Y0346887D01*
X0318145Y0346802D01*
X0318263Y0346713D01*
X0318379Y0346621D01*
X0318492Y0346525D01*
X0318603Y0346427D01*
X0318711Y0346326D01*
X0318817Y0346222D01*
X0318919Y0346116D01*
X0319019Y0346006D01*
X0319115Y0345894D01*
X0319209Y0345779D01*
X0319300Y0345662D01*
X0319387Y0345543D01*
X0319471Y0345421D01*
X0319552Y0345297D01*
X0319629Y0345171D01*
X0319703Y0345043D01*
X0319774Y0344913D01*
X0319841Y0344781D01*
X0319904Y0344647D01*
X0319964Y0344512D01*
X0320020Y0344375D01*
X0320073Y0344236D01*
X0320121Y0344096D01*
X0320166Y0343955D01*
X0320207Y0343813D01*
X0320245Y0343670D01*
X0320278Y0343526D01*
X0320308Y0343381D01*
X0320334Y0343235D01*
X0320355Y0343089D01*
X0320373Y0342942D01*
X0320387Y0342795D01*
X0320397Y0342647D01*
X0320403Y0342499D01*
X0320405Y0342351D01*
X0320403Y0342203D01*
X0320397Y0342055D01*
X0320387Y0341907D01*
X0320373Y0341760D01*
X0320355Y0341613D01*
X0320334Y0341467D01*
X0320308Y0341321D01*
X0320278Y0341176D01*
X0320245Y0341032D01*
X0320207Y0340889D01*
X0320166Y0340747D01*
X0320121Y0340606D01*
X0320073Y0340466D01*
X0320020Y0340327D01*
X0319964Y0340190D01*
X0319904Y0340055D01*
X0319841Y0339921D01*
X0319774Y0339789D01*
X0319703Y0339659D01*
X0319629Y0339531D01*
X0319552Y0339405D01*
X0319471Y0339281D01*
X0319387Y0339159D01*
X0319300Y0339040D01*
X0319209Y0338923D01*
X0319115Y0338808D01*
X0319019Y0338696D01*
X0318919Y0338586D01*
X0318817Y0338480D01*
X0318711Y0338376D01*
X0318603Y0338275D01*
X0318492Y0338177D01*
X0318379Y0338081D01*
X0318263Y0337989D01*
X0318145Y0337900D01*
X0318024Y0337815D01*
X0317901Y0337732D01*
X0317776Y0337653D01*
X0317649Y0337577D01*
X0317520Y0337505D01*
X0317389Y0337436D01*
X0317256Y0337371D01*
X0317121Y0337310D01*
X0316985Y0337252D01*
X0316848Y0337197D01*
X0316709Y0337147D01*
X0316568Y0337100D01*
X0316427Y0337057D01*
X0316284Y0337017D01*
X0316140Y0336982D01*
X0315996Y0336950D01*
X0315850Y0336923D01*
X0315704Y0336899D01*
X0315557Y0336879D01*
X0315410Y0336863D01*
X0315263Y0336851D01*
X0315115Y0336843D01*
X0314967Y0336839D01*
X0314819Y0336839D01*
X0314671Y0336843D01*
X0314523Y0336851D01*
X0314376Y0336863D01*
X0314229Y0336879D01*
X0314082Y0336899D01*
X0313936Y0336923D01*
X0313790Y0336950D01*
X0313646Y0336982D01*
X0313502Y0337017D01*
X0313359Y0337057D01*
X0313218Y0337100D01*
X0313077Y0337147D01*
X0312938Y0337197D01*
X0312801Y0337252D01*
X0312665Y0337310D01*
X0312530Y0337371D01*
X0312397Y0337436D01*
X0312266Y0337505D01*
X0312137Y0337577D01*
X0312010Y0337653D01*
X0311885Y0337732D01*
X0311762Y0337815D01*
X0311641Y0337900D01*
X0311523Y0337989D01*
X0311407Y0338081D01*
X0311294Y0338177D01*
X0311183Y0338275D01*
X0311075Y0338376D01*
X0310969Y0338480D01*
X0310867Y0338586D01*
X0310767Y0338696D01*
X0310671Y0338808D01*
X0310577Y0338923D01*
X0310486Y0339040D01*
X0310399Y0339159D01*
X0310315Y0339281D01*
X0310234Y0339405D01*
X0310157Y0339531D01*
X0310083Y0339659D01*
X0310012Y0339789D01*
X0309945Y0339921D01*
X0309882Y0340055D01*
X0309822Y0340190D01*
X0309766Y0340327D01*
X0309713Y0340466D01*
X0309665Y0340606D01*
X0309620Y0340747D01*
X0309579Y0340889D01*
X0309541Y0341032D01*
X0309508Y0341176D01*
X0309478Y0341321D01*
X0309452Y0341467D01*
X0309431Y0341613D01*
X0309413Y0341760D01*
X0309399Y0341907D01*
X0309389Y0342055D01*
X0309383Y0342203D01*
X0309381Y0342351D01*
X0309381Y0165186D02*
X0309383Y0165334D01*
X0309389Y0165482D01*
X0309399Y0165630D01*
X0309413Y0165777D01*
X0309431Y0165924D01*
X0309452Y0166070D01*
X0309478Y0166216D01*
X0309508Y0166361D01*
X0309541Y0166505D01*
X0309579Y0166648D01*
X0309620Y0166790D01*
X0309665Y0166931D01*
X0309713Y0167071D01*
X0309766Y0167210D01*
X0309822Y0167347D01*
X0309882Y0167482D01*
X0309945Y0167616D01*
X0310012Y0167748D01*
X0310083Y0167878D01*
X0310157Y0168006D01*
X0310234Y0168132D01*
X0310315Y0168256D01*
X0310399Y0168378D01*
X0310486Y0168497D01*
X0310577Y0168614D01*
X0310671Y0168729D01*
X0310767Y0168841D01*
X0310867Y0168951D01*
X0310969Y0169057D01*
X0311075Y0169161D01*
X0311183Y0169262D01*
X0311294Y0169360D01*
X0311407Y0169456D01*
X0311523Y0169548D01*
X0311641Y0169637D01*
X0311762Y0169722D01*
X0311885Y0169805D01*
X0312010Y0169884D01*
X0312137Y0169960D01*
X0312266Y0170032D01*
X0312397Y0170101D01*
X0312530Y0170166D01*
X0312665Y0170227D01*
X0312801Y0170285D01*
X0312938Y0170340D01*
X0313077Y0170390D01*
X0313218Y0170437D01*
X0313359Y0170480D01*
X0313502Y0170520D01*
X0313646Y0170555D01*
X0313790Y0170587D01*
X0313936Y0170614D01*
X0314082Y0170638D01*
X0314229Y0170658D01*
X0314376Y0170674D01*
X0314523Y0170686D01*
X0314671Y0170694D01*
X0314819Y0170698D01*
X0314967Y0170698D01*
X0315115Y0170694D01*
X0315263Y0170686D01*
X0315410Y0170674D01*
X0315557Y0170658D01*
X0315704Y0170638D01*
X0315850Y0170614D01*
X0315996Y0170587D01*
X0316140Y0170555D01*
X0316284Y0170520D01*
X0316427Y0170480D01*
X0316568Y0170437D01*
X0316709Y0170390D01*
X0316848Y0170340D01*
X0316985Y0170285D01*
X0317121Y0170227D01*
X0317256Y0170166D01*
X0317389Y0170101D01*
X0317520Y0170032D01*
X0317649Y0169960D01*
X0317776Y0169884D01*
X0317901Y0169805D01*
X0318024Y0169722D01*
X0318145Y0169637D01*
X0318263Y0169548D01*
X0318379Y0169456D01*
X0318492Y0169360D01*
X0318603Y0169262D01*
X0318711Y0169161D01*
X0318817Y0169057D01*
X0318919Y0168951D01*
X0319019Y0168841D01*
X0319115Y0168729D01*
X0319209Y0168614D01*
X0319300Y0168497D01*
X0319387Y0168378D01*
X0319471Y0168256D01*
X0319552Y0168132D01*
X0319629Y0168006D01*
X0319703Y0167878D01*
X0319774Y0167748D01*
X0319841Y0167616D01*
X0319904Y0167482D01*
X0319964Y0167347D01*
X0320020Y0167210D01*
X0320073Y0167071D01*
X0320121Y0166931D01*
X0320166Y0166790D01*
X0320207Y0166648D01*
X0320245Y0166505D01*
X0320278Y0166361D01*
X0320308Y0166216D01*
X0320334Y0166070D01*
X0320355Y0165924D01*
X0320373Y0165777D01*
X0320387Y0165630D01*
X0320397Y0165482D01*
X0320403Y0165334D01*
X0320405Y0165186D01*
X0320403Y0165038D01*
X0320397Y0164890D01*
X0320387Y0164742D01*
X0320373Y0164595D01*
X0320355Y0164448D01*
X0320334Y0164302D01*
X0320308Y0164156D01*
X0320278Y0164011D01*
X0320245Y0163867D01*
X0320207Y0163724D01*
X0320166Y0163582D01*
X0320121Y0163441D01*
X0320073Y0163301D01*
X0320020Y0163162D01*
X0319964Y0163025D01*
X0319904Y0162890D01*
X0319841Y0162756D01*
X0319774Y0162624D01*
X0319703Y0162494D01*
X0319629Y0162366D01*
X0319552Y0162240D01*
X0319471Y0162116D01*
X0319387Y0161994D01*
X0319300Y0161875D01*
X0319209Y0161758D01*
X0319115Y0161643D01*
X0319019Y0161531D01*
X0318919Y0161421D01*
X0318817Y0161315D01*
X0318711Y0161211D01*
X0318603Y0161110D01*
X0318492Y0161012D01*
X0318379Y0160916D01*
X0318263Y0160824D01*
X0318145Y0160735D01*
X0318024Y0160650D01*
X0317901Y0160567D01*
X0317776Y0160488D01*
X0317649Y0160412D01*
X0317520Y0160340D01*
X0317389Y0160271D01*
X0317256Y0160206D01*
X0317121Y0160145D01*
X0316985Y0160087D01*
X0316848Y0160032D01*
X0316709Y0159982D01*
X0316568Y0159935D01*
X0316427Y0159892D01*
X0316284Y0159852D01*
X0316140Y0159817D01*
X0315996Y0159785D01*
X0315850Y0159758D01*
X0315704Y0159734D01*
X0315557Y0159714D01*
X0315410Y0159698D01*
X0315263Y0159686D01*
X0315115Y0159678D01*
X0314967Y0159674D01*
X0314819Y0159674D01*
X0314671Y0159678D01*
X0314523Y0159686D01*
X0314376Y0159698D01*
X0314229Y0159714D01*
X0314082Y0159734D01*
X0313936Y0159758D01*
X0313790Y0159785D01*
X0313646Y0159817D01*
X0313502Y0159852D01*
X0313359Y0159892D01*
X0313218Y0159935D01*
X0313077Y0159982D01*
X0312938Y0160032D01*
X0312801Y0160087D01*
X0312665Y0160145D01*
X0312530Y0160206D01*
X0312397Y0160271D01*
X0312266Y0160340D01*
X0312137Y0160412D01*
X0312010Y0160488D01*
X0311885Y0160567D01*
X0311762Y0160650D01*
X0311641Y0160735D01*
X0311523Y0160824D01*
X0311407Y0160916D01*
X0311294Y0161012D01*
X0311183Y0161110D01*
X0311075Y0161211D01*
X0310969Y0161315D01*
X0310867Y0161421D01*
X0310767Y0161531D01*
X0310671Y0161643D01*
X0310577Y0161758D01*
X0310486Y0161875D01*
X0310399Y0161994D01*
X0310315Y0162116D01*
X0310234Y0162240D01*
X0310157Y0162366D01*
X0310083Y0162494D01*
X0310012Y0162624D01*
X0309945Y0162756D01*
X0309882Y0162890D01*
X0309822Y0163025D01*
X0309766Y0163162D01*
X0309713Y0163301D01*
X0309665Y0163441D01*
X0309620Y0163582D01*
X0309579Y0163724D01*
X0309541Y0163867D01*
X0309508Y0164011D01*
X0309478Y0164156D01*
X0309452Y0164302D01*
X0309431Y0164448D01*
X0309413Y0164595D01*
X0309399Y0164742D01*
X0309389Y0164890D01*
X0309383Y0165038D01*
X0309381Y0165186D01*
X0289696Y0165186D02*
X0289698Y0165334D01*
X0289704Y0165482D01*
X0289714Y0165630D01*
X0289728Y0165777D01*
X0289746Y0165924D01*
X0289767Y0166070D01*
X0289793Y0166216D01*
X0289823Y0166361D01*
X0289856Y0166505D01*
X0289894Y0166648D01*
X0289935Y0166790D01*
X0289980Y0166931D01*
X0290028Y0167071D01*
X0290081Y0167210D01*
X0290137Y0167347D01*
X0290197Y0167482D01*
X0290260Y0167616D01*
X0290327Y0167748D01*
X0290398Y0167878D01*
X0290472Y0168006D01*
X0290549Y0168132D01*
X0290630Y0168256D01*
X0290714Y0168378D01*
X0290801Y0168497D01*
X0290892Y0168614D01*
X0290986Y0168729D01*
X0291082Y0168841D01*
X0291182Y0168951D01*
X0291284Y0169057D01*
X0291390Y0169161D01*
X0291498Y0169262D01*
X0291609Y0169360D01*
X0291722Y0169456D01*
X0291838Y0169548D01*
X0291956Y0169637D01*
X0292077Y0169722D01*
X0292200Y0169805D01*
X0292325Y0169884D01*
X0292452Y0169960D01*
X0292581Y0170032D01*
X0292712Y0170101D01*
X0292845Y0170166D01*
X0292980Y0170227D01*
X0293116Y0170285D01*
X0293253Y0170340D01*
X0293392Y0170390D01*
X0293533Y0170437D01*
X0293674Y0170480D01*
X0293817Y0170520D01*
X0293961Y0170555D01*
X0294105Y0170587D01*
X0294251Y0170614D01*
X0294397Y0170638D01*
X0294544Y0170658D01*
X0294691Y0170674D01*
X0294838Y0170686D01*
X0294986Y0170694D01*
X0295134Y0170698D01*
X0295282Y0170698D01*
X0295430Y0170694D01*
X0295578Y0170686D01*
X0295725Y0170674D01*
X0295872Y0170658D01*
X0296019Y0170638D01*
X0296165Y0170614D01*
X0296311Y0170587D01*
X0296455Y0170555D01*
X0296599Y0170520D01*
X0296742Y0170480D01*
X0296883Y0170437D01*
X0297024Y0170390D01*
X0297163Y0170340D01*
X0297300Y0170285D01*
X0297436Y0170227D01*
X0297571Y0170166D01*
X0297704Y0170101D01*
X0297835Y0170032D01*
X0297964Y0169960D01*
X0298091Y0169884D01*
X0298216Y0169805D01*
X0298339Y0169722D01*
X0298460Y0169637D01*
X0298578Y0169548D01*
X0298694Y0169456D01*
X0298807Y0169360D01*
X0298918Y0169262D01*
X0299026Y0169161D01*
X0299132Y0169057D01*
X0299234Y0168951D01*
X0299334Y0168841D01*
X0299430Y0168729D01*
X0299524Y0168614D01*
X0299615Y0168497D01*
X0299702Y0168378D01*
X0299786Y0168256D01*
X0299867Y0168132D01*
X0299944Y0168006D01*
X0300018Y0167878D01*
X0300089Y0167748D01*
X0300156Y0167616D01*
X0300219Y0167482D01*
X0300279Y0167347D01*
X0300335Y0167210D01*
X0300388Y0167071D01*
X0300436Y0166931D01*
X0300481Y0166790D01*
X0300522Y0166648D01*
X0300560Y0166505D01*
X0300593Y0166361D01*
X0300623Y0166216D01*
X0300649Y0166070D01*
X0300670Y0165924D01*
X0300688Y0165777D01*
X0300702Y0165630D01*
X0300712Y0165482D01*
X0300718Y0165334D01*
X0300720Y0165186D01*
X0300718Y0165038D01*
X0300712Y0164890D01*
X0300702Y0164742D01*
X0300688Y0164595D01*
X0300670Y0164448D01*
X0300649Y0164302D01*
X0300623Y0164156D01*
X0300593Y0164011D01*
X0300560Y0163867D01*
X0300522Y0163724D01*
X0300481Y0163582D01*
X0300436Y0163441D01*
X0300388Y0163301D01*
X0300335Y0163162D01*
X0300279Y0163025D01*
X0300219Y0162890D01*
X0300156Y0162756D01*
X0300089Y0162624D01*
X0300018Y0162494D01*
X0299944Y0162366D01*
X0299867Y0162240D01*
X0299786Y0162116D01*
X0299702Y0161994D01*
X0299615Y0161875D01*
X0299524Y0161758D01*
X0299430Y0161643D01*
X0299334Y0161531D01*
X0299234Y0161421D01*
X0299132Y0161315D01*
X0299026Y0161211D01*
X0298918Y0161110D01*
X0298807Y0161012D01*
X0298694Y0160916D01*
X0298578Y0160824D01*
X0298460Y0160735D01*
X0298339Y0160650D01*
X0298216Y0160567D01*
X0298091Y0160488D01*
X0297964Y0160412D01*
X0297835Y0160340D01*
X0297704Y0160271D01*
X0297571Y0160206D01*
X0297436Y0160145D01*
X0297300Y0160087D01*
X0297163Y0160032D01*
X0297024Y0159982D01*
X0296883Y0159935D01*
X0296742Y0159892D01*
X0296599Y0159852D01*
X0296455Y0159817D01*
X0296311Y0159785D01*
X0296165Y0159758D01*
X0296019Y0159734D01*
X0295872Y0159714D01*
X0295725Y0159698D01*
X0295578Y0159686D01*
X0295430Y0159678D01*
X0295282Y0159674D01*
X0295134Y0159674D01*
X0294986Y0159678D01*
X0294838Y0159686D01*
X0294691Y0159698D01*
X0294544Y0159714D01*
X0294397Y0159734D01*
X0294251Y0159758D01*
X0294105Y0159785D01*
X0293961Y0159817D01*
X0293817Y0159852D01*
X0293674Y0159892D01*
X0293533Y0159935D01*
X0293392Y0159982D01*
X0293253Y0160032D01*
X0293116Y0160087D01*
X0292980Y0160145D01*
X0292845Y0160206D01*
X0292712Y0160271D01*
X0292581Y0160340D01*
X0292452Y0160412D01*
X0292325Y0160488D01*
X0292200Y0160567D01*
X0292077Y0160650D01*
X0291956Y0160735D01*
X0291838Y0160824D01*
X0291722Y0160916D01*
X0291609Y0161012D01*
X0291498Y0161110D01*
X0291390Y0161211D01*
X0291284Y0161315D01*
X0291182Y0161421D01*
X0291082Y0161531D01*
X0290986Y0161643D01*
X0290892Y0161758D01*
X0290801Y0161875D01*
X0290714Y0161994D01*
X0290630Y0162116D01*
X0290549Y0162240D01*
X0290472Y0162366D01*
X0290398Y0162494D01*
X0290327Y0162624D01*
X0290260Y0162756D01*
X0290197Y0162890D01*
X0290137Y0163025D01*
X0290081Y0163162D01*
X0290028Y0163301D01*
X0289980Y0163441D01*
X0289935Y0163582D01*
X0289894Y0163724D01*
X0289856Y0163867D01*
X0289823Y0164011D01*
X0289793Y0164156D01*
X0289767Y0164302D01*
X0289746Y0164448D01*
X0289728Y0164595D01*
X0289714Y0164742D01*
X0289704Y0164890D01*
X0289698Y0165038D01*
X0289696Y0165186D01*
X0486546Y0165186D02*
X0486548Y0165334D01*
X0486554Y0165482D01*
X0486564Y0165630D01*
X0486578Y0165777D01*
X0486596Y0165924D01*
X0486617Y0166070D01*
X0486643Y0166216D01*
X0486673Y0166361D01*
X0486706Y0166505D01*
X0486744Y0166648D01*
X0486785Y0166790D01*
X0486830Y0166931D01*
X0486878Y0167071D01*
X0486931Y0167210D01*
X0486987Y0167347D01*
X0487047Y0167482D01*
X0487110Y0167616D01*
X0487177Y0167748D01*
X0487248Y0167878D01*
X0487322Y0168006D01*
X0487399Y0168132D01*
X0487480Y0168256D01*
X0487564Y0168378D01*
X0487651Y0168497D01*
X0487742Y0168614D01*
X0487836Y0168729D01*
X0487932Y0168841D01*
X0488032Y0168951D01*
X0488134Y0169057D01*
X0488240Y0169161D01*
X0488348Y0169262D01*
X0488459Y0169360D01*
X0488572Y0169456D01*
X0488688Y0169548D01*
X0488806Y0169637D01*
X0488927Y0169722D01*
X0489050Y0169805D01*
X0489175Y0169884D01*
X0489302Y0169960D01*
X0489431Y0170032D01*
X0489562Y0170101D01*
X0489695Y0170166D01*
X0489830Y0170227D01*
X0489966Y0170285D01*
X0490103Y0170340D01*
X0490242Y0170390D01*
X0490383Y0170437D01*
X0490524Y0170480D01*
X0490667Y0170520D01*
X0490811Y0170555D01*
X0490955Y0170587D01*
X0491101Y0170614D01*
X0491247Y0170638D01*
X0491394Y0170658D01*
X0491541Y0170674D01*
X0491688Y0170686D01*
X0491836Y0170694D01*
X0491984Y0170698D01*
X0492132Y0170698D01*
X0492280Y0170694D01*
X0492428Y0170686D01*
X0492575Y0170674D01*
X0492722Y0170658D01*
X0492869Y0170638D01*
X0493015Y0170614D01*
X0493161Y0170587D01*
X0493305Y0170555D01*
X0493449Y0170520D01*
X0493592Y0170480D01*
X0493733Y0170437D01*
X0493874Y0170390D01*
X0494013Y0170340D01*
X0494150Y0170285D01*
X0494286Y0170227D01*
X0494421Y0170166D01*
X0494554Y0170101D01*
X0494685Y0170032D01*
X0494814Y0169960D01*
X0494941Y0169884D01*
X0495066Y0169805D01*
X0495189Y0169722D01*
X0495310Y0169637D01*
X0495428Y0169548D01*
X0495544Y0169456D01*
X0495657Y0169360D01*
X0495768Y0169262D01*
X0495876Y0169161D01*
X0495982Y0169057D01*
X0496084Y0168951D01*
X0496184Y0168841D01*
X0496280Y0168729D01*
X0496374Y0168614D01*
X0496465Y0168497D01*
X0496552Y0168378D01*
X0496636Y0168256D01*
X0496717Y0168132D01*
X0496794Y0168006D01*
X0496868Y0167878D01*
X0496939Y0167748D01*
X0497006Y0167616D01*
X0497069Y0167482D01*
X0497129Y0167347D01*
X0497185Y0167210D01*
X0497238Y0167071D01*
X0497286Y0166931D01*
X0497331Y0166790D01*
X0497372Y0166648D01*
X0497410Y0166505D01*
X0497443Y0166361D01*
X0497473Y0166216D01*
X0497499Y0166070D01*
X0497520Y0165924D01*
X0497538Y0165777D01*
X0497552Y0165630D01*
X0497562Y0165482D01*
X0497568Y0165334D01*
X0497570Y0165186D01*
X0497568Y0165038D01*
X0497562Y0164890D01*
X0497552Y0164742D01*
X0497538Y0164595D01*
X0497520Y0164448D01*
X0497499Y0164302D01*
X0497473Y0164156D01*
X0497443Y0164011D01*
X0497410Y0163867D01*
X0497372Y0163724D01*
X0497331Y0163582D01*
X0497286Y0163441D01*
X0497238Y0163301D01*
X0497185Y0163162D01*
X0497129Y0163025D01*
X0497069Y0162890D01*
X0497006Y0162756D01*
X0496939Y0162624D01*
X0496868Y0162494D01*
X0496794Y0162366D01*
X0496717Y0162240D01*
X0496636Y0162116D01*
X0496552Y0161994D01*
X0496465Y0161875D01*
X0496374Y0161758D01*
X0496280Y0161643D01*
X0496184Y0161531D01*
X0496084Y0161421D01*
X0495982Y0161315D01*
X0495876Y0161211D01*
X0495768Y0161110D01*
X0495657Y0161012D01*
X0495544Y0160916D01*
X0495428Y0160824D01*
X0495310Y0160735D01*
X0495189Y0160650D01*
X0495066Y0160567D01*
X0494941Y0160488D01*
X0494814Y0160412D01*
X0494685Y0160340D01*
X0494554Y0160271D01*
X0494421Y0160206D01*
X0494286Y0160145D01*
X0494150Y0160087D01*
X0494013Y0160032D01*
X0493874Y0159982D01*
X0493733Y0159935D01*
X0493592Y0159892D01*
X0493449Y0159852D01*
X0493305Y0159817D01*
X0493161Y0159785D01*
X0493015Y0159758D01*
X0492869Y0159734D01*
X0492722Y0159714D01*
X0492575Y0159698D01*
X0492428Y0159686D01*
X0492280Y0159678D01*
X0492132Y0159674D01*
X0491984Y0159674D01*
X0491836Y0159678D01*
X0491688Y0159686D01*
X0491541Y0159698D01*
X0491394Y0159714D01*
X0491247Y0159734D01*
X0491101Y0159758D01*
X0490955Y0159785D01*
X0490811Y0159817D01*
X0490667Y0159852D01*
X0490524Y0159892D01*
X0490383Y0159935D01*
X0490242Y0159982D01*
X0490103Y0160032D01*
X0489966Y0160087D01*
X0489830Y0160145D01*
X0489695Y0160206D01*
X0489562Y0160271D01*
X0489431Y0160340D01*
X0489302Y0160412D01*
X0489175Y0160488D01*
X0489050Y0160567D01*
X0488927Y0160650D01*
X0488806Y0160735D01*
X0488688Y0160824D01*
X0488572Y0160916D01*
X0488459Y0161012D01*
X0488348Y0161110D01*
X0488240Y0161211D01*
X0488134Y0161315D01*
X0488032Y0161421D01*
X0487932Y0161531D01*
X0487836Y0161643D01*
X0487742Y0161758D01*
X0487651Y0161875D01*
X0487564Y0161994D01*
X0487480Y0162116D01*
X0487399Y0162240D01*
X0487322Y0162366D01*
X0487248Y0162494D01*
X0487177Y0162624D01*
X0487110Y0162756D01*
X0487047Y0162890D01*
X0486987Y0163025D01*
X0486931Y0163162D01*
X0486878Y0163301D01*
X0486830Y0163441D01*
X0486785Y0163582D01*
X0486744Y0163724D01*
X0486706Y0163867D01*
X0486673Y0164011D01*
X0486643Y0164156D01*
X0486617Y0164302D01*
X0486596Y0164448D01*
X0486578Y0164595D01*
X0486564Y0164742D01*
X0486554Y0164890D01*
X0486548Y0165038D01*
X0486546Y0165186D01*
X0486546Y0342351D02*
X0486548Y0342499D01*
X0486554Y0342647D01*
X0486564Y0342795D01*
X0486578Y0342942D01*
X0486596Y0343089D01*
X0486617Y0343235D01*
X0486643Y0343381D01*
X0486673Y0343526D01*
X0486706Y0343670D01*
X0486744Y0343813D01*
X0486785Y0343955D01*
X0486830Y0344096D01*
X0486878Y0344236D01*
X0486931Y0344375D01*
X0486987Y0344512D01*
X0487047Y0344647D01*
X0487110Y0344781D01*
X0487177Y0344913D01*
X0487248Y0345043D01*
X0487322Y0345171D01*
X0487399Y0345297D01*
X0487480Y0345421D01*
X0487564Y0345543D01*
X0487651Y0345662D01*
X0487742Y0345779D01*
X0487836Y0345894D01*
X0487932Y0346006D01*
X0488032Y0346116D01*
X0488134Y0346222D01*
X0488240Y0346326D01*
X0488348Y0346427D01*
X0488459Y0346525D01*
X0488572Y0346621D01*
X0488688Y0346713D01*
X0488806Y0346802D01*
X0488927Y0346887D01*
X0489050Y0346970D01*
X0489175Y0347049D01*
X0489302Y0347125D01*
X0489431Y0347197D01*
X0489562Y0347266D01*
X0489695Y0347331D01*
X0489830Y0347392D01*
X0489966Y0347450D01*
X0490103Y0347505D01*
X0490242Y0347555D01*
X0490383Y0347602D01*
X0490524Y0347645D01*
X0490667Y0347685D01*
X0490811Y0347720D01*
X0490955Y0347752D01*
X0491101Y0347779D01*
X0491247Y0347803D01*
X0491394Y0347823D01*
X0491541Y0347839D01*
X0491688Y0347851D01*
X0491836Y0347859D01*
X0491984Y0347863D01*
X0492132Y0347863D01*
X0492280Y0347859D01*
X0492428Y0347851D01*
X0492575Y0347839D01*
X0492722Y0347823D01*
X0492869Y0347803D01*
X0493015Y0347779D01*
X0493161Y0347752D01*
X0493305Y0347720D01*
X0493449Y0347685D01*
X0493592Y0347645D01*
X0493733Y0347602D01*
X0493874Y0347555D01*
X0494013Y0347505D01*
X0494150Y0347450D01*
X0494286Y0347392D01*
X0494421Y0347331D01*
X0494554Y0347266D01*
X0494685Y0347197D01*
X0494814Y0347125D01*
X0494941Y0347049D01*
X0495066Y0346970D01*
X0495189Y0346887D01*
X0495310Y0346802D01*
X0495428Y0346713D01*
X0495544Y0346621D01*
X0495657Y0346525D01*
X0495768Y0346427D01*
X0495876Y0346326D01*
X0495982Y0346222D01*
X0496084Y0346116D01*
X0496184Y0346006D01*
X0496280Y0345894D01*
X0496374Y0345779D01*
X0496465Y0345662D01*
X0496552Y0345543D01*
X0496636Y0345421D01*
X0496717Y0345297D01*
X0496794Y0345171D01*
X0496868Y0345043D01*
X0496939Y0344913D01*
X0497006Y0344781D01*
X0497069Y0344647D01*
X0497129Y0344512D01*
X0497185Y0344375D01*
X0497238Y0344236D01*
X0497286Y0344096D01*
X0497331Y0343955D01*
X0497372Y0343813D01*
X0497410Y0343670D01*
X0497443Y0343526D01*
X0497473Y0343381D01*
X0497499Y0343235D01*
X0497520Y0343089D01*
X0497538Y0342942D01*
X0497552Y0342795D01*
X0497562Y0342647D01*
X0497568Y0342499D01*
X0497570Y0342351D01*
X0497568Y0342203D01*
X0497562Y0342055D01*
X0497552Y0341907D01*
X0497538Y0341760D01*
X0497520Y0341613D01*
X0497499Y0341467D01*
X0497473Y0341321D01*
X0497443Y0341176D01*
X0497410Y0341032D01*
X0497372Y0340889D01*
X0497331Y0340747D01*
X0497286Y0340606D01*
X0497238Y0340466D01*
X0497185Y0340327D01*
X0497129Y0340190D01*
X0497069Y0340055D01*
X0497006Y0339921D01*
X0496939Y0339789D01*
X0496868Y0339659D01*
X0496794Y0339531D01*
X0496717Y0339405D01*
X0496636Y0339281D01*
X0496552Y0339159D01*
X0496465Y0339040D01*
X0496374Y0338923D01*
X0496280Y0338808D01*
X0496184Y0338696D01*
X0496084Y0338586D01*
X0495982Y0338480D01*
X0495876Y0338376D01*
X0495768Y0338275D01*
X0495657Y0338177D01*
X0495544Y0338081D01*
X0495428Y0337989D01*
X0495310Y0337900D01*
X0495189Y0337815D01*
X0495066Y0337732D01*
X0494941Y0337653D01*
X0494814Y0337577D01*
X0494685Y0337505D01*
X0494554Y0337436D01*
X0494421Y0337371D01*
X0494286Y0337310D01*
X0494150Y0337252D01*
X0494013Y0337197D01*
X0493874Y0337147D01*
X0493733Y0337100D01*
X0493592Y0337057D01*
X0493449Y0337017D01*
X0493305Y0336982D01*
X0493161Y0336950D01*
X0493015Y0336923D01*
X0492869Y0336899D01*
X0492722Y0336879D01*
X0492575Y0336863D01*
X0492428Y0336851D01*
X0492280Y0336843D01*
X0492132Y0336839D01*
X0491984Y0336839D01*
X0491836Y0336843D01*
X0491688Y0336851D01*
X0491541Y0336863D01*
X0491394Y0336879D01*
X0491247Y0336899D01*
X0491101Y0336923D01*
X0490955Y0336950D01*
X0490811Y0336982D01*
X0490667Y0337017D01*
X0490524Y0337057D01*
X0490383Y0337100D01*
X0490242Y0337147D01*
X0490103Y0337197D01*
X0489966Y0337252D01*
X0489830Y0337310D01*
X0489695Y0337371D01*
X0489562Y0337436D01*
X0489431Y0337505D01*
X0489302Y0337577D01*
X0489175Y0337653D01*
X0489050Y0337732D01*
X0488927Y0337815D01*
X0488806Y0337900D01*
X0488688Y0337989D01*
X0488572Y0338081D01*
X0488459Y0338177D01*
X0488348Y0338275D01*
X0488240Y0338376D01*
X0488134Y0338480D01*
X0488032Y0338586D01*
X0487932Y0338696D01*
X0487836Y0338808D01*
X0487742Y0338923D01*
X0487651Y0339040D01*
X0487564Y0339159D01*
X0487480Y0339281D01*
X0487399Y0339405D01*
X0487322Y0339531D01*
X0487248Y0339659D01*
X0487177Y0339789D01*
X0487110Y0339921D01*
X0487047Y0340055D01*
X0486987Y0340190D01*
X0486931Y0340327D01*
X0486878Y0340466D01*
X0486830Y0340606D01*
X0486785Y0340747D01*
X0486744Y0340889D01*
X0486706Y0341032D01*
X0486673Y0341176D01*
X0486643Y0341321D01*
X0486617Y0341467D01*
X0486596Y0341613D01*
X0486578Y0341760D01*
X0486564Y0341907D01*
X0486554Y0342055D01*
X0486548Y0342203D01*
X0486546Y0342351D01*
X0486546Y0362036D02*
X0486548Y0362184D01*
X0486554Y0362332D01*
X0486564Y0362480D01*
X0486578Y0362627D01*
X0486596Y0362774D01*
X0486617Y0362920D01*
X0486643Y0363066D01*
X0486673Y0363211D01*
X0486706Y0363355D01*
X0486744Y0363498D01*
X0486785Y0363640D01*
X0486830Y0363781D01*
X0486878Y0363921D01*
X0486931Y0364060D01*
X0486987Y0364197D01*
X0487047Y0364332D01*
X0487110Y0364466D01*
X0487177Y0364598D01*
X0487248Y0364728D01*
X0487322Y0364856D01*
X0487399Y0364982D01*
X0487480Y0365106D01*
X0487564Y0365228D01*
X0487651Y0365347D01*
X0487742Y0365464D01*
X0487836Y0365579D01*
X0487932Y0365691D01*
X0488032Y0365801D01*
X0488134Y0365907D01*
X0488240Y0366011D01*
X0488348Y0366112D01*
X0488459Y0366210D01*
X0488572Y0366306D01*
X0488688Y0366398D01*
X0488806Y0366487D01*
X0488927Y0366572D01*
X0489050Y0366655D01*
X0489175Y0366734D01*
X0489302Y0366810D01*
X0489431Y0366882D01*
X0489562Y0366951D01*
X0489695Y0367016D01*
X0489830Y0367077D01*
X0489966Y0367135D01*
X0490103Y0367190D01*
X0490242Y0367240D01*
X0490383Y0367287D01*
X0490524Y0367330D01*
X0490667Y0367370D01*
X0490811Y0367405D01*
X0490955Y0367437D01*
X0491101Y0367464D01*
X0491247Y0367488D01*
X0491394Y0367508D01*
X0491541Y0367524D01*
X0491688Y0367536D01*
X0491836Y0367544D01*
X0491984Y0367548D01*
X0492132Y0367548D01*
X0492280Y0367544D01*
X0492428Y0367536D01*
X0492575Y0367524D01*
X0492722Y0367508D01*
X0492869Y0367488D01*
X0493015Y0367464D01*
X0493161Y0367437D01*
X0493305Y0367405D01*
X0493449Y0367370D01*
X0493592Y0367330D01*
X0493733Y0367287D01*
X0493874Y0367240D01*
X0494013Y0367190D01*
X0494150Y0367135D01*
X0494286Y0367077D01*
X0494421Y0367016D01*
X0494554Y0366951D01*
X0494685Y0366882D01*
X0494814Y0366810D01*
X0494941Y0366734D01*
X0495066Y0366655D01*
X0495189Y0366572D01*
X0495310Y0366487D01*
X0495428Y0366398D01*
X0495544Y0366306D01*
X0495657Y0366210D01*
X0495768Y0366112D01*
X0495876Y0366011D01*
X0495982Y0365907D01*
X0496084Y0365801D01*
X0496184Y0365691D01*
X0496280Y0365579D01*
X0496374Y0365464D01*
X0496465Y0365347D01*
X0496552Y0365228D01*
X0496636Y0365106D01*
X0496717Y0364982D01*
X0496794Y0364856D01*
X0496868Y0364728D01*
X0496939Y0364598D01*
X0497006Y0364466D01*
X0497069Y0364332D01*
X0497129Y0364197D01*
X0497185Y0364060D01*
X0497238Y0363921D01*
X0497286Y0363781D01*
X0497331Y0363640D01*
X0497372Y0363498D01*
X0497410Y0363355D01*
X0497443Y0363211D01*
X0497473Y0363066D01*
X0497499Y0362920D01*
X0497520Y0362774D01*
X0497538Y0362627D01*
X0497552Y0362480D01*
X0497562Y0362332D01*
X0497568Y0362184D01*
X0497570Y0362036D01*
X0497568Y0361888D01*
X0497562Y0361740D01*
X0497552Y0361592D01*
X0497538Y0361445D01*
X0497520Y0361298D01*
X0497499Y0361152D01*
X0497473Y0361006D01*
X0497443Y0360861D01*
X0497410Y0360717D01*
X0497372Y0360574D01*
X0497331Y0360432D01*
X0497286Y0360291D01*
X0497238Y0360151D01*
X0497185Y0360012D01*
X0497129Y0359875D01*
X0497069Y0359740D01*
X0497006Y0359606D01*
X0496939Y0359474D01*
X0496868Y0359344D01*
X0496794Y0359216D01*
X0496717Y0359090D01*
X0496636Y0358966D01*
X0496552Y0358844D01*
X0496465Y0358725D01*
X0496374Y0358608D01*
X0496280Y0358493D01*
X0496184Y0358381D01*
X0496084Y0358271D01*
X0495982Y0358165D01*
X0495876Y0358061D01*
X0495768Y0357960D01*
X0495657Y0357862D01*
X0495544Y0357766D01*
X0495428Y0357674D01*
X0495310Y0357585D01*
X0495189Y0357500D01*
X0495066Y0357417D01*
X0494941Y0357338D01*
X0494814Y0357262D01*
X0494685Y0357190D01*
X0494554Y0357121D01*
X0494421Y0357056D01*
X0494286Y0356995D01*
X0494150Y0356937D01*
X0494013Y0356882D01*
X0493874Y0356832D01*
X0493733Y0356785D01*
X0493592Y0356742D01*
X0493449Y0356702D01*
X0493305Y0356667D01*
X0493161Y0356635D01*
X0493015Y0356608D01*
X0492869Y0356584D01*
X0492722Y0356564D01*
X0492575Y0356548D01*
X0492428Y0356536D01*
X0492280Y0356528D01*
X0492132Y0356524D01*
X0491984Y0356524D01*
X0491836Y0356528D01*
X0491688Y0356536D01*
X0491541Y0356548D01*
X0491394Y0356564D01*
X0491247Y0356584D01*
X0491101Y0356608D01*
X0490955Y0356635D01*
X0490811Y0356667D01*
X0490667Y0356702D01*
X0490524Y0356742D01*
X0490383Y0356785D01*
X0490242Y0356832D01*
X0490103Y0356882D01*
X0489966Y0356937D01*
X0489830Y0356995D01*
X0489695Y0357056D01*
X0489562Y0357121D01*
X0489431Y0357190D01*
X0489302Y0357262D01*
X0489175Y0357338D01*
X0489050Y0357417D01*
X0488927Y0357500D01*
X0488806Y0357585D01*
X0488688Y0357674D01*
X0488572Y0357766D01*
X0488459Y0357862D01*
X0488348Y0357960D01*
X0488240Y0358061D01*
X0488134Y0358165D01*
X0488032Y0358271D01*
X0487932Y0358381D01*
X0487836Y0358493D01*
X0487742Y0358608D01*
X0487651Y0358725D01*
X0487564Y0358844D01*
X0487480Y0358966D01*
X0487399Y0359090D01*
X0487322Y0359216D01*
X0487248Y0359344D01*
X0487177Y0359474D01*
X0487110Y0359606D01*
X0487047Y0359740D01*
X0486987Y0359875D01*
X0486931Y0360012D01*
X0486878Y0360151D01*
X0486830Y0360291D01*
X0486785Y0360432D01*
X0486744Y0360574D01*
X0486706Y0360717D01*
X0486673Y0360861D01*
X0486643Y0361006D01*
X0486617Y0361152D01*
X0486596Y0361298D01*
X0486578Y0361445D01*
X0486564Y0361592D01*
X0486554Y0361740D01*
X0486548Y0361888D01*
X0486546Y0362036D01*
X0486546Y0539202D02*
X0486548Y0539350D01*
X0486554Y0539498D01*
X0486564Y0539646D01*
X0486578Y0539793D01*
X0486596Y0539940D01*
X0486617Y0540086D01*
X0486643Y0540232D01*
X0486673Y0540377D01*
X0486706Y0540521D01*
X0486744Y0540664D01*
X0486785Y0540806D01*
X0486830Y0540947D01*
X0486878Y0541087D01*
X0486931Y0541226D01*
X0486987Y0541363D01*
X0487047Y0541498D01*
X0487110Y0541632D01*
X0487177Y0541764D01*
X0487248Y0541894D01*
X0487322Y0542022D01*
X0487399Y0542148D01*
X0487480Y0542272D01*
X0487564Y0542394D01*
X0487651Y0542513D01*
X0487742Y0542630D01*
X0487836Y0542745D01*
X0487932Y0542857D01*
X0488032Y0542967D01*
X0488134Y0543073D01*
X0488240Y0543177D01*
X0488348Y0543278D01*
X0488459Y0543376D01*
X0488572Y0543472D01*
X0488688Y0543564D01*
X0488806Y0543653D01*
X0488927Y0543738D01*
X0489050Y0543821D01*
X0489175Y0543900D01*
X0489302Y0543976D01*
X0489431Y0544048D01*
X0489562Y0544117D01*
X0489695Y0544182D01*
X0489830Y0544243D01*
X0489966Y0544301D01*
X0490103Y0544356D01*
X0490242Y0544406D01*
X0490383Y0544453D01*
X0490524Y0544496D01*
X0490667Y0544536D01*
X0490811Y0544571D01*
X0490955Y0544603D01*
X0491101Y0544630D01*
X0491247Y0544654D01*
X0491394Y0544674D01*
X0491541Y0544690D01*
X0491688Y0544702D01*
X0491836Y0544710D01*
X0491984Y0544714D01*
X0492132Y0544714D01*
X0492280Y0544710D01*
X0492428Y0544702D01*
X0492575Y0544690D01*
X0492722Y0544674D01*
X0492869Y0544654D01*
X0493015Y0544630D01*
X0493161Y0544603D01*
X0493305Y0544571D01*
X0493449Y0544536D01*
X0493592Y0544496D01*
X0493733Y0544453D01*
X0493874Y0544406D01*
X0494013Y0544356D01*
X0494150Y0544301D01*
X0494286Y0544243D01*
X0494421Y0544182D01*
X0494554Y0544117D01*
X0494685Y0544048D01*
X0494814Y0543976D01*
X0494941Y0543900D01*
X0495066Y0543821D01*
X0495189Y0543738D01*
X0495310Y0543653D01*
X0495428Y0543564D01*
X0495544Y0543472D01*
X0495657Y0543376D01*
X0495768Y0543278D01*
X0495876Y0543177D01*
X0495982Y0543073D01*
X0496084Y0542967D01*
X0496184Y0542857D01*
X0496280Y0542745D01*
X0496374Y0542630D01*
X0496465Y0542513D01*
X0496552Y0542394D01*
X0496636Y0542272D01*
X0496717Y0542148D01*
X0496794Y0542022D01*
X0496868Y0541894D01*
X0496939Y0541764D01*
X0497006Y0541632D01*
X0497069Y0541498D01*
X0497129Y0541363D01*
X0497185Y0541226D01*
X0497238Y0541087D01*
X0497286Y0540947D01*
X0497331Y0540806D01*
X0497372Y0540664D01*
X0497410Y0540521D01*
X0497443Y0540377D01*
X0497473Y0540232D01*
X0497499Y0540086D01*
X0497520Y0539940D01*
X0497538Y0539793D01*
X0497552Y0539646D01*
X0497562Y0539498D01*
X0497568Y0539350D01*
X0497570Y0539202D01*
X0497568Y0539054D01*
X0497562Y0538906D01*
X0497552Y0538758D01*
X0497538Y0538611D01*
X0497520Y0538464D01*
X0497499Y0538318D01*
X0497473Y0538172D01*
X0497443Y0538027D01*
X0497410Y0537883D01*
X0497372Y0537740D01*
X0497331Y0537598D01*
X0497286Y0537457D01*
X0497238Y0537317D01*
X0497185Y0537178D01*
X0497129Y0537041D01*
X0497069Y0536906D01*
X0497006Y0536772D01*
X0496939Y0536640D01*
X0496868Y0536510D01*
X0496794Y0536382D01*
X0496717Y0536256D01*
X0496636Y0536132D01*
X0496552Y0536010D01*
X0496465Y0535891D01*
X0496374Y0535774D01*
X0496280Y0535659D01*
X0496184Y0535547D01*
X0496084Y0535437D01*
X0495982Y0535331D01*
X0495876Y0535227D01*
X0495768Y0535126D01*
X0495657Y0535028D01*
X0495544Y0534932D01*
X0495428Y0534840D01*
X0495310Y0534751D01*
X0495189Y0534666D01*
X0495066Y0534583D01*
X0494941Y0534504D01*
X0494814Y0534428D01*
X0494685Y0534356D01*
X0494554Y0534287D01*
X0494421Y0534222D01*
X0494286Y0534161D01*
X0494150Y0534103D01*
X0494013Y0534048D01*
X0493874Y0533998D01*
X0493733Y0533951D01*
X0493592Y0533908D01*
X0493449Y0533868D01*
X0493305Y0533833D01*
X0493161Y0533801D01*
X0493015Y0533774D01*
X0492869Y0533750D01*
X0492722Y0533730D01*
X0492575Y0533714D01*
X0492428Y0533702D01*
X0492280Y0533694D01*
X0492132Y0533690D01*
X0491984Y0533690D01*
X0491836Y0533694D01*
X0491688Y0533702D01*
X0491541Y0533714D01*
X0491394Y0533730D01*
X0491247Y0533750D01*
X0491101Y0533774D01*
X0490955Y0533801D01*
X0490811Y0533833D01*
X0490667Y0533868D01*
X0490524Y0533908D01*
X0490383Y0533951D01*
X0490242Y0533998D01*
X0490103Y0534048D01*
X0489966Y0534103D01*
X0489830Y0534161D01*
X0489695Y0534222D01*
X0489562Y0534287D01*
X0489431Y0534356D01*
X0489302Y0534428D01*
X0489175Y0534504D01*
X0489050Y0534583D01*
X0488927Y0534666D01*
X0488806Y0534751D01*
X0488688Y0534840D01*
X0488572Y0534932D01*
X0488459Y0535028D01*
X0488348Y0535126D01*
X0488240Y0535227D01*
X0488134Y0535331D01*
X0488032Y0535437D01*
X0487932Y0535547D01*
X0487836Y0535659D01*
X0487742Y0535774D01*
X0487651Y0535891D01*
X0487564Y0536010D01*
X0487480Y0536132D01*
X0487399Y0536256D01*
X0487322Y0536382D01*
X0487248Y0536510D01*
X0487177Y0536640D01*
X0487110Y0536772D01*
X0487047Y0536906D01*
X0486987Y0537041D01*
X0486931Y0537178D01*
X0486878Y0537317D01*
X0486830Y0537457D01*
X0486785Y0537598D01*
X0486744Y0537740D01*
X0486706Y0537883D01*
X0486673Y0538027D01*
X0486643Y0538172D01*
X0486617Y0538318D01*
X0486596Y0538464D01*
X0486578Y0538611D01*
X0486564Y0538758D01*
X0486554Y0538906D01*
X0486548Y0539054D01*
X0486546Y0539202D01*
D11*
X0492058Y0539202D03*
X0314893Y0539202D03*
X0295208Y0539202D03*
X0118043Y0539202D03*
X0118043Y0362036D03*
X0118043Y0342351D03*
X0295208Y0342351D03*
X0314893Y0342351D03*
X0314893Y0362036D03*
X0295208Y0362036D03*
X0295208Y0165186D03*
X0314893Y0165186D03*
X0492058Y0165186D03*
X0492058Y0342351D03*
X0492058Y0362036D03*
X0118043Y0165186D03*
D12*
X0117058Y0155343D02*
X0295208Y0155343D01*
X0295446Y0155346D01*
X0295684Y0155354D01*
X0295921Y0155369D01*
X0296158Y0155389D01*
X0296394Y0155415D01*
X0296630Y0155446D01*
X0296865Y0155483D01*
X0297099Y0155526D01*
X0297332Y0155575D01*
X0297564Y0155629D01*
X0297794Y0155689D01*
X0298023Y0155754D01*
X0298250Y0155825D01*
X0298475Y0155901D01*
X0298698Y0155983D01*
X0298920Y0156070D01*
X0299139Y0156162D01*
X0299356Y0156260D01*
X0299570Y0156362D01*
X0299782Y0156470D01*
X0299992Y0156584D01*
X0300198Y0156702D01*
X0300402Y0156825D01*
X0300602Y0156953D01*
X0300799Y0157085D01*
X0300994Y0157223D01*
X0301184Y0157365D01*
X0301372Y0157512D01*
X0301555Y0157663D01*
X0301735Y0157818D01*
X0301911Y0157978D01*
X0302083Y0158142D01*
X0302252Y0158311D01*
X0302416Y0158483D01*
X0302576Y0158659D01*
X0302731Y0158839D01*
X0302882Y0159022D01*
X0303029Y0159210D01*
X0303171Y0159400D01*
X0303309Y0159595D01*
X0303441Y0159792D01*
X0303569Y0159992D01*
X0303692Y0160196D01*
X0303810Y0160402D01*
X0303924Y0160612D01*
X0304032Y0160824D01*
X0304134Y0161038D01*
X0304232Y0161255D01*
X0304324Y0161474D01*
X0304411Y0161696D01*
X0304493Y0161919D01*
X0304569Y0162144D01*
X0304640Y0162371D01*
X0304705Y0162600D01*
X0304765Y0162830D01*
X0304819Y0163062D01*
X0304868Y0163295D01*
X0304911Y0163529D01*
X0304948Y0163764D01*
X0304979Y0164000D01*
X0305005Y0164236D01*
X0305025Y0164473D01*
X0305040Y0164710D01*
X0305048Y0164948D01*
X0305051Y0165186D01*
X0305042Y0164960D01*
X0305038Y0164734D01*
X0305040Y0164508D01*
X0305047Y0164281D01*
X0305060Y0164055D01*
X0305078Y0163830D01*
X0305102Y0163605D01*
X0305131Y0163381D01*
X0305165Y0163157D01*
X0305205Y0162934D01*
X0305250Y0162712D01*
X0305301Y0162492D01*
X0305356Y0162273D01*
X0305418Y0162055D01*
X0305484Y0161839D01*
X0305556Y0161624D01*
X0305632Y0161411D01*
X0305714Y0161200D01*
X0305801Y0160991D01*
X0305893Y0160785D01*
X0305990Y0160580D01*
X0306092Y0160378D01*
X0306199Y0160179D01*
X0306310Y0159982D01*
X0306427Y0159788D01*
X0306547Y0159596D01*
X0306673Y0159408D01*
X0306803Y0159223D01*
X0306937Y0159041D01*
X0307076Y0158862D01*
X0307219Y0158687D01*
X0307366Y0158515D01*
X0307518Y0158347D01*
X0307673Y0158182D01*
X0307832Y0158022D01*
X0307996Y0157865D01*
X0308162Y0157712D01*
X0308333Y0157563D01*
X0308507Y0157419D01*
X0308685Y0157279D01*
X0308865Y0157143D01*
X0309050Y0157011D01*
X0309237Y0156884D01*
X0309427Y0156762D01*
X0309620Y0156644D01*
X0309816Y0156530D01*
X0310015Y0156422D01*
X0310216Y0156318D01*
X0310419Y0156220D01*
X0310625Y0156126D01*
X0310833Y0156037D01*
X0311044Y0155954D01*
X0311256Y0155875D01*
X0311470Y0155802D01*
X0311686Y0155733D01*
X0311903Y0155670D01*
X0312122Y0155613D01*
X0312342Y0155560D01*
X0312563Y0155513D01*
X0312785Y0155471D01*
X0313009Y0155435D01*
X0313233Y0155404D01*
X0313458Y0155379D01*
X0313683Y0155359D01*
X0313909Y0155344D01*
X0313909Y0155343D02*
X0492058Y0155343D01*
X0492296Y0155346D01*
X0492534Y0155354D01*
X0492771Y0155369D01*
X0493008Y0155389D01*
X0493244Y0155415D01*
X0493480Y0155446D01*
X0493715Y0155483D01*
X0493949Y0155526D01*
X0494182Y0155575D01*
X0494414Y0155629D01*
X0494644Y0155689D01*
X0494873Y0155754D01*
X0495100Y0155825D01*
X0495325Y0155901D01*
X0495548Y0155983D01*
X0495770Y0156070D01*
X0495989Y0156162D01*
X0496206Y0156260D01*
X0496420Y0156362D01*
X0496632Y0156470D01*
X0496842Y0156584D01*
X0497048Y0156702D01*
X0497252Y0156825D01*
X0497452Y0156953D01*
X0497649Y0157085D01*
X0497844Y0157223D01*
X0498034Y0157365D01*
X0498222Y0157512D01*
X0498405Y0157663D01*
X0498585Y0157818D01*
X0498761Y0157978D01*
X0498933Y0158142D01*
X0499102Y0158311D01*
X0499266Y0158483D01*
X0499426Y0158659D01*
X0499581Y0158839D01*
X0499732Y0159022D01*
X0499879Y0159210D01*
X0500021Y0159400D01*
X0500159Y0159595D01*
X0500291Y0159792D01*
X0500419Y0159992D01*
X0500542Y0160196D01*
X0500660Y0160402D01*
X0500774Y0160612D01*
X0500882Y0160824D01*
X0500984Y0161038D01*
X0501082Y0161255D01*
X0501174Y0161474D01*
X0501261Y0161696D01*
X0501343Y0161919D01*
X0501419Y0162144D01*
X0501490Y0162371D01*
X0501555Y0162600D01*
X0501615Y0162830D01*
X0501669Y0163062D01*
X0501718Y0163295D01*
X0501761Y0163529D01*
X0501798Y0163764D01*
X0501829Y0164000D01*
X0501855Y0164236D01*
X0501875Y0164473D01*
X0501890Y0164710D01*
X0501898Y0164948D01*
X0501901Y0165186D01*
X0501901Y0342351D01*
X0501898Y0342589D01*
X0501890Y0342827D01*
X0501875Y0343064D01*
X0501855Y0343301D01*
X0501829Y0343537D01*
X0501798Y0343773D01*
X0501761Y0344008D01*
X0501718Y0344242D01*
X0501669Y0344475D01*
X0501615Y0344707D01*
X0501555Y0344937D01*
X0501490Y0345166D01*
X0501419Y0345393D01*
X0501343Y0345618D01*
X0501261Y0345841D01*
X0501174Y0346063D01*
X0501082Y0346282D01*
X0500984Y0346499D01*
X0500882Y0346713D01*
X0500774Y0346925D01*
X0500660Y0347135D01*
X0500542Y0347341D01*
X0500419Y0347545D01*
X0500291Y0347745D01*
X0500159Y0347942D01*
X0500021Y0348137D01*
X0499879Y0348327D01*
X0499732Y0348515D01*
X0499581Y0348698D01*
X0499426Y0348878D01*
X0499266Y0349054D01*
X0499102Y0349226D01*
X0498933Y0349395D01*
X0498761Y0349559D01*
X0498585Y0349719D01*
X0498405Y0349874D01*
X0498222Y0350025D01*
X0498034Y0350172D01*
X0497844Y0350314D01*
X0497649Y0350452D01*
X0497452Y0350584D01*
X0497252Y0350712D01*
X0497048Y0350835D01*
X0496842Y0350953D01*
X0496632Y0351067D01*
X0496420Y0351175D01*
X0496206Y0351277D01*
X0495989Y0351375D01*
X0495770Y0351467D01*
X0495548Y0351554D01*
X0495325Y0351636D01*
X0495100Y0351712D01*
X0494873Y0351783D01*
X0494644Y0351848D01*
X0494414Y0351908D01*
X0494182Y0351962D01*
X0493949Y0352011D01*
X0493715Y0352054D01*
X0493480Y0352091D01*
X0493244Y0352122D01*
X0493008Y0352148D01*
X0492771Y0352168D01*
X0492534Y0352183D01*
X0492296Y0352191D01*
X0492058Y0352194D01*
X0492058Y0352193D02*
X0492296Y0352196D01*
X0492534Y0352204D01*
X0492771Y0352219D01*
X0493008Y0352239D01*
X0493244Y0352265D01*
X0493480Y0352296D01*
X0493715Y0352333D01*
X0493949Y0352376D01*
X0494182Y0352425D01*
X0494414Y0352479D01*
X0494644Y0352539D01*
X0494873Y0352604D01*
X0495100Y0352675D01*
X0495325Y0352751D01*
X0495548Y0352833D01*
X0495770Y0352920D01*
X0495989Y0353012D01*
X0496206Y0353110D01*
X0496420Y0353212D01*
X0496632Y0353320D01*
X0496842Y0353434D01*
X0497048Y0353552D01*
X0497252Y0353675D01*
X0497452Y0353803D01*
X0497649Y0353935D01*
X0497844Y0354073D01*
X0498034Y0354215D01*
X0498222Y0354362D01*
X0498405Y0354513D01*
X0498585Y0354668D01*
X0498761Y0354828D01*
X0498933Y0354992D01*
X0499102Y0355161D01*
X0499266Y0355333D01*
X0499426Y0355509D01*
X0499581Y0355689D01*
X0499732Y0355872D01*
X0499879Y0356060D01*
X0500021Y0356250D01*
X0500159Y0356445D01*
X0500291Y0356642D01*
X0500419Y0356842D01*
X0500542Y0357046D01*
X0500660Y0357252D01*
X0500774Y0357462D01*
X0500882Y0357674D01*
X0500984Y0357888D01*
X0501082Y0358105D01*
X0501174Y0358324D01*
X0501261Y0358546D01*
X0501343Y0358769D01*
X0501419Y0358994D01*
X0501490Y0359221D01*
X0501555Y0359450D01*
X0501615Y0359680D01*
X0501669Y0359912D01*
X0501718Y0360145D01*
X0501761Y0360379D01*
X0501798Y0360614D01*
X0501829Y0360850D01*
X0501855Y0361086D01*
X0501875Y0361323D01*
X0501890Y0361560D01*
X0501898Y0361798D01*
X0501901Y0362036D01*
X0501901Y0539202D01*
X0501898Y0539440D01*
X0501890Y0539678D01*
X0501875Y0539915D01*
X0501855Y0540152D01*
X0501829Y0540388D01*
X0501798Y0540624D01*
X0501761Y0540859D01*
X0501718Y0541093D01*
X0501669Y0541326D01*
X0501615Y0541558D01*
X0501555Y0541788D01*
X0501490Y0542017D01*
X0501419Y0542244D01*
X0501343Y0542469D01*
X0501261Y0542692D01*
X0501174Y0542914D01*
X0501082Y0543133D01*
X0500984Y0543350D01*
X0500882Y0543564D01*
X0500774Y0543776D01*
X0500660Y0543986D01*
X0500542Y0544192D01*
X0500419Y0544396D01*
X0500291Y0544596D01*
X0500159Y0544793D01*
X0500021Y0544988D01*
X0499879Y0545178D01*
X0499732Y0545366D01*
X0499581Y0545549D01*
X0499426Y0545729D01*
X0499266Y0545905D01*
X0499102Y0546077D01*
X0498933Y0546246D01*
X0498761Y0546410D01*
X0498585Y0546570D01*
X0498405Y0546725D01*
X0498222Y0546876D01*
X0498034Y0547023D01*
X0497844Y0547165D01*
X0497649Y0547303D01*
X0497452Y0547435D01*
X0497252Y0547563D01*
X0497048Y0547686D01*
X0496842Y0547804D01*
X0496632Y0547918D01*
X0496420Y0548026D01*
X0496206Y0548128D01*
X0495989Y0548226D01*
X0495770Y0548318D01*
X0495548Y0548405D01*
X0495325Y0548487D01*
X0495100Y0548563D01*
X0494873Y0548634D01*
X0494644Y0548699D01*
X0494414Y0548759D01*
X0494182Y0548813D01*
X0493949Y0548862D01*
X0493715Y0548905D01*
X0493480Y0548942D01*
X0493244Y0548973D01*
X0493008Y0548999D01*
X0492771Y0549019D01*
X0492534Y0549034D01*
X0492296Y0549042D01*
X0492058Y0549045D01*
X0492058Y0549044D02*
X0314893Y0549044D01*
X0314893Y0549045D02*
X0314655Y0549042D01*
X0314417Y0549034D01*
X0314180Y0549019D01*
X0313943Y0548999D01*
X0313707Y0548973D01*
X0313471Y0548942D01*
X0313236Y0548905D01*
X0313002Y0548862D01*
X0312769Y0548813D01*
X0312537Y0548759D01*
X0312307Y0548699D01*
X0312078Y0548634D01*
X0311851Y0548563D01*
X0311626Y0548487D01*
X0311403Y0548405D01*
X0311181Y0548318D01*
X0310962Y0548226D01*
X0310745Y0548128D01*
X0310531Y0548026D01*
X0310319Y0547918D01*
X0310109Y0547804D01*
X0309903Y0547686D01*
X0309699Y0547563D01*
X0309499Y0547435D01*
X0309302Y0547303D01*
X0309107Y0547165D01*
X0308917Y0547023D01*
X0308729Y0546876D01*
X0308546Y0546725D01*
X0308366Y0546570D01*
X0308190Y0546410D01*
X0308018Y0546246D01*
X0307849Y0546077D01*
X0307685Y0545905D01*
X0307525Y0545729D01*
X0307370Y0545549D01*
X0307219Y0545366D01*
X0307072Y0545178D01*
X0306930Y0544988D01*
X0306792Y0544793D01*
X0306660Y0544596D01*
X0306532Y0544396D01*
X0306409Y0544192D01*
X0306291Y0543986D01*
X0306177Y0543776D01*
X0306069Y0543564D01*
X0305967Y0543350D01*
X0305869Y0543133D01*
X0305777Y0542914D01*
X0305690Y0542692D01*
X0305608Y0542469D01*
X0305532Y0542244D01*
X0305461Y0542017D01*
X0305396Y0541788D01*
X0305336Y0541558D01*
X0305282Y0541326D01*
X0305233Y0541093D01*
X0305190Y0540859D01*
X0305153Y0540624D01*
X0305122Y0540388D01*
X0305096Y0540152D01*
X0305076Y0539915D01*
X0305061Y0539678D01*
X0305053Y0539440D01*
X0305050Y0539202D01*
X0305051Y0539202D02*
X0305048Y0539440D01*
X0305040Y0539678D01*
X0305025Y0539915D01*
X0305005Y0540152D01*
X0304979Y0540388D01*
X0304948Y0540624D01*
X0304911Y0540859D01*
X0304868Y0541093D01*
X0304819Y0541326D01*
X0304765Y0541558D01*
X0304705Y0541788D01*
X0304640Y0542017D01*
X0304569Y0542244D01*
X0304493Y0542469D01*
X0304411Y0542692D01*
X0304324Y0542914D01*
X0304232Y0543133D01*
X0304134Y0543350D01*
X0304032Y0543564D01*
X0303924Y0543776D01*
X0303810Y0543986D01*
X0303692Y0544192D01*
X0303569Y0544396D01*
X0303441Y0544596D01*
X0303309Y0544793D01*
X0303171Y0544988D01*
X0303029Y0545178D01*
X0302882Y0545366D01*
X0302731Y0545549D01*
X0302576Y0545729D01*
X0302416Y0545905D01*
X0302252Y0546077D01*
X0302083Y0546246D01*
X0301911Y0546410D01*
X0301735Y0546570D01*
X0301555Y0546725D01*
X0301372Y0546876D01*
X0301184Y0547023D01*
X0300994Y0547165D01*
X0300799Y0547303D01*
X0300602Y0547435D01*
X0300402Y0547563D01*
X0300198Y0547686D01*
X0299992Y0547804D01*
X0299782Y0547918D01*
X0299570Y0548026D01*
X0299356Y0548128D01*
X0299139Y0548226D01*
X0298920Y0548318D01*
X0298698Y0548405D01*
X0298475Y0548487D01*
X0298250Y0548563D01*
X0298023Y0548634D01*
X0297794Y0548699D01*
X0297564Y0548759D01*
X0297332Y0548813D01*
X0297099Y0548862D01*
X0296865Y0548905D01*
X0296630Y0548942D01*
X0296394Y0548973D01*
X0296158Y0548999D01*
X0295921Y0549019D01*
X0295684Y0549034D01*
X0295446Y0549042D01*
X0295208Y0549045D01*
X0295208Y0549044D02*
X0118043Y0549044D01*
X0118043Y0549045D02*
X0117805Y0549042D01*
X0117567Y0549034D01*
X0117330Y0549019D01*
X0117093Y0548999D01*
X0116857Y0548973D01*
X0116621Y0548942D01*
X0116386Y0548905D01*
X0116152Y0548862D01*
X0115919Y0548813D01*
X0115687Y0548759D01*
X0115457Y0548699D01*
X0115228Y0548634D01*
X0115001Y0548563D01*
X0114776Y0548487D01*
X0114553Y0548405D01*
X0114331Y0548318D01*
X0114112Y0548226D01*
X0113895Y0548128D01*
X0113681Y0548026D01*
X0113469Y0547918D01*
X0113259Y0547804D01*
X0113053Y0547686D01*
X0112849Y0547563D01*
X0112649Y0547435D01*
X0112452Y0547303D01*
X0112257Y0547165D01*
X0112067Y0547023D01*
X0111879Y0546876D01*
X0111696Y0546725D01*
X0111516Y0546570D01*
X0111340Y0546410D01*
X0111168Y0546246D01*
X0110999Y0546077D01*
X0110835Y0545905D01*
X0110675Y0545729D01*
X0110520Y0545549D01*
X0110369Y0545366D01*
X0110222Y0545178D01*
X0110080Y0544988D01*
X0109942Y0544793D01*
X0109810Y0544596D01*
X0109682Y0544396D01*
X0109559Y0544192D01*
X0109441Y0543986D01*
X0109327Y0543776D01*
X0109219Y0543564D01*
X0109117Y0543350D01*
X0109019Y0543133D01*
X0108927Y0542914D01*
X0108840Y0542692D01*
X0108758Y0542469D01*
X0108682Y0542244D01*
X0108611Y0542017D01*
X0108546Y0541788D01*
X0108486Y0541558D01*
X0108432Y0541326D01*
X0108383Y0541093D01*
X0108340Y0540859D01*
X0108303Y0540624D01*
X0108272Y0540388D01*
X0108246Y0540152D01*
X0108226Y0539915D01*
X0108211Y0539678D01*
X0108203Y0539440D01*
X0108200Y0539202D01*
X0108200Y0362036D01*
X0108191Y0361810D01*
X0108187Y0361584D01*
X0108189Y0361358D01*
X0108196Y0361131D01*
X0108209Y0360905D01*
X0108227Y0360680D01*
X0108251Y0360455D01*
X0108280Y0360231D01*
X0108314Y0360007D01*
X0108354Y0359784D01*
X0108399Y0359562D01*
X0108450Y0359342D01*
X0108505Y0359123D01*
X0108567Y0358905D01*
X0108633Y0358689D01*
X0108705Y0358474D01*
X0108781Y0358261D01*
X0108863Y0358050D01*
X0108950Y0357841D01*
X0109042Y0357635D01*
X0109139Y0357430D01*
X0109241Y0357228D01*
X0109348Y0357029D01*
X0109459Y0356832D01*
X0109576Y0356638D01*
X0109696Y0356446D01*
X0109822Y0356258D01*
X0109952Y0356073D01*
X0110086Y0355891D01*
X0110225Y0355712D01*
X0110368Y0355537D01*
X0110515Y0355365D01*
X0110667Y0355197D01*
X0110822Y0355032D01*
X0110981Y0354872D01*
X0111145Y0354715D01*
X0111311Y0354562D01*
X0111482Y0354413D01*
X0111656Y0354269D01*
X0111834Y0354129D01*
X0112014Y0353993D01*
X0112199Y0353861D01*
X0112386Y0353734D01*
X0112576Y0353612D01*
X0112769Y0353494D01*
X0112965Y0353380D01*
X0113164Y0353272D01*
X0113365Y0353168D01*
X0113568Y0353070D01*
X0113774Y0352976D01*
X0113982Y0352887D01*
X0114193Y0352804D01*
X0114405Y0352725D01*
X0114619Y0352652D01*
X0114835Y0352583D01*
X0115052Y0352520D01*
X0115271Y0352463D01*
X0115491Y0352410D01*
X0115712Y0352363D01*
X0115934Y0352321D01*
X0116158Y0352285D01*
X0116382Y0352254D01*
X0116607Y0352229D01*
X0116832Y0352209D01*
X0117058Y0352194D01*
X0118043Y0352194D01*
X0117805Y0352191D01*
X0117567Y0352183D01*
X0117330Y0352168D01*
X0117093Y0352148D01*
X0116857Y0352122D01*
X0116621Y0352091D01*
X0116386Y0352054D01*
X0116152Y0352011D01*
X0115919Y0351962D01*
X0115687Y0351908D01*
X0115457Y0351848D01*
X0115228Y0351783D01*
X0115001Y0351712D01*
X0114776Y0351636D01*
X0114553Y0351554D01*
X0114331Y0351467D01*
X0114112Y0351375D01*
X0113895Y0351277D01*
X0113681Y0351175D01*
X0113469Y0351067D01*
X0113259Y0350953D01*
X0113053Y0350835D01*
X0112849Y0350712D01*
X0112649Y0350584D01*
X0112452Y0350452D01*
X0112257Y0350314D01*
X0112067Y0350172D01*
X0111879Y0350025D01*
X0111696Y0349874D01*
X0111516Y0349719D01*
X0111340Y0349559D01*
X0111168Y0349395D01*
X0110999Y0349226D01*
X0110835Y0349054D01*
X0110675Y0348878D01*
X0110520Y0348698D01*
X0110369Y0348515D01*
X0110222Y0348327D01*
X0110080Y0348137D01*
X0109942Y0347942D01*
X0109810Y0347745D01*
X0109682Y0347545D01*
X0109559Y0347341D01*
X0109441Y0347135D01*
X0109327Y0346925D01*
X0109219Y0346713D01*
X0109117Y0346499D01*
X0109019Y0346282D01*
X0108927Y0346063D01*
X0108840Y0345841D01*
X0108758Y0345618D01*
X0108682Y0345393D01*
X0108611Y0345166D01*
X0108546Y0344937D01*
X0108486Y0344707D01*
X0108432Y0344475D01*
X0108383Y0344242D01*
X0108340Y0344008D01*
X0108303Y0343773D01*
X0108272Y0343537D01*
X0108246Y0343301D01*
X0108226Y0343064D01*
X0108211Y0342827D01*
X0108203Y0342589D01*
X0108200Y0342351D01*
X0108200Y0165186D01*
X0108191Y0164960D01*
X0108187Y0164734D01*
X0108189Y0164508D01*
X0108196Y0164281D01*
X0108209Y0164055D01*
X0108227Y0163830D01*
X0108251Y0163605D01*
X0108280Y0163381D01*
X0108314Y0163157D01*
X0108354Y0162934D01*
X0108399Y0162712D01*
X0108450Y0162492D01*
X0108505Y0162273D01*
X0108567Y0162055D01*
X0108633Y0161839D01*
X0108705Y0161624D01*
X0108781Y0161411D01*
X0108863Y0161200D01*
X0108950Y0160991D01*
X0109042Y0160785D01*
X0109139Y0160580D01*
X0109241Y0160378D01*
X0109348Y0160179D01*
X0109459Y0159982D01*
X0109576Y0159788D01*
X0109696Y0159596D01*
X0109822Y0159408D01*
X0109952Y0159223D01*
X0110086Y0159041D01*
X0110225Y0158862D01*
X0110368Y0158687D01*
X0110515Y0158515D01*
X0110667Y0158347D01*
X0110822Y0158182D01*
X0110981Y0158022D01*
X0111145Y0157865D01*
X0111311Y0157712D01*
X0111482Y0157563D01*
X0111656Y0157419D01*
X0111834Y0157279D01*
X0112014Y0157143D01*
X0112199Y0157011D01*
X0112386Y0156884D01*
X0112576Y0156762D01*
X0112769Y0156644D01*
X0112965Y0156530D01*
X0113164Y0156422D01*
X0113365Y0156318D01*
X0113568Y0156220D01*
X0113774Y0156126D01*
X0113982Y0156037D01*
X0114193Y0155954D01*
X0114405Y0155875D01*
X0114619Y0155802D01*
X0114835Y0155733D01*
X0115052Y0155670D01*
X0115271Y0155613D01*
X0115491Y0155560D01*
X0115712Y0155513D01*
X0115934Y0155471D01*
X0116158Y0155435D01*
X0116382Y0155404D01*
X0116607Y0155379D01*
X0116832Y0155359D01*
X0117058Y0155344D01*
D13*
X0211291Y0214556D03*
X0211665Y0278119D03*
X0211291Y0411406D03*
X0211665Y0474969D03*
X0408515Y0474969D03*
X0408141Y0411406D03*
X0408515Y0278119D03*
X0408141Y0214556D03*
D14*
X0400267Y0214556D03*
X0400641Y0278119D03*
X0400267Y0411406D03*
X0400641Y0474969D03*
X0203791Y0474969D03*
X0203417Y0411406D03*
X0203791Y0278119D03*
X0203417Y0214556D03*
D15*
X0225228Y0290619D03*
X0225228Y0325619D03*
X0225228Y0487469D03*
X0225228Y0522469D03*
X0422078Y0522469D03*
X0422078Y0487469D03*
X0422078Y0325619D03*
X0422078Y0290619D03*
D16*
X0471704Y0321524D03*
X0274854Y0321524D03*
X0274854Y0518375D03*
X0471704Y0518375D03*
D17*
X0471704Y0498690D03*
X0274854Y0498690D03*
X0274854Y0301839D03*
X0471704Y0301839D03*
D18*
X0439653Y0305619D02*
X0434503Y0305619D01*
X0434503Y0295619D02*
X0439653Y0295619D01*
X0439653Y0285619D02*
X0434503Y0285619D01*
X0434503Y0275619D02*
X0439653Y0275619D01*
X0439653Y0265619D02*
X0434503Y0265619D01*
X0434503Y0255619D02*
X0439653Y0255619D01*
X0439653Y0245619D02*
X0434503Y0245619D01*
X0434503Y0235619D02*
X0439653Y0235619D01*
X0439653Y0225619D02*
X0434503Y0225619D01*
X0434503Y0215619D02*
X0439653Y0215619D01*
X0439653Y0205619D02*
X0434503Y0205619D01*
X0434503Y0195619D02*
X0439653Y0195619D01*
X0439653Y0185619D02*
X0434503Y0185619D01*
X0434503Y0175619D02*
X0439653Y0175619D01*
X0439653Y0165619D02*
X0434503Y0165619D01*
X0379653Y0165619D02*
X0374503Y0165619D01*
X0374503Y0175619D02*
X0379653Y0175619D01*
X0379653Y0185619D02*
X0374503Y0185619D01*
X0374503Y0195619D02*
X0379653Y0195619D01*
X0379653Y0205619D02*
X0374503Y0205619D01*
X0374503Y0215619D02*
X0379653Y0215619D01*
X0379653Y0225619D02*
X0374503Y0225619D01*
X0374503Y0235619D02*
X0379653Y0235619D01*
X0379653Y0245619D02*
X0374503Y0245619D01*
X0374503Y0255619D02*
X0379653Y0255619D01*
X0379653Y0265619D02*
X0374503Y0265619D01*
X0374503Y0275619D02*
X0379653Y0275619D01*
X0379653Y0285619D02*
X0374503Y0285619D01*
X0374503Y0295619D02*
X0379653Y0295619D01*
X0379653Y0305619D02*
X0374503Y0305619D01*
X0374503Y0362469D02*
X0379653Y0362469D01*
X0379653Y0372469D02*
X0374503Y0372469D01*
X0374503Y0382469D02*
X0379653Y0382469D01*
X0379653Y0392469D02*
X0374503Y0392469D01*
X0374503Y0402469D02*
X0379653Y0402469D01*
X0379653Y0412469D02*
X0374503Y0412469D01*
X0374503Y0422469D02*
X0379653Y0422469D01*
X0379653Y0432469D02*
X0374503Y0432469D01*
X0374503Y0442469D02*
X0379653Y0442469D01*
X0379653Y0452469D02*
X0374503Y0452469D01*
X0374503Y0462469D02*
X0379653Y0462469D01*
X0379653Y0472469D02*
X0374503Y0472469D01*
X0374503Y0482469D02*
X0379653Y0482469D01*
X0379653Y0492469D02*
X0374503Y0492469D01*
X0374503Y0502469D02*
X0379653Y0502469D01*
X0434503Y0502469D02*
X0439653Y0502469D01*
X0439653Y0492469D02*
X0434503Y0492469D01*
X0434503Y0482469D02*
X0439653Y0482469D01*
X0439653Y0472469D02*
X0434503Y0472469D01*
X0434503Y0462469D02*
X0439653Y0462469D01*
X0439653Y0452469D02*
X0434503Y0452469D01*
X0434503Y0442469D02*
X0439653Y0442469D01*
X0439653Y0432469D02*
X0434503Y0432469D01*
X0434503Y0422469D02*
X0439653Y0422469D01*
X0439653Y0412469D02*
X0434503Y0412469D01*
X0434503Y0402469D02*
X0439653Y0402469D01*
X0439653Y0392469D02*
X0434503Y0392469D01*
X0434503Y0382469D02*
X0439653Y0382469D01*
X0439653Y0372469D02*
X0434503Y0372469D01*
X0434503Y0362469D02*
X0439653Y0362469D01*
X0242802Y0362469D02*
X0237653Y0362469D01*
X0237653Y0372469D02*
X0242802Y0372469D01*
X0242802Y0382469D02*
X0237653Y0382469D01*
X0237653Y0392469D02*
X0242802Y0392469D01*
X0242802Y0402469D02*
X0237653Y0402469D01*
X0237653Y0412469D02*
X0242802Y0412469D01*
X0242802Y0422469D02*
X0237653Y0422469D01*
X0237653Y0432469D02*
X0242802Y0432469D01*
X0242802Y0442469D02*
X0237653Y0442469D01*
X0237653Y0452469D02*
X0242802Y0452469D01*
X0242802Y0462469D02*
X0237653Y0462469D01*
X0237653Y0472469D02*
X0242802Y0472469D01*
X0242802Y0482469D02*
X0237653Y0482469D01*
X0237653Y0492469D02*
X0242802Y0492469D01*
X0242802Y0502469D02*
X0237653Y0502469D01*
X0182802Y0502469D02*
X0177653Y0502469D01*
X0177653Y0492469D02*
X0182802Y0492469D01*
X0182802Y0482469D02*
X0177653Y0482469D01*
X0177653Y0472469D02*
X0182802Y0472469D01*
X0182802Y0462469D02*
X0177653Y0462469D01*
X0177653Y0452469D02*
X0182802Y0452469D01*
X0182802Y0442469D02*
X0177653Y0442469D01*
X0177653Y0432469D02*
X0182802Y0432469D01*
X0182802Y0422469D02*
X0177653Y0422469D01*
X0177653Y0412469D02*
X0182802Y0412469D01*
X0182802Y0402469D02*
X0177653Y0402469D01*
X0177653Y0392469D02*
X0182802Y0392469D01*
X0182802Y0382469D02*
X0177653Y0382469D01*
X0177653Y0372469D02*
X0182802Y0372469D01*
X0182802Y0362469D02*
X0177653Y0362469D01*
X0177653Y0305619D02*
X0182802Y0305619D01*
X0182802Y0295619D02*
X0177653Y0295619D01*
X0177653Y0285619D02*
X0182802Y0285619D01*
X0182802Y0275619D02*
X0177653Y0275619D01*
X0177653Y0265619D02*
X0182802Y0265619D01*
X0182802Y0255619D02*
X0177653Y0255619D01*
X0177653Y0245619D02*
X0182802Y0245619D01*
X0182802Y0235619D02*
X0177653Y0235619D01*
X0177653Y0225619D02*
X0182802Y0225619D01*
X0182802Y0215619D02*
X0177653Y0215619D01*
X0177653Y0205619D02*
X0182802Y0205619D01*
X0182802Y0195619D02*
X0177653Y0195619D01*
X0177653Y0185619D02*
X0182802Y0185619D01*
X0182802Y0175619D02*
X0177653Y0175619D01*
X0177653Y0165619D02*
X0182802Y0165619D01*
X0237653Y0165619D02*
X0242802Y0165619D01*
X0242802Y0175619D02*
X0237653Y0175619D01*
X0237653Y0185619D02*
X0242802Y0185619D01*
X0242802Y0195619D02*
X0237653Y0195619D01*
X0237653Y0205619D02*
X0242802Y0205619D01*
X0242802Y0215619D02*
X0237653Y0215619D01*
X0237653Y0225619D02*
X0242802Y0225619D01*
X0242802Y0235619D02*
X0237653Y0235619D01*
X0237653Y0245619D02*
X0242802Y0245619D01*
X0242802Y0255619D02*
X0237653Y0255619D01*
X0237653Y0265619D02*
X0242802Y0265619D01*
X0242802Y0275619D02*
X0237653Y0275619D01*
X0237653Y0285619D02*
X0242802Y0285619D01*
X0242802Y0295619D02*
X0237653Y0295619D01*
X0237653Y0305619D02*
X0242802Y0305619D01*
D19*
X0244165Y0343119D03*
X0234165Y0343119D03*
X0265395Y0380097D03*
X0275523Y0380004D03*
X0275523Y0390004D03*
X0265395Y0390097D03*
X0265228Y0409969D03*
X0275228Y0409969D03*
X0275228Y0419969D03*
X0265228Y0419969D03*
X0265228Y0429969D03*
X0275228Y0429969D03*
X0275228Y0439969D03*
X0265228Y0439969D03*
X0265228Y0449969D03*
X0275228Y0449969D03*
X0275228Y0459969D03*
X0265228Y0459969D03*
X0265228Y0469969D03*
X0275228Y0469969D03*
X0285228Y0469969D03*
X0285228Y0459969D03*
X0285228Y0449969D03*
X0285228Y0439969D03*
X0285228Y0429969D03*
X0285228Y0419969D03*
X0285228Y0409969D03*
X0285533Y0389886D03*
X0285533Y0379886D03*
X0322078Y0379753D03*
X0332078Y0379753D03*
X0342078Y0379753D03*
X0342078Y0408493D03*
X0332078Y0408493D03*
X0322078Y0408493D03*
X0322078Y0437233D03*
X0332078Y0437233D03*
X0342078Y0437233D03*
X0342078Y0465973D03*
X0332078Y0465973D03*
X0322078Y0465973D03*
X0321891Y0494713D03*
X0331891Y0494713D03*
X0341891Y0494713D03*
X0342078Y0523454D03*
X0332078Y0523454D03*
X0322078Y0523454D03*
X0244165Y0539969D03*
X0234165Y0539969D03*
X0145228Y0523454D03*
X0135228Y0523454D03*
X0125228Y0523454D03*
X0125041Y0494713D03*
X0135041Y0494713D03*
X0145041Y0494713D03*
X0145228Y0465973D03*
X0135228Y0465973D03*
X0125228Y0465973D03*
X0125228Y0437233D03*
X0135228Y0437233D03*
X0145228Y0437233D03*
X0145228Y0408493D03*
X0135228Y0408493D03*
X0125228Y0408493D03*
X0125228Y0379753D03*
X0135228Y0379753D03*
X0145228Y0379753D03*
X0145228Y0326603D03*
X0135228Y0326603D03*
X0125228Y0326603D03*
X0125041Y0297863D03*
X0135041Y0297863D03*
X0145041Y0297863D03*
X0145228Y0269123D03*
X0135228Y0269123D03*
X0125228Y0269123D03*
X0125228Y0240383D03*
X0135228Y0240383D03*
X0145228Y0240383D03*
X0145228Y0211643D03*
X0135228Y0211643D03*
X0125228Y0211643D03*
X0125228Y0182902D03*
X0135228Y0182902D03*
X0145228Y0182902D03*
X0265395Y0183247D03*
X0275523Y0183153D03*
X0275523Y0193153D03*
X0265395Y0193247D03*
X0265228Y0213119D03*
X0275228Y0213119D03*
X0275228Y0223119D03*
X0265228Y0223119D03*
X0265228Y0233119D03*
X0275228Y0233119D03*
X0275228Y0243119D03*
X0265228Y0243119D03*
X0265228Y0253119D03*
X0275228Y0253119D03*
X0275228Y0263119D03*
X0265228Y0263119D03*
X0265228Y0273119D03*
X0275228Y0273119D03*
X0285228Y0273119D03*
X0285228Y0263119D03*
X0285228Y0253119D03*
X0285228Y0243119D03*
X0285228Y0233119D03*
X0285228Y0223119D03*
X0285228Y0213119D03*
X0285533Y0193035D03*
X0285533Y0183035D03*
X0322078Y0182902D03*
X0332078Y0182902D03*
X0342078Y0182902D03*
X0342078Y0211643D03*
X0332078Y0211643D03*
X0322078Y0211643D03*
X0322078Y0240383D03*
X0332078Y0240383D03*
X0342078Y0240383D03*
X0342078Y0269123D03*
X0332078Y0269123D03*
X0322078Y0269123D03*
X0321891Y0297863D03*
X0331891Y0297863D03*
X0341891Y0297863D03*
X0342078Y0326603D03*
X0332078Y0326603D03*
X0322078Y0326603D03*
X0431015Y0343119D03*
X0441015Y0343119D03*
X0462245Y0380097D03*
X0462245Y0390097D03*
X0472373Y0390004D03*
X0472373Y0380004D03*
X0482383Y0379886D03*
X0482383Y0389886D03*
X0482078Y0409969D03*
X0472078Y0409969D03*
X0472078Y0419969D03*
X0482078Y0419969D03*
X0482078Y0429969D03*
X0472078Y0429969D03*
X0472078Y0439969D03*
X0482078Y0439969D03*
X0482078Y0449969D03*
X0472078Y0449969D03*
X0472078Y0459969D03*
X0482078Y0459969D03*
X0482078Y0469969D03*
X0472078Y0469969D03*
X0462078Y0469969D03*
X0462078Y0459969D03*
X0462078Y0449969D03*
X0462078Y0439969D03*
X0462078Y0429969D03*
X0462078Y0419969D03*
X0462078Y0409969D03*
X0441015Y0539969D03*
X0431015Y0539969D03*
X0462078Y0273119D03*
X0472078Y0273119D03*
X0482078Y0273119D03*
X0482078Y0263119D03*
X0472078Y0263119D03*
X0472078Y0253119D03*
X0482078Y0253119D03*
X0482078Y0243119D03*
X0472078Y0243119D03*
X0472078Y0233119D03*
X0482078Y0233119D03*
X0482078Y0223119D03*
X0472078Y0223119D03*
X0472078Y0213119D03*
X0482078Y0213119D03*
X0462078Y0213119D03*
X0462078Y0223119D03*
X0462078Y0233119D03*
X0462078Y0243119D03*
X0462078Y0253119D03*
X0462078Y0263119D03*
X0462245Y0193247D03*
X0462245Y0183247D03*
X0472373Y0183153D03*
X0482383Y0183035D03*
X0482383Y0193035D03*
X0472373Y0193153D03*
D20*
X0404578Y0333119D03*
X0404578Y0343119D03*
X0394578Y0343119D03*
X0384578Y0343119D03*
X0384578Y0333119D03*
X0394578Y0333119D03*
X0207728Y0333119D03*
X0207728Y0343119D03*
X0197728Y0343119D03*
X0197728Y0333119D03*
X0187728Y0333119D03*
X0187728Y0343119D03*
X0187728Y0529969D03*
X0187728Y0539969D03*
X0197728Y0539969D03*
X0207728Y0539969D03*
X0207728Y0529969D03*
X0197728Y0529969D03*
X0384578Y0529969D03*
X0394578Y0529969D03*
X0394578Y0539969D03*
X0384578Y0539969D03*
X0404578Y0539969D03*
X0404578Y0529969D03*
D21*
X0352078Y0523454D03*
X0351891Y0494713D03*
X0352078Y0465973D03*
X0352078Y0437233D03*
X0352078Y0408493D03*
X0352078Y0379753D03*
X0352078Y0326603D03*
X0351891Y0297863D03*
X0352078Y0269123D03*
X0352078Y0240383D03*
X0352078Y0211643D03*
X0352078Y0182902D03*
X0285228Y0203119D03*
X0275228Y0203119D03*
X0265228Y0203119D03*
X0155228Y0211643D03*
X0155228Y0240383D03*
X0155228Y0269123D03*
X0155041Y0297863D03*
X0155228Y0326603D03*
X0155228Y0379753D03*
X0155228Y0408493D03*
X0155228Y0437233D03*
X0155228Y0465973D03*
X0155041Y0494713D03*
X0155228Y0523454D03*
X0265228Y0399969D03*
X0275228Y0399969D03*
X0285228Y0399969D03*
X0462078Y0399969D03*
X0472078Y0399969D03*
X0482078Y0399969D03*
X0482078Y0203119D03*
X0472078Y0203119D03*
X0462078Y0203119D03*
X0155228Y0182902D03*
M02*
