%
M48
M72
T01C0.02362
T02C0.03150
T03C0.04000
T04C0.04100
T05C0.04600
T06C0.11024
%
T01
X369401Y190944
X386901Y244694
X419401Y304694
X446901Y297194
X461901Y297194
X386901Y441544
X369401Y387794
X265050Y297194
X250050Y297194
X222550Y304694
X190050Y244694
X172550Y190944
X172550Y387794
X190050Y441544
X222550Y501544
X250050Y494044
X265050Y494044
X419401Y501544
X446901Y494044
X461901Y494044
T02
X240228Y165619
X240228Y175619
X240228Y185619
X240228Y195619
X240228Y205619
X240228Y215619
X240228Y225619
X240228Y235619
X240228Y245619
X240228Y255619
X240228Y265619
X240228Y275619
X240228Y285619
X240228Y295619
X240228Y305619
X211665Y278119
X203791Y278119
X180228Y275619
X180228Y265619
X180228Y255619
X180228Y245619
X180228Y235619
X180228Y225619
X180228Y215619
X180228Y205619
X180228Y195619
X180228Y185619
X180228Y175619
X180228Y165619
X203417Y214556
X211291Y214556
X180228Y285619
X180228Y295619
X180228Y305619
X180228Y362469
X180228Y372469
X180228Y382469
X180228Y392469
X180228Y402469
X180228Y412469
X180228Y422469
X180228Y432469
X180228Y442469
X180228Y452469
X180228Y462469
X180228Y472469
X180228Y482469
X180228Y492469
X180228Y502469
X203791Y474969
X211665Y474969
X240228Y472469
X240228Y482469
X240228Y492469
X240228Y502469
X240228Y462469
X240228Y452469
X240228Y442469
X240228Y432469
X240228Y422469
X240228Y412469
X240228Y402469
X240228Y392469
X240228Y382469
X240228Y372469
X240228Y362469
X377078Y362469
X377078Y372469
X377078Y382469
X377078Y392469
X377078Y402469
X377078Y412469
X377078Y422469
X377078Y432469
X377078Y442469
X377078Y452469
X377078Y462469
X377078Y472469
X377078Y482469
X377078Y492469
X377078Y502469
X400641Y474969
X408515Y474969
X437078Y472469
X437078Y482469
X437078Y492469
X437078Y502469
X437078Y462469
X437078Y452469
X437078Y442469
X437078Y432469
X437078Y422469
X437078Y412469
X437078Y402469
X437078Y392469
X437078Y382469
X437078Y372469
X437078Y362469
X437078Y305619
X437078Y295619
X437078Y285619
X437078Y275619
X437078Y265619
X437078Y255619
X437078Y245619
X437078Y235619
X437078Y225619
X437078Y215619
X437078Y205619
X437078Y195619
X437078Y185619
X437078Y175619
X437078Y165619
X408141Y214556
X400267Y214556
X377078Y215619
X377078Y205619
X377078Y195619
X377078Y185619
X377078Y175619
X377078Y165619
X377078Y225619
X377078Y235619
X377078Y245619
X377078Y255619
X377078Y265619
X377078Y275619
X377078Y285619
X377078Y295619
X377078Y305619
X400641Y278119
X408515Y278119
X408141Y411406
X400267Y411406
X211291Y411406
X203417Y411406
T03
X285533Y183035
X285533Y193035
X285228Y203119
X285228Y213119
X285228Y223119
X285228Y233119
X285228Y243119
X285228Y253119
X285228Y263119
X285228Y273119
X275228Y273119
X265228Y273119
X265228Y263119
X275228Y263119
X275228Y253119
X265228Y253119
X265228Y243119
X275228Y243119
X275228Y233119
X265228Y233119
X265228Y223119
X275228Y223119
X275228Y213119
X265228Y213119
X265228Y203119
X265395Y193247
X275523Y193153
X275228Y203119
X275523Y183153
X265395Y183247
X322078Y182902
X332078Y182902
X342078Y182902
X352078Y182902
X352078Y211643
X342078Y211643
X332078Y211643
X322078Y211643
X322078Y240383
X332078Y240383
X342078Y240383
X352078Y240383
X352078Y269123
X342078Y269123
X332078Y269123
X322078Y269123
X321891Y297863
X331891Y297863
X341891Y297863
X351891Y297863
X352078Y326603
X342078Y326603
X332078Y326603
X322078Y326603
X285533Y379886
X285533Y389886
X275523Y390004
X275523Y380004
X265395Y380097
X265395Y390097
X265228Y399969
X275228Y399969
X285228Y399969
X285228Y409969
X285228Y419969
X285228Y429969
X285228Y439969
X285228Y449969
X285228Y459969
X285228Y469969
X275228Y469969
X265228Y469969
X265228Y459969
X275228Y459969
X275228Y449969
X265228Y449969
X265228Y439969
X275228Y439969
X275228Y429969
X265228Y429969
X265228Y419969
X275228Y419969
X275228Y409969
X265228Y409969
X322078Y408493
X332078Y408493
X342078Y408493
X352078Y408493
X352078Y379753
X342078Y379753
X332078Y379753
X322078Y379753
X244165Y343119
X234165Y343119
X207728Y343119
X207728Y333119
X197728Y333119
X197728Y343119
X187728Y343119
X187728Y333119
X155228Y326603
X145228Y326603
X135228Y326603
X125228Y326603
X125228Y379753
X135228Y379753
X145228Y379753
X155228Y379753
X155228Y408493
X145228Y408493
X135228Y408493
X125228Y408493
X125228Y437233
X135228Y437233
X145228Y437233
X155228Y437233
X155228Y465973
X145228Y465973
X135228Y465973
X125228Y465973
X125041Y494713
X135041Y494713
X145041Y494713
X155041Y494713
X155228Y523454
X145228Y523454
X135228Y523454
X125228Y523454
X187728Y529969
X187728Y539969
X197728Y539969
X207728Y539969
X207728Y529969
X197728Y529969
X234165Y539969
X244165Y539969
X322078Y523454
X332078Y523454
X342078Y523454
X352078Y523454
X351891Y494713
X341891Y494713
X331891Y494713
X321891Y494713
X322078Y465973
X332078Y465973
X342078Y465973
X352078Y465973
X352078Y437233
X342078Y437233
X332078Y437233
X322078Y437233
X384578Y529969
X394578Y529969
X394578Y539969
X384578Y539969
X404578Y539969
X404578Y529969
X431015Y539969
X441015Y539969
X462078Y469969
X462078Y459969
X462078Y449969
X462078Y439969
X462078Y429969
X462078Y419969
X462078Y409969
X462078Y399969
X462245Y390097
X462245Y380097
X472373Y380004
X472373Y390004
X482383Y389886
X482383Y379886
X482078Y399969
X472078Y399969
X472078Y409969
X482078Y409969
X482078Y419969
X472078Y419969
X472078Y429969
X482078Y429969
X482078Y439969
X472078Y439969
X472078Y449969
X482078Y449969
X482078Y459969
X472078Y459969
X472078Y469969
X482078Y469969
X441015Y343119
X431015Y343119
X404578Y343119
X404578Y333119
X394578Y333119
X394578Y343119
X384578Y343119
X384578Y333119
X462078Y273119
X472078Y273119
X482078Y273119
X482078Y263119
X472078Y263119
X472078Y253119
X482078Y253119
X482078Y243119
X472078Y243119
X472078Y233119
X482078Y233119
X482078Y223119
X472078Y223119
X472078Y213119
X482078Y213119
X482078Y203119
X472078Y203119
X472373Y193153
X482383Y193035
X482383Y183035
X472373Y183153
X462245Y183247
X462245Y193247
X462078Y203119
X462078Y213119
X462078Y223119
X462078Y233119
X462078Y243119
X462078Y253119
X462078Y263119
X155228Y269123
X145228Y269123
X135228Y269123
X125228Y269123
X125228Y240383
X135228Y240383
X145228Y240383
X155228Y240383
X155228Y211643
X145228Y211643
X135228Y211643
X125228Y211643
X125228Y182902
X135228Y182902
X145228Y182902
X155228Y182902
X125041Y297863
X135041Y297863
X145041Y297863
X155041Y297863
T04
X225228Y290619
X225228Y325619
X422078Y325619
X422078Y290619
X422078Y487469
X422078Y522469
X225228Y522469
X225228Y487469
T05
X274854Y301839
X274854Y321524
X274854Y498690
X274854Y518375
X471704Y301839
X471704Y321524
X471704Y498690
X471704Y518375
T06
X118043Y539202
X295208Y539202
X314893Y539202
X492058Y539202
X492058Y362036
X492058Y165186
X314893Y165186
X295208Y165186
X118043Y165186
X118043Y342351
X118043Y362036
X295208Y362036
X295208Y342351
X314893Y342351
X314893Y362036
X492058Y342351
M30
